<svg xmlns="http://www.w3.org/2000/svg" xmlns:xlink="http://www.w3.org/1999/xlink" viewBox="0 0 500 500" width="500" height="500" preserveAspectRatio="xMidYMid meet" style="width: 100%; height: 100%; transform: translate3d(0px, 0px, 0px); content-visibility: visible;"><defs><clipPath id="__lottie_element_5593"><rect width="500" height="500" x="0" y="0"/></clipPath><clipPath id="__lottie_element_5595"><path d="M0,0 L500,0 L500,500 L0,500z"/></clipPath></defs><g clip-path="url(#__lottie_element_5593)"><g clip-path="url(#__lottie_element_5595)" transform="matrix(1,0,0,1,0,0)" opacity="1" style="display: block;"><g class="primary design" transform="matrix(1,0,0,1,0,0)" opacity="1" style="display: block;"><g opacity="1" transform="matrix(1,0,0,1,343.75299072265625,130.20199584960938)"><path class="primary" fill="rgb(0,0,0)" fill-opacity="1" d=" M41.66699981689453,67.73400115966797 C41.66699981689453,67.73400115966797 -3.190000057220459,67.73400115966797 -3.190000057220459,67.73400115966797 C-33.0359992980957,67.73400115966797 -57.31700134277344,43.452999114990234 -57.31700134277344,13.607999801635742 C-57.31700134277344,13.607999801635742 -57.31700134277344,-13.607000350952148 -57.31700134277344,-13.607000350952148 C-57.31700134277344,-43.452999114990234 -33.0359992980957,-67.73400115966797 -3.190000057220459,-67.73400115966797 C-3.190000057220459,-67.73400115966797 3.191999912261963,-67.73400115966797 3.191999912261963,-67.73400115966797 C33.0369987487793,-67.73400115966797 57.31700134277344,-43.452999114990234 57.31700134277344,-13.607000350952148 C57.31700134277344,-13.607000350952148 57.31700134277344,52.08399963378906 57.31700134277344,52.08399963378906 C57.31700134277344,60.72700119018555 50.31100082397461,67.73400115966797 41.66699981689453,67.73400115966797z M-3.190000057220459,-36.433998107910156 C-15.777000427246094,-36.433998107910156 -26.016000747680664,-26.19300079345703 -26.016000747680664,-13.607000350952148 C-26.016000747680664,-13.607000350952148 -26.016000747680664,13.607999801635742 -26.016000747680664,13.607999801635742 C-26.016000747680664,26.194000244140625 -15.777000427246094,36.433998107910156 -3.190000057220459,36.433998107910156 C-3.190000057220459,36.433998107910156 26.016000747680664,36.433998107910156 26.016000747680664,36.433998107910156 C26.016000747680664,36.433998107910156 26.016000747680664,-13.607000350952148 26.016000747680664,-13.607000350952148 C26.016000747680664,-26.19300079345703 15.777999877929688,-36.433998107910156 3.191999912261963,-36.433998107910156 C3.191999912261963,-36.433998107910156 -3.190000057220459,-36.433998107910156 -3.190000057220459,-36.433998107910156z"/></g><g opacity="1" transform="matrix(1,0,0,1,151.04400634765625,130.20199584960938)"><path class="primary" fill="rgb(0,0,0)" fill-opacity="1" d=" M41.66699981689453,67.73400115966797 C41.66699981689453,67.73400115966797 -3.190000057220459,67.73400115966797 -3.190000057220459,67.73400115966797 C-33.0359992980957,67.73400115966797 -57.31700134277344,43.452999114990234 -57.31700134277344,13.607999801635742 C-57.31700134277344,13.607999801635742 -57.31700134277344,-13.607000350952148 -57.31700134277344,-13.607000350952148 C-57.31700134277344,-43.452999114990234 -33.0359992980957,-67.73400115966797 -3.190000057220459,-67.73400115966797 C-3.190000057220459,-67.73400115966797 3.190999984741211,-67.73400115966797 3.190999984741211,-67.73400115966797 C33.0359992980957,-67.73400115966797 57.31700134277344,-43.452999114990234 57.31700134277344,-13.607000350952148 C57.31700134277344,-13.607000350952148 57.31700134277344,52.08399963378906 57.31700134277344,52.08399963378906 C57.31700134277344,60.72700119018555 50.31100082397461,67.73400115966797 41.66699981689453,67.73400115966797z M-3.190000057220459,-36.433998107910156 C-15.777000427246094,-36.433998107910156 -26.017000198364258,-26.19300079345703 -26.017000198364258,-13.607000350952148 C-26.017000198364258,-13.607000350952148 -26.017000198364258,13.607999801635742 -26.017000198364258,13.607999801635742 C-26.017000198364258,26.194000244140625 -15.777000427246094,36.433998107910156 -3.190000057220459,36.433998107910156 C-3.190000057220459,36.433998107910156 26.017000198364258,36.433998107910156 26.017000198364258,36.433998107910156 C26.017000198364258,36.433998107910156 26.017000198364258,-13.607000350952148 26.017000198364258,-13.607000350952148 C26.017000198364258,-26.19300079345703 15.777000427246094,-36.433998107910156 3.190999984741211,-36.433998107910156 C3.190999984741211,-36.433998107910156 -3.190000057220459,-36.433998107910156 -3.190000057220459,-36.433998107910156z"/></g><g opacity="1" transform="matrix(1,0,0,1,250.0030059814453,265.6199951171875)"><path class="primary" fill="rgb(0,0,0)" fill-opacity="1" d=" M41.66699981689453,67.73300170898438 C41.66699981689453,67.73300170898438 -3.190000057220459,67.73300170898438 -3.190000057220459,67.73300170898438 C-33.0359992980957,67.73300170898438 -57.31700134277344,43.452999114990234 -57.31700134277344,13.607999801635742 C-57.31700134277344,13.607999801635742 -57.31700134277344,-13.607000350952148 -57.31700134277344,-13.607000350952148 C-57.31700134277344,-43.452999114990234 -33.0359992980957,-67.73300170898438 -3.190000057220459,-67.73300170898438 C-3.190000057220459,-67.73300170898438 3.190999984741211,-67.73300170898438 3.190999984741211,-67.73300170898438 C33.0359992980957,-67.73300170898438 57.31700134277344,-43.452999114990234 57.31700134277344,-13.607000350952148 C57.31700134277344,-13.607000350952148 57.31700134277344,52.08300018310547 57.31700134277344,52.08300018310547 C57.31700134277344,60.72600173950195 50.31100082397461,67.73300170898438 41.66699981689453,67.73300170898438z M-3.190000057220459,-36.433998107910156 C-15.777000427246094,-36.433998107910156 -26.017000198364258,-26.19300079345703 -26.017000198364258,-13.607000350952148 C-26.017000198364258,-13.607000350952148 -26.017000198364258,13.607999801635742 -26.017000198364258,13.607999801635742 C-26.017000198364258,26.194000244140625 -15.777000427246094,36.433998107910156 -3.190000057220459,36.433998107910156 C-3.190000057220459,36.433998107910156 26.017000198364258,36.433998107910156 26.017000198364258,36.433998107910156 C26.017000198364258,36.433998107910156 26.017000198364258,-13.607000350952148 26.017000198364258,-13.607000350952148 C26.017000198364258,-26.19300079345703 15.777000427246094,-36.433998107910156 3.190999984741211,-36.433998107910156 C3.190999984741211,-36.433998107910156 -3.190000057220459,-36.433998107910156 -3.190000057220459,-36.433998107910156z"/></g><g opacity="1" transform="matrix(1,0,0,1,250.00399780273438,406.24200439453125)"><path class="primary" fill="rgb(0,0,0)" fill-opacity="1" d=" M109.375,52.11000061035156 C109.375,52.11000061035156 -109.375,52.11000061035156 -109.375,52.11000061035156 C-118.01899719238281,52.11000061035156 -125.0250015258789,45.10300064086914 -125.0250015258789,36.459999084472656 C-125.0250015258789,36.459999084472656 -125.0250015258789,26.041000366210938 -125.0250015258789,26.041000366210938 C-125.0250015258789,-17.051000595092773 -89.96700286865234,-52.11000061035156 -46.875,-52.11000061035156 C-46.875,-52.11000061035156 46.874000549316406,-52.11000061035156 46.874000549316406,-52.11000061035156 C89.96700286865234,-52.11000061035156 125.0250015258789,-17.051000595092773 125.0250015258789,26.041000366210938 C125.0250015258789,26.041000366210938 125.0250015258789,36.459999084472656 125.0250015258789,36.459999084472656 C125.0250015258789,45.10300064086914 118.01899719238281,52.11000061035156 109.375,52.11000061035156z M-93.43499755859375,20.809999465942383 C-93.43499755859375,20.809999465942383 93.43499755859375,20.809999465942383 93.43499755859375,20.809999465942383 C90.8270034790039,-2.571000099182129 70.94000244140625,-20.809999465942383 46.874000549316406,-20.809999465942383 C46.874000549316406,-20.809999465942383 -46.875,-20.809999465942383 -46.875,-20.809999465942383 C-70.94000244140625,-20.809999465942383 -90.8270034790039,-2.571000099182129 -93.43499755859375,20.809999465942383z"/></g><g opacity="1" transform="matrix(1,0,0,1,104.16899871826172,270.8290100097656)"><path class="primary" fill="rgb(0,0,0)" fill-opacity="1" d=" M46.875,52.108001708984375 C46.875,52.108001708984375 -46.875,52.108001708984375 -46.875,52.108001708984375 C-55.51900100708008,52.108001708984375 -62.5260009765625,45.10100173950195 -62.5260009765625,36.45800018310547 C-62.5260009765625,36.45800018310547 -62.5260009765625,26.04199981689453 -62.5260009765625,26.04199981689453 C-62.5260009765625,-17.049999237060547 -27.468000411987305,-52.108001708984375 15.625,-52.108001708984375 C15.625,-52.108001708984375 46.875,-52.108001708984375 46.875,-52.108001708984375 C55.51900100708008,-52.108001708984375 62.5260009765625,-45.10100173950195 62.5260009765625,-36.45800018310547 C62.5260009765625,-27.815000534057617 55.51900100708008,-20.80900001525879 46.875,-20.80900001525879 C46.875,-20.80900001525879 15.625,-20.80900001525879 15.625,-20.80900001525879 C-8.439000129699707,-20.80900001525879 -28.325000762939453,-2.569999933242798 -30.934999465942383,20.80900001525879 C-30.934999465942383,20.80900001525879 46.875,20.80900001525879 46.875,20.80900001525879 C55.51900100708008,20.80900001525879 62.5260009765625,27.815000534057617 62.5260009765625,36.45800018310547 C62.5260009765625,45.10100173950195 55.51900100708008,52.108001708984375 46.875,52.108001708984375z"/></g><g opacity="1" transform="matrix(1,0,0,1,395.8370056152344,270.82598876953125)"><path class="primary" fill="rgb(0,0,0)" fill-opacity="1" d=" M46.875,52.108001708984375 C46.875,52.108001708984375 -46.875,52.108001708984375 -46.875,52.108001708984375 C-55.51900100708008,52.108001708984375 -62.5260009765625,45.10100173950195 -62.5260009765625,36.45800018310547 C-62.5260009765625,27.815000534057617 -55.51900100708008,20.80900001525879 -46.875,20.80900001525879 C-46.875,20.80900001525879 30.934999465942383,20.80900001525879 30.934999465942383,20.80900001525879 C28.325000762939453,-2.569999933242798 8.439000129699707,-20.80900001525879 -15.625,-20.80900001525879 C-15.625,-20.80900001525879 -46.875,-20.80900001525879 -46.875,-20.80900001525879 C-55.51900100708008,-20.80900001525879 -62.5260009765625,-27.815000534057617 -62.5260009765625,-36.45800018310547 C-62.5260009765625,-45.10100173950195 -55.51900100708008,-52.108001708984375 -46.875,-52.108001708984375 C-46.875,-52.108001708984375 -15.625,-52.108001708984375 -15.625,-52.108001708984375 C27.466999053955078,-52.108001708984375 62.5260009765625,-17.049999237060547 62.5260009765625,26.04199981689453 C62.5260009765625,26.04199981689453 62.5260009765625,36.45800018310547 62.5260009765625,36.45800018310547 C62.5260009765625,45.10100173950195 55.51900100708008,52.108001708984375 46.875,52.108001708984375z"/></g></g></g></g></svg>