<svg xmlns="http://www.w3.org/2000/svg" xmlns:xlink="http://www.w3.org/1999/xlink" viewBox="0 0 500 500" width="500" height="500" preserveAspectRatio="xMidYMid meet" style="width: 100%; height: 100%; transform: translate3d(0px, 0px, 0px); content-visibility: visible;"><defs><clipPath id="__lottie_element_7400"><rect width="500" height="500" x="0" y="0"/></clipPath><clipPath id="__lottie_element_7402"><path d="M0,0 L500,0 L500,500 L0,500z"/></clipPath></defs><g clip-path="url(#__lottie_element_7400)"><g clip-path="url(#__lottie_element_7402)" transform="matrix(1,0,0,1,0,0)" opacity="1" style="display: block;"><g class="primary design" transform="matrix(1,0,0,1,0,0)" opacity="1" style="display: block;"><g opacity="1" transform="matrix(1,0,0,1,250.04600524902344,250)"><path class="primary" fill="rgb(0,0,0)" fill-opacity="1" d=" M-83.33300018310547,62.5 C-83.33300018310547,51.04199981689453 -92.70899963378906,41.66699981689453 -104.16699981689453,41.66699981689453 C-104.16699981689453,41.66699981689453 -165.83399963378906,41.66699981689453 -165.83399963378906,41.66699981689453 C-161.66700744628906,17.91699981689453 -141.875,0 -125,0 C-125,0 -104.16699981689453,0 -104.16699981689453,0 C-92.70899963378906,0 -83.33300018310547,-9.375 -83.33300018310547,-20.83300018310547 C-83.33300018310547,-32.29100036621094 -92.70899963378906,-41.66699981689453 -104.16699981689453,-41.66699981689453 C-104.16699981689453,-41.66699981689453 -125,-41.66699981689453 -125,-41.66699981689453 C-169.375,-41.66699981689453 -208.33299255371094,1.4579999446868896 -208.33299255371094,50.83300018310547 C-208.33299255371094,50.83300018310547 -208.33299255371094,62.5 -208.33299255371094,62.5 C-208.33299255371094,73.95800018310547 -198.95799255371094,83.33300018310547 -187.5,83.33300018310547 C-187.5,83.33300018310547 -104.16699981689453,83.33300018310547 -104.16699981689453,83.33300018310547 C-92.70899963378906,83.33300018310547 -83.33300018310547,73.95800018310547 -83.33300018310547,62.5z M-93.75,-62.5 C-93.75,-62.5 -62.5,-62.5 -62.5,-62.5 C-51.04199981689453,-62.5 -41.66699981689453,-71.875 -41.66699981689453,-83.33300018310547 C-41.66699981689453,-83.33300018310547 -41.66699981689453,-135.41700744628906 -41.66699981689453,-135.41700744628906 C-41.66699981689453,-164.16700744628906 -65,-187.5 -93.75,-187.5 C-122.5,-187.5 -145.83299255371094,-164.16700744628906 -145.83299255371094,-135.41700744628906 C-145.83299255371094,-135.41700744628906 -145.83299255371094,-114.58300018310547 -145.83299255371094,-114.58300018310547 C-145.83299255371094,-85.83300018310547 -122.5,-62.5 -93.75,-62.5z M93.75,-62.5 C93.75,-62.5 125,-62.5 125,-62.5 C136.45799255371094,-62.5 145.83299255371094,-71.875 145.83299255371094,-83.33300018310547 C145.83299255371094,-83.33300018310547 145.83299255371094,-135.41700744628906 145.83299255371094,-135.41700744628906 C145.83299255371094,-164.16700744628906 122.5,-187.5 93.75,-187.5 C65,-187.5 41.66699981689453,-164.16700744628906 41.66699981689453,-135.41700744628906 C41.66699981689453,-135.41700744628906 41.66699981689453,-114.58300018310547 41.66699981689453,-114.58300018310547 C41.66699981689453,-85.83300018310547 65,-62.5 93.75,-62.5z M125,-41.66699981689453 C125,-41.66699981689453 104.16699981689453,-41.66699981689453 104.16699981689453,-41.66699981689453 C92.70899963378906,-41.66699981689453 83.33300018310547,-32.29100036621094 83.33300018310547,-20.83300018310547 C83.33300018310547,-9.375 92.70899963378906,0 104.16699981689453,0 C104.16699981689453,0 125,0 125,0 C141.66600036621094,0 161.66700744628906,17.91699981689453 165.83399963378906,41.66699981689453 C165.83399963378906,41.66699981689453 104.16699981689453,41.66699981689453 104.16699981689453,41.66699981689453 C92.70899963378906,41.66699981689453 83.33300018310547,51.04199981689453 83.33300018310547,62.5 C83.33300018310547,73.95800018310547 92.70899963378906,83.33300018310547 104.16699981689453,83.33300018310547 C104.16699981689453,83.33300018310547 187.5,83.33300018310547 187.5,83.33300018310547 C198.95799255371094,83.33300018310547 208.33299255371094,73.95800018310547 208.33299255371094,62.5 C208.33299255371094,62.5 208.33299255371094,50.83300018310547 208.33299255371094,50.83300018310547 C208.33299255371094,1.4579999446868896 169.375,-41.66699981689453 125,-41.66699981689453z M41.66699981689453,104.16699981689453 C41.66699981689453,104.16699981689453 -41.66699981689453,104.16699981689453 -41.66699981689453,104.16699981689453 C-87.70899963378906,104.16699981689453 -125,141.45799255371094 -125,187.5 C-125,198.95799255371094 -115.625,208.33299255371094 -104.16699981689453,208.33299255371094 C-104.16699981689453,208.33299255371094 104.16699981689453,208.33299255371094 104.16699981689453,208.33299255371094 C115.625,208.33299255371094 125,198.95799255371094 125,187.5 C125,141.45799255371094 87.70899963378906,104.16699981689453 41.66699981689453,104.16699981689453z M-52.08300018310547,10.416999816894531 C-52.08300018310547,39.16699981689453 -28.75,62.5 0,62.5 C0,62.5 31.25,62.5 31.25,62.5 C42.70800018310547,62.5 52.08300018310547,53.125 52.08300018310547,41.66699981689453 C52.08300018310547,41.66699981689453 52.08300018310547,-10.416999816894531 52.08300018310547,-10.416999816894531 C52.08300018310547,-39.16699981689453 28.75,-62.5 0,-62.5 C-28.75,-62.5 -52.08300018310547,-39.16699981689453 -52.08300018310547,-10.416999816894531 C-52.08300018310547,-10.416999816894531 -52.08300018310547,10.416999816894531 -52.08300018310547,10.416999816894531z"/></g></g></g></g></svg>