<svg xmlns="http://www.w3.org/2000/svg" xmlns:xlink="http://www.w3.org/1999/xlink" viewBox="0 0 500 500" width="500" height="500" preserveAspectRatio="xMidYMid meet" style="width: 100%; height: 100%; transform: translate3d(0px, 0px, 0px); content-visibility: visible;"><defs><clipPath id="__lottie_element_361"><rect width="500" height="500" x="0" y="0"/></clipPath><clipPath id="__lottie_element_363"><path d="M0,0 L500,0 L500,500 L0,500z"/></clipPath><g id="__lottie_element_383"><g class="primary design" transform="matrix(0.99619460105896,0.0871569812297821,-0.0871569812297821,0.99619460105896,27.734237670898438,-15.129302978515625)" opacity="1" style="display: none;"><g opacity="1" transform="matrix(1,0,0,1,250.00399780273438,307.28900146484375)"><path class="primary" fill="rgb(0,0,0)" fill-opacity="1" d=" M-0.10400000214576721,0 C-0.10400000214576721,0 0.10400000214576721,0 0.10400000214576721,0"/><path stroke-linecap="round" stroke-linejoin="round" fill-opacity="0" class="primary" stroke="rgb(0,0,0)" stroke-opacity="1" stroke-width="61.73" d=" M-0.10400000214576721,0 C-0.10400000214576721,0 0.10400000214576721,0 0.10400000214576721,0"/></g><g opacity="1" transform="matrix(1,0,0,1,215.51300048828125,298.07598876953125)"><path stroke-linecap="round" stroke-linejoin="round" fill-opacity="0" class="primary" stroke="rgb(0,0,0)" stroke-opacity="1" stroke-width="41" d=" M-30.18400001525879,-7.072000026702881 C-30.18400001525879,-7.072000026702881 34.38600158691406,9.21399974822998 34.38600158691406,9.21399974822998"/></g></g></g><filter id="__lottie_element_386" filterUnits="objectBoundingBox" x="0%" y="0%" width="100%" height="100%"><feComponentTransfer in="SourceGraphic"><feFuncA type="table" tableValues="1.0 0.0"/></feComponentTransfer></filter><mask id="__lottie_element_383_2" mask-type="alpha"><g filter="url(#__lottie_element_386)"><rect width="500" height="500" x="0" y="0" fill="#ffffff" opacity="0"/><use xmlns:ns1="http://www.w3.org/1999/xlink" ns1:href="#__lottie_element_383"/></g></mask></defs><g clip-path="url(#__lottie_element_361)"><g clip-path="url(#__lottie_element_363)" transform="matrix(1,0,0,1,0,0)" opacity="1" style="display: block;"><g class="primary design" transform="matrix(20.829999923706055,0,0,20.829999923706055,250.0019989013672,250.0019989013672)" opacity="1" style="display: none;"><g opacity="1" transform="matrix(1,0,0,1,0,0)"><path class="primary" fill="rgb(0,0,0)" fill-opacity="1" d=" M9.609999656677246,0.75 C9.609999656677246,0.75 8.90999984741211,1 8.90999984741211,1 C8.90999984741211,1 8.369999885559082,1.190000057220459 8.369999885559082,1.190000057220459 C8.3100004196167,1.2100000381469727 8.25,1.2300000190734863 8.1899995803833,1.2400000095367432 C8.130000114440918,1.25 8.079999923706055,1.25 8.029999732971191,1.25 C7.619999885559082,1.25 7.230000019073486,0.9900000095367432 7.090000152587891,0.5899999737739563 C6.929999828338623,0.15000000596046448 7.090000152587891,-0.3199999928474426 7.460000038146973,-0.5699999928474426 C7.53000020980835,-0.6200000047683716 7.610000133514404,-0.6600000262260437 7.699999809265137,-0.6899999976158142 C7.699999809265137,-0.6899999976158142 8.170000076293945,-0.8600000143051147 8.170000076293945,-0.8600000143051147 C8.170000076293945,-0.8600000143051147 8.869999885559082,-1.1100000143051147 8.869999885559082,-1.1100000143051147 C7.349999904632568,-4.03000020980835 4.429999828338623,-6.110000133514404 1,-6.449999809265137 C1,-6.449999809265137 1,-5.690000057220459 1,-5.690000057220459 C1,-5.690000057220459 1,-5 1,-5 C1,-4.980000019073486 1,-4.960000038146973 0.9900000095367432,-4.940000057220459 C0.9700000286102295,-4.420000076293945 0.5400000214576721,-4 0,-4 C-0.5299999713897705,-4 -0.9700000286102295,-4.420000076293945 -0.9900000095367432,-4.940000057220459 C-1,-4.960000038146973 -1,-4.980000019073486 -1,-5 C-1,-5 -1,-5.690000057220459 -1,-5.690000057220459 C-1,-5.690000057220459 -1,-6.449999809265137 -1,-6.449999809265137 C-4.429999828338623,-6.110000133514404 -7.360000133514404,-4.019999980926514 -8.880000114440918,-1.100000023841858 C-8.880000114440918,-1.100000023841858 -8.170000076293945,-0.8500000238418579 -8.170000076293945,-0.8500000238418579 C-8.170000076293945,-0.8500000238418579 -7.730000019073486,-0.6899999976158142 -7.730000019073486,-0.6899999976158142 C-7.639999866485596,-0.6600000262260437 -7.550000190734863,-0.6100000143051147 -7.46999979019165,-0.550000011920929 C-7.119999885559082,-0.30000001192092896 -6.960000038146973,0.1599999964237213 -7.119999885559082,0.5899999737739563 C-7.260000228881836,0.9900000095367432 -7.650000095367432,1.25 -8.0600004196167,1.25 C-8.100000381469727,1.25 -8.149999618530273,1.25 -8.1899995803833,1.2400000095367432 C-8.260000228881836,1.2300000190734863 -8.329999923706055,1.2100000381469727 -8.399999618530273,1.190000057220459 C-8.399999618530273,1.190000057220459 -8.90999984741211,1.0099999904632568 -8.90999984741211,1.0099999904632568 C-8.90999984741211,1.0099999904632568 -9.609999656677246,0.7599999904632568 -9.609999656677246,0.7599999904632568 C-9.869999885559082,1.6299999952316284 -10,2.549999952316284 -10,3.5 C-10,3.5 -10,5.25 -10,5.25 C-10,6.210000038146973 -9.210000038146973,7 -8.25,7 C-8.25,7 8.25,7 8.25,7 C9.210000038146973,7 10,6.210000038146973 10,5.25 C10,5.25 10,3.5 10,3.5 C10,2.549999952316284 9.869999885559082,1.6200000047683716 9.609999656677246,0.75z M-0.7200000286102295,1.690000057220459 C-0.1599999964237213,1.399999976158142 0.6000000238418579,1.4800000190734863 1.0499999523162842,1.940000057220459 C1.3300000429153442,2.2200000286102295 1.4900000095367432,2.5999999046325684 1.4900000095367432,3 C1.4900000095367432,3.0999999046325684 1.4800000190734863,3.200000047683716 1.4700000286102295,3.2899999618530273 C1.4500000476837158,3.390000104904175 1.4199999570846558,3.4800000190734863 1.3799999952316284,3.569999933242798 C1.340000033378601,3.6600000858306885 1.2999999523162842,3.75 1.2400000095367432,3.8299999237060547 C1.190000057220459,3.9200000762939453 1.1200000047683716,3.990000009536743 1.0499999523162842,4.059999942779541 C0.7799999713897705,4.340000152587891 0.38999998569488525,4.5 -0.009999999776482582,4.5 C-0.4000000059604645,4.5 -0.7900000214576721,4.340000152587891 -1.0700000524520874,4.059999942779541 C-1.1399999856948853,3.990000009536743 -1.2000000476837158,3.9200000762939453 -1.25,3.8299999237060547 C-1.309999942779541,3.759999990463257 -1.340000033378601,3.6700000762939453 -1.3799999952316284,3.5899999141693115 C-1.3799999952316284,3.5899999141693115 -3.3299999237060547,2.9200000762939453 -3.3299999237060547,2.9200000762939453 C-3.8499999046325684,2.740000009536743 -4.119999885559082,2.1700000762939453 -3.950000047683716,1.649999976158142 C-3.7699999809265137,1.1200000047683716 -3.200000047683716,0.8399999737739563 -2.6700000762939453,1.0199999809265137 C-2.6700000762939453,1.0199999809265137 -0.7200000286102295,1.690000057220459 -0.7200000286102295,1.690000057220459z"/></g></g><g class="primary design" transform="matrix(20.829999923706055,0,0,20.829999923706055,250.0019989013672,250.0019989013672)" opacity="1" style="display: block;"><g opacity="1" transform="matrix(1,0,0,1,0,0)"><path class="primary" fill="rgb(0,0,0)" fill-opacity="1" d=" M9.609999656677246,0.75 C9.609999656677246,0.75 8.90999984741211,1 8.90999984741211,1 C8.90999984741211,1 8.369999885559082,1.190000057220459 8.369999885559082,1.190000057220459 C8.3100004196167,1.2100000381469727 8.25,1.2300000190734863 8.1899995803833,1.2400000095367432 C8.130000114440918,1.25 8.079999923706055,1.25 8.029999732971191,1.25 C7.619999885559082,1.25 7.230000019073486,0.9900000095367432 7.090000152587891,0.5899999737739563 C6.929999828338623,0.15000000596046448 7.090000152587891,-0.3199999928474426 7.460000038146973,-0.5699999928474426 C7.53000020980835,-0.6200000047683716 7.610000133514404,-0.6600000262260437 7.699999809265137,-0.6899999976158142 C7.699999809265137,-0.6899999976158142 8.170000076293945,-0.8600000143051147 8.170000076293945,-0.8600000143051147 C8.170000076293945,-0.8600000143051147 8.869999885559082,-1.1100000143051147 8.869999885559082,-1.1100000143051147 C7.349999904632568,-4.03000020980835 4.429999828338623,-6.110000133514404 1,-6.449999809265137 C1,-6.449999809265137 1,-5.690000057220459 1,-5.690000057220459 C1,-5.690000057220459 1,-5 1,-5 C1,-4.980000019073486 1,-4.960000038146973 0.9900000095367432,-4.940000057220459 C0.9700000286102295,-4.420000076293945 0.5400000214576721,-4 0,-4 C-0.5299999713897705,-4 -0.9700000286102295,-4.420000076293945 -0.9900000095367432,-4.940000057220459 C-1,-4.960000038146973 -1,-4.980000019073486 -1,-5 C-1,-5 -1,-5.690000057220459 -1,-5.690000057220459 C-1,-5.690000057220459 -1,-6.449999809265137 -1,-6.449999809265137 C-4.429999828338623,-6.110000133514404 -7.360000133514404,-4.019999980926514 -8.880000114440918,-1.100000023841858 C-8.880000114440918,-1.100000023841858 -8.170000076293945,-0.8500000238418579 -8.170000076293945,-0.8500000238418579 C-8.170000076293945,-0.8500000238418579 -7.730000019073486,-0.6899999976158142 -7.730000019073486,-0.6899999976158142 C-7.639999866485596,-0.6600000262260437 -7.550000190734863,-0.6100000143051147 -7.46999979019165,-0.550000011920929 C-7.119999885559082,-0.30000001192092896 -6.960000038146973,0.1599999964237213 -7.119999885559082,0.5899999737739563 C-7.260000228881836,0.9900000095367432 -7.650000095367432,1.25 -8.0600004196167,1.25 C-8.100000381469727,1.25 -8.149999618530273,1.25 -8.1899995803833,1.2400000095367432 C-8.260000228881836,1.2300000190734863 -8.329999923706055,1.2100000381469727 -8.399999618530273,1.190000057220459 C-8.399999618530273,1.190000057220459 -8.90999984741211,1.0099999904632568 -8.90999984741211,1.0099999904632568 C-8.90999984741211,1.0099999904632568 -9.609999656677246,0.7599999904632568 -9.609999656677246,0.7599999904632568 C-9.869999885559082,1.6299999952316284 -10,2.549999952316284 -10,3.5 C-10,3.5 -10,5.25 -10,5.25 C-10,6.210000038146973 -9.210000038146973,7 -8.25,7 C-8.25,7 8.25,7 8.25,7 C9.210000038146973,7 10,6.210000038146973 10,5.25 C10,5.25 10,3.5 10,3.5 C10,2.549999952316284 9.869999885559082,1.6200000047683716 9.609999656677246,0.75z M-0.7200000286102295,1.690000057220459 C-0.1599999964237213,1.399999976158142 0.6000000238418579,1.4800000190734863 1.0499999523162842,1.940000057220459 C1.3300000429153442,2.2200000286102295 1.4900000095367432,2.5999999046325684 1.4900000095367432,3 C1.4900000095367432,3.0999999046325684 1.4800000190734863,3.200000047683716 1.4700000286102295,3.2899999618530273 C1.4500000476837158,3.390000104904175 1.4199999570846558,3.4800000190734863 1.3799999952316284,3.569999933242798 C1.340000033378601,3.6600000858306885 1.2999999523162842,3.75 1.2400000095367432,3.8299999237060547 C1.190000057220459,3.9200000762939453 1.1200000047683716,3.990000009536743 1.0499999523162842,4.059999942779541 C0.7799999713897705,4.340000152587891 0.38999998569488525,4.5 -0.009999999776482582,4.5 C-0.4000000059604645,4.5 -0.7900000214576721,4.340000152587891 -1.0700000524520874,4.059999942779541 C-1.1399999856948853,3.990000009536743 -1.2000000476837158,3.9200000762939453 -1.25,3.8299999237060547 C-1.309999942779541,3.759999990463257 -1.340000033378601,3.6700000762939453 -1.3799999952316284,3.5899999141693115 C-1.3799999952316284,3.5899999141693115 -3.3299999237060547,2.9200000762939453 -3.3299999237060547,2.9200000762939453 C-3.8499999046325684,2.740000009536743 -4.119999885559082,2.1700000762939453 -3.950000047683716,1.649999976158142 C-3.7699999809265137,1.1200000047683716 -3.200000047683716,0.8399999737739563 -2.6700000762939453,1.0199999809265137 C-2.6700000762939453,1.0199999809265137 -0.7200000286102295,1.690000057220459 -0.7200000286102295,1.690000057220459z"/></g></g><g mask="url(#__lottie_element_383_2)" style="display: none;"><g class="primary design" transform="matrix(20.829999923706055,0,0,20.829999923706055,250.0019989013672,250.0019989013672)" opacity="1"><g opacity="1" transform="matrix(1,0,0,1,0,0)"><path class="primary" fill="rgb(0,0,0)" fill-opacity="1" d=" M9.609999656677246,0.75 C9.609999656677246,0.75 8.90999984741211,1 8.90999984741211,1 C8.90999984741211,1 8.369999885559082,1.190000057220459 8.369999885559082,1.190000057220459 C8.3100004196167,1.2100000381469727 8.25,1.2300000190734863 8.1899995803833,1.2400000095367432 C8.130000114440918,1.25 8.079999923706055,1.25 8.029999732971191,1.25 C7.619999885559082,1.25 7.230000019073486,0.9900000095367432 7.090000152587891,0.5899999737739563 C6.929999828338623,0.15000000596046448 7.090000152587891,-0.3199999928474426 7.460000038146973,-0.5699999928474426 C7.53000020980835,-0.6200000047683716 7.610000133514404,-0.6600000262260437 7.699999809265137,-0.6899999976158142 C7.699999809265137,-0.6899999976158142 8.170000076293945,-0.8600000143051147 8.170000076293945,-0.8600000143051147 C8.170000076293945,-0.8600000143051147 8.869999885559082,-1.1100000143051147 8.869999885559082,-1.1100000143051147 C7.349999904632568,-4.03000020980835 4.429999828338623,-6.110000133514404 1,-6.449999809265137 C1,-6.449999809265137 1,-5.690000057220459 1,-5.690000057220459 C1,-5.690000057220459 1,-5 1,-5 C1,-4.980000019073486 1,-4.960000038146973 0.9900000095367432,-4.940000057220459 C0.9700000286102295,-4.420000076293945 0.5400000214576721,-4 0,-4 C-0.5299999713897705,-4 -0.9700000286102295,-4.420000076293945 -0.9900000095367432,-4.940000057220459 C-1,-4.960000038146973 -1,-4.980000019073486 -1,-5 C-1,-5 -1,-5.690000057220459 -1,-5.690000057220459 C-1,-5.690000057220459 -1,-6.449999809265137 -1,-6.449999809265137 C-4.429999828338623,-6.110000133514404 -7.360000133514404,-4.019999980926514 -8.880000114440918,-1.100000023841858 C-8.880000114440918,-1.100000023841858 -8.170000076293945,-0.8500000238418579 -8.170000076293945,-0.8500000238418579 C-8.170000076293945,-0.8500000238418579 -7.730000019073486,-0.6899999976158142 -7.730000019073486,-0.6899999976158142 C-7.639999866485596,-0.6600000262260437 -7.550000190734863,-0.6100000143051147 -7.46999979019165,-0.550000011920929 C-7.119999885559082,-0.30000001192092896 -6.960000038146973,0.1599999964237213 -7.119999885559082,0.5899999737739563 C-7.260000228881836,0.9900000095367432 -7.650000095367432,1.25 -8.0600004196167,1.25 C-8.100000381469727,1.25 -8.149999618530273,1.25 -8.1899995803833,1.2400000095367432 C-8.260000228881836,1.2300000190734863 -8.329999923706055,1.2100000381469727 -8.399999618530273,1.190000057220459 C-8.399999618530273,1.190000057220459 -8.90999984741211,1.0099999904632568 -8.90999984741211,1.0099999904632568 C-8.90999984741211,1.0099999904632568 -9.609999656677246,0.7599999904632568 -9.609999656677246,0.7599999904632568 C-9.869999885559082,1.6299999952316284 -10,2.549999952316284 -10,3.5 C-10,3.5 -10,5.25 -10,5.25 C-10,6.210000038146973 -9.210000038146973,7 -8.25,7 C-8.25,7 8.25,7 8.25,7 C9.210000038146973,7 10,6.210000038146973 10,5.25 C10,5.25 10,3.5 10,3.5 C10,2.549999952316284 9.869999885559082,1.6200000047683716 9.609999656677246,0.75z"/></g></g></g></g></g></svg>