<svg xmlns="http://www.w3.org/2000/svg" xmlns:xlink="http://www.w3.org/1999/xlink" viewBox="0 0 500 500" width="500" height="500" preserveAspectRatio="xMidYMid meet" style="width: 100%; height: 100%; transform: translate3d(0px, 0px, 0px); content-visibility: visible;"><defs><clipPath id="__lottie_element_290"><rect width="500" height="500" x="0" y="0"/></clipPath><clipPath id="__lottie_element_292"><path d="M0,0 L500,0 L500,500 L0,500z"/></clipPath></defs><g clip-path="url(#__lottie_element_290)"><g clip-path="url(#__lottie_element_292)" transform="matrix(1,0,0,1,0,0)" opacity="1" style="display: block;"><g class="primary design" transform="matrix(20.829999923706055,0,0,20.829999923706055,-4957.498046875,-4957.49853515625)" opacity="1" style="display: none;"><g opacity="1" transform="matrix(1,0,0,1,248.61199951171875,252.5570068359375)"><path class="primary" fill="rgb(0,0,0)" fill-opacity="1" d=" M1.3980000019073486,-1.0570000410079956 C1.3980000019073486,-1.0570000410079956 1.3980000019073486,-1.0570000410079956 1.3980000019073486,-1.0570000410079956 C1.0980000495910645,-1.0570000410079956 0.8479999899864197,-0.9470000267028809 0.6480000019073486,-0.7870000004768372 C0.6480000019073486,-0.7870000004768372 -1.7120000123977661,-1.4170000553131104 -1.7120000123977661,-1.4170000553131104 C-2.121999979019165,-1.5269999504089355 -2.5220000743865967,-1.2869999408721924 -2.631999969482422,-0.8870000243186951 C-2.742000102996826,-0.4869999885559082 -2.502000093460083,-0.07699999958276749 -2.1019999980926514,0.032999999821186066 C-2.1019999980926514,0.032999999821186066 0.24799999594688416,0.6629999876022339 0.24799999594688416,0.6629999876022339 C0.43799999356269836,1.1230000257492065 0.8880000114440918,1.4429999589920044 1.4079999923706055,1.4429999589920044 C2.0980000495910645,1.4429999589920044 2.6579999923706055,0.8830000162124634 2.6579999923706055,0.19300000369548798 C2.6579999923706055,-0.4970000088214874 2.0880000591278076,-1.0570000410079956 1.3980000019073486,-1.0570000410079956z"/></g><g opacity="1" transform="matrix(1,0,0,1,250,250.25)"><path class="primary" fill="rgb(0,0,0)" fill-opacity="1" d=" M9.449999809265137,-0.019999999552965164 C9.4399995803833,-0.05000000074505806 9.430000305175781,-0.05999999865889549 9.420000076293945,-0.09000000357627869 C8.029999732971191,-3.9700000286102295 4.340000152587891,-6.75 0,-6.75 C0,-6.75 0,-6.75 0,-6.75 C0,-6.75 0,-6.75 0,-6.75 C-4.360000133514404,-6.75 -8.0600004196167,-3.940000057220459 -9.430000305175781,-0.05000000074505806 C-9.430000305175781,-0.03999999910593033 -9.4399995803833,-0.03999999910593033 -9.4399995803833,-0.029999999329447746 C-9.4399995803833,-0.029999999329447746 -9.4399995803833,-0.019999999552965164 -9.4399995803833,-0.019999999552965164 C-9.800000190734863,1.0099999904632568 -10,2.109999895095825 -10,3.25 C-10,3.25 -10,6 -10,6 C-10,6.409999847412109 -9.65999984741211,6.75 -9.25,6.75 C-9.25,6.75 9.25,6.75 9.25,6.75 C9.65999984741211,6.75 10,6.409999847412109 10,6 C10,6 10,3.25 10,3.25 C10,2.109999895095825 9.800000190734863,1.0199999809265137 9.449999809265137,0.009999999776482582 C9.449999809265137,0 9.449999809265137,-0.009999999776482582 9.449999809265137,-0.019999999552965164z M8.5,5.25 C8.5,5.25 -8.5,5.25 -8.5,5.25 C-8.5,5.25 -8.5,3.25 -8.5,3.25 C-8.5,2.5 -8.390000343322754,1.7799999713897705 -8.210000038146973,1.0800000429153442 C-8.210000038146973,1.0800000429153442 -7.190000057220459,1.350000023841858 -7.190000057220459,1.350000023841858 C-7.130000114440918,1.3700000047683716 -7.059999942779541,1.3799999952316284 -7,1.3799999952316284 C-6.670000076293945,1.3799999952316284 -6.369999885559082,1.159999966621399 -6.28000020980835,0.8199999928474426 C-6.170000076293945,0.41999998688697815 -6.409999847412109,0.009999999776482582 -6.809999942779541,-0.10000000149011612 C-6.809999942779541,-0.10000000149011612 -7.699999809265137,-0.33000001311302185 -7.699999809265137,-0.33000001311302185 C-6.440000057220459,-3.009999990463257 -3.8299999237060547,-4.940000057220459 -0.75,-5.210000038146973 C-0.75,-5.210000038146973 -0.75,-3.930000066757202 -0.75,-3.930000066757202 C-0.75,-3.5199999809265137 -0.4099999964237213,-3.180000066757202 0,-3.180000066757202 C0,-3.180000066757202 0,-3.180000066757202 0,-3.180000066757202 C0.4099999964237213,-3.180000066757202 0.75,-3.5199999809265137 0.75,-3.930000066757202 C0.75,-3.930000066757202 0.75,-5.199999809265137 0.75,-5.199999809265137 C3.8299999237060547,-4.929999828338623 6.440000057220459,-3 7.690000057220459,-0.3199999928474426 C7.690000057220459,-0.3199999928474426 6.800000190734863,-0.07999999821186066 6.800000190734863,-0.07999999821186066 C6.400000095367432,0.029999999329447746 6.159999847412109,0.4399999976158142 6.269999980926514,0.8399999737739563 C6.360000133514404,1.1799999475479126 6.659999847412109,1.399999976158142 6.989999771118164,1.399999976158142 C7.050000190734863,1.399999976158142 7.119999885559082,1.3899999856948853 7.179999828338623,1.3700000047683716 C7.179999828338623,1.3700000047683716 8.1899995803833,1.100000023841858 8.1899995803833,1.100000023841858 C8.369999885559082,1.7899999618530273 8.479999542236328,2.5199999809265137 8.479999542236328,3.2699999809265137 C8.479999542236328,3.2699999809265137 8.479999542236328,5.25 8.479999542236328,5.25 C8.479999542236328,5.25 8.5,5.25 8.5,5.25z"/></g></g><g class="primary design" transform="matrix(20.829999923706055,0,0,20.829999923706055,-4957.498046875,-4957.49853515625)" opacity="1" style="display: block;"><g opacity="1" transform="matrix(1,0,0,1,248.61199951171875,252.5570068359375)"><path class="primary" fill="rgb(0,0,0)" fill-opacity="1" d=" M1.3980000019073486,-1.0570000410079956 C1.3980000019073486,-1.0570000410079956 1.3980000019073486,-1.0570000410079956 1.3980000019073486,-1.0570000410079956 C1.0980000495910645,-1.0570000410079956 0.8479999899864197,-0.9470000267028809 0.6480000019073486,-0.7870000004768372 C0.6480000019073486,-0.7870000004768372 -1.7120000123977661,-1.4170000553131104 -1.7120000123977661,-1.4170000553131104 C-2.121999979019165,-1.5269999504089355 -2.5220000743865967,-1.2869999408721924 -2.631999969482422,-0.8870000243186951 C-2.742000102996826,-0.4869999885559082 -2.502000093460083,-0.07699999958276749 -2.1019999980926514,0.032999999821186066 C-2.1019999980926514,0.032999999821186066 0.24799999594688416,0.6629999876022339 0.24799999594688416,0.6629999876022339 C0.43799999356269836,1.1230000257492065 0.8880000114440918,1.4429999589920044 1.4079999923706055,1.4429999589920044 C2.0980000495910645,1.4429999589920044 2.6579999923706055,0.8830000162124634 2.6579999923706055,0.19300000369548798 C2.6579999923706055,-0.4970000088214874 2.0880000591278076,-1.0570000410079956 1.3980000019073486,-1.0570000410079956z"/></g><g opacity="1" transform="matrix(1,0,0,1,250,250.25)"><path class="primary" fill="rgb(0,0,0)" fill-opacity="1" d=" M9.449999809265137,-0.019999999552965164 C9.4399995803833,-0.05000000074505806 9.430000305175781,-0.05999999865889549 9.420000076293945,-0.09000000357627869 C8.029999732971191,-3.9700000286102295 4.340000152587891,-6.75 0,-6.75 C0,-6.75 0,-6.75 0,-6.75 C0,-6.75 0,-6.75 0,-6.75 C-4.360000133514404,-6.75 -8.0600004196167,-3.940000057220459 -9.430000305175781,-0.05000000074505806 C-9.430000305175781,-0.03999999910593033 -9.4399995803833,-0.03999999910593033 -9.4399995803833,-0.029999999329447746 C-9.4399995803833,-0.029999999329447746 -9.4399995803833,-0.019999999552965164 -9.4399995803833,-0.019999999552965164 C-9.800000190734863,1.0099999904632568 -10,2.109999895095825 -10,3.25 C-10,3.25 -10,6 -10,6 C-10,6.409999847412109 -9.65999984741211,6.75 -9.25,6.75 C-9.25,6.75 9.25,6.75 9.25,6.75 C9.65999984741211,6.75 10,6.409999847412109 10,6 C10,6 10,3.25 10,3.25 C10,2.109999895095825 9.800000190734863,1.0199999809265137 9.449999809265137,0.009999999776482582 C9.449999809265137,0 9.449999809265137,-0.009999999776482582 9.449999809265137,-0.019999999552965164z M8.5,5.25 C8.5,5.25 -8.5,5.25 -8.5,5.25 C-8.5,5.25 -8.5,3.25 -8.5,3.25 C-8.5,2.5 -8.390000343322754,1.7799999713897705 -8.210000038146973,1.0800000429153442 C-8.210000038146973,1.0800000429153442 -7.190000057220459,1.350000023841858 -7.190000057220459,1.350000023841858 C-7.130000114440918,1.3700000047683716 -7.059999942779541,1.3799999952316284 -7,1.3799999952316284 C-6.670000076293945,1.3799999952316284 -6.369999885559082,1.159999966621399 -6.28000020980835,0.8199999928474426 C-6.170000076293945,0.41999998688697815 -6.409999847412109,0.009999999776482582 -6.809999942779541,-0.10000000149011612 C-6.809999942779541,-0.10000000149011612 -7.699999809265137,-0.33000001311302185 -7.699999809265137,-0.33000001311302185 C-6.440000057220459,-3.009999990463257 -3.8299999237060547,-4.940000057220459 -0.75,-5.210000038146973 C-0.75,-5.210000038146973 -0.75,-3.930000066757202 -0.75,-3.930000066757202 C-0.75,-3.5199999809265137 -0.4099999964237213,-3.180000066757202 0,-3.180000066757202 C0,-3.180000066757202 0,-3.180000066757202 0,-3.180000066757202 C0.4099999964237213,-3.180000066757202 0.75,-3.5199999809265137 0.75,-3.930000066757202 C0.75,-3.930000066757202 0.75,-5.199999809265137 0.75,-5.199999809265137 C3.8299999237060547,-4.929999828338623 6.440000057220459,-3 7.690000057220459,-0.3199999928474426 C7.690000057220459,-0.3199999928474426 6.800000190734863,-0.07999999821186066 6.800000190734863,-0.07999999821186066 C6.400000095367432,0.029999999329447746 6.159999847412109,0.4399999976158142 6.269999980926514,0.8399999737739563 C6.360000133514404,1.1799999475479126 6.659999847412109,1.399999976158142 6.989999771118164,1.399999976158142 C7.050000190734863,1.399999976158142 7.119999885559082,1.3899999856948853 7.179999828338623,1.3700000047683716 C7.179999828338623,1.3700000047683716 8.1899995803833,1.100000023841858 8.1899995803833,1.100000023841858 C8.369999885559082,1.7899999618530273 8.479999542236328,2.5199999809265137 8.479999542236328,3.2699999809265137 C8.479999542236328,3.2699999809265137 8.479999542236328,5.25 8.479999542236328,5.25 C8.479999542236328,5.25 8.5,5.25 8.5,5.25z"/></g></g><g class="primary design" transform="matrix(1,0,0,1,0,0)" opacity="1" style="display: none;"><g opacity="1" transform="matrix(1,0,0,1,249.93800354003906,255.20599365234375)"><path stroke-linecap="round" stroke-linejoin="round" fill-opacity="0" class="primary" stroke="rgb(0,0,0)" stroke-opacity="1" stroke-width="31.3" d=" M-0.0010000000474974513,-125 C-106.43000030517578,-125 -192.70899963378906,-38.72100067138672 -192.70899963378906,67.70800018310547 C-192.70899963378906,67.70800018310547 -192.70899963378906,125 -192.70899963378906,125 C-192.70899963378906,125 192.70899963378906,125 192.70899963378906,125 C192.70899963378906,125 192.70899963378906,67.70899963378906 192.70899963378906,67.70899963378906 C192.70899963378906,-38.59700012207031 106.63200378417969,-124.7979965209961 0.37400001287460327,-125 C0.24899999797344208,-125 0.12399999797344208,-125 -0.0010000000474974513,-125z"/></g><g opacity="1" transform="matrix(1,0,0,1,250.01699829101562,151.69500732421875)"><path stroke-linecap="round" stroke-linejoin="round" fill-opacity="0" class="primary" stroke="rgb(0,0,0)" stroke-opacity="1" stroke-width="31.3" d=" M0.07699999958276749,21.45400047302246 C0.07699999958276749,21.45400047302246 0.04699999839067459,-21.523000717163086 0.04699999839067459,-21.523000717163086"/></g><g opacity="1" transform="matrix(1,0,0,1,86.24699401855469,263.5450134277344)"><path stroke-linecap="round" stroke-linejoin="round" fill-opacity="0" class="primary" stroke="rgb(0,0,0)" stroke-opacity="1" stroke-width="31.3" d=" M17.91699981689453,4.791999816894531 C17.91699981689453,4.791999816894531 -17.91699981689453,-4.791999816894531 -17.91699981689453,-4.791999816894531"/></g><g opacity="1" transform="matrix(1,0,0,1,413.7489929199219,263.5450134277344)"><path stroke-linecap="round" stroke-linejoin="round" fill-opacity="0" class="primary" stroke="rgb(0,0,0)" stroke-opacity="1" stroke-width="31.3" d=" M17.91699981689453,-4.791999816894531 C17.91699981689453,-4.791999816894531 -17.91699981689453,4.791999816894531 -17.91699981689453,4.791999816894531"/></g></g><g class="primary design" transform="matrix(1,0.000002281135266457568,-0.000002281135266457568,1,0.000701904296875,-0.000579833984375)" opacity="1" style="display: none;"><g opacity="1" transform="matrix(1,0,0,1,250.00399780273438,307.28900146484375)"><path class="primary" fill="rgb(0,0,0)" fill-opacity="1" d=" M-0.10400000214576721,0 C-0.10400000214576721,0 0.10400000214576721,0 0.10400000214576721,0"/><path stroke-linecap="round" stroke-linejoin="round" fill-opacity="0" class="primary" stroke="rgb(0,0,0)" stroke-opacity="1" stroke-width="52.73" d=" M-0.10400000214576721,0 C-0.10400000214576721,0 0.10400000214576721,0 0.10400000214576721,0"/></g><g opacity="1" transform="matrix(1,0,0,1,215.51300048828125,298.07598876953125)"><path stroke-linecap="round" stroke-linejoin="round" fill-opacity="0" class="primary" stroke="rgb(0,0,0)" stroke-opacity="1" stroke-width="31.3" d=" M-34.38600158691406,-9.21399974822998 C-34.38600158691406,-9.21399974822998 34.38600158691406,9.21399974822998 34.38600158691406,9.21399974822998"/></g></g></g></g></svg>