<svg xmlns="http://www.w3.org/2000/svg" xmlns:xlink="http://www.w3.org/1999/xlink" viewBox="0 0 500 500" width="500" height="500" preserveAspectRatio="xMidYMid meet" style="width: 100%; height: 100%; transform: translate3d(0px, 0px, 0px); content-visibility: visible;"><defs><clipPath id="__lottie_element_146"><rect width="500" height="500" x="0" y="0"/></clipPath><clipPath id="__lottie_element_148"><path d="M0,0 L500,0 L500,500 L0,500z"/></clipPath></defs><g clip-path="url(#__lottie_element_146)"><g clip-path="url(#__lottie_element_148)" transform="matrix(1,0,0,1,0,0)" opacity="1" style="display: block;"><g class="primary design" transform="matrix(1,0,0,1,0,0)" opacity="1" style="display: none;"><g opacity="1" transform="matrix(1,0,0,1,250.00399780273438,250.0030059814453)"><path class="primary" fill="rgb(18,19,49)" fill-opacity="1" d=" M187.47000122070312,-4.531000137329102 C186.25900268554688,-54.60599899291992 165.6219940185547,-101.21299743652344 129.35699462890625,-135.76499938964844 C93.09200286865234,-170.3179931640625 45.55500030517578,-188.68099975585938 -4.5320000648498535,-187.4709930419922 C-54.606998443603516,-186.26100158691406 -101.21299743652344,-165.6219940185547 -135.76600646972656,-129.35800170898438 C-143.3459930419922,-121.40299987792969 -150.1790008544922,-112.81600189208984 -156.22500610351562,-103.73500061035156 C-156.22500610351562,-103.73500061035156 -156.2259979248047,-161.92100524902344 -156.2259979248047,-161.92100524902344 C-156.2270050048828,-170.56399536132812 -163.23300170898438,-177.5709991455078 -171.87600708007812,-177.5709991455078 C-180.52000427246094,-177.5709991455078 -187.52699279785156,-170.56399536132812 -187.52699279785156,-161.9199981689453 C-187.52699279785156,-161.9199981689453 -187.52499389648438,-67.70800018310547 -187.52499389648438,-67.70800018310547 C-187.5240020751953,-59.064998626708984 -180.51800537109375,-52.058998107910156 -171.87399291992188,-52.058998107910156 C-171.87399291992188,-52.058998107910156 -82.87200164794922,-52.058998107910156 -82.87200164794922,-52.058998107910156 C-74.22799682617188,-52.058998107910156 -67.22200012207031,-59.064998626708984 -67.22200012207031,-67.70800018310547 C-67.22200012207031,-76.35099792480469 -74.22799682617188,-83.35800170898438 -82.87200164794922,-83.35800170898438 C-82.87200164794922,-83.35800170898438 -132.15499877929688,-83.35800170898438 -132.15499877929688,-83.35800170898438 C-126.6510009765625,-92.05899810791016 -120.27300262451172,-100.24500274658203 -113.10600280761719,-107.76699829101562 C-84.31999969482422,-137.97799682617188 -45.49300003051758,-155.1719970703125 -3.7760000228881836,-156.17999267578125 C37.95100021362305,-157.1999969482422 77.55400085449219,-141.88999938964844 107.76499938964844,-113.10399627685547 C137.9770050048828,-84.31900024414062 155.1699981689453,-45.49100112915039 156.1790008544922,-3.7739999294281006 C157.18699645996094,37.94300079345703 141.88900756835938,77.55599975585938 113.10399627685547,107.76699829101562 C84.31900024414062,137.97799682617188 45.49100112915039,155.1719970703125 3.7739999294281006,156.17999267578125 C-37.94900131225586,157.18299865722656 -77.55599975585938,141.89100646972656 -107.76699829101562,113.1050033569336 C-131.52000427246094,90.4739990234375 -147.31399536132812,61.54199981689453 -153.44200134277344,29.43600082397461 C-155.06199645996094,20.94700050354004 -163.26199340820312,15.378000259399414 -171.7469940185547,16.99799919128418 C-180.23699951171875,18.618999481201172 -185.8070068359375,26.81399917602539 -184.18600463867188,35.30400085449219 C-176.82699584960938,73.86399841308594 -157.8679962158203,108.60299682617188 -129.35899353027344,135.76600646972656 C-94.21600341796875,169.24899291992188 -48.48400115966797,187.5290069580078 -0.11900000274181366,187.52699279785156 C1.4259999990463257,187.52699279785156 2.9809999465942383,187.50900268554688 4.53000020980835,187.4709930419922 C54.60599899291992,186.26100158691406 101.21199798583984,165.6219940185547 135.76400756835938,129.35800170898438 C170.3179931640625,93.09300231933594 188.67999267578125,45.54399871826172 187.47000122070312,-4.531000137329102z"/></g><g opacity="1" transform="matrix(1,0,0,1,279.9580078125,255.21099853515625)"><path class="primary" fill="rgb(18,19,49)" fill-opacity="1" d=" M-29.95400047302246,-88.56700134277344 C-38.597999572753906,-88.56700134277344 -45.604000091552734,-81.55999755859375 -45.604000091552734,-72.91699981689453 C-45.604000091552734,-72.91699981689453 -45.604000091552734,14.427000045776367 -45.604000091552734,14.427000045776367 C-45.604000091552734,14.460000038146973 -45.5989990234375,14.491999626159668 -45.5989990234375,14.524999618530273 C-45.59700012207031,14.859999656677246 -45.571998596191406,15.194999694824219 -45.54899978637695,15.529000282287598 C-45.5359992980957,15.711000442504883 -45.53499984741211,15.895999908447266 -45.51599884033203,16.07699966430664 C-45.47800064086914,16.441999435424805 -45.41400146484375,16.805999755859375 -45.349998474121094,17.167999267578125 C-45.32500076293945,17.309999465942383 -45.31100082397461,17.457000732421875 -45.28200149536133,17.597999572753906 C-44.70899963378906,20.389999389648438 -43.35300064086914,23.04400062561035 -41.25,25.240999221801758 C-41.16299819946289,25.332000732421875 -41.082000732421875,25.429000854492188 -40.99300003051758,25.51799964904785 C-40.95600128173828,25.55500030517578 -40.92499923706055,25.59600067138672 -40.887001037597656,25.632999420166016 C-40.887001037597656,25.632999420166016 19.02199935913086,84.11599731445312 19.02199935913086,84.11599731445312 C22.06599998474121,87.08699798583984 26.01099967956543,88.56700134277344 29.952999114990234,88.56700134277344 C34.020999908447266,88.56700134277344 38.08700180053711,86.98999786376953 41.15299987792969,83.8489990234375 C47.191001892089844,77.66400146484375 47.071998596191406,67.75599670410156 40.887001037597656,61.71799850463867 C40.887001037597656,61.71799850463867 -14.303999900817871,7.841000080108643 -14.303999900817871,7.841000080108643 C-14.303999900817871,7.841000080108643 -14.303999900817871,-72.91699981689453 -14.303999900817871,-72.91699981689453 C-14.303999900817871,-81.55999755859375 -21.309999465942383,-88.56700134277344 -29.95400047302246,-88.56700134277344z"/></g></g><g class="primary design" transform="matrix(1,0,0,1,0.0001220703125,-0.0001220703125)" opacity="1" style="display: none;"><g opacity="1" transform="matrix(1,0,0,1,250.00399780273438,250.0030059814453)"><path class="primary" fill="rgb(0,0,0)" fill-opacity="1" d=" M187.47000122070312,-4.531000137329102 C186.25900268554688,-54.60599899291992 165.6219940185547,-101.21299743652344 129.35699462890625,-135.76499938964844 C93.09200286865234,-170.3179931640625 45.55500030517578,-188.68099975585938 -4.5320000648498535,-187.4709930419922 C-54.606998443603516,-186.26100158691406 -101.21299743652344,-165.6219940185547 -135.76600646972656,-129.35800170898438 C-143.3459930419922,-121.40299987792969 -150.1790008544922,-112.81600189208984 -156.22500610351562,-103.73500061035156 C-156.22500610351562,-103.73500061035156 -156.2259979248047,-161.92100524902344 -156.2259979248047,-161.92100524902344 C-156.2270050048828,-170.56399536132812 -163.23300170898438,-177.5709991455078 -171.87600708007812,-177.5709991455078 C-180.52000427246094,-177.5709991455078 -187.52699279785156,-170.56399536132812 -187.52699279785156,-161.9199981689453 C-187.52699279785156,-161.9199981689453 -187.52499389648438,-67.70800018310547 -187.52499389648438,-67.70800018310547 C-187.5240020751953,-59.064998626708984 -180.51800537109375,-52.058998107910156 -171.87399291992188,-52.058998107910156 C-171.87399291992188,-52.058998107910156 -82.87200164794922,-52.058998107910156 -82.87200164794922,-52.058998107910156 C-74.22799682617188,-52.058998107910156 -67.22200012207031,-59.064998626708984 -67.22200012207031,-67.70800018310547 C-67.22200012207031,-76.35099792480469 -74.22799682617188,-83.35800170898438 -82.87200164794922,-83.35800170898438 C-82.87200164794922,-83.35800170898438 -132.15499877929688,-83.35800170898438 -132.15499877929688,-83.35800170898438 C-126.6510009765625,-92.05899810791016 -120.27300262451172,-100.24500274658203 -113.10600280761719,-107.76699829101562 C-84.31999969482422,-137.97799682617188 -45.49300003051758,-155.1719970703125 -3.7760000228881836,-156.17999267578125 C37.95100021362305,-157.1999969482422 77.55400085449219,-141.88999938964844 107.76499938964844,-113.10399627685547 C137.9770050048828,-84.31900024414062 155.1699981689453,-45.49100112915039 156.1790008544922,-3.7739999294281006 C157.18699645996094,37.94300079345703 141.88900756835938,77.55599975585938 113.10399627685547,107.76699829101562 C84.31900024414062,137.97799682617188 45.49100112915039,155.1719970703125 3.7739999294281006,156.17999267578125 C-37.94900131225586,157.18299865722656 -77.55599975585938,141.89100646972656 -107.76699829101562,113.1050033569336 C-131.52000427246094,90.4739990234375 -147.31399536132812,61.54199981689453 -153.44200134277344,29.43600082397461 C-155.06199645996094,20.94700050354004 -163.26199340820312,15.378000259399414 -171.7469940185547,16.99799919128418 C-180.23699951171875,18.618999481201172 -185.8070068359375,26.81399917602539 -184.18600463867188,35.30400085449219 C-176.82699584960938,73.86399841308594 -157.8679962158203,108.60299682617188 -129.35899353027344,135.76600646972656 C-94.21600341796875,169.24899291992188 -48.48400115966797,187.5290069580078 -0.11900000274181366,187.52699279785156 C1.4259999990463257,187.52699279785156 2.9809999465942383,187.50900268554688 4.53000020980835,187.4709930419922 C54.60599899291992,186.26100158691406 101.21199798583984,165.6219940185547 135.76400756835938,129.35800170898438 C170.3179931640625,93.09300231933594 188.67999267578125,45.54399871826172 187.47000122070312,-4.531000137329102z"/></g></g><g class="primary design" transform="matrix(1,0,0,1,0,0)" opacity="1" style="display: block;"><g opacity="1" transform="matrix(1,0,0,1,250.00399780273438,250.0030059814453)"><path class="primary" fill="rgb(0,0,0)" fill-opacity="1" d=" M187.47000122070312,-4.531000137329102 C186.25900268554688,-54.60599899291992 165.6219940185547,-101.21299743652344 129.35699462890625,-135.76499938964844 C93.09200286865234,-170.3179931640625 45.55500030517578,-188.68099975585938 -4.5320000648498535,-187.4709930419922 C-54.606998443603516,-186.26100158691406 -101.21299743652344,-165.6219940185547 -135.76600646972656,-129.35800170898438 C-143.3459930419922,-121.40299987792969 -150.1790008544922,-112.81600189208984 -156.22500610351562,-103.73500061035156 C-156.22500610351562,-103.73500061035156 -156.2259979248047,-161.92100524902344 -156.2259979248047,-161.92100524902344 C-156.2270050048828,-170.56399536132812 -163.23300170898438,-177.5709991455078 -171.87600708007812,-177.5709991455078 C-180.52000427246094,-177.5709991455078 -187.52699279785156,-170.56399536132812 -187.52699279785156,-161.9199981689453 C-187.52699279785156,-161.9199981689453 -187.52499389648438,-67.70800018310547 -187.52499389648438,-67.70800018310547 C-187.5240020751953,-59.064998626708984 -180.51800537109375,-52.058998107910156 -171.87399291992188,-52.058998107910156 C-171.87399291992188,-52.058998107910156 -82.87200164794922,-52.058998107910156 -82.87200164794922,-52.058998107910156 C-74.22799682617188,-52.058998107910156 -67.22200012207031,-59.064998626708984 -67.22200012207031,-67.70800018310547 C-67.22200012207031,-76.35099792480469 -74.22799682617188,-83.35800170898438 -82.87200164794922,-83.35800170898438 C-82.87200164794922,-83.35800170898438 -132.15499877929688,-83.35800170898438 -132.15499877929688,-83.35800170898438 C-126.6510009765625,-92.05899810791016 -120.27300262451172,-100.24500274658203 -113.10600280761719,-107.76699829101562 C-84.31999969482422,-137.97799682617188 -45.49300003051758,-155.1719970703125 -3.7760000228881836,-156.17999267578125 C37.95100021362305,-157.1999969482422 77.55400085449219,-141.88999938964844 107.76499938964844,-113.10399627685547 C137.9770050048828,-84.31900024414062 155.1699981689453,-45.49100112915039 156.1790008544922,-3.7739999294281006 C157.18699645996094,37.94300079345703 141.88900756835938,77.55599975585938 113.10399627685547,107.76699829101562 C84.31900024414062,137.97799682617188 45.49100112915039,155.1719970703125 3.7739999294281006,156.17999267578125 C-37.94900131225586,157.18299865722656 -77.55599975585938,141.89100646972656 -107.76699829101562,113.1050033569336 C-131.52000427246094,90.4739990234375 -147.31399536132812,61.54199981689453 -153.44200134277344,29.43600082397461 C-155.06199645996094,20.94700050354004 -163.26199340820312,15.378000259399414 -171.7469940185547,16.99799919128418 C-180.23699951171875,18.618999481201172 -185.8070068359375,26.81399917602539 -184.18600463867188,35.30400085449219 C-176.82699584960938,73.86399841308594 -157.8679962158203,108.60299682617188 -129.35899353027344,135.76600646972656 C-94.21600341796875,169.24899291992188 -48.48400115966797,187.5290069580078 -0.11900000274181366,187.52699279785156 C1.4259999990463257,187.52699279785156 2.9809999465942383,187.50900268554688 4.53000020980835,187.4709930419922 C54.60599899291992,186.26100158691406 101.21199798583984,165.6219940185547 135.76400756835938,129.35800170898438 C170.3179931640625,93.09300231933594 188.67999267578125,45.54399871826172 187.47000122070312,-4.531000137329102z"/></g><g opacity="1" transform="matrix(1,0,0,1,279.9580078125,255.21099853515625)"><path class="primary" fill="rgb(0,0,0)" fill-opacity="1" d=" M-29.95400047302246,-88.56700134277344 C-38.597999572753906,-88.56700134277344 -45.604000091552734,-81.55999755859375 -45.604000091552734,-72.91699981689453 C-45.604000091552734,-72.91699981689453 -45.604000091552734,14.427000045776367 -45.604000091552734,14.427000045776367 C-45.604000091552734,14.460000038146973 -45.5989990234375,14.491999626159668 -45.5989990234375,14.524999618530273 C-45.59700012207031,14.859999656677246 -45.571998596191406,15.194999694824219 -45.54899978637695,15.529000282287598 C-45.5359992980957,15.711000442504883 -45.53499984741211,15.895999908447266 -45.51599884033203,16.07699966430664 C-45.47800064086914,16.441999435424805 -45.41400146484375,16.805999755859375 -45.349998474121094,17.167999267578125 C-45.32500076293945,17.309999465942383 -45.31100082397461,17.457000732421875 -45.28200149536133,17.597999572753906 C-44.70899963378906,20.389999389648438 -43.35300064086914,23.04400062561035 -41.25,25.240999221801758 C-41.16299819946289,25.332000732421875 -41.082000732421875,25.429000854492188 -40.99300003051758,25.51799964904785 C-40.95600128173828,25.55500030517578 -40.92499923706055,25.59600067138672 -40.887001037597656,25.632999420166016 C-40.887001037597656,25.632999420166016 19.02199935913086,84.11599731445312 19.02199935913086,84.11599731445312 C22.06599998474121,87.08699798583984 26.01099967956543,88.56700134277344 29.952999114990234,88.56700134277344 C34.020999908447266,88.56700134277344 38.08700180053711,86.98999786376953 41.15299987792969,83.8489990234375 C47.191001892089844,77.66400146484375 47.071998596191406,67.75599670410156 40.887001037597656,61.71799850463867 C40.887001037597656,61.71799850463867 -14.303999900817871,7.841000080108643 -14.303999900817871,7.841000080108643 C-14.303999900817871,7.841000080108643 -14.303999900817871,-72.91699981689453 -14.303999900817871,-72.91699981689453 C-14.303999900817871,-81.55999755859375 -21.309999465942383,-88.56700134277344 -29.95400047302246,-88.56700134277344z"/></g></g><g class="primary design" transform="matrix(1,0,0,1,0.0001678466796875,19.999847412109375)" opacity="1" style="display: none;"><g opacity="1" transform="matrix(1,0,0,1,250.0240020751953,206.20599365234375)"><path stroke-linecap="round" stroke-linejoin="round" fill-opacity="0" class="primary" stroke="rgb(0,0,0)" stroke-opacity="1" stroke-width="31.3" d=" M0,-43.86000061035156 C0,-43.86000061035156 0,43.86000061035156 0,43.86000061035156"/></g></g><g class="primary design" transform="matrix(1,0.0000030765240808250383,-0.0000030765240808250383,1,0.000762939453125,19.999252319335938)" opacity="1" style="display: none;"><g opacity="1" transform="matrix(1,0,0,1,294.302001953125,294.3330078125)"><g opacity="1" transform="matrix(1,0,0,1,0,0)"><path stroke-linecap="round" stroke-linejoin="round" fill-opacity="0" class="primary" stroke="rgb(0,0,0)" stroke-opacity="1" stroke-width="31.3" d=" M15.763999938964844,13.767000198364258 C15.763999938964844,13.767000198364258 -44.263999938964844,-44.266998291015625 -44.263999938964844,-44.266998291015625"/></g></g></g></g></g></svg>