<svg xmlns="http://www.w3.org/2000/svg" xmlns:xlink="http://www.w3.org/1999/xlink" viewBox="0 0 500 500" width="500" height="500" preserveAspectRatio="xMidYMid meet" style="width: 100%; height: 100%; transform: translate3d(0px, 0px, 0px); content-visibility: visible;"><defs><clipPath id="__lottie_element_277"><rect width="500" height="500" x="0" y="0"/></clipPath><clipPath id="__lottie_element_279"><path d="M0,0 L500,0 L500,500 L0,500z"/></clipPath></defs><g clip-path="url(#__lottie_element_277)"><g clip-path="url(#__lottie_element_279)" transform="matrix(1,0,0,1,0,0)" opacity="1" style="display: block;"><g class="primary design" transform="matrix(1,0,0,1,0.0001678466796875,19.999847412109375)" opacity="1" style="display: none;"><g opacity="1" transform="matrix(1,0,0,1,250.0240020751953,206.20599365234375)"><path stroke-linecap="round" stroke-linejoin="round" fill-opacity="0" class="primary" stroke="rgb(0,0,0)" stroke-opacity="1" stroke-width="41" d=" M0,-59.36000061035156 C0,-59.36000061035156 0,43.86000061035156 0,43.86000061035156"/></g></g><g class="primary design" transform="matrix(1,0.0000030765240808250383,-0.0000030765240808250383,1,0.000762939453125,19.999252319335938)" opacity="1" style="display: none;"><g opacity="1" transform="matrix(1,0,0,1,294.302001953125,294.3330078125)"><g opacity="1" transform="matrix(1,0,0,1,0,0)"><path stroke-linecap="round" stroke-linejoin="round" fill-opacity="0" class="primary" stroke="rgb(0,0,0)" stroke-opacity="1" stroke-width="41" d=" M17.763999938964844,-5.732999801635742 C17.763999938964844,-5.732999801635742 -44.263999938964844,-44.266998291015625 -44.263999938964844,-44.266998291015625"/></g></g></g><g class="primary design" transform="matrix(1,0,0,1,0.0001220703125,-0.0001220703125)" opacity="1" style="display: none;"><g opacity="1" transform="matrix(1,0,0,1,249.17599487304688,250.03700256347656)"><path class="primary" fill="rgb(0,0,0)" fill-opacity="1" d=" M130.03700256347656,-135.87100219726562 C55.244998931884766,-207.12100219726562 -63.71200180053711,-204.2030029296875 -134.96299743652344,-129.41200256347656 C-139.03799438476562,-125.1050033569336 -142.7270050048828,-120.40699768066406 -146.42100524902344,-115.7239990234375 C-146.42100524902344,-115.7239990234375 -146.42100524902344,-153.16099548339844 -146.42100524902344,-153.16099548339844 C-146.42100524902344,-164.6199951171875 -155.7969970703125,-173.9949951171875 -167.2550048828125,-173.9949951171875 C-178.71299743652344,-173.9949951171875 -188.08799743652344,-164.6199951171875 -188.08799743652344,-153.16099548339844 C-188.08799743652344,-153.16099548339844 -188.08799743652344,-61.70399856567383 -188.08799743652344,-61.70399856567383 C-188.08799743652344,-50.244998931884766 -178.71299743652344,-40.87099838256836 -167.2550048828125,-40.87099838256836 C-167.2550048828125,-40.87099838256836 -81.00399780273438,-40.87099838256836 -81.00399780273438,-40.87099838256836 C-69.5459976196289,-40.87099838256836 -60.17100143432617,-50.452999114990234 -60.17100143432617,-61.9109992980957 C-60.17100143432617,-73.37000274658203 -69.5459976196289,-82.74500274658203 -81.00399780273438,-82.74500274658203 C-81.00399780273438,-82.74500274658203 -119.08899688720703,-82.74500274658203 -119.08899688720703,-82.74500274658203 C-114.74400329589844,-89.03299713134766 -110.06800079345703,-95.09500122070312 -104.75499725341797,-100.66200256347656 C-49.130001068115234,-158.9949951171875 43.16299819946289,-161.0780029296875 101.49600219726562,-105.66200256347656 C159.62100219726562,-50.0369987487793 161.91200256347656,42.46200180053711 106.49600219726562,100.58799743652344 C50.87099838256836,158.71299743652344 -41.62900161743164,161.00399780273438 -99.75499725341797,105.58799743652344 C-122.0469970703125,84.33799743652344 -136.83799743652344,57.4630012512207 -142.46299743652344,27.46299934387207 C-144.54600524902344,16.21299934387207 -155.3800048828125,8.920999526977539 -166.83799743652344,11.005000114440918 C-178.08900451660156,13.088000297546387 -185.3800048828125,24.128999710083008 -183.2969970703125,35.380001068115234 C-176.0050048828125,73.9209976196289 -157.0469970703125,108.71299743652344 -128.5050048828125,135.7969970703125 C-92.25399780273438,170.3800048828125 -45.5880012512207,187.46299743652344 0.8700000047683716,187.46299743652344 C50.452999114990234,187.46299743652344 99.8290023803711,167.8800048828125 136.49600219726562,129.1300048828125 C207.74600219726562,54.3380012512207 204.8280029296875,-64.62000274658203 130.03700256347656,-135.87100219726562z"/></g></g><g class="primary design" transform="matrix(1,0,0,1,0,0)" opacity="1" style="display: none;"><g opacity="1" transform="matrix(1,0,0,1,249.17599487304688,250.03700256347656)"><path class="primary" fill="rgb(0,0,0)" fill-opacity="1" d=" M130.03700256347656,-135.87100219726562 C55.244998931884766,-207.12100219726562 -63.71200180053711,-204.2030029296875 -134.96299743652344,-129.41200256347656 C-139.03799438476562,-125.1050033569336 -142.7270050048828,-120.40699768066406 -146.42100524902344,-115.7239990234375 C-146.42100524902344,-115.7239990234375 -146.42100524902344,-153.16099548339844 -146.42100524902344,-153.16099548339844 C-146.42100524902344,-164.6199951171875 -155.7969970703125,-173.9949951171875 -167.2550048828125,-173.9949951171875 C-178.71299743652344,-173.9949951171875 -188.08799743652344,-164.6199951171875 -188.08799743652344,-153.16099548339844 C-188.08799743652344,-153.16099548339844 -188.08799743652344,-61.70399856567383 -188.08799743652344,-61.70399856567383 C-188.08799743652344,-50.244998931884766 -178.71299743652344,-40.87099838256836 -167.2550048828125,-40.87099838256836 C-167.2550048828125,-40.87099838256836 -81.00399780273438,-40.87099838256836 -81.00399780273438,-40.87099838256836 C-69.5459976196289,-40.87099838256836 -60.17100143432617,-50.452999114990234 -60.17100143432617,-61.9109992980957 C-60.17100143432617,-73.37000274658203 -69.5459976196289,-82.74500274658203 -81.00399780273438,-82.74500274658203 C-81.00399780273438,-82.74500274658203 -119.08899688720703,-82.74500274658203 -119.08899688720703,-82.74500274658203 C-114.74400329589844,-89.03299713134766 -110.06800079345703,-95.09500122070312 -104.75499725341797,-100.66200256347656 C-49.130001068115234,-158.9949951171875 43.16299819946289,-161.0780029296875 101.49600219726562,-105.66200256347656 C159.62100219726562,-50.0369987487793 161.91200256347656,42.46200180053711 106.49600219726562,100.58799743652344 C50.87099838256836,158.71299743652344 -41.62900161743164,161.00399780273438 -99.75499725341797,105.58799743652344 C-122.0469970703125,84.33799743652344 -136.83799743652344,57.4630012512207 -142.46299743652344,27.46299934387207 C-144.54600524902344,16.21299934387207 -155.3800048828125,8.920999526977539 -166.83799743652344,11.005000114440918 C-178.08900451660156,13.088000297546387 -185.3800048828125,24.128999710083008 -183.2969970703125,35.380001068115234 C-176.0050048828125,73.9209976196289 -157.0469970703125,108.71299743652344 -128.5050048828125,135.7969970703125 C-92.25399780273438,170.3800048828125 -45.5880012512207,187.46299743652344 0.8700000047683716,187.46299743652344 C50.452999114990234,187.46299743652344 99.8290023803711,167.8800048828125 136.49600219726562,129.1300048828125 C207.74600219726562,54.3380012512207 204.8280029296875,-64.62000274658203 130.03700256347656,-135.87100219726562z"/></g><g opacity="1" transform="matrix(1,0,0,1,281.3039855957031,237.70799255371094)"><path class="primary" fill="rgb(0,0,0)" fill-opacity="1" d=" M-31.257999420166016,-91.875 C-42.715999603271484,-91.875 -52.090999603271484,-82.5 -52.090999603271484,-71.04199981689453 C-52.090999603271484,-71.04199981689453 -52.090999603271484,33.125 -52.090999603271484,33.125 C-52.090999603271484,42.1870002746582 -46.14500045776367,49.73400115966797 -38.02399826049805,52.58399963378906 C-38.02399826049805,52.58399963378906 20.200000762939453,88.75 20.200000762939453,88.75 C23.743000030517578,90.83399963378906 27.492000579833984,91.875 31.242000579833984,91.875 C38.117000579833984,91.875 44.992000579833984,88.33399963378906 48.95000076293945,82.08300018310547 C54.992000579833984,72.29199981689453 52.07500076293945,59.375 42.284000396728516,53.33300018310547 C42.284000396728516,53.33300018310547 -10.425000190734863,20.5939998626709 -10.425000190734863,20.5939998626709 C-10.425000190734863,20.5939998626709 -10.425000190734863,-71.04199981689453 -10.425000190734863,-71.04199981689453 C-10.425000190734863,-82.5 -19.799999237060547,-91.875 -31.257999420166016,-91.875z"/></g></g><g class="primary design" transform="matrix(1,0,0,1,0,0)" opacity="1" style="display: block;"><g opacity="1" transform="matrix(1,0,0,1,249.17599487304688,250.03700256347656)"><path class="primary" fill="rgb(0,0,0)" fill-opacity="1" d=" M130.03700256347656,-135.87100219726562 C55.244998931884766,-207.12100219726562 -63.71200180053711,-204.2030029296875 -134.96299743652344,-129.41200256347656 C-139.03799438476562,-125.1050033569336 -142.7270050048828,-120.40699768066406 -146.42100524902344,-115.7239990234375 C-146.42100524902344,-115.7239990234375 -146.42100524902344,-153.16099548339844 -146.42100524902344,-153.16099548339844 C-146.42100524902344,-164.6199951171875 -155.7969970703125,-173.9949951171875 -167.2550048828125,-173.9949951171875 C-178.71299743652344,-173.9949951171875 -188.08799743652344,-164.6199951171875 -188.08799743652344,-153.16099548339844 C-188.08799743652344,-153.16099548339844 -188.08799743652344,-61.70399856567383 -188.08799743652344,-61.70399856567383 C-188.08799743652344,-50.244998931884766 -178.71299743652344,-40.87099838256836 -167.2550048828125,-40.87099838256836 C-167.2550048828125,-40.87099838256836 -81.00399780273438,-40.87099838256836 -81.00399780273438,-40.87099838256836 C-69.5459976196289,-40.87099838256836 -60.17100143432617,-50.452999114990234 -60.17100143432617,-61.9109992980957 C-60.17100143432617,-73.37000274658203 -69.5459976196289,-82.74500274658203 -81.00399780273438,-82.74500274658203 C-81.00399780273438,-82.74500274658203 -119.08899688720703,-82.74500274658203 -119.08899688720703,-82.74500274658203 C-114.74400329589844,-89.03299713134766 -110.06800079345703,-95.09500122070312 -104.75499725341797,-100.66200256347656 C-49.130001068115234,-158.9949951171875 43.16299819946289,-161.0780029296875 101.49600219726562,-105.66200256347656 C159.62100219726562,-50.0369987487793 161.91200256347656,42.46200180053711 106.49600219726562,100.58799743652344 C50.87099838256836,158.71299743652344 -41.62900161743164,161.00399780273438 -99.75499725341797,105.58799743652344 C-122.0469970703125,84.33799743652344 -136.83799743652344,57.4630012512207 -142.46299743652344,27.46299934387207 C-144.54600524902344,16.21299934387207 -155.3800048828125,8.920999526977539 -166.83799743652344,11.005000114440918 C-178.08900451660156,13.088000297546387 -185.3800048828125,24.128999710083008 -183.2969970703125,35.380001068115234 C-176.0050048828125,73.9209976196289 -157.0469970703125,108.71299743652344 -128.5050048828125,135.7969970703125 C-92.25399780273438,170.3800048828125 -45.5880012512207,187.46299743652344 0.8700000047683716,187.46299743652344 C50.452999114990234,187.46299743652344 99.8290023803711,167.8800048828125 136.49600219726562,129.1300048828125 C207.74600219726562,54.3380012512207 204.8280029296875,-64.62000274658203 130.03700256347656,-135.87100219726562z"/></g><g opacity="1" transform="matrix(1,0,0,1,281.3039855957031,237.70799255371094)"><path class="primary" fill="rgb(0,0,0)" fill-opacity="1" d=" M-31.257999420166016,-91.875 C-42.715999603271484,-91.875 -52.090999603271484,-82.5 -52.090999603271484,-71.04199981689453 C-52.090999603271484,-71.04199981689453 -52.090999603271484,33.125 -52.090999603271484,33.125 C-52.090999603271484,42.1870002746582 -46.14500045776367,49.73400115966797 -38.02399826049805,52.58399963378906 C-38.02399826049805,52.58399963378906 20.200000762939453,88.75 20.200000762939453,88.75 C23.743000030517578,90.83399963378906 27.492000579833984,91.875 31.242000579833984,91.875 C38.117000579833984,91.875 44.992000579833984,88.33399963378906 48.95000076293945,82.08300018310547 C54.992000579833984,72.29199981689453 52.07500076293945,59.375 42.284000396728516,53.33300018310547 C42.284000396728516,53.33300018310547 -10.425000190734863,20.5939998626709 -10.425000190734863,20.5939998626709 C-10.425000190734863,20.5939998626709 -10.425000190734863,-71.04199981689453 -10.425000190734863,-71.04199981689453 C-10.425000190734863,-82.5 -19.799999237060547,-91.875 -31.257999420166016,-91.875z"/></g></g></g></g></svg>