<svg xmlns="http://www.w3.org/2000/svg" xmlns:xlink="http://www.w3.org/1999/xlink" viewBox="0 0 500 500" width="500" height="500" preserveAspectRatio="xMidYMid meet" style="width: 100%; height: 100%; transform: translate3d(0px, 0px, 0px); content-visibility: visible;"><defs><clipPath id="__lottie_element_385"><rect width="500" height="500" x="0" y="0"/></clipPath><clipPath id="__lottie_element_387"><path d="M0,0 L500,0 L500,500 L0,500z"/></clipPath></defs><g clip-path="url(#__lottie_element_385)"><g clip-path="url(#__lottie_element_387)" transform="matrix(1,0,0,1,0,0)" opacity="1" style="display: block;"><g class="primary design" transform="matrix(1,0,0,1,250.0030059814453,249.6790008544922)" opacity="1" style="display: none;"><g opacity="1" transform="matrix(1,0,0,1,0,0)"><path stroke-linecap="round" stroke-linejoin="round" fill-opacity="0" class="primary" stroke="rgb(0,0,0)" stroke-opacity="1" stroke-width="41" d=" M2.719930648803711,-165.19900512695312 C2.719930648803711,-165.19900512695312 2.955064535140991,-164.88600158691406 2.955065965652466,-165.2969970703125 C6.903064727783203,-165.2969970703125 10.924063682556152,-164.17800903320312 14.730062484741211,-161.62400817871094 C20.718061447143555,-157.6060028076172 157.6210174560547,-60.608001708984375 157.6210174560547,-60.608001708984375 C159.80502319335938,-59.3120002746582 166.16001892089844,-54.092002868652344 166.16001892089844,-44.1510009765625 C166.16001892089844,-44.1510009765625 166.14102172851562,145.36000061035156 166.14102172851562,145.36000061035156 C166.14102172851562,156.69200134277344 157.14202880859375,165.2830047607422 146.4000244140625,165.2830047607422 C146.4000244140625,165.2830047607422 146.3428955078125,164.93099975585938 146.3428955078125,164.93099975585938"/></g></g><g class="primary design" transform="matrix(20.829999923706055,0,0,20.829999923706055,249.9980010986328,250.02099609375)" opacity="1" style="display: block;"><g opacity="1" transform="matrix(1,0,0,1,0,0)"><path class="primary" fill="rgb(0,0,0)" fill-opacity="1" d=" M8.142999649047852,-3.7709999084472656 C8.142999649047852,-3.7709999084472656 1.1430000066757202,-8.642000198364258 1.1430000066757202,-8.642000198364258 C0.45899999141693115,-9.118000030517578 -0.45899999141693115,-9.118000030517578 -1.1430000066757202,-8.642000198364258 C-1.1430000066757202,-8.642000198364258 -8.142999649047852,-3.7709999084472656 -8.142999649047852,-3.7709999084472656 C-8.680000305175781,-3.3970000743865967 -9,-2.7829999923706055 -9,-2.128999948501587 C-9,-2.128999948501587 -9,6.999000072479248 -9,6.999000072479248 C-9,8.10200023651123 -8.102999687194824,8.99899959564209 -7,8.99899959564209 C-7,8.99899959564209 -5.014999866485596,8.99899959564209 -5.014999866485596,8.99899959564209 C-3.3610000610351562,8.99899959564209 -2.015000104904175,7.6529998779296875 -2.015000104904175,5.999000072479248 C-2.015000104904175,5.999000072479248 -2.0160000324249268,1.996999979019165 -2.0160000324249268,1.996999979019165 C-2.0160000324249268,1.996999979019165 2.015000104904175,1.996999979019165 2.015000104904175,1.996999979019165 C2.015000104904175,1.996999979019165 2.0160000324249268,5.999000072479248 2.0160000324249268,5.999000072479248 C2.0160000324249268,7.6529998779296875 3.361999988555908,8.99899959564209 5.015999794006348,8.99899959564209 C5.015999794006348,8.99899959564209 7,8.99899959564209 7,8.99899959564209 C8.102999687194824,8.99899959564209 9,8.10200023651123 9,6.999000072479248 C9,6.999000072479248 9,-2.128999948501587 9,-2.128999948501587 C9,-2.7829999923706055 8.680000305175781,-3.3970000743865967 8.142999649047852,-3.7709999084472656z"/></g></g></g></g></svg>