
<svg xmlns="http://www.w3.org/2000/svg" xmlns:xlink="http://www.w3.org/1999/xlink" viewBox="0 0 500 500" width="500" height="500" preserveAspectRatio="xMidYMid meet" style="width: 100%; height: 100%; transform: translate3d(0px, 0px, 0px); content-visibility: visible;"><defs><clipPath id="__lottie_element_7208"><rect width="500" height="500" x="0" y="0"/></clipPath><clipPath id="__lottie_element_7210"><path d="M0,0 L500,0 L500,500 L0,500z"/></clipPath><clipPath id="__lottie_element_7255"><path d="M0,0 L500,0 L500,500 L0,500z"/></clipPath><g id="__lottie_element_7258"><g clip-path="url(#__lottie_element_7259)" transform="matrix(1,0,0,1,0,0)" opacity="1" style="display: block;"><g class="primary design" transform="matrix(1,0,0,1,0.08599853515625,-1.4665985107421875)" opacity="1" style="display: block;"><g opacity="1" transform="matrix(1,0,0,1,250.0050048828125,265.62799072265625)"><path stroke-linecap="round" stroke-linejoin="round" fill-opacity="0" class="primary" stroke="rgb(0,0,0)" stroke-opacity="1" stroke-width="31.3" d=" M-88.58399963378906,-10 C-88.58399963378906,-10 88.5,-10 88.5,-10"/></g><g opacity="1" transform="matrix(1,0,0,1,250.0050048828125,323.1390075683594)"><path stroke-linecap="round" stroke-linejoin="round" fill-opacity="0" class="primary" stroke="rgb(0,0,0)" stroke-opacity="1" stroke-width="31.3" d=" M-88.58399963378906,5 C-88.58399963378906,5 88.5,5 88.5,5"/></g><g opacity="1" transform="matrix(1,0,0,1,203.12899780273438,380.2120056152344)"><path stroke-linecap="round" stroke-linejoin="round" fill-opacity="0" class="primary" stroke="rgb(0,0,0)" stroke-opacity="1" stroke-width="31.3" d=" M-41.70899963378906,20.788000106811523 C-41.70899963378906,20.788000106811523 29.625,20.576000213623047 29.625,20.576000213623047"/></g><g opacity="1" transform="matrix(1,0,0,1,203.19000244140625,161.52200317382812)"><path class="primary" fill="rgb(0,0,0)" fill-opacity="1" d=" M25.95599937438965,4.978000164031982 C25.95599937438965,4.978000164031982 -36.54399871826172,4.978000164031982 -36.54399871826172,4.978000164031982 C-36.54399871826172,4.978000164031982 -36.54399871826172,-57.52199935913086 -36.54399871826172,-57.52199935913086 C-36.54399871826172,-57.52199935913086 25.95599937438965,-57.52199935913086 25.95599937438965,-57.52199935913086 C25.95599937438965,-57.52199935913086 25.95599937438965,4.978000164031982 25.95599937438965,4.978000164031982z"/><path stroke-linecap="round" stroke-linejoin="round" fill-opacity="0" class="primary" stroke="rgb(0,0,0)" stroke-opacity="1" stroke-width="41" d=" M25.95599937438965,4.978000164031982 C25.95599937438965,4.978000164031982 -36.54399871826172,4.978000164031982 -36.54399871826172,4.978000164031982 C-36.54399871826172,4.978000164031982 -36.54399871826172,-57.52199935913086 -36.54399871826172,-57.52199935913086 C-36.54399871826172,-57.52199935913086 25.95599937438965,-57.52199935913086 25.95599937438965,-57.52199935913086 C25.95599937438965,-57.52199935913086 25.95599937438965,4.978000164031982 25.95599937438965,4.978000164031982z"/></g></g><g class="primary design" transform="matrix(1,0,0,1,-27,-375)" opacity="1" style="display: none;"><g opacity="1" transform="matrix(1,0,0,1,203.19000244140625,161.52200317382812)"><path stroke-linecap="round" stroke-linejoin="round" fill-opacity="0" class="primary" stroke="rgb(0,0,0)" stroke-opacity="1" stroke-width="31.3" d=" M-41.72700119018555,104.10600280761719 C-41.72700119018555,104.10600280761719 135.35699462890625,104.10600280761719 135.35699462890625,104.10600280761719 M-41.72700119018555,161.61700439453125 C-41.72700119018555,161.61700439453125 135.35699462890625,161.61700439453125 135.35699462890625,161.61700439453125 M-35.72700119018555,218.3800048828125 C-35.72700119018555,218.3800048828125 47.606998443603516,218.3800048828125 47.606998443603516,218.3800048828125"/></g><g opacity="1" transform="matrix(1,0,0,1,203.19000244140625,161.52200317382812)"><path stroke-linecap="round" stroke-linejoin="round" fill-opacity="0" class="primary" stroke="rgb(0,0,0)" stroke-opacity="1" stroke-width="41" d=" M41.72800064086914,41.72800064086914 C41.72800064086914,41.72800064086914 -41.72800064086914,41.72800064086914 -41.72800064086914,41.72800064086914 C-41.72800064086914,41.72800064086914 -41.72800064086914,-41.72800064086914 -41.72800064086914,-41.72800064086914 C-41.72800064086914,-41.72800064086914 41.72800064086914,-41.72800064086914 41.72800064086914,-41.72800064086914 C41.72800064086914,-41.72800064086914 41.72800064086914,41.72800064086914 41.72800064086914,41.72800064086914z"/><path class="primary" fill="rgb(0,0,0)" fill-opacity="1" d=" M41.72800064086914,41.72800064086914 C41.72800064086914,41.72800064086914 -41.72800064086914,41.72800064086914 -41.72800064086914,41.72800064086914 C-41.72800064086914,41.72800064086914 -41.72800064086914,-41.72800064086914 -41.72800064086914,-41.72800064086914 C-41.72800064086914,-41.72800064086914 41.72800064086914,-41.72800064086914 41.72800064086914,-41.72800064086914 C41.72800064086914,-41.72800064086914 41.72800064086914,41.72800064086914 41.72800064086914,41.72800064086914z"/></g></g><g class="primary design" style="display: none;"><g><path stroke-linecap="round" stroke-linejoin="round" fill-opacity="0" class="primary"/></g></g></g></g><clipPath id="__lottie_element_7259"><path d="M0,0 L500,0 L500,500 L0,500z"/></clipPath><filter id="__lottie_element_7262" filterUnits="objectBoundingBox" x="0%" y="0%" width="100%" height="100%"><feComponentTransfer in="SourceGraphic"><feFuncA type="table" tableValues="1.0 0.0"/></feComponentTransfer></filter><mask id="__lottie_element_7258_2" mask-type="alpha"><g filter="url(#__lottie_element_7262)"><rect width="500" height="500" x="0" y="0" fill="#ffffff" opacity="0"/><use xmlns:ns1="http://www.w3.org/1999/xlink" ns1:href="#__lottie_element_7258"/></g></mask><g id="__lottie_element_7296"><g clip-path="url(#__lottie_element_7297)" transform="matrix(1,0,0,1,0,0)" opacity="1" style="display: none;"><g class="primary design" transform="matrix(1,0,0,1,235.34266662597656,285.316650390625)" opacity="1" style="display: block;"><path class="primary" fill="rgb(0,0,0)" fill-opacity="1" d=" M147.9625701904297,-123.54251098632812 C147.9625701904297,-123.54251098632812 -112.4654312133789,-123.54251098632812 -112.4654312133789,-123.54251098632812 C-123.96843719482422,-123.54251098632812 -133.29432678222656,-114.21661376953125 -133.29432678222656,-102.71260833740234 C-133.29432678222656,-102.71260833740234 -124.32588195800781,-48.942230224609375 -124.32588195800781,62.06576919555664 C-124.32588195800781,179.72976684570312 -124.13664245605469,190.0923309326172 -124.13664245605469,190.0923309326172 C-123.65324401855469,190.7454071044922 -115.96588134765625,191.17359924316406 -122.14239501953125,192.0865936279297 C-122.14239501953125,192.0865936279297 138.28561401367188,192.0865936279297 138.28561401367188,192.0865936279297 C149.78860473632812,192.0865936279297 159.9691925048828,190.7454071044922 168.08206176757812,186.5049591064453 C168.08206176757812,186.5049591064453 177.75901794433594,171.6383056640625 177.75901794433594,64.0616683959961 C177.75901794433594,-47.61133575439453 168.7905731201172,-102.71260833740234 168.7905731201172,-102.71260833740234 C168.7905731201172,-114.21661376953125 159.46556091308594,-123.54251098632812 147.9625701904297,-123.54251098632812z"/><g opacity="1" transform="matrix(1,0,0,1,0,0)"><path stroke-linecap="round" stroke-linejoin="round" fill-opacity="0" class="primary" stroke="rgb(0,0,0)" stroke-opacity="1" stroke-width="80" d=" M147.9625701904297,-123.54251098632812 C147.9625701904297,-123.54251098632812 -112.4654312133789,-123.54251098632812 -112.4654312133789,-123.54251098632812 C-123.96843719482422,-123.54251098632812 -133.29432678222656,-114.21661376953125 -133.29432678222656,-102.71260833740234 C-133.29432678222656,-102.71260833740234 -124.32588195800781,-48.942230224609375 -124.32588195800781,62.06576919555664 C-124.32588195800781,179.72976684570312 -124.13664245605469,190.0923309326172 -124.13664245605469,190.0923309326172 C-123.65324401855469,190.7454071044922 -115.96588134765625,191.17359924316406 -122.14239501953125,192.0865936279297 C-122.14239501953125,192.0865936279297 138.28561401367188,192.0865936279297 138.28561401367188,192.0865936279297 C149.78860473632812,192.0865936279297 159.9691925048828,190.7454071044922 168.08206176757812,186.5049591064453 C168.08206176757812,186.5049591064453 177.75901794433594,171.6383056640625 177.75901794433594,64.0616683959961 C177.75901794433594,-47.61133575439453 168.7905731201172,-102.71260833740234 168.7905731201172,-102.71260833740234 C168.7905731201172,-114.21661376953125 159.46556091308594,-123.54251098632812 147.9625701904297,-123.54251098632812z"/></g></g><g class="primary design" transform="matrix(1,0,0,-1,234.00399780273438,210.0019989013672)" opacity="1" style="display: none;"><path class="primary" fill="rgb(0,0,0)" fill-opacity="1" d=" M176.83900451660156,153.0019989013672 C176.83900451660156,153.0019989013672 -95.00399780273438,153.0019989013672 -95.00399780273438,153.0019989013672 C-104.34300231933594,153.0019989013672 -122.94400024414062,155.59300231933594 -125.71600341796875,165.37899780273438 C-125.71600341796875,165.37899780273438 -127.50599670410156,169.36300659179688 -130.4530029296875,177.68299865722656 C-133.4980010986328,186.2790069580078 -49.52000045776367,250.5919952392578 -49.52000045776367,250.5919952392578 C-49.08300018310547,250.23800659179688 -71.00399780273438,250.49000549316406 -49.65999984741211,250.49000549316406 C-49.65999984741211,250.49000549316406 210.21400451660156,250.49000549316406 210.21400451660156,250.49000549316406 C221.7169952392578,250.49000549316406 134.99600219726562,192.53599548339844 145.58799743652344,191.4010009765625 C145.58799743652344,191.4010009765625 165.8260040283203,191.16200256347656 183.83200073242188,181.23399353027344 C198.99600219726562,172.8730010986328 197.66700744628906,165.41400146484375 197.66700744628906,165.41400146484375 C197.66700744628906,158.5590057373047 188.3419952392578,153.0019989013672 176.83900451660156,153.0019989013672z"/><g opacity="1" transform="matrix(1,0,0,1,0,0)"><path stroke-linecap="round" stroke-linejoin="round" fill-opacity="0" class="primary" stroke="rgb(0,0,0)" stroke-opacity="1" stroke-width="80" d=" M176.83900451660156,153.0019989013672 C176.83900451660156,153.0019989013672 -95.00399780273438,153.0019989013672 -95.00399780273438,153.0019989013672 C-104.34300231933594,153.0019989013672 -122.94400024414062,155.59300231933594 -125.71600341796875,165.37899780273438 C-125.71600341796875,165.37899780273438 -127.50599670410156,169.36300659179688 -130.4530029296875,177.68299865722656 C-133.4980010986328,186.2790069580078 -49.52000045776367,250.5919952392578 -49.52000045776367,250.5919952392578 C-49.08300018310547,250.23800659179688 -71.00399780273438,250.49000549316406 -49.65999984741211,250.49000549316406 C-49.65999984741211,250.49000549316406 210.21400451660156,250.49000549316406 210.21400451660156,250.49000549316406 C221.7169952392578,250.49000549316406 134.99600219726562,192.53599548339844 145.58799743652344,191.4010009765625 C145.58799743652344,191.4010009765625 165.8260040283203,191.16200256347656 183.83200073242188,181.23399353027344 C198.99600219726562,172.8730010986328 197.66700744628906,165.41400146484375 197.66700744628906,165.41400146484375 C197.66700744628906,158.5590057373047 188.3419952392578,153.0019989013672 176.83900451660156,153.0019989013672z"/></g></g></g></g><clipPath id="__lottie_element_7297"><path d="M0,0 L500,0 L500,500 L0,500z"/></clipPath><filter id="__lottie_element_7300" filterUnits="objectBoundingBox" x="0%" y="0%" width="100%" height="100%"><feComponentTransfer in="SourceGraphic"><feFuncA type="table" tableValues="1.0 0.0"/></feComponentTransfer></filter><mask id="__lottie_element_7296_2" mask-type="alpha"><g filter="url(#__lottie_element_7300)"><rect width="500" height="500" x="0" y="0" fill="#ffffff" opacity="0"/><use xmlns:ns2="http://www.w3.org/1999/xlink" ns2:href="#__lottie_element_7296"/></g></mask></defs><g clip-path="url(#__lottie_element_7208)"><g clip-path="url(#__lottie_element_7210)" transform="matrix(1,0,0,1,0,0)" opacity="1" style="display: block;"><g mask="url(#__lottie_element_7258_2)" style="display: block;"><g clip-path="url(#__lottie_element_7255)" transform="matrix(1,0,0,1,0,0)" opacity="1"><g mask="url(#__lottie_element_7296_2)" style="display: none;"><g class="primary design" transform="matrix(1,0,0,1,215.00399780273438,290.00201416015625)" opacity="1"><path class="primary" fill="rgb(0,0,0)" fill-opacity="1" d=" M105.26000213623047,132.4250030517578 C105.26000213623047,132.4250030517578 -155.16799926757812,132.4250030517578 -155.16799926757812,132.4250030517578 C-166.67100524902344,132.4250030517578 -175.99600219726562,141.75100708007812 -175.99600219726562,153.2550048828125 C-175.99600219726562,153.2550048828125 -176.08099365234375,150.9980010986328 -176.08099365234375,151.06399536132812 C-176.08099365234375,151.13400268554688 -176.04200744628906,154.42100524902344 -176.04200744628906,154.42100524902344 C-176.04200744628906,175.64300537109375 -158.83799743652344,192.843994140625 -137.61900329589844,192.843994140625 C-137.61900329589844,192.843994140625 105.21399688720703,192.843994140625 105.21399688720703,192.843994140625 C116.71700286865234,192.843994140625 126.04199981689453,183.5189971923828 126.04199981689453,172.01499938964844 C126.04199981689453,172.01499938964844 126.00399780273438,151.13400268554688 126.00399780273438,151.06500244140625 C126.00399780273438,150.99899291992188 126.08799743652344,153.2550048828125 126.08799743652344,153.2550048828125 C126.08799743652344,141.75100708007812 116.76300048828125,132.4250030517578 105.26000213623047,132.4250030517578z M126.08799743652344,124.13600158691406 C126.08799743652344,12.463000297546387 125.66699981689453,-229.7449951171875 125.66699981689453,-229.7449951171875"/><g opacity="1" transform="matrix(1,0,0,1,0,0)"><path stroke-linecap="round" stroke-linejoin="round" fill-opacity="0" class="primary" stroke="rgb(0,0,0)" stroke-opacity="1" stroke-width="31.3" d=" M105.26000213623047,132.4250030517578 C105.26000213623047,132.4250030517578 -155.16799926757812,132.4250030517578 -155.16799926757812,132.4250030517578 C-166.67100524902344,132.4250030517578 -175.99600219726562,141.75100708007812 -175.99600219726562,153.2550048828125 C-175.99600219726562,153.2550048828125 -176.08099365234375,150.9980010986328 -176.08099365234375,151.06399536132812 C-176.08099365234375,151.13400268554688 -176.04200744628906,154.42100524902344 -176.04200744628906,154.42100524902344 C-176.04200744628906,175.64300537109375 -158.83799743652344,192.843994140625 -137.61900329589844,192.843994140625 C-137.61900329589844,192.843994140625 105.21399688720703,192.843994140625 105.21399688720703,192.843994140625 C116.71700286865234,192.843994140625 126.04199981689453,183.5189971923828 126.04199981689453,172.01499938964844 C126.04199981689453,172.01499938964844 126.00399780273438,151.13400268554688 126.00399780273438,151.06500244140625 C126.00399780273438,150.99899291992188 126.08799743652344,153.2550048828125 126.08799743652344,153.2550048828125 C126.08799743652344,141.75100708007812 116.76300048828125,132.4250030517578 105.26000213623047,132.4250030517578z"/></g><g opacity="0" transform="matrix(1,0,0,1,0,0)"><path stroke-linecap="round" stroke-linejoin="round" fill-opacity="0" class="primary" stroke="rgb(0,0,0)" stroke-opacity="1" stroke-width="31.3" d=" M126.08799743652344,124.13600158691406 C126.08799743652344,12.463000297546387 125.66699981689453,-229.7449951171875 125.66699981689453,-229.7449951171875"/></g></g></g><g class="primary design" transform="matrix(1,0,0,1,250.00399780273438,249.719482421875)" opacity="1" style="display: block;"><path class="primary" fill="rgb(0,0,0)" fill-opacity="1" d=" M130.21400451660156,-192.70899963378906 C130.21400451660156,-192.70899963378906 -130.21400451660156,-192.70899963378906 -130.21400451660156,-192.70899963378906 C-141.7169952392578,-192.70899963378906 -151.04200744628906,-183.38400268554688 -151.04200744628906,-171.8800048828125 C-151.04200744628906,-171.8800048828125 -151.04200744628906,-118.00199890136719 -151.04200744628906,-6.99399995803833 C-151.04200744628906,110.66999816894531 -151.04200744628906,171.88099670410156 -151.04200744628906,171.88099670410156 C-151.04200744628906,183.38499450683594 -141.7169952392578,192.70899963378906 -130.21400451660156,192.70899963378906 C-130.21400451660156,192.70899963378906 130.21400451660156,192.70899963378906 130.21400451660156,192.70899963378906 C141.7169952392578,192.70899963378906 151.04200744628906,183.38499450683594 151.04200744628906,171.88099670410156 C151.04200744628906,171.88099670410156 151.04200744628906,111.9990005493164 151.04200744628906,-4.999000072479248 C151.04200744628906,-116.6719970703125 151.04200744628906,-171.8800048828125 151.04200744628906,-171.8800048828125 C151.04200744628906,-183.38400268554688 141.7169952392578,-192.70899963378906 130.21400451660156,-192.70899963378906z"/><g opacity="1" transform="matrix(1,0,0,1,0,0)"><path stroke-linecap="round" stroke-linejoin="round" fill-opacity="0" class="primary" stroke="rgb(0,0,0)" stroke-opacity="1" stroke-width="31.3" d=" M130.21400451660156,-192.70899963378906 C130.21400451660156,-192.70899963378906 -130.21400451660156,-192.70899963378906 -130.21400451660156,-192.70899963378906 C-141.7169952392578,-192.70899963378906 -151.04200744628906,-183.38400268554688 -151.04200744628906,-171.8800048828125 C-151.04200744628906,-171.8800048828125 -151.04200744628906,-118.00199890136719 -151.04200744628906,-6.99399995803833 C-151.04200744628906,110.66999816894531 -151.04200744628906,171.88099670410156 -151.04200744628906,171.88099670410156 C-151.04200744628906,183.38499450683594 -141.7169952392578,192.70899963378906 -130.21400451660156,192.70899963378906 C-130.21400451660156,192.70899963378906 130.21400451660156,192.70899963378906 130.21400451660156,192.70899963378906 C141.7169952392578,192.70899963378906 151.04200744628906,183.38499450683594 151.04200744628906,171.88099670410156 C151.04200744628906,171.88099670410156 151.04200744628906,111.9990005493164 151.04200744628906,-4.999000072479248 C151.04200744628906,-116.6719970703125 151.04200744628906,-171.8800048828125 151.04200744628906,-171.8800048828125 C151.04200744628906,-183.38400268554688 141.7169952392578,-192.70899963378906 130.21400451660156,-192.70899963378906z"/></g></g><g class="primary design" transform="matrix(1,0,0,-1,234.00399780273438,210.0019989013672)" opacity="1" style="display: none;"><path class="primary" fill="rgb(0,0,0)" fill-opacity="1" d=" M176.83900451660156,153.0019989013672 C176.83900451660156,153.0019989013672 -95.00399780273438,153.0019989013672 -95.00399780273438,153.0019989013672 C-104.34300231933594,153.0019989013672 -122.94400024414062,155.59300231933594 -125.71600341796875,165.37899780273438 C-125.71600341796875,165.37899780273438 -127.50599670410156,169.36300659179688 -130.4530029296875,177.68299865722656 C-133.4980010986328,186.2790069580078 -146.52000427246094,192.5919952392578 -146.52000427246094,192.5919952392578 C-146.08299255371094,192.23800659179688 -168.00399780273438,192.49000549316406 -146.66000366210938,192.49000549316406 C-146.66000366210938,192.49000549316406 113.21399688720703,192.49000549316406 113.21399688720703,192.49000549316406 C124.71700286865234,192.49000549316406 134.99600219726562,192.53599548339844 145.58799743652344,191.4010009765625 C145.58799743652344,191.4010009765625 165.8260040283203,191.16200256347656 183.83200073242188,181.23399353027344 C198.99600219726562,172.8730010986328 197.66700744628906,165.41400146484375 197.66700744628906,165.41400146484375 C197.66700744628906,158.5590057373047 188.3419952392578,153.0019989013672 176.83900451660156,153.0019989013672z"/><g opacity="1" transform="matrix(1,0,0,1,0,0)"><path stroke-linecap="round" stroke-linejoin="round" fill-opacity="0" class="primary" stroke="rgb(0,0,0)" stroke-opacity="1" stroke-width="31.3" d=" M176.83900451660156,153.0019989013672 C176.83900451660156,153.0019989013672 -95.00399780273438,153.0019989013672 -95.00399780273438,153.0019989013672 C-104.34300231933594,153.0019989013672 -122.94400024414062,155.59300231933594 -125.71600341796875,165.37899780273438 C-125.71600341796875,165.37899780273438 -127.50599670410156,169.36300659179688 -130.4530029296875,177.68299865722656 C-133.4980010986328,186.2790069580078 -146.52000427246094,192.5919952392578 -146.52000427246094,192.5919952392578 C-146.08299255371094,192.23800659179688 -168.00399780273438,192.49000549316406 -146.66000366210938,192.49000549316406 C-146.66000366210938,192.49000549316406 113.21399688720703,192.49000549316406 113.21399688720703,192.49000549316406 C124.71700286865234,192.49000549316406 134.99600219726562,192.53599548339844 145.58799743652344,191.4010009765625 C145.58799743652344,191.4010009765625 165.8260040283203,191.16200256347656 183.83200073242188,181.23399353027344 C198.99600219726562,172.8730010986328 197.66700744628906,165.41400146484375 197.66700744628906,165.41400146484375 C197.66700744628906,158.5590057373047 188.3419952392578,153.0019989013672 176.83900451660156,153.0019989013672z"/></g></g></g></g><g class="primary design" transform="matrix(20.829999923706055,0,0,20.829999923706055,-4957.5,-4957.22412109375)" opacity="1" style="display: none;"><g opacity="1" transform="matrix(1,0,0,1,249.97500610351562,250.25)"><path class="primary" fill="rgb(0,0,0)" fill-opacity="1" d=" M6.025000095367432,-10.25 C6.025000095367432,-10.25 -5.974999904632568,-10.25 -5.974999904632568,-10.25 C-7.074999809265137,-10.25 -7.974999904632568,-9.350000381469727 -7.974999904632568,-8.25 C-7.974999904632568,-8.25 -7.974999904632568,7.75 -7.974999904632568,7.75 C-7.974999904632568,8.850000381469727 -7.074999809265137,9.75 -5.974999904632568,9.75 C-5.974999904632568,9.75 6.025000095367432,9.75 6.025000095367432,9.75 C7.125,9.75 8.024999618530273,8.850000381469727 8.024999618530273,7.75 C8.024999618530273,7.75 8.024999618530273,-8.25 8.024999618530273,-8.25 C8.024999618530273,-9.350000381469727 7.125,-10.25 6.025000095367432,-10.25z M-4.974999904632568,-7.130000114440918 C-4.974999904632568,-7.75 -4.474999904632568,-8.25 -3.8550000190734863,-8.25 C-3.8550000190734863,-8.25 -1.0950000286102295,-8.25 -1.0950000286102295,-8.25 C-0.4749999940395355,-8.25 0.02500000037252903,-7.75 0.02500000037252903,-7.130000114440918 C0.02500000037252903,-7.130000114440918 0.02500000037252903,-4.369999885559082 0.02500000037252903,-4.369999885559082 C0.02500000037252903,-3.75 -0.4749999940395355,-3.25 -1.0950000286102295,-3.25 C-1.0950000286102295,-3.25 -3.8550000190734863,-3.25 -3.8550000190734863,-3.25 C-4.474999904632568,-3.25 -4.974999904632568,-3.75 -4.974999904632568,-4.369999885559082 C-4.974999904632568,-4.369999885559082 -4.974999904632568,-7.130000114440918 -4.974999904632568,-7.130000114440918z M-0.8550000190734863,7.760000228881836 C-0.8550000190734863,7.760000228881836 -4.215000152587891,7.760000228881836 -4.215000152587891,7.760000228881836 C-4.635000228881836,7.760000228881836 -4.965000152587891,7.420000076293945 -4.965000152587891,7.010000228881836 C-4.965000152587891,6.590000152587891 -4.635000228881836,6.260000228881836 -4.215000152587891,6.260000228881836 C-4.215000152587891,6.260000228881836 -0.8550000190734863,6.260000228881836 -0.8550000190734863,6.260000228881836 C-0.4350000023841858,6.260000228881836 -0.0949999988079071,6.590000152587891 -0.0949999988079071,7.010000228881836 C-0.0949999988079071,7.420000076293945 -0.4350000023841858,7.760000228881836 -0.8550000190734863,7.760000228881836z M4.244999885559082,4.25 C4.244999885559082,4.25 -4.255000114440918,4.25 -4.255000114440918,4.25 C-4.675000190734863,4.25 -5.005000114440918,3.9200000762939453 -5.005000114440918,3.5 C-5.005000114440918,3.0899999141693115 -4.675000190734863,2.75 -4.255000114440918,2.75 C-4.255000114440918,2.75 4.244999885559082,2.75 4.244999885559082,2.75 C4.65500020980835,2.75 4.994999885559082,3.0899999141693115 4.994999885559082,3.5 C4.994999885559082,3.9200000762939453 4.65500020980835,4.25 4.244999885559082,4.25z M4.244999885559082,0.75 C4.244999885559082,0.75 -4.244999885559082,0.75 -4.244999885559082,0.75 C-4.65500020980835,0.75 -4.994999885559082,0.4099999964237213 -4.994999885559082,0 C-4.994999885559082,-0.4099999964237213 -4.65500020980835,-0.75 -4.244999885559082,-0.75 C-4.244999885559082,-0.75 4.244999885559082,-0.75 4.244999885559082,-0.75 C4.65500020980835,-0.75 4.994999885559082,-0.4099999964237213 4.994999885559082,0 C4.994999885559082,0.4099999964237213 4.65500020980835,0.75 4.244999885559082,0.75z"/></g></g></g></g></svg>