<svg xmlns="http://www.w3.org/2000/svg" xmlns:xlink="http://www.w3.org/1999/xlink" viewBox="0 0 500 500" width="500" height="500" preserveAspectRatio="xMidYMid meet" style="width: 100%; height: 100%; transform: translate3d(0px, 0px, 0px); content-visibility: visible;"><defs><clipPath id="__lottie_element_7627"><rect width="500" height="500" x="0" y="0"/></clipPath><clipPath id="__lottie_element_7629"><path d="M0,0 L500,0 L500,500 L0,500z"/></clipPath><g id="__lottie_element_7716"><g class="primary design" transform="matrix(1,0,0,-1,234.00399780273438,210.0019989013672)" opacity="1" style="display: none;"><g opacity="1" transform="matrix(1,0,0,1,0,0)"><path stroke-linecap="butt" stroke-linejoin="miter" fill-opacity="0" stroke-miterlimit="4" class="primary" stroke="rgb(0,0,0)" stroke-opacity="1" stroke-width="2" d="M0 0"/></g><g opacity="1" transform="matrix(1,0,0,1,0,0)"><path class="primary" fill="rgb(0,0,0)" fill-opacity="1" d=" M176.83900451660156,153.0019989013672 C176.83900451660156,153.0019989013672 -95.00399780273438,153.0019989013672 -95.00399780273438,153.0019989013672 C-104.34300231933594,153.0019989013672 -122.94400024414062,155.59300231933594 -125.71600341796875,165.37899780273438 C-125.71600341796875,165.37899780273438 -127.50599670410156,169.36300659179688 -130.4530029296875,177.68299865722656 C-133.4980010986328,186.2790069580078 -146.52000427246094,192.5919952392578 -146.52000427246094,192.5919952392578 C-146.08299255371094,192.23800659179688 -168.00399780273438,192.49000549316406 -146.66000366210938,192.49000549316406 C-146.66000366210938,192.49000549316406 113.21399688720703,192.49000549316406 113.21399688720703,192.49000549316406 C124.71700286865234,192.49000549316406 134.99600219726562,192.53599548339844 145.58799743652344,191.4010009765625 C145.58799743652344,191.4010009765625 165.8260040283203,191.16200256347656 183.83200073242188,181.23399353027344 C198.99600219726562,172.8730010986328 197.66700744628906,165.41400146484375 197.66700744628906,165.41400146484375 C197.66700744628906,158.5590057373047 188.3419952392578,153.0019989013672 176.83900451660156,153.0019989013672z"/></g></g></g><mask id="__lottie_element_7716_1" mask-type="alpha"><use xmlns:ns1="http://www.w3.org/1999/xlink" ns1:href="#__lottie_element_7716"/></mask><g id="__lottie_element_7738"><g class="primary design" transform="matrix(1,0,0,1,250.00399780273438,250.0019989013672)" opacity="1" style="display: none;"><g opacity="1" transform="matrix(1,0,0,1,0,0)"><path stroke-linecap="butt" stroke-linejoin="miter" fill-opacity="0" stroke-miterlimit="4" class="primary" stroke="rgb(0,0,0)" stroke-opacity="1" stroke-width="2" d="M0 0"/></g><g opacity="1" transform="matrix(1,0,0,1,0,0)"><path class="primary" fill="rgb(0,0,0)" fill-opacity="1" d=" M130.21400451660156,-192.70899963378906 C130.21400451660156,-192.70899963378906 -130.21400451660156,-192.70899963378906 -130.21400451660156,-192.70899963378906 C-141.7169952392578,-192.70899963378906 -151.04200744628906,-183.38400268554688 -151.04200744628906,-171.8800048828125 C-151.04200744628906,-171.8800048828125 -151.04200744628906,-118.00199890136719 -151.04200744628906,-6.99399995803833 C-151.04200744628906,110.66999816894531 -151.04200744628906,171.88099670410156 -151.04200744628906,171.88099670410156 C-151.04200744628906,183.38499450683594 -141.7169952392578,192.70899963378906 -130.21400451660156,192.70899963378906 C-130.21400451660156,192.70899963378906 130.21400451660156,192.70899963378906 130.21400451660156,192.70899963378906 C141.7169952392578,192.70899963378906 151.04200744628906,183.38499450683594 151.04200744628906,171.88099670410156 C151.04200744628906,171.88099670410156 151.04200744628906,111.9990005493164 151.04200744628906,-4.999000072479248 C151.04200744628906,-116.6719970703125 151.04200744628906,-171.8800048828125 151.04200744628906,-171.8800048828125 C151.04200744628906,-183.38400268554688 141.7169952392578,-192.70899963378906 130.21400451660156,-192.70899963378906z"/></g></g></g><mask id="__lottie_element_7738_1" mask-type="alpha"><use xmlns:ns2="http://www.w3.org/1999/xlink" ns2:href="#__lottie_element_7738"/></mask></defs><g clip-path="url(#__lottie_element_7627)"><g clip-path="url(#__lottie_element_7629)" transform="matrix(1,0,0,1,0,0)" opacity="1" style="display: block;"><g class="primary design" transform="matrix(1,0,0,1,250.00399780273438,250.0019073486328)" opacity="1" style="display: none;"><g opacity="1" transform="matrix(1,0,0,1,0,0)"><path class="primary" fill="rgb(0,0,0)" fill-opacity="1" d="M0 0"/></g><g opacity="1" transform="matrix(1,0,0,1,0,0)"><path stroke-linecap="round" stroke-linejoin="round" fill-opacity="0" class="primary" stroke="rgb(0,0,0)" stroke-opacity="1" stroke-width="31.3" d=" M130.21400451660156,-192.70899963378906 C130.21400451660156,-192.70899963378906 -130.21400451660156,-192.70899963378906 -130.21400451660156,-192.70899963378906 C-141.7169952392578,-192.70899963378906 -151.04200744628906,-183.38400268554688 -151.04200744628906,-171.8800048828125 C-151.04200744628906,-171.8800048828125 -151.04200744628906,-118.00199890136719 -151.04200744628906,-6.99399995803833 C-151.04200744628906,110.66999816894531 -151.04200744628906,171.88099670410156 -151.04200744628906,171.88099670410156 C-151.04200744628906,183.38499450683594 -141.7169952392578,192.70899963378906 -130.21400451660156,192.70899963378906 C-130.21400451660156,192.70899963378906 130.21400451660156,192.70899963378906 130.21400451660156,192.70899963378906 C141.7169952392578,192.70899963378906 151.04200744628906,183.38499450683594 151.04200744628906,171.88099670410156 C151.04200744628906,171.88099670410156 151.04200744628906,111.9990005493164 151.04200744628906,-4.999000072479248 C151.04200744628906,-116.6719970703125 151.04200744628906,-171.8800048828125 151.04200744628906,-171.8800048828125 C151.04200744628906,-183.38400268554688 141.7169952392578,-192.70899963378906 130.21400451660156,-192.70899963378906z"/></g></g><g class="primary design" transform="matrix(1,0,0,1,215.00399780273438,290.00201416015625)" opacity="1" style="display: none;"><g opacity="1" transform="matrix(1,0,0,1,0,0)"><path class="primary" fill="rgb(0,0,0)" fill-opacity="1" d="M0 0"/></g><g opacity="1" transform="matrix(1,0,0,1,0,0)"><path stroke-linecap="round" stroke-linejoin="round" fill-opacity="0" class="primary" stroke="rgb(0,0,0)" stroke-opacity="1" stroke-width="31.3" d=" M-109.96900177001953,132.4250030517578 C-136.8679962158203,132.4250030517578 -155.16799926757812,132.4250030517578 -155.16799926757812,132.4250030517578 C-166.67100524902344,132.4250030517578 -175.99600219726562,141.75100708007812 -175.99600219726562,153.2550048828125 C-175.99600219726562,153.2550048828125 -176.08099365234375,150.9980010986328 -176.08099365234375,151.06399536132812 C-176.08099365234375,151.13400268554688 -176.04200744628906,154.42100524902344 -176.04200744628906,154.42100524902344 C-176.04200744628906,173.697998046875 -161.8470001220703,189.65699768066406 -143.3419952392578,192.42100524902344"/></g><g opacity="0" transform="matrix(1,0,0,1,0,0)"><path stroke-linecap="round" stroke-linejoin="round" fill-opacity="0" class="primary" stroke="rgb(0,0,0)" stroke-opacity="1" stroke-width="31.3" d=" M126.08799743652344,124.13600158691406 C126.08799743652344,12.463000297546387 125.66699981689453,-229.7449951171875 125.66699981689453,-229.7449951171875"/></g></g><g mask="url(#__lottie_element_7738_1)" style="display: none;"><g class="primary design" transform="matrix(1,0,0,1,0,-0.000091552734375)" opacity="1"><g opacity="1" transform="matrix(1,0,0,1,0,0)"><path class="primary" fill="rgb(0,0,0)" fill-opacity="1" d="M0 0"/></g><g opacity="1" transform="matrix(1,0,0,1,250.0050048828125,265.62799072265625)"><path stroke-linecap="round" stroke-linejoin="round" fill-opacity="0" class="primary" stroke="rgb(0,0,0)" stroke-opacity="1" stroke-width="31.3" d=" M-88.54199981689453,0 C-88.54199981689453,0 88.54199981689453,0 88.54199981689453,0"/></g><g opacity="1" transform="matrix(1,0,0,1,250.0050048828125,323.1390075683594)"><path stroke-linecap="round" stroke-linejoin="round" fill-opacity="0" class="primary" stroke="rgb(0,0,0)" stroke-opacity="1" stroke-width="31.3" d=" M-88.54199981689453,0 C-88.54199981689453,0 88.54199981689453,0 88.54199981689453,0"/></g><g opacity="1" transform="matrix(1,0,0,1,203.12899780273438,380.2120056152344)"><path stroke-linecap="round" stroke-linejoin="round" fill-opacity="0" class="primary" stroke="rgb(0,0,0)" stroke-opacity="1" stroke-width="31.3" d=" M-41.66699981689453,0 C-41.66699981689453,0 41.66699981689453,0 41.66699981689453,0"/></g><g opacity="1" transform="matrix(1,0,0,1,203.19000244140625,161.52200317382812)"><path stroke-linecap="round" stroke-linejoin="round" fill-opacity="0" class="primary" stroke="rgb(0,0,0)" stroke-opacity="1" stroke-width="31.3" d=" M41.72800064086914,41.72800064086914 C41.72800064086914,41.72800064086914 -41.72800064086914,41.72800064086914 -41.72800064086914,41.72800064086914 C-41.72800064086914,41.72800064086914 -41.72800064086914,-41.72800064086914 -41.72800064086914,-41.72800064086914 C-41.72800064086914,-41.72800064086914 41.72800064086914,-41.72800064086914 41.72800064086914,-41.72800064086914 C41.72800064086914,-41.72800064086914 41.72800064086914,41.72800064086914 41.72800064086914,41.72800064086914z"/></g></g></g><g class="primary design" transform="matrix(1,0,0,-1,234.00399780273438,210.0019989013672)" opacity="1" style="display: none;"><g opacity="1" transform="matrix(1,0,0,1,0,0)"><path class="primary" fill="rgb(0,0,0)" fill-opacity="1" d="M0 0"/></g><g opacity="1" transform="matrix(1,0,0,1,0,0)"><path stroke-linecap="round" stroke-linejoin="round" fill-opacity="0" class="primary" stroke="rgb(0,0,0)" stroke-opacity="1" stroke-width="31.3" d=" M176.83900451660156,153.0019989013672 C176.83900451660156,153.0019989013672 -95.00399780273438,153.0019989013672 -95.00399780273438,153.0019989013672 C-104.34300231933594,153.0019989013672 -122.94400024414062,155.59300231933594 -125.71600341796875,165.37899780273438 C-125.71600341796875,165.37899780273438 -127.50599670410156,169.36300659179688 -130.4530029296875,177.68299865722656 C-133.4980010986328,186.2790069580078 -146.52000427246094,192.5919952392578 -146.52000427246094,192.5919952392578 C-146.08299255371094,192.23800659179688 -168.00399780273438,192.49000549316406 -146.66000366210938,192.49000549316406 C-146.66000366210938,192.49000549316406 113.21399688720703,192.49000549316406 113.21399688720703,192.49000549316406 C124.71700286865234,192.49000549316406 134.99600219726562,192.53599548339844 145.58799743652344,191.4010009765625 C145.58799743652344,191.4010009765625 165.8260040283203,191.16200256347656 183.83200073242188,181.23399353027344 C198.99600219726562,172.8730010986328 197.66700744628906,165.41400146484375 197.66700744628906,165.41400146484375 C197.66700744628906,158.5590057373047 188.3419952392578,153.0019989013672 176.83900451660156,153.0019989013672z"/></g></g><g mask="url(#__lottie_element_7716_1)" style="display: none;"><g class="primary design" transform="matrix(1,0,0,1,-27,-375)" opacity="1"><g opacity="1" transform="matrix(1,0,0,1,0,0)"><path class="primary" fill="rgb(0,0,0)" fill-opacity="1" d="M0 0"/></g><g opacity="1" transform="matrix(1,0,0,1,203.19000244140625,161.52200317382812)"><path stroke-linecap="round" stroke-linejoin="round" fill-opacity="0" class="primary" stroke="rgb(0,0,0)" stroke-opacity="1" stroke-width="31.3" d=" M-41.72700119018555,104.10600280761719 C-41.72700119018555,104.10600280761719 135.35699462890625,104.10600280761719 135.35699462890625,104.10600280761719 M-41.72700119018555,161.61700439453125 C-41.72700119018555,161.61700439453125 135.35699462890625,161.61700439453125 135.35699462890625,161.61700439453125 M-35.72700119018555,218.3800048828125 C-35.72700119018555,218.3800048828125 47.606998443603516,218.3800048828125 47.606998443603516,218.3800048828125 M41.72800064086914,41.72800064086914 C41.72800064086914,41.72800064086914 -41.72800064086914,41.72800064086914 -41.72800064086914,41.72800064086914 C-41.72800064086914,41.72800064086914 -41.72800064086914,-41.72800064086914 -41.72800064086914,-41.72800064086914 C-41.72800064086914,-41.72800064086914 41.72800064086914,-41.72800064086914 41.72800064086914,-41.72800064086914 C41.72800064086914,-41.72800064086914 41.72800064086914,41.72800064086914 41.72800064086914,41.72800064086914z"/></g></g></g><g class="primary design" transform="matrix(20.829999923706055,0,0,20.829999923706055,-4957.498046875,-4957.498046875)" opacity="1" style="display: block;"><g opacity="1" transform="matrix(1,0,0,1,0,0)"><path stroke-linecap="butt" stroke-linejoin="miter" fill-opacity="0" stroke-miterlimit="4" class="primary" stroke="rgb(0,0,0)" stroke-opacity="1" stroke-width="2" d="M0 0"/></g><g opacity="1" transform="matrix(1,0,0,1,250,250)"><path class="primary" fill="rgb(0,0,0)" fill-opacity="1" d=" M6.25,10 C6.25,10 -6.25,10 -6.25,10 C-7.210000038146973,10 -8,9.210000038146973 -8,8.25 C-8,8.25 -8,-8.25 -8,-8.25 C-8,-9.210000038146973 -7.210000038146973,-10 -6.25,-10 C-6.25,-10 6.25,-10 6.25,-10 C7.210000038146973,-10 8,-9.210000038146973 8,-8.25 C8,-8.25 8,8.25 8,8.25 C8,9.210000038146973 7.210000038146973,10 6.25,10z M-6.25,-8.5 C-6.389999866485596,-8.5 -6.5,-8.390000343322754 -6.5,-8.25 C-6.5,-8.25 -6.5,8.25 -6.5,8.25 C-6.5,8.390000343322754 -6.389999866485596,8.5 -6.25,8.5 C-6.25,8.5 6.25,8.5 6.25,8.5 C6.389999866485596,8.5 6.5,8.390000343322754 6.5,8.25 C6.5,8.25 6.5,-8.25 6.5,-8.25 C6.5,-8.390000343322754 6.389999866485596,-8.5 6.25,-8.5 C6.25,-8.5 -6.25,-8.5 -6.25,-8.5z"/></g><g opacity="1" transform="matrix(1,0,0,1,247.7550048828125,245.7550048828125)"><path class="primary" fill="rgb(0,0,0)" fill-opacity="1" d=" M2.005000114440918,2.755000114440918 C2.005000114440918,2.755000114440918 -2.005000114440918,2.755000114440918 -2.005000114440918,2.755000114440918 C-2.4149999618530273,2.755000114440918 -2.755000114440918,2.4149999618530273 -2.755000114440918,2.005000114440918 C-2.755000114440918,2.005000114440918 -2.755000114440918,-2.005000114440918 -2.755000114440918,-2.005000114440918 C-2.755000114440918,-2.4149999618530273 -2.4149999618530273,-2.755000114440918 -2.005000114440918,-2.755000114440918 C-2.005000114440918,-2.755000114440918 2.005000114440918,-2.755000114440918 2.005000114440918,-2.755000114440918 C2.4149999618530273,-2.755000114440918 2.755000114440918,-2.4149999618530273 2.755000114440918,-2.005000114440918 C2.755000114440918,-2.005000114440918 2.755000114440918,2.005000114440918 2.755000114440918,2.005000114440918 C2.755000114440918,2.4149999618530273 2.4149999618530273,2.755000114440918 2.005000114440918,2.755000114440918z M-1.2549999952316284,1.2549999952316284 C-1.2549999952316284,1.2549999952316284 1.2549999952316284,1.2549999952316284 1.2549999952316284,1.2549999952316284 C1.2549999952316284,1.2549999952316284 1.2549999952316284,-1.2549999952316284 1.2549999952316284,-1.2549999952316284 C1.2549999952316284,-1.2549999952316284 -1.2549999952316284,-1.2549999952316284 -1.2549999952316284,-1.2549999952316284 C-1.2549999952316284,-1.2549999952316284 -1.2549999952316284,1.2549999952316284 -1.2549999952316284,1.2549999952316284z"/></g><g opacity="1" transform="matrix(1,0,0,1,250,250.75)"><path class="primary" fill="rgb(0,0,0)" fill-opacity="1" d=" M4.25,0.75 C4.25,0.75 -4.25,0.75 -4.25,0.75 C-4.659999847412109,0.75 -5,0.4099999964237213 -5,0 C-5,-0.4099999964237213 -4.659999847412109,-0.75 -4.25,-0.75 C-4.25,-0.75 4.25,-0.75 4.25,-0.75 C4.659999847412109,-0.75 5,-0.4099999964237213 5,0 C5,0.4099999964237213 4.659999847412109,0.75 4.25,0.75z"/></g><g opacity="1" transform="matrix(1,0,0,1,250,253.50999450683594)"><path class="primary" fill="rgb(0,0,0)" fill-opacity="1" d=" M4.25,0.75 C4.25,0.75 -4.25,0.75 -4.25,0.75 C-4.659999847412109,0.75 -5,0.4099999964237213 -5,0 C-5,-0.4099999964237213 -4.659999847412109,-0.75 -4.25,-0.75 C-4.25,-0.75 4.25,-0.75 4.25,-0.75 C4.659999847412109,-0.75 5,-0.4099999964237213 5,0 C5,0.4099999964237213 4.659999847412109,0.75 4.25,0.75z"/></g><g opacity="1" transform="matrix(1,0,0,1,247.75,256.25)"><path class="primary" fill="rgb(0,0,0)" fill-opacity="1" d=" M2,0.75 C2,0.75 -2,0.75 -2,0.75 C-2.4100000858306885,0.75 -2.75,0.4099999964237213 -2.75,0 C-2.75,-0.4099999964237213 -2.4100000858306885,-0.75 -2,-0.75 C-2,-0.75 2,-0.75 2,-0.75 C2.4100000858306885,-0.75 2.75,-0.4099999964237213 2.75,0 C2.75,0.4099999964237213 2.4100000858306885,0.75 2,0.75z"/></g></g><g class="primary design" transform="matrix(20.829999923706055,0,0,20.829999923706055,-4957.498046875,-4957.498046875)" opacity="1" style="display: none;"><g opacity="1" transform="matrix(1,0,0,1,0,0)"><path stroke-linecap="butt" stroke-linejoin="miter" fill-opacity="0" stroke-miterlimit="4" class="primary" stroke="rgb(0,0,0)" stroke-opacity="1" stroke-width="2" d="M0 0"/></g><g opacity="1" transform="matrix(1,0,0,1,250,250)"><path class="primary" fill="rgb(0,0,0)" fill-opacity="1" d=" M6.25,10 C6.25,10 -6.25,10 -6.25,10 C-7.210000038146973,10 -8,9.210000038146973 -8,8.25 C-8,8.25 -8,-8.25 -8,-8.25 C-8,-9.210000038146973 -7.210000038146973,-10 -6.25,-10 C-6.25,-10 6.25,-10 6.25,-10 C7.210000038146973,-10 8,-9.210000038146973 8,-8.25 C8,-8.25 8,8.25 8,8.25 C8,9.210000038146973 7.210000038146973,10 6.25,10z M-6.25,-8.5 C-6.389999866485596,-8.5 -6.5,-8.390000343322754 -6.5,-8.25 C-6.5,-8.25 -6.5,8.25 -6.5,8.25 C-6.5,8.390000343322754 -6.389999866485596,8.5 -6.25,8.5 C-6.25,8.5 6.25,8.5 6.25,8.5 C6.389999866485596,8.5 6.5,8.390000343322754 6.5,8.25 C6.5,8.25 6.5,-8.25 6.5,-8.25 C6.5,-8.390000343322754 6.389999866485596,-8.5 6.25,-8.5 C6.25,-8.5 -6.25,-8.5 -6.25,-8.5z"/></g><g opacity="1" transform="matrix(1,0,0,1,247.7550048828125,245.7550048828125)"><path class="primary" fill="rgb(0,0,0)" fill-opacity="1" d=" M2.005000114440918,2.755000114440918 C2.005000114440918,2.755000114440918 -2.005000114440918,2.755000114440918 -2.005000114440918,2.755000114440918 C-2.4149999618530273,2.755000114440918 -2.755000114440918,2.4149999618530273 -2.755000114440918,2.005000114440918 C-2.755000114440918,2.005000114440918 -2.755000114440918,-2.005000114440918 -2.755000114440918,-2.005000114440918 C-2.755000114440918,-2.4149999618530273 -2.4149999618530273,-2.755000114440918 -2.005000114440918,-2.755000114440918 C-2.005000114440918,-2.755000114440918 2.005000114440918,-2.755000114440918 2.005000114440918,-2.755000114440918 C2.4149999618530273,-2.755000114440918 2.755000114440918,-2.4149999618530273 2.755000114440918,-2.005000114440918 C2.755000114440918,-2.005000114440918 2.755000114440918,2.005000114440918 2.755000114440918,2.005000114440918 C2.755000114440918,2.4149999618530273 2.4149999618530273,2.755000114440918 2.005000114440918,2.755000114440918z M-1.2549999952316284,1.2549999952316284 C-1.2549999952316284,1.2549999952316284 1.2549999952316284,1.2549999952316284 1.2549999952316284,1.2549999952316284 C1.2549999952316284,1.2549999952316284 1.2549999952316284,-1.2549999952316284 1.2549999952316284,-1.2549999952316284 C1.2549999952316284,-1.2549999952316284 -1.2549999952316284,-1.2549999952316284 -1.2549999952316284,-1.2549999952316284 C-1.2549999952316284,-1.2549999952316284 -1.2549999952316284,1.2549999952316284 -1.2549999952316284,1.2549999952316284z"/></g><g opacity="1" transform="matrix(1,0,0,1,250,250.75)"><path class="primary" fill="rgb(0,0,0)" fill-opacity="1" d=" M4.25,0.75 C4.25,0.75 -4.25,0.75 -4.25,0.75 C-4.659999847412109,0.75 -5,0.4099999964237213 -5,0 C-5,-0.4099999964237213 -4.659999847412109,-0.75 -4.25,-0.75 C-4.25,-0.75 4.25,-0.75 4.25,-0.75 C4.659999847412109,-0.75 5,-0.4099999964237213 5,0 C5,0.4099999964237213 4.659999847412109,0.75 4.25,0.75z"/></g><g opacity="1" transform="matrix(1,0,0,1,250,253.50999450683594)"><path class="primary" fill="rgb(0,0,0)" fill-opacity="1" d=" M4.25,0.75 C4.25,0.75 -4.25,0.75 -4.25,0.75 C-4.659999847412109,0.75 -5,0.4099999964237213 -5,0 C-5,-0.4099999964237213 -4.659999847412109,-0.75 -4.25,-0.75 C-4.25,-0.75 4.25,-0.75 4.25,-0.75 C4.659999847412109,-0.75 5,-0.4099999964237213 5,0 C5,0.4099999964237213 4.659999847412109,0.75 4.25,0.75z"/></g><g opacity="1" transform="matrix(1,0,0,1,247.75,256.25)"><path class="primary" fill="rgb(0,0,0)" fill-opacity="1" d=" M2,0.75 C2,0.75 -2,0.75 -2,0.75 C-2.4100000858306885,0.75 -2.75,0.4099999964237213 -2.75,0 C-2.75,-0.4099999964237213 -2.4100000858306885,-0.75 -2,-0.75 C-2,-0.75 2,-0.75 2,-0.75 C2.4100000858306885,-0.75 2.75,-0.4099999964237213 2.75,0 C2.75,0.4099999964237213 2.4100000858306885,0.75 2,0.75z"/></g></g></g></g></svg>