<svg xmlns="http://www.w3.org/2000/svg" xmlns:xlink="http://www.w3.org/1999/xlink" viewBox="0 0 430 430" width="430" height="430" preserveAspectRatio="xMidYMid meet" style="width: 100%; height: 100%; transform: translate3d(0px, 0px, 0px); content-visibility: visible;"><defs><clipPath id="__lottie_element_11858"><rect width="430" height="430" x="0" y="0"/></clipPath><clipPath id="__lottie_element_11860"><path d="M0,0 L430,0 L430,430 L0,430z"/></clipPath><clipPath id="__lottie_element_11868"><path d="M0,0 L430,0 L430,430 L0,430z"/></clipPath><g id="__lottie_element_11871"><g transform="matrix(1,0,0,1,-36,-35)" opacity="1" style="display: block;"><g opacity="1" transform="matrix(1,0,0,1,250,249.75999450683594)"><path fill="rgb(255,0,0)" fill-opacity="1" d=" M26.690000534057617,-186.57000732421875 C26.690000534057617,-186.57000732421875 26.75,-186.57000732421875 26.75,-186.57000732421875 C26.75,-186.57000732421875 26.75,-79.76000213623047 26.75,-79.76000213623047 C26.75,-79.76000213623047 133.42999267578125,-79.76000213623047 133.42999267578125,-79.76000213623047 C133.42999267578125,-79.76000213623047 133.42999267578125,-79.81999969482422 133.42999267578125,-79.81999969482422 C133.42999267578125,-79.81999969482422 26.690000534057617,-186.57000732421875 26.690000534057617,-186.57000732421875z"/></g></g></g><filter id="__lottie_element_11877" filterUnits="objectBoundingBox" x="0%" y="0%" width="100%" height="100%"><feComponentTransfer in="SourceGraphic"><feFuncA type="table" tableValues="1.0 0.0"/></feComponentTransfer></filter><mask id="__lottie_element_11871_2" mask-type="alpha"><g filter="url(#__lottie_element_11877)"><rect width="430" height="430" x="0" y="0" fill="#ffffff" opacity="0"/><use xmlns:ns1="http://www.w3.org/1999/xlink" ns1:href="#__lottie_element_11871"/></g></mask><clipPath id="__lottie_element_12013"><path d="M0,0 L430,0 L430,430 L0,430z"/></clipPath></defs><g clip-path="url(#__lottie_element_11858)"><g clip-path="url(#__lottie_element_11860)" transform="matrix(1,0,0,1,0,0)" opacity="1" style="display: block;"><g clip-path="url(#__lottie_element_12013)" transform="matrix(0.9931750297546387,-0.11663368344306946,0.11663368344306946,0.9931750297546387,-65.96580505371094,27.29668426513672)" opacity="1" style="display: none;"><g transform="matrix(-0.931974470615387,-0.36252397298812866,0.36252397298812866,-0.931974470615387,215,275.0469970703125)" opacity="1" style="display: block;"><g opacity="1" transform="matrix(1,0,0,1,0,0)"><path stroke-linecap="round" stroke-linejoin="round" fill-opacity="0" class="secondary" stroke="rgb(8,168,138)" stroke-opacity="1" stroke-width="12" d=" M7.385578155517578,0 C7.385578155517578,0 -7.385578155517578,0 -7.385578155517578,0"/></g></g><g transform="matrix(-0.931974470615387,-0.36252397298812866,0.36252397298812866,-0.931974470615387,215.0019989013672,275.0450134277344)" opacity="1" style="display: block;"><g opacity="1" transform="matrix(1,0,0,1,0,0)"><path stroke-linecap="round" stroke-linejoin="round" fill-opacity="0" class="secondary" stroke="rgb(8,168,138)" stroke-opacity="1" stroke-width="12" d=" M0,7.879092693328857 C0,7.879092693328857 0,-7.879092693328857 0,-7.879092693328857"/></g></g></g><g mask="url(#__lottie_element_11871_2)" style="display: block;"><g clip-path="url(#__lottie_element_11868)" transform="matrix(1,0,0,1,0,0)" opacity="1"><g transform="matrix(0.7071067690849304,0.7071067690849304,-0.7071067690849304,0.7071067690849304,215,275.0469970703125)" opacity="1" style="display: block;"><g opacity="1" transform="matrix(1,0,0,1,0,0)"><path stroke-linecap="round" stroke-linejoin="round" fill-opacity="0" class="secondary" stroke="rgb(0,137,119)" stroke-opacity="1" stroke-width="6" d=" M73.38800048828125,0 C73.38800048828125,0 -73.38800048828125,0 -73.38800048828125,0"/></g></g><g transform="matrix(0.7071067690849304,0.7071067690849304,-0.7071067690849304,0.7071067690849304,215.0019989013672,275.0450134277344)" opacity="1" style="display: block;"><g opacity="1" transform="matrix(1,0,0,1,0,0)"><path stroke-linecap="round" stroke-linejoin="round" fill-opacity="0" class="secondary" stroke="rgb(0,137,119)" stroke-opacity="1" stroke-width="6" d=" M0,73.38800048828125 C0,73.38800048828125 0,-73.38800048828125 0,-73.38800048828125"/></g></g></g></g><g transform="matrix(1,0,0,1,-35,-35)" opacity="1" style="display: block;"><g opacity="1" transform="matrix(1,0,0,1,250,249.75999450683594)"><path stroke-linecap="round" stroke-linejoin="round" fill-opacity="0" class="primary" stroke="rgb(147,159,172)" stroke-opacity="1" stroke-width="6" d=" M26.690000534057617,-186.57000732421875 C26.690000534057617,-186.57000732421875 -133.42999267578125,-186.57000732421875 -133.42999267578125,-186.57000732421875 C-133.42999267578125,-186.57000732421875 -133.42999267578125,186.57000732421875 -133.42999267578125,186.57000732421875 C-133.42999267578125,186.57000732421875 133.42999267578125,186.57000732421875 133.42999267578125,186.57000732421875 C133.42999267578125,186.57000732421875 133.42999267578125,-79.81999969482422 133.42999267578125,-79.81999969482422 C133.42999267578125,-79.81999969482422 26.690000534057617,-186.57000732421875 26.690000534057617,-186.57000732421875z"/></g><g opacity="1" transform="matrix(1,0,0,1,330.05999755859375,116.56700134277344)"><path stroke-linecap="round" stroke-linejoin="round" fill-opacity="0" class="primary" stroke="rgb(147,159,172)" stroke-opacity="1" stroke-width="6" d=" M-53.37300109863281,-53.37300109863281 C-53.37300109863281,-53.37300109863281 -53.37300109863281,53.37300109863281 -53.37300109863281,53.37300109863281 C-53.37300109863281,53.37300109863281 53.37300109863281,53.37300109863281 53.37300109863281,53.37300109863281"/></g></g><g transform="matrix(1,0,0,1,-35,-35)" opacity="1" style="display: block;"><g opacity="1" transform="matrix(1,0,0,1,330.05999755859375,116.56700134277344)"><path stroke-linecap="round" stroke-linejoin="round" fill-opacity="0" class="primary" stroke="rgb(147,159,172)" stroke-opacity="1" stroke-width="6" d=" M-53.37300109863281,-53.37300109863281 C-53.37300109863281,-53.37300109863281 -50.06700134277344,-51.05799865722656 -0.37299999594688416,-0.6269999742507935 C49.939998626708984,50.43299865722656 53.37300109863281,53.37300109863281 53.37300109863281,53.37300109863281"/></g></g></g></g></svg>