<!-- <svg width="190" height="136" viewBox="0 0 190 136" fill="none" xmlns="http://www.w3.org/2000/svg">
<path fill-rule="evenodd" clip-rule="evenodd" d="M47.8799 91.12H117.04C117.431 91.12 117.813 91.0822 118.18 91.0105C118.547 91.0822 118.929 91.12 119.32 91.12H158.84C161.778 91.12 164.16 88.9889 164.16 86.36C164.16 83.7311 161.778 81.6 158.84 81.6H154.28C151.342 81.6 148.96 79.4689 148.96 76.84C148.96 74.2111 151.342 72.08 154.28 72.08H168.72C171.658 72.08 174.04 69.9489 174.04 67.32C174.04 64.6911 171.658 62.56 168.72 62.56H152C154.938 62.56 157.32 60.4289 157.32 57.8C157.32 55.1711 154.938 53.04 152 53.04H103.36C106.298 53.04 108.68 50.9089 108.68 48.28C108.68 45.6511 106.298 43.52 103.36 43.52H60.0399C57.1018 43.52 54.7199 45.6511 54.7199 48.28C54.7199 50.9089 57.1018 53.04 60.0399 53.04H29.6399C26.7018 53.04 24.3199 55.1711 24.3199 57.8C24.3199 60.4289 26.7018 62.56 29.6399 62.56H48.6399C51.5781 62.56 53.9599 64.6911 53.9599 67.32C53.9599 69.9489 51.5781 72.08 48.6399 72.08H18.2399C15.3018 72.08 12.9199 74.2111 12.9199 76.84C12.9199 79.4689 15.3018 81.6 18.2399 81.6H47.8799C44.9418 81.6 42.5599 83.7311 42.5599 86.36C42.5599 88.9889 44.9418 91.12 47.8799 91.12ZM171.76 91.12C174.698 91.12 177.08 88.9889 177.08 86.36C177.08 83.7311 174.698 81.6 171.76 81.6C168.822 81.6 166.44 83.7311 166.44 86.36C166.44 88.9889 168.822 91.12 171.76 91.12Z" fill="#008A77" fill-opacity="0.1"/>
<path fill-rule="evenodd" clip-rule="evenodd" d="M85.9699 76.3684C85.9106 76.7446 85.8798 77.129 85.8798 77.5199C85.8798 82.0265 89.963 85.6799 94.9998 85.6799C100.037 85.6799 104.12 82.0265 104.12 77.5199C104.12 77.129 104.089 76.7446 104.03 76.3684H126.16V94.5199C126.16 95.6466 125.139 96.5599 123.88 96.5599H66.1198C64.8606 96.5599 63.8398 95.6466 63.8398 94.5199V76.3684H85.9699Z" fill="white"/>
<path fill-rule="evenodd" clip-rule="evenodd" d="M104.88 76.1601C104.88 81.0423 100.456 85.0001 94.9998 85.0001C89.5433 85.0001 85.1198 81.0423 85.1198 76.1601C85.1198 76.0019 85.1245 75.8447 85.1337 75.6886H63.8398L71.1058 56.4665C71.419 55.6378 72.2879 55.0801 73.2656 55.0801H116.734C117.712 55.0801 118.581 55.6378 118.894 56.4665L126.16 75.6886H104.866C104.875 75.8447 104.88 76.0019 104.88 76.1601Z" fill="white"/>
<path fill-rule="evenodd" clip-rule="evenodd" d="M103.434 76.809C103.434 80.5816 99.6582 84.32 95.0002 84.32C90.3421 84.32 86.566 80.5816 86.566 76.809C86.566 76.6868 86.57 75.8853 86.5778 75.7647H70.6802L76.8828 62.2713C77.1502 61.6309 77.8919 61.2 78.7265 61.2H111.274C112.108 61.2 112.85 61.6309 113.118 62.2713L119.32 75.7647H103.423C103.43 75.8853 103.434 76.6868 103.434 76.809Z" fill="#008A77" fill-opacity="0.1"/>
<path fill-rule="evenodd" clip-rule="evenodd" d="M64.79 75.8283V93.8399C64.79 94.4972 65.3855 95.0299 66.12 95.0299H123.88C124.615 95.0299 125.21 94.4972 125.21 93.8399V75.8283L117.994 56.7387C117.811 56.2553 117.305 55.9299 116.734 55.9299H73.2658C72.6955 55.9299 72.1886 56.2553 72.0059 56.7387L64.79 75.8283Z" stroke="#008A77" stroke-width="2.5"/>
<path d="M74.4799 75.48C77.4717 75.48 80.7004 75.48 84.166 75.48C85.592 75.48 85.592 76.3766 85.592 76.84C85.592 81.3466 89.7691 85 94.9218 85C100.075 85 104.252 81.3466 104.252 76.84C104.252 76.3766 104.252 75.48 105.678 75.48H124.64M68.8359 75.48H70.6799H68.8359Z" stroke="#008A77" stroke-width="2.5" stroke-linecap="round" stroke-linejoin="round"/>
<path d="M114.076 39.6458L105.64 48.114M94.3157 36.72V48.114V36.72ZM74.48 39.6458L82.9157 48.114L74.48 39.6458Z" stroke="#008A77" stroke-width="2.5" stroke-linecap="round" stroke-linejoin="round"/>
</svg> -->
<svg xmlns="http://www.w3.org/2000/svg" xmlns:xlink="http://www.w3.org/1999/xlink" viewBox="0 0 430 430" width="430" height="430" preserveAspectRatio="xMidYMid meet" style="width: 100%; height: 100%; transform: translate3d(0px, 0px, 0px); content-visibility: visible;"><defs><clipPath id="__lottie_element_11858"><rect width="430" height="430" x="0" y="0"/></clipPath><clipPath id="__lottie_element_11860"><path d="M0,0 L430,0 L430,430 L0,430z"/></clipPath><clipPath id="__lottie_element_11868"><path d="M0,0 L430,0 L430,430 L0,430z"/></clipPath><g id="__lottie_element_11871"><g transform="matrix(1,0,0,1,-36,-35)" opacity="1" style="display: block;"><g opacity="1" transform="matrix(1,0,0,1,250,249.75999450683594)"><path fill="rgb(255,0,0)" fill-opacity="1" d=" M26.690000534057617,-186.57000732421875 C26.690000534057617,-186.57000732421875 26.75,-186.57000732421875 26.75,-186.57000732421875 C26.75,-186.57000732421875 26.75,-79.76000213623047 26.75,-79.76000213623047 C26.75,-79.76000213623047 133.42999267578125,-79.76000213623047 133.42999267578125,-79.76000213623047 C133.42999267578125,-79.76000213623047 133.42999267578125,-79.81999969482422 133.42999267578125,-79.81999969482422 C133.42999267578125,-79.81999969482422 26.690000534057617,-186.57000732421875 26.690000534057617,-186.57000732421875z"/></g></g></g><filter id="__lottie_element_11877" filterUnits="objectBoundingBox" x="0%" y="0%" width="100%" height="100%"><feComponentTransfer in="SourceGraphic"><feFuncA type="table" tableValues="1.0 0.0"/></feComponentTransfer></filter><mask id="__lottie_element_11871_2" mask-type="alpha"><g filter="url(#__lottie_element_11877)"><rect width="430" height="430" x="0" y="0" fill="#ffffff" opacity="0"/><use xmlns:ns1="http://www.w3.org/1999/xlink" ns1:href="#__lottie_element_11871"/></g></mask><clipPath id="__lottie_element_12013"><path d="M0,0 L430,0 L430,430 L0,430z"/></clipPath></defs><g clip-path="url(#__lottie_element_11858)"><g clip-path="url(#__lottie_element_11860)" transform="matrix(1,0,0,1,0,0)" opacity="1" style="display: block;"><g clip-path="url(#__lottie_element_12013)" transform="matrix(0.9931750297546387,-0.11663368344306946,0.11663368344306946,0.9931750297546387,-65.96580505371094,27.29668426513672)" opacity="1" style="display: none;"><g transform="matrix(-0.931974470615387,-0.36252397298812866,0.36252397298812866,-0.931974470615387,215,275.0469970703125)" opacity="1" style="display: block;"><g opacity="1" transform="matrix(1,0,0,1,0,0)"><path stroke-linecap="round" stroke-linejoin="round" fill-opacity="0" class="secondary" stroke="rgb(8,168,138)" stroke-opacity="1" stroke-width="12" d=" M7.385578155517578,0 C7.385578155517578,0 -7.385578155517578,0 -7.385578155517578,0"/></g></g><g transform="matrix(-0.931974470615387,-0.36252397298812866,0.36252397298812866,-0.931974470615387,215.0019989013672,275.0450134277344)" opacity="1" style="display: block;"><g opacity="1" transform="matrix(1,0,0,1,0,0)"><path stroke-linecap="round" stroke-linejoin="round" fill-opacity="0" class="secondary" stroke="rgb(8,168,138)" stroke-opacity="1" stroke-width="12" d=" M0,7.879092693328857 C0,7.879092693328857 0,-7.879092693328857 0,-7.879092693328857"/></g></g></g><g mask="url(#__lottie_element_11871_2)" style="display: block;"><g clip-path="url(#__lottie_element_11868)" transform="matrix(1,0,0,1,0,0)" opacity="1"><g transform="matrix(0.7071067690849304,0.7071067690849304,-0.7071067690849304,0.7071067690849304,215,275.0469970703125)" opacity="1" style="display: block;"><g opacity="1" transform="matrix(1,0,0,1,0,0)"><path stroke-linecap="round" stroke-linejoin="round" fill-opacity="0" class="secondary" stroke="rgb(0,137,119)" stroke-opacity="1" stroke-width="6" d=" M73.38800048828125,0 C73.38800048828125,0 -73.38800048828125,0 -73.38800048828125,0"/></g></g><g transform="matrix(0.7071067690849304,0.7071067690849304,-0.7071067690849304,0.7071067690849304,215.0019989013672,275.0450134277344)" opacity="1" style="display: block;"><g opacity="1" transform="matrix(1,0,0,1,0,0)"><path stroke-linecap="round" stroke-linejoin="round" fill-opacity="0" class="secondary" stroke="rgb(0,137,119)" stroke-opacity="1" stroke-width="6" d=" M0,73.38800048828125 C0,73.38800048828125 0,-73.38800048828125 0,-73.38800048828125"/></g></g></g></g><g transform="matrix(1,0,0,1,-35,-35)" opacity="1" style="display: block;"><g opacity="1" transform="matrix(1,0,0,1,250,249.75999450683594)"><path stroke-linecap="round" stroke-linejoin="round" fill-opacity="0" class="primary" stroke="rgb(35,35,35)" stroke-opacity="1" stroke-width="6" d=" M26.690000534057617,-186.57000732421875 C26.690000534057617,-186.57000732421875 -133.42999267578125,-186.57000732421875 -133.42999267578125,-186.57000732421875 C-133.42999267578125,-186.57000732421875 -133.42999267578125,186.57000732421875 -133.42999267578125,186.57000732421875 C-133.42999267578125,186.57000732421875 133.42999267578125,186.57000732421875 133.42999267578125,186.57000732421875 C133.42999267578125,186.57000732421875 133.42999267578125,-79.81999969482422 133.42999267578125,-79.81999969482422 C133.42999267578125,-79.81999969482422 26.690000534057617,-186.57000732421875 26.690000534057617,-186.57000732421875z"/></g><g opacity="1" transform="matrix(1,0,0,1,330.05999755859375,116.56700134277344)"><path stroke-linecap="round" stroke-linejoin="round" fill-opacity="0" class="primary" stroke="rgb(35,35,35)" stroke-opacity="1" stroke-width="6" d=" M-53.37300109863281,-53.37300109863281 C-53.37300109863281,-53.37300109863281 -53.37300109863281,53.37300109863281 -53.37300109863281,53.37300109863281 C-53.37300109863281,53.37300109863281 53.37300109863281,53.37300109863281 53.37300109863281,53.37300109863281"/></g></g><g transform="matrix(1,0,0,1,-35,-35)" opacity="1" style="display: block;"><g opacity="1" transform="matrix(1,0,0,1,330.05999755859375,116.56700134277344)"><path stroke-linecap="round" stroke-linejoin="round" fill-opacity="0" class="primary" stroke="rgb(35,35,35)" stroke-opacity="1" stroke-width="6" d=" M-53.37300109863281,-53.37300109863281 C-53.37300109863281,-53.37300109863281 -50.06700134277344,-51.05799865722656 -0.37299999594688416,-0.6269999742507935 C49.939998626708984,50.43299865722656 53.37300109863281,53.37300109863281 53.37300109863281,53.37300109863281"/></g></g></g></g></svg>