<svg xmlns="http://www.w3.org/2000/svg" xmlns:xlink="http://www.w3.org/1999/xlink" viewBox="0 0 430 430" width="430" height="430" preserveAspectRatio="xMidYMid meet" style="width: 100%; height: 100%; transform: translate3d(0px, 0px, 0px); content-visibility: visible;"><defs><clipPath id="__lottie_element_12527"><rect width="430" height="430" x="0" y="0"/></clipPath><clipPath id="__lottie_element_12529"><path d="M0,0 L430,0 L430,430 L0,430z"/></clipPath></defs><g clip-path="url(#__lottie_element_12527)"><g clip-path="url(#__lottie_element_12529)" transform="matrix(1,0,0,1,0,0)" opacity="1" style="display: block;"><g transform="matrix(1,0,0,1,-37.5,-35.00001525878906)" opacity="1" style="display: block;"><g opacity="1" transform="matrix(1,0,0,1,152.343994140625,94.62999725341797)"><path class="senary" fill="rgb(249,201,192)" fill-opacity="1" d=" M24.82900047302246,-8.97700023651123 C24.82900047302246,-8.97700023651123 24.82900047302246,24.590999603271484 24.82900047302246,24.590999603271484 C24.82900047302246,26.42300033569336 24.077999114990234,28.09600067138672 22.871000289916992,29.302000045776367 C22.839000701904297,29.3439998626709 22.797000885009766,29.375999450683594 22.764999389648438,29.39699935913086 C21.558000564575195,30.551000595092773 19.937999725341797,31.26099967956543 18.15999984741211,31.26099967956543 C18.15999984741211,31.26099967956543 -1.1169999837875366,31.26099967956543 -1.1169999837875366,31.26099967956543 C-3.180999994277954,31.207000732421875 -5.076000213623047,31.069000244140625 -6.801000118255615,30.847000122070312 C-6.833000183105469,30.847000122070312 -6.855000019073486,30.847000122070312 -6.875999927520752,30.836999893188477 C-17.08099937438965,28.80500030517578 -24.82900047302246,19.753000259399414 -24.82900047302246,8.97599983215332 C-24.82900047302246,8.97599983215332 -24.82900047302246,-8.97700023651123 -24.82900047302246,-8.97700023651123 C-24.82900047302246,-12.744999885559082 -23.87700080871582,-16.312999725341797 -22.20400047302246,-19.43600082397461 C-21.738000869750977,-20.30299949645996 -21.208999633789062,-21.1299991607666 -20.636999130249023,-21.93400001525879 C-20.48900032043457,-22.13599967956543 -20.340999603271484,-22.336999893188477 -20.19300079345703,-22.538000106811523 C-19.822999954223633,-23.014999389648438 -19.44099998474121,-23.479000091552734 -19.027999877929688,-23.934999465942383 C-16.49799919128418,-26.7189998626709 -13.279999732971191,-28.85700035095215 -9.64900016784668,-30.084999084472656 C-7.414999961853027,-30.847999572753906 -5.0229997634887695,-31.26099967956543 -2.5460000038146973,-31.26099967956543 C-2.5460000038146973,-31.26099967956543 2.5350000858306885,-31.26099967956543 2.5350000858306885,-31.26099967956543 C14.793999671936035,-31.26099967956543 24.82900047302246,-21.224000930786133 24.82900047302246,-8.97700023651123z"/></g><g opacity="1" transform="matrix(1,0,0,1,152.343994140625,74.01399993896484)"><path class="quinary" fill="rgb(178,104,54)" fill-opacity="1" d=" M24.385000228881836,0.8230000138282776 C20.538000106811523,-7.941999912261963 11.390000343322754,-13.61400032043457 1.684999942779541,-13.288000106811523 C1.684999942779541,-13.288000106811523 -1.6169999837875366,-13.28600025177002 -1.6169999837875366,-13.28600025177002 C-14.071000099182129,-13.803999900817871 -25.176000595092773,-4.230000019073486 -26.334999084472656,8.027999877929688 C-26.459999084472656,9.336000442504883 -26.50200080871582,10.586000442504883 -26.464000701904297,11.850000381469727 C-26.44300079345703,12.590999603271484 -25.881999969482422,13.204000473022461 -25.148000717163086,13.293999671936035 C-24.392000198364258,13.390000343322754 -23.722000122070312,12.925000190734863 -23.52199935913086,12.211999893188477 C-22.812999725341797,9.697999954223633 -21.257999420166016,7.811999797821045 -19.025999069213867,6.758999824523926 C-15.784000396728516,5.229000091552734 -11.461000442504883,5.567999839782715 -6.5229997634887695,7.741000175476074 C-1.6169999837875366,9.89799976348877 2.753999948501587,7.331999778747559 6.611000061035156,5.066999912261963 C10.67199993133545,2.684000015258789 13.331999778747559,1.3550000190734863 16.010000228881836,2.9670000076293945 C21.694000244140625,6.386000156402588 22.719999313354492,9.642000198364258 23.39900016784668,11.795999526977539 C23.39900016784668,11.795999526977539 23.55299949645996,12.27400016784668 23.55299949645996,12.27400016784668 C23.757999420166016,12.897000312805176 24.33799934387207,13.305000305175781 24.976999282836914,13.305000305175781 C25.055999755859375,13.305000305175781 25.135000228881836,13.298999786376953 25.21500015258789,13.28600025177002 C25.94300079345703,13.168999671936035 26.476999282836914,12.541999816894531 26.476999282836914,11.805000305175781 C26.476999282836914,7.419000148773193 25.788000106811523,3.815999984741211 24.385000228881836,0.8230000138282776z"/></g></g><g transform="matrix(1,0,0,1,-32.49998474121094,-34.99998474121094)" opacity="1" style="display: block;"><g opacity="1" transform="matrix(1,0,0,1,328.1499938964844,94.36799621582031)"><path class="quinary" fill="rgb(178,104,54)" fill-opacity="1" d=" M25.084999084472656,-9.071000099182129 C25.084999084472656,-9.071000099182129 25.084999084472656,9.071000099182129 25.084999084472656,9.071000099182129 C25.084999084472656,13.991999626159668 23.490999221801758,18.548999786376953 20.78499984741211,22.26099967956543 C17.136999130249023,27.277999877929688 11.48900032043457,30.743000030517578 5.0279998779296875,31.448999404907227 C4.985000133514404,31.448999404907227 4.941999912261963,31.461000442504883 4.89900016784668,31.461000442504883 C4.138999938964844,31.54599952697754 3.3589999675750732,31.58799934387207 2.566999912261963,31.58799934387207 C2.566999912261963,31.58799934387207 -18.356000900268555,31.58799934387207 -18.356000900268555,31.58799934387207 C-18.6560001373291,31.58799934387207 -18.944000244140625,31.56800079345703 -19.232999801635742,31.524999618530273 C-19.232999801635742,31.524999618530273 -19.243999481201172,31.524999618530273 -19.243999481201172,31.524999618530273 C-22.527999877929688,31.086000442504883 -25.084999084472656,28.250999450683594 -25.084999084472656,24.849000930786133 C-25.084999084472656,24.849000930786133 -25.084999084472656,-9.071000099182129 -25.084999084472656,-9.071000099182129 C-25.084999084472656,-9.958999633789062 -25.0310001373291,-10.835000038146973 -24.923999786376953,-11.692000389099121 C-24.923999786376953,-11.713000297546387 -24.924999237060547,-11.746000289916992 -24.913999557495117,-11.777999877929688 C-23.865999221801758,-20.46299934387207 -17.82200050354004,-27.663000106811523 -9.755999565124512,-30.400999069213867 C-7.499000072479248,-31.172000885009766 -5.080999851226807,-31.58799934387207 -2.566999912261963,-31.58799934387207 C-2.566999912261963,-31.58799934387207 2.566999912261963,-31.58799934387207 2.566999912261963,-31.58799934387207 C14.954000473022461,-31.58799934387207 25.084999084472656,-21.45800018310547 25.084999084472656,-9.071000099182129z"/></g><g opacity="1" transform="matrix(1,0,0,1,328.1499938964844,74.01399993896484)"><path class="septenary" fill="rgb(58,51,71)" fill-opacity="1" d=" M24.385000228881836,0.8230000138282776 C20.538000106811523,-7.941999912261963 11.390000343322754,-13.61400032043457 1.684999942779541,-13.288000106811523 C1.684999942779541,-13.288000106811523 -1.6169999837875366,-13.28600025177002 -1.6169999837875366,-13.28600025177002 C-14.071000099182129,-13.803999900817871 -25.176000595092773,-4.230000019073486 -26.334999084472656,8.027999877929688 C-26.459999084472656,9.336000442504883 -26.50200080871582,10.586000442504883 -26.464000701904297,11.850000381469727 C-26.44300079345703,12.590999603271484 -25.881999969482422,13.204000473022461 -25.148000717163086,13.293999671936035 C-24.392000198364258,13.390000343322754 -23.722000122070312,12.925000190734863 -23.52199935913086,12.211999893188477 C-22.812999725341797,9.697999954223633 -21.257999420166016,7.811999797821045 -19.025999069213867,6.758999824523926 C-15.784000396728516,5.229000091552734 -11.461000442504883,5.567999839782715 -6.5229997634887695,7.741000175476074 C-1.6169999837875366,9.89799976348877 2.753999948501587,7.331999778747559 6.611000061035156,5.066999912261963 C10.67199993133545,2.684000015258789 13.331999778747559,1.3550000190734863 16.010000228881836,2.9670000076293945 C21.694000244140625,6.386000156402588 22.719999313354492,9.642000198364258 23.39900016784668,11.795999526977539 C23.39900016784668,11.795999526977539 23.55299949645996,12.27400016784668 23.55299949645996,12.27400016784668 C23.757999420166016,12.897000312805176 24.33799934387207,13.305000305175781 24.976999282836914,13.305000305175781 C25.055999755859375,13.305000305175781 25.135000228881836,13.298999786376953 25.21500015258789,13.28600025177002 C25.94300079345703,13.168999671936035 26.476999282836914,12.541999816894531 26.476999282836914,11.805000305175781 C26.476999282836914,7.419000148773193 25.788000106811523,3.815999984741211 24.385000228881836,0.8230000138282776z"/></g></g><g transform="matrix(1,0,0,1,-32,-35)" opacity="1" style="display: block;"><g opacity="1" transform="matrix(1,0,0,1,144.36000061035156,338.20001220703125)"><path class="tertiary" fill="rgb(100,110,120)" fill-opacity="1" d=" M33.125,-82.2300033569336 C33.125,-82.2300033569336 25.934999465942383,73.29000091552734 25.934999465942383,73.29000091552734 C25.934999465942383,73.29000091552734 -10.204999923706055,79.5999984741211 -10.204999923706055,79.5999984741211 C-10.204999923706055,79.5999984741211 -25.415000915527344,82.25 -25.415000915527344,82.25 C-25.415000915527344,82.25 -30.875,-82.2300033569336 -30.875,-82.2300033569336 C-30.875,-82.2300033569336 33.125,-82.2300033569336 33.125,-82.2300033569336z"/></g><g opacity="0.5" transform="matrix(1,0,0,1,122.69499969482422,338.20001220703125)" style="mix-blend-mode: multiply;"><path class="tertiary" fill="rgb(100,110,120)" fill-opacity="1" d=" M11.460000038146973,79.5999984741211 C11.460000038146973,79.5999984741211 -3.75,82.25 -3.75,82.25 C-3.75,82.25 -9.210000038146973,-82.2300033569336 -9.210000038146973,-82.2300033569336 C-9.210000038146973,-82.2300033569336 6.110000133514404,-82.2300033569336 6.110000133514404,-82.2300033569336 C6.110000133514404,-82.2300033569336 11.460000038146973,79.5999984741211 11.460000038146973,79.5999984741211z"/></g><g opacity="1" transform="matrix(1,0,0,1,0,0)"><g opacity="1" transform="matrix(1,0,0,1,156.16799926757812,424.3450012207031)"><g opacity="1" transform="matrix(1,0,0,1,0,0)"><path class="secondary" fill="rgb(235,230,239)" fill-opacity="1" d=" M-0.3580000102519989,-12.854999542236328 C-0.3580000102519989,-12.854999542236328 0.6740000247955322,-12.854999542236328 0.6740000247955322,-12.854999542236328 C0.6740000247955322,-12.854999542236328 14.131999969482422,-12.854999542236328 14.131999969482422,-12.854999542236328 C14.131999969482422,-12.854999542236328 46.9119987487793,-0.22499999403953552 38.61199951171875,12.875 C38.61199951171875,12.875 18.15399932861328,12.875 18.15399932861328,12.875 C18.15399932861328,12.875 17.121999740600586,12.875 17.121999740600586,12.875 C17.121999740600586,12.875 -20.336000442504883,12.875 -20.336000442504883,12.875 C-20.336000442504883,12.875 -34.92300033569336,12.875 -34.92300033569336,12.875 C-36.00199890136719,12.875 -36.88600158691406,12.020000457763672 -36.922000885009766,10.940999984741211 C-36.922000885009766,10.940999984741211 -37.70899963378906,-12.854999542236328 -37.70899963378906,-12.854999542236328 C-37.70899963378906,-12.854999542236328 -0.3580000102519989,-12.854999542236328 -0.3580000102519989,-12.854999542236328z"/></g></g><g opacity="1" transform="matrix(1,0,0,1,125.40799713134766,424.3450012207031)" style="mix-blend-mode: multiply;"><g opacity="1" transform="matrix(1,0,0,1,0,0)"><path class="secondary" fill="rgb(235,230,239)" fill-opacity="1" d=" M-6.948999881744385,-12.854999542236328 C-6.948999881744385,-12.854999542236328 -6.1620001792907715,10.940999984741211 -6.1620001792907715,10.940999984741211 C-6.1579999923706055,11.074000358581543 -6.139999866485596,11.20199966430664 -6.111000061035156,11.32699966430664 C-5.901000022888184,12.206999778747559 -5.114999771118164,12.857999801635742 -4.176000118255615,12.859999656677246 C-1.718000054359436,12.864999771118164 2.8940000534057617,12.87399959564209 8.404000282287598,12.875 C8.404000282287598,12.875 9.199000358581543,12.875 9.199000358581543,12.875 C9.199000358581543,12.875 8.347999572753906,-12.854999542236328 8.347999572753906,-12.854999542236328 C8.347999572753906,-12.854999542236328 -6.948999881744385,-12.854999542236328 -6.948999881744385,-12.854999542236328z"/></g></g></g></g><g transform="matrix(1,0,0,1,-30.5,-35)" opacity="1" style="display: block;"><g opacity="1" transform="matrix(1,0,0,1,334.5799865722656,337.9049987792969)"><path class="tertiary" fill="rgb(100,110,120)" fill-opacity="1" d=" M26.25,82.53500366210938 C26.25,82.53500366210938 -13.470000267028809,75.03500366210938 -13.470000267028809,75.03500366210938 C-13.470000267028809,75.03500366210938 -24.280000686645508,72.99500274658203 -24.280000686645508,72.99500274658203 C-24.280000686645508,72.99500274658203 -31.469999313354492,-82.53500366210938 -31.469999313354492,-82.53500366210938 C-31.469999313354492,-82.53500366210938 32.72999954223633,-82.56999969482422 32.72999954223633,-82.56999969482422 C32.72999954223633,-82.56999969482422 26.25,82.53500366210938 26.25,82.53500366210938z"/></g><g opacity="0.5" transform="matrix(1,0,0,1,313.9549865722656,334.1549987792969)" style="mix-blend-mode: multiply;"><path class="tertiary" fill="rgb(100,110,120)" fill-opacity="1" d=" M10.835000038146973,76.74500274658203 C10.835000038146973,76.74500274658203 9.324999809265137,77.48500061035156 7.15500020980835,78.78500366210938 C7.15500020980835,78.78500366210938 -3.6549999713897705,76.74500274658203 -3.6549999713897705,76.74500274658203 C-3.6549999713897705,76.74500274658203 -10.835000038146973,-78.78500366210938 -10.835000038146973,-78.78500366210938 C-10.835000038146973,-78.78500366210938 7.625,-78.78500366210938 7.625,-78.78500366210938 C7.625,-78.78500366210938 10.835000038146973,76.74500274658203 10.835000038146973,76.74500274658203z"/></g><g opacity="1" transform="matrix(1,0,0,1,0,0)"><g opacity="1" transform="matrix(1,0,0,1,323.31201171875,423.7650146484375)"><path class="secondary" fill="rgb(235,230,239)" fill-opacity="1" d=" M1.4830000400543213,-12.864999771118164 C1.4830000400543213,-12.864999771118164 0.45100000500679016,-12.864999771118164 0.45100000500679016,-12.864999771118164 C0.45100000500679016,-12.864999771118164 -13.006999969482422,-12.864999771118164 -13.006999969482422,-12.864999771118164 C-13.006999969482422,-12.864999771118164 -45.7869987487793,-0.23499999940395355 -37.48699951171875,12.864999771118164 C-37.48699951171875,12.864999771118164 -17.02899932861328,12.864999771118164 -17.02899932861328,12.864999771118164 C-17.02899932861328,12.864999771118164 -15.996999740600586,12.864999771118164 -15.996999740600586,12.864999771118164 C-15.996999740600586,12.864999771118164 21.461000442504883,12.864999771118164 21.461000442504883,12.864999771118164 C21.461000442504883,12.864999771118164 36.04800033569336,12.864999771118164 36.04800033569336,12.864999771118164 C37.12699890136719,12.864999771118164 38.01100158691406,12.010000228881836 38.047000885009766,10.930999755859375 C38.047000885009766,10.930999755859375 38.83399963378906,-12.864999771118164 38.83399963378906,-12.864999771118164 C38.83399963378906,-12.864999771118164 1.4830000400543213,-12.864999771118164 1.4830000400543213,-12.864999771118164z"/></g><g opacity="0.5" transform="matrix(1,0,0,1,304.6369934082031,423.7650146484375)" style="mix-blend-mode: multiply;"><path class="secondary" fill="rgb(235,230,239)" fill-opacity="1" d=" M-18.812000274658203,12.864999771118164 C-18.812000274658203,12.864999771118164 2.677999973297119,12.864999771118164 2.677999973297119,12.864999771118164 C-5.622000217437744,-0.23499999940395355 20.158000946044922,-12.864999771118164 20.158000946044922,-12.864999771118164 C20.158000946044922,-12.864999771118164 5.668000221252441,-12.864999771118164 5.668000221252441,-12.864999771118164 C5.668000221252441,-12.864999771118164 -27.11199951171875,-0.23499999940395355 -18.812000274658203,12.864999771118164z"/></g></g></g><g transform="matrix(1,0,0,1,215.00001525878906,215.00001525878906)" opacity="1" style="display: block;"><g opacity="1" transform="matrix(1,0,0,1,0,0)"><path class="primary" fill="rgb(255,199,56)" fill-opacity="1" d=" M60.47800064086914,-63.63199996948242 C60.47800064086914,-63.63199996948242 29.420000076293945,-25.643999099731445 29.420000076293945,-25.643999099731445 C29.420000076293945,-25.643999099731445 -24.413000106811523,4.546000003814697 -24.413000106811523,4.546000003814697 C-24.413000106811523,4.546000003814697 -21.086999893188477,27.687999725341797 2.0850000381469727,23.334999084472656 C2.0850000381469727,23.334999084472656 49.93600082397461,-3.378999948501587 49.93600082397461,-3.378999948501587 C49.93600082397461,-3.378999948501587 60.57600021362305,-16.048999786376953 60.57600021362305,-16.048999786376953"/><path class="primary" fill="rgb(255,199,56)" fill-opacity="1" d=" M60.47800064086914,-63.63199996948242 C60.47800064086914,-63.63199996948242 29.420000076293945,-25.643999099731445 29.420000076293945,-25.643999099731445 C29.420000076293945,-25.643999099731445 -24.413000106811523,4.546000003814697 -24.413000106811523,4.546000003814697 C-24.413000106811523,4.546000003814697 -21.086999893188477,27.687999725341797 2.0850000381469727,23.334999084472656 C2.0850000381469727,23.334999084472656 49.93600082397461,-3.378999948501587 49.93600082397461,-3.378999948501587 C49.93600082397461,-3.378999948501587 60.57600021362305,-16.048999786376953 60.57600021362305,-16.048999786376953"/></g></g><g transform="matrix(1,0,0,1,263.4520263671875,184.260009765625)" opacity="0.5" style="mix-blend-mode: multiply; display: block;"><g opacity="1" transform="matrix(1,0,0,1,0,0)" style="mix-blend-mode: multiply;"><path class="primary" fill="rgb(255,199,56)" fill-opacity="1" d=" M-7.663000106811523,-9.206999778747559 C-7.663000106811523,-9.206999778747559 14.913000106811523,-36.90999984741211 14.913000106811523,-36.90999984741211 C14.913000106811523,-36.90999984741211 14.913000106811523,10.989999771118164 14.913000106811523,10.989999771118164 C14.913000106811523,10.989999771118164 0.5730000138282776,28.65999984741211 0.5730000138282776,28.65999984741211 C0.5730000138282776,28.65999984741211 0.5730000138282776,28.65999984741211 0.5730000138282776,28.65999984741211 C0,13.055999755859375 -3.2090001106262207,0 -7.663000106811523,-9.206999778747559z"/></g></g><g transform="matrix(1,0,0,1,215.00001525878906,215.00001525878906)" opacity="1" style="display: block;"><g opacity="1" transform="matrix(1,0,0,1,0,0)"><path class="primary" fill="rgb(255,199,56)" fill-opacity="1" d=" M117.0999984741211,-86.01000213623047 C116.93000030517578,-86.33000183105469 116.75,-86.6500015258789 116.55000305175781,-86.95999908447266 C110.9800033569336,-96.33999633789062 100.73999786376953,-102.62999725341797 89.02999877929688,-102.62999725341797 C80.19000244140625,-102.62999725341797 72.19000244140625,-99.05000305175781 66.4000015258789,-93.26000213623047 C60.61000061035156,-87.47000122070312 57.029998779296875,-79.4800033569336 57.029998779296875,-70.63999938964844 C57.029998779296875,-70.63999938964844 57.279998779296875,6.820000171661377 57.279998779296875,6.820000171661377 C57.279998779296875,6.820000171661377 109.9800033569336,6.820000171661377 109.9800033569336,6.820000171661377 C109.9800033569336,6.820000171661377 121.27999877929688,6.820000171661377 121.27999877929688,6.820000171661377 C121.27999877929688,6.820000171661377 121.02999877929688,-70.63999938964844 121.02999877929688,-70.63999938964844 C121.02999877929688,-73.83999633789062 120.55999755859375,-76.93000030517578 119.69000244140625,-79.83999633789062"/></g></g><g transform="matrix(1,0,0,1,316.75201416015625,188.6710205078125)" opacity="0.5" style="mix-blend-mode: multiply; display: block;"><g opacity="1" transform="matrix(1,0,0,1,0,0)" style="mix-blend-mode: multiply;"><path class="primary" fill="rgb(255,199,56)" fill-opacity="1" d=" M-8.442999839782715,-33.198001861572266 C-8.442999839782715,-33.198001861572266 8.442999839782715,6.89900016784668 8.442999839782715,6.89900016784668 C8.442999839782715,6.89900016784668 8.36299991607666,12.178000450134277 8.36299991607666,12.178000450134277 C8.36299991607666,12.178000450134277 8.062999725341797,33.198001861572266 8.062999725341797,33.198001861572266 C8.062999725341797,33.198001861572266 -6.660999774932861,33.198001861572266 -6.660999774932861,33.198001861572266 C-3.4010000228881836,16.937999725341797 -0.22300000488758087,-11.008999824523926 -8.442999839782715,-33.198001861572266z"/></g></g><g transform="matrix(1,0,0,1,215.00001525878906,215.00001525878906)" opacity="1" style="display: block;"><g opacity="1" transform="matrix(1,0,0,1,0,0)"><path class="primary" fill="rgb(255,199,56)" fill-opacity="1" d=" M89.87999725341797,-69.27999877929688 C89.87999725341797,-69.27999877929688 110.11000061035156,-21.229999542236328 110.11000061035156,-21.229999542236328 C110.11000061035156,-21.229999542236328 109.7300033569336,5.070000171661377 109.7300033569336,5.070000171661377 C109.7300033569336,5.070000171661377 109.20999908447266,40.900001525878906 109.20999908447266,40.900001525878906 C109.20999908447266,40.900001525878906 132.35000610351562,49.84000015258789 140.80999755859375,27.5 C140.80999755859375,27.5 141.55999755859375,-27.6299991607666 141.55999755859375,-27.6299991607666 C141.55999755859375,-27.6299991607666 119.69999694824219,-79.80999755859375 119.69999694824219,-79.80999755859375 C119.69999694824219,-79.80999755859375 119.69000244140625,-79.83999633789062 119.69000244140625,-79.83999633789062 C119.69000244140625,-79.83999633789062 117.0999984741211,-86.01000213623047 117.0999984741211,-86.01000213623047"/></g></g><g transform="matrix(1,0,0,1,215,214.99998474121094)" opacity="1" style="display: block;"><g opacity="1" transform="matrix(1,0,0,1,0,0)"><path class="quaternary" fill="rgb(75,179,253)" fill-opacity="1" d=" M-69.7030029296875,6.9120001792907715 C-69.7030029296875,6.9120001792907715 -133.6999969482422,6.9120001792907715 -133.6999969482422,6.9120001792907715 C-133.6999969482422,6.9120001792907715 -133.72500610351562,-70.04399871826172 -133.72500610351562,-70.04399871826172 C-133.72500610351562,-87.71600341796875 -119.39900207519531,-102.04199981689453 -101.72699737548828,-102.04199981689453 C-101.72699737548828,-102.04199981689453 -101.72699737548828,-102.04199981689453 -101.72699737548828,-102.04199981689453 C-84.05500030517578,-102.04199981689453 -69.72799682617188,-87.71600341796875 -69.72799682617188,-70.04399871826172 C-69.72799682617188,-70.04399871826172 -69.7030029296875,6.9120001792907715 -69.7030029296875,6.9120001792907715z"/></g></g><g transform="matrix(1,0,0,1,215,214.99998474121094)" opacity="1" style="display: block;"><g opacity="1" transform="matrix(1,0,0,1,0,0)"><path class="quaternary" fill="rgb(75,179,253)" fill-opacity="1" d=" M-69.6709976196289,-69.66600036621094 C-69.6709976196289,-69.66600036621094 -36.112998962402344,-27.052000045776367 -36.112998962402344,-27.052000045776367 C-36.112998962402344,-27.052000045776367 17.719999313354492,3.13700008392334 17.719999313354492,3.13700008392334 C17.719999313354492,3.13700008392334 14.394000053405762,26.280000686645508 -8.777999877929688,21.927000045776367 C-8.777999877929688,21.927000045776367 -56.62900161743164,-4.7870001792907715 -56.62900161743164,-4.7870001792907715 C-56.62900161743164,-4.7870001792907715 -105.39399719238281,-69.58200073242188 -105.39399719238281,-69.58200073242188"/></g></g><g transform="matrix(1,0,0,1,129.6020050048828,181.71499633789062)" opacity="0.5" style="mix-blend-mode: multiply; display: block;"><g opacity="1" transform="matrix(1,0,0,1,0,0)" style="mix-blend-mode: multiply;"><path class="quaternary" fill="rgb(75,179,253)" fill-opacity="1" d=" M15.253000259399414,11.734999656677246 C15.253000259399414,11.734999656677246 15.253000259399414,28.80500030517578 15.253000259399414,28.80500030517578 C15.253000259399414,27.80500030517578 -6.7820000648498535,2.0350000858306885 -11.097999572753906,-7.039999961853027 C-14.01099967956543,-13.164999961853027 -15.253000259399414,-28.80500030517578 -15.253000259399414,-28.80500030517578 C-15.253000259399414,-28.80500030517578 15.253000259399414,11.734999656677246 15.253000259399414,11.734999656677246z"/></g></g></g></g></svg>