<svg xmlns="http://www.w3.org/2000/svg" xmlns:xlink="http://www.w3.org/1999/xlink" viewBox="0 0 430 430" width="430" height="430" preserveAspectRatio="xMidYMid meet" style="width: 100%; height: 100%; transform: translate3d(0px, 0px, 0px); content-visibility: visible;"><defs><clipPath id="__lottie_element_12168"><rect width="430" height="430" x="0" y="0"/></clipPath><clipPath id="__lottie_element_12170"><path d="M0,0 L430,0 L430,430 L0,430z"/></clipPath><clipPath id="__lottie_element_12175"><path d="M0,0 L430,0 L430,430 L0,430z"/></clipPath></defs><g clip-path="url(#__lottie_element_12168)"><g clip-path="url(#__lottie_element_12170)" transform="matrix(1,0,0,1,0,0)" opacity="1" style="display: block;"><g clip-path="url(#__lottie_element_12175)" transform="matrix(1,0,0,1,-7.839996337890625,10)" opacity="1" style="display: block;"><g transform="matrix(1,0,0,1,-35,-34.99998474121094)" opacity="1" style="display: block;"><g opacity="1" transform="matrix(1,0,0,1,217.03199768066406,302.0159912109375)"><path class="primary" fill="rgb(242,139,168)" fill-opacity="1" d=" M-64.3550033569336,-151.66900634765625 C-64.3550033569336,-151.66900634765625 130.29200744628906,-151.66900634765625 130.29200744628906,-151.66900634765625 C130.29200744628906,-151.66900634765625 181.5449981689453,-75.59200286865234 181.5449981689453,-75.59200286865234 C181.5449981689453,-75.59200286865234 -115.60800170898438,-75.59200286865234 -115.60800170898438,-75.59200286865234 M32.96799850463867,75.59300231933594 C32.96799850463867,75.59300231933594 181.5449981689453,-75.59300231933594 181.5449981689453,-75.59300231933594 C181.5449981689453,-75.59300231933594 -115.60800170898438,-75.59300231933594 -115.60800170898438,-75.59300231933594 C-115.60800170898438,-75.59300231933594 32.96799850463867,75.59300231933594 32.96799850463867,75.59300231933594z"/></g></g><g transform="matrix(1,0,0,1,-35,-34.99998474121094)" opacity="0.5" style="mix-blend-mode: multiply; display: none;"><g opacity="1" transform="matrix(1,0,0,1,217.03199768066406,302.0159912109375)"><path class="primary" fill="rgb(242,139,168)" fill-opacity="1" d=" M32.96799850463867,75.59300231933594 C32.96799850463867,75.59300231933594 182.0449981689453,-75.74099731445312 182.0449981689453,-75.74099731445312 C182.0449981689453,-75.74099731445312 109.06376647949219,-75.68643951416016 109.06376647949219,-75.68643951416016 C109.06376647949219,-75.68643951416016 32.96799850463867,75.59300231933594 32.96799850463867,75.59300231933594z M32.96799850463867,75.59300231933594 C32.96799850463867,75.59300231933594 -17.363704681396484,-75.71263122558594 -17.363704681396484,-75.71263122558594 C-17.363704681396484,-75.71263122558594 -105.76038360595703,-75.95480346679688 -105.76038360595703,-75.95480346679688 C-105.76038360595703,-75.95480346679688 32.96799850463867,75.59300231933594 32.96799850463867,75.59300231933594z"/></g></g><g transform="matrix(1,0,0,1,-35,-34.99998474121094)" opacity="0.5" style="mix-blend-mode: multiply; display: none;"><g opacity="1" transform="matrix(1,0,0,1,217.03199768066406,302.0159912109375)"><path class="primary" fill="rgb(242,139,168)" fill-opacity="1" d=" M32.96799850463867,75.59300231933594 C32.96799850463867,75.59300231933594 112.15927124023438,-75.7333755493164 112.15927124023438,-75.7333755493164 C112.15927124023438,-75.7333755493164 -12.848721504211426,-75.7059555053711 -12.848721504211426,-75.7059555053711 C-12.848721504211426,-75.7059555053711 32.96799850463867,75.59300231933594 32.96799850463867,75.59300231933594z M32.96799850463867,75.59300231933594 C32.96799850463867,75.59300231933594 -102.62995910644531,-75.7333755493164 -102.62995910644531,-75.7333755493164 C-102.62995910644531,-75.7333755493164 -115.60800170898438,-75.98200225830078 -115.60800170898438,-75.98200225830078 C-115.60800170898438,-75.98200225830078 32.96799850463867,75.59300231933594 32.96799850463867,75.59300231933594z"/></g></g><g transform="matrix(1,0,0,1,-35,-34.99998474121094)" opacity="0.5" style="mix-blend-mode: multiply; display: none;"><g opacity="1" transform="matrix(1,0,0,1,217.03199768066406,302.0159912109375)"><path class="primary" fill="rgb(242,139,168)" fill-opacity="1" d=" M32.96799850463867,75.59300231933594 C32.96799850463867,75.59300231933594 182.0449981689453,-75.74099731445312 182.0449981689453,-75.74099731445312 C182.0449981689453,-75.74099731445312 107.49369049072266,-75.68507385253906 107.49369049072266,-75.68507385253906 C107.49369049072266,-75.68507385253906 32.96799850463867,75.59300231933594 32.96799850463867,75.59300231933594z M32.96799850463867,75.59300231933594 C32.96799850463867,75.59300231933594 -19.89488983154297,-75.71723175048828 -19.89488983154297,-75.71723175048828 C-19.89488983154297,-75.71723175048828 -107.35900115966797,-75.95921325683594 -107.35900115966797,-75.95921325683594 C-107.35900115966797,-75.95921325683594 32.96799850463867,75.59300231933594 32.96799850463867,75.59300231933594z"/></g></g><g transform="matrix(1,0,0,1,-35,-34.99998474121094)" opacity="0.5" style="mix-blend-mode: multiply; display: none;"><g opacity="1" transform="matrix(1,0,0,1,217.03199768066406,302.0159912109375)"><path class="primary" fill="rgb(242,139,168)" fill-opacity="1" d=" M32.96799850463867,75.59300231933594 C32.96799850463867,75.59300231933594 106.06355285644531,-75.73271179199219 106.06355285644531,-75.73271179199219 C106.06355285644531,-75.73271179199219 -22.638805389404297,-75.70838928222656 -22.638805389404297,-75.70838928222656 C-22.638805389404297,-75.70838928222656 32.96799850463867,75.59300231933594 32.96799850463867,75.59300231933594z M32.96799850463867,75.59300231933594 C32.96799850463867,75.59300231933594 -108.70719909667969,-75.73271179199219 -108.70719909667969,-75.73271179199219 C-108.70719909667969,-75.73271179199219 -115.60800170898438,-75.98200225830078 -115.60800170898438,-75.98200225830078 C-115.60800170898438,-75.98200225830078 32.96799850463867,75.59300231933594 32.96799850463867,75.59300231933594z"/></g></g><g transform="matrix(1,0,0,1,-35,-34.99998474121094)" opacity="0.5" style="mix-blend-mode: multiply; display: none;"><g opacity="1" transform="matrix(1,0,0,1,217.03199768066406,302.0159912109375)"><path class="primary" fill="rgb(242,139,168)" fill-opacity="1" d=" M32.96799850463867,75.59300231933594 C32.96799850463867,75.59300231933594 182.0449981689453,-75.74099731445312 182.0449981689453,-75.74099731445312 C182.0449981689453,-75.74099731445312 101.27421569824219,-75.67964172363281 101.27421569824219,-75.67964172363281 C101.27421569824219,-75.67964172363281 32.96799850463867,75.59300231933594 32.96799850463867,75.59300231933594z M32.96799850463867,75.59300231933594 C32.96799850463867,75.59300231933594 -29.92159080505371,-75.73548126220703 -29.92159080505371,-75.73548126220703 C-29.92159080505371,-75.73548126220703 -113.69155883789062,-75.9767074584961 -113.69155883789062,-75.9767074584961 C-113.69155883789062,-75.9767074584961 32.96799850463867,75.59300231933594 32.96799850463867,75.59300231933594z"/></g></g><g transform="matrix(1,0,0,1,-35,-34.99998474121094)" opacity="0.5" style="mix-blend-mode: multiply; display: block;"><g opacity="1" transform="matrix(1,0,0,1,217.03199768066406,302.0159912109375)"><path class="primary" fill="rgb(242,139,168)" fill-opacity="1" d=" M32.96799850463867,75.59300231933594 C32.96799850463867,75.59300231933594 99.54501342773438,-75.73200225830078 99.54501342773438,-75.73200225830078 C99.54501342773438,-75.73200225830078 -33.10797882080078,-75.71099853515625 -33.10797882080078,-75.71099853515625 C-33.10797882080078,-75.71099853515625 32.96799850463867,75.59300231933594 32.96799850463867,75.59300231933594z M32.96799850463867,75.59300231933594 C32.96799850463867,75.59300231933594 -115.20598602294922,-75.73200225830078 -115.20598602294922,-75.73200225830078 C-115.20598602294922,-75.73200225830078 -115.60800170898438,-75.98200225830078 -115.60800170898438,-75.98200225830078 C-115.60800170898438,-75.98200225830078 32.96799850463867,75.59300231933594 32.96799850463867,75.59300231933594z"/></g></g><g transform="matrix(1,0,0,1,-35,-34.99998474121094)" opacity="0.5" style="mix-blend-mode: multiply; display: none;"><g opacity="1" transform="matrix(1,0,0,1,217.03199768066406,302.0159912109375)"><path class="primary" fill="rgb(242,139,168)" fill-opacity="1" d=" M7.882413387298584,-151.7898406982422 C7.882413387298584,-151.7898406982422 73.91217803955078,-151.6058349609375 73.91217803955078,-151.6058349609375 C73.91217803955078,-151.6058349609375 109.21676635742188,-75.57505798339844 109.21676635742188,-75.57505798339844 C109.21676635742188,-75.57505798339844 -17.0374813079834,-75.760498046875 -17.0374813079834,-75.760498046875 M-64.3550033569336,-151.66900634765625 C-64.3550033569336,-151.66900634765625 -56.775821685791016,-151.6381072998047 -56.775821685791016,-151.6381072998047 C-56.775821685791016,-151.6381072998047 -105.67814636230469,-75.71956634521484 -105.67814636230469,-75.71956634521484 C-105.67814636230469,-75.71956634521484 -115.60800170898438,-75.59200286865234 -115.60800170898438,-75.59200286865234"/></g></g><g transform="matrix(1,0,0,1,-35,-34.99998474121094)" opacity="0.5" style="mix-blend-mode: multiply; display: none;"><g opacity="1" transform="matrix(1,0,0,1,217.03199768066406,302.0159912109375)"><path class="primary" fill="rgb(242,139,168)" fill-opacity="1" d=" M-54.347286224365234,-151.86520385742188 C-54.347286224365234,-151.86520385742188 10.883414268493652,-151.64231872558594 10.883414268493652,-151.64231872558594 C10.883414268493652,-151.64231872558594 -12.032271385192871,-75.92984008789062 -12.032271385192871,-75.92984008789062 C-12.032271385192871,-75.92984008789062 -102.24372863769531,-75.87267303466797 -102.24372863769531,-75.87267303466797 M76.15583801269531,-151.840087890625 C76.15583801269531,-151.840087890625 130.60400390625,-151.77200317382812 130.60400390625,-151.77200317382812 C130.60400390625,-151.77200317382812 181.4199981689453,-75.61299896240234 181.4199981689453,-75.61299896240234 C181.4199981689453,-75.61299896240234 112.00944519042969,-75.6043701171875 112.00944519042969,-75.6043701171875"/></g></g><g transform="matrix(1,0,0,1,-35,-34.99998474121094)" opacity="0.5" style="mix-blend-mode: multiply; display: none;"><g opacity="1" transform="matrix(1,0,0,1,217.03199768066406,302.0159912109375)"><path class="primary" fill="rgb(242,139,168)" fill-opacity="1" d=" M6.6263556480407715,-151.79067993164062 C6.6263556480407715,-151.79067993164062 72.67515563964844,-151.60667419433594 72.67515563964844,-151.60667419433594 C72.67515563964844,-151.60667419433594 107.64669799804688,-75.57764434814453 107.64669799804688,-75.57764434814453 C107.64669799804688,-75.57764434814453 -19.54483985900879,-75.76171875 -19.54483985900879,-75.76171875 M-64.3550033569336,-151.66900634765625 C-64.3550033569336,-151.66900634765625 -58.012847900390625,-151.6377716064453 -58.012847900390625,-151.6377716064453 C-58.012847900390625,-151.6377716064453 -107.2957992553711,-75.71849822998047 -107.2957992553711,-75.71849822998047 C-107.2957992553711,-75.71849822998047 -115.60800170898438,-75.59200286865234 -115.60800170898438,-75.59200286865234"/></g></g><g transform="matrix(1,0,0,1,-35,-34.99998474121094)" opacity="0.5" style="mix-blend-mode: multiply; display: none;"><g opacity="1" transform="matrix(1,0,0,1,217.03199768066406,302.0159912109375)"><path class="primary" fill="rgb(242,139,168)" fill-opacity="1" d=" M-59.002193450927734,-151.87525939941406 C-59.002193450927734,-151.87525939941406 6.006844520568848,-151.65472412109375 6.006844520568848,-151.65472412109375 C6.006844520568848,-151.65472412109375 -21.859298706054688,-75.92363739013672 -21.859298706054688,-75.92363739013672 C-21.859298706054688,-75.92363739013672 -108.33944702148438,-75.88346099853516 -108.33944702148438,-75.88346099853516 M71.4085693359375,-151.8405303955078 C71.4085693359375,-151.8405303955078 130.60400390625,-151.77200317382812 130.60400390625,-151.77200317382812 C130.60400390625,-151.77200317382812 181.4199981689453,-75.61299896240234 181.4199981689453,-75.61299896240234 C181.4199981689453,-75.61299896240234 105.9576187133789,-75.59742736816406 105.9576187133789,-75.59742736816406"/></g></g><g transform="matrix(1,0,0,1,-35,-34.99998474121094)" opacity="0.5" style="mix-blend-mode: multiply; display: none;"><g opacity="1" transform="matrix(1,0,0,1,217.03199768066406,302.0159912109375)"><path class="primary" fill="rgb(242,139,168)" fill-opacity="1" d=" M1.6507744789123535,-151.7939910888672 C1.6507744789123535,-151.7939910888672 67.77496337890625,-151.61000061035156 67.77496337890625,-151.61000061035156 C67.77496337890625,-151.61000061035156 101.42721557617188,-75.58789825439453 101.42721557617188,-75.58789825439453 C101.42721557617188,-75.58789825439453 -29.477155685424805,-75.76654052734375 -29.477155685424805,-75.76654052734375 M-64.3550033569336,-151.66900634765625 C-64.3550033569336,-151.66900634765625 -62.91304016113281,-151.63641357421875 -62.91304016113281,-151.63641357421875 C-62.91304016113281,-151.63641357421875 -113.70374298095703,-75.71427917480469 -113.70374298095703,-75.71427917480469 C-113.70374298095703,-75.71427917480469 -115.60800170898438,-75.59200286865234 -115.60800170898438,-75.59200286865234"/></g></g><g transform="matrix(1,0,0,1,-35,-34.99998474121094)" opacity="0.5" style="mix-blend-mode: multiply; display: block;"><g opacity="1" transform="matrix(1,0,0,1,217.03199768066406,302.0159912109375)"><path class="primary" fill="rgb(242,139,168)" fill-opacity="1" d=" M-63.97998809814453,-151.88600158691406 C-63.97998809814453,-151.88600158691406 0.7920113205909729,-151.66799926757812 0.7920113205909729,-151.66799926757812 C0.7920113205909729,-151.66799926757812 -32.367977142333984,-75.91699981689453 -32.367977142333984,-75.91699981689453 C-32.367977142333984,-75.91699981689453 -114.85798645019531,-75.8949966430664 -114.85798645019531,-75.8949966430664 M66.3320083618164,-151.84100341796875 C66.3320083618164,-151.84100341796875 130.60400390625,-151.77200317382812 130.60400390625,-151.77200317382812 C130.60400390625,-151.77200317382812 181.4199981689453,-75.61299896240234 181.4199981689453,-75.61299896240234 C181.4199981689453,-75.61299896240234 99.48601531982422,-75.58999633789062 99.48601531982422,-75.58999633789062"/></g></g></g><g transform="matrix(0.5,0.8660253882408142,-0.8660253882408142,0.5,306.41961669921875,-126.41209411621094)" opacity="1" style="display: block;"><g opacity="1" transform="matrix(1,0,0,1,248.87899780273438,52.14899826049805)"><path stroke-linecap="round" stroke-linejoin="round" fill-opacity="0" class="secondary" stroke="rgb(255,199,56)" stroke-opacity="1" stroke-width="7" d="M0 0"/></g></g><g transform="matrix(0.8660253882408142,0.5,-0.5,0.8660253882408142,123.46290588378906,-126.44761657714844)" opacity="1" style="display: block;"><g opacity="1" transform="matrix(1,0,0,1,248.87899780273438,52.14899826049805)"><path stroke-linecap="round" stroke-linejoin="round" fill-opacity="0" class="secondary" stroke="rgb(255,199,56)" stroke-opacity="1" stroke-width="7" d="M0 0"/></g></g><g transform="matrix(1,0,0,1,-35,-35)" opacity="1" style="display: block;"><g opacity="1" transform="matrix(1,0,0,1,248.87899780273438,52.14899826049805)"><path stroke-linecap="round" stroke-linejoin="round" fill-opacity="0" class="secondary" stroke="rgb(255,199,56)" stroke-opacity="1" stroke-width="7" d="M0 0"/></g></g><g transform="matrix(0.8660253882408142,-0.5,0.5,0.8660253882408142,-126.50909423828125,123.42739868164062)" opacity="1" style="display: block;"><g opacity="1" transform="matrix(1,0,0,1,248.87899780273438,52.14899826049805)"><path stroke-linecap="round" stroke-linejoin="round" fill-opacity="0" class="secondary" stroke="rgb(255,199,56)" stroke-opacity="1" stroke-width="7" d="M0 0"/></g></g><g transform="matrix(0.5,-0.8660253882408142,0.8660253882408142,0.5,-126.54461669921875,306.38409423828125)" opacity="1" style="display: block;"><g opacity="1" transform="matrix(1,0,0,1,248.87899780273438,52.14899826049805)"><path stroke-linecap="round" stroke-linejoin="round" fill-opacity="0" class="secondary" stroke="rgb(255,199,56)" stroke-opacity="1" stroke-width="7" d="M0 0"/></g></g></g></g></svg>