<svg xmlns="http://www.w3.org/2000/svg" xmlns:xlink="http://www.w3.org/1999/xlink" viewBox="0 0 430 430" width="430" height="430" preserveAspectRatio="xMidYMid meet" style="width: 100%; height: 100%; transform: translate3d(0px, 0px, 0px); content-visibility: visible;"><defs><clipPath id="__lottie_element_17965"><rect width="430" height="430" x="0" y="0"/></clipPath><clipPath id="__lottie_element_17967"><path d="M0,0 L430,0 L430,430 L0,430z"/></clipPath><g id="__lottie_element_17996"><g transform="matrix(0.010868793353438377,0.9999409317970276,-0.9999409317970276,0.010868793353438377,215,212.89451599121094)" opacity="1" style="display: none;"><path fill="rgb(18,19,49)" fill-opacity="1" d=" M32.41539001464844,94.88943481445312 C32.41539001464844,94.88943481445312 56.45701599121094,105.85388946533203 56.45701599121094,105.85388946533203 C66.44160461425781,109.96388244628906 73.03397369384766,120.26588439941406 73.03397369384766,131.7578887939453 C73.03397369384766,131.7578887939453 73.03397369384766,142.70687866210938 73.03397369384766,142.70687866210938 C73.03397369384766,142.70687866210938 31.08011245727539,134.9805450439453 31.08011245727539,134.9805450439453 M-3.016512155532837,80.12438201904297 C-3.016512155532837,80.12438201904297 -4.516446590423584,111.01384735107422 -4.516446590423584,111.01384735107422 C-4.516446590423584,111.01384735107422 -4.473683834075928,133.433837890625 -4.473683834075928,133.433837890625 C-4.473683834075928,133.433837890625 -3.024040937423706,133.49911499023438 -3.024040937423706,133.49911499023438"/><g opacity="1" transform="matrix(1,0,0,1,0,0)"><path stroke-linecap="butt" stroke-linejoin="round" fill-opacity="0" stroke="rgb(18,19,49)" stroke-opacity="1" stroke-width="5" d=" M32.41539001464844,94.88943481445312 C32.41539001464844,94.88943481445312 56.45701599121094,105.85388946533203 56.45701599121094,105.85388946533203 C66.44160461425781,109.96388244628906 73.03397369384766,120.26588439941406 73.03397369384766,131.7578887939453 C73.03397369384766,131.7578887939453 73.03397369384766,142.70687866210938 73.03397369384766,142.70687866210938 C73.03397369384766,142.70687866210938 31.08011245727539,134.9805450439453 31.08011245727539,134.9805450439453 M-3.016512155532837,80.12438201904297 C-3.016512155532837,80.12438201904297 -4.516446590423584,111.01384735107422 -4.516446590423584,111.01384735107422 C-4.516446590423584,111.01384735107422 -4.473683834075928,133.433837890625 -4.473683834075928,133.433837890625 C-4.473683834075928,133.433837890625 -3.024040937423706,133.49911499023438 -3.024040937423706,133.49911499023438"/></g></g></g><filter id="__lottie_element_18014" filterUnits="objectBoundingBox" x="0%" y="0%" width="100%" height="100%"><feComponentTransfer in="SourceGraphic"><feFuncA type="table" tableValues="1.0 0.0"/></feComponentTransfer></filter><mask id="__lottie_element_17996_2" mask-type="alpha"><g filter="url(#__lottie_element_18014)"><rect width="430" height="430" x="0" y="0" fill="#ffffff" opacity="0"/><use xmlns:ns1="http://www.w3.org/1999/xlink" ns1:href="#__lottie_element_17996"/></g></mask></defs><g clip-path="url(#__lottie_element_17965)"><g clip-path="url(#__lottie_element_17967)" transform="matrix(1,0,0,1,0,0)" opacity="1" style="display: block;"><g transform="matrix(0,1,-1,0,215,215)" opacity="1" style="display: block;"/><g transform="matrix(0.24867744743824005,0.9685863256454468,-0.9685863256454468,0.24867744743824005,215,166.3167724609375)" opacity="1" style="display: none;"><g opacity="1" transform="matrix(1,0,0,1,0,0)"><path class="primary" fill="rgb(235,230,239)" fill-opacity="1" d=" M-29.204999923706055,134.43800354003906 C-29.204999923706055,137.66299438476562 -29.204999923706055,142.96499633789062 -29.204999923706055,142.96499633789062 C-29.2050724029541,142.96499633789062 -24.787181854248047,140.4669189453125 -24.787181854248047,140.4669189453125"/></g><g opacity="0.5" transform="matrix(1,0,0,1,0,0)" style="mix-blend-mode: multiply;"><path class="primary" fill="rgb(235,230,239)" fill-opacity="1" d=" M-29.204999923706055,134.43800354003906 C-29.204999923706055,137.66299438476562 -29.204999923706055,142.96499633789062 -29.204999923706055,142.96499633789062 C-29.2050724029541,142.96499633789062 -24.787181854248047,140.4669189453125 -24.787181854248047,140.4669189453125"/></g></g><g transform="matrix(0.24867744743824005,0.9685863256454468,-0.9685863256454468,0.24867744743824005,215,166.3167724609375)" opacity="1" style="display: none;"><g opacity="1" transform="matrix(1,0,0,1,0,0)"><path stroke-linecap="round" stroke-linejoin="round" fill-opacity="0" class="primary" stroke="rgb(235,230,239)" stroke-opacity="1" stroke-width="7" d=" M-29.204999923706055,134.43800354003906 C-29.204999923706055,137.66299438476562 -29.204999923706055,142.96499633789062 -29.204999923706055,142.96499633789062 C-29.2050724029541,142.96499633789062 -24.787181854248047,140.4669189453125 -24.787181854248047,140.4669189453125"/><path stroke-linecap="round" stroke-linejoin="round" fill-opacity="0" class="primary" stroke="rgb(235,230,239)" stroke-opacity="0.5" stroke-width="7" d=" M-29.204999923706055,134.43800354003906 C-29.204999923706055,137.66299438476562 -29.204999923706055,142.96499633789062 -29.204999923706055,142.96499633789062 C-29.2050724029541,142.96499633789062 -24.787181854248047,140.4669189453125 -24.787181854248047,140.4669189453125" style="mix-blend-mode: multiply;"/></g></g><g transform="matrix(0,1,-1,0,215,215)" opacity="1" style="display: block;"><g opacity="1" transform="matrix(1,0,0,1,0,0)"><path class="primary" fill="rgb(235,230,239)" fill-opacity="1" d=" M-31.854999542236328,94.4800033569336 C-31.854999542236328,94.4800033569336 -62.62699890136719,106.26499938964844 -62.62699890136719,106.26499938964844 C-73.35900115966797,110.375 -80.44499969482422,120.677001953125 -80.44499969482422,132.16900634765625 C-80.44499969482422,132.16900634765625 -80.44499969482422,143.1179962158203 -80.44499969482422,143.1179962158203 C-80.44499969482422,143.1179962158203 -29.854999542236328,134.1179962158203 -29.854999542236328,134.1179962158203"/></g><g opacity="0.5" transform="matrix(1,0,0,1,0,0)" style="mix-blend-mode: multiply;"><path class="primary" fill="rgb(235,230,239)" fill-opacity="1" d=" M-31.854999542236328,94.4800033569336 C-31.854999542236328,94.4800033569336 -62.62699890136719,106.26499938964844 -62.62699890136719,106.26499938964844 C-73.35900115966797,110.375 -80.44499969482422,120.677001953125 -80.44499969482422,132.16900634765625 C-80.44499969482422,132.16900634765625 -80.44499969482422,143.1179962158203 -80.44499969482422,143.1179962158203 C-80.44499969482422,143.1179962158203 -29.854999542236328,134.1179962158203 -29.854999542236328,134.1179962158203"/></g></g><g transform="matrix(0,1,-1,0,215,215)" opacity="1" style="display: block;"><g opacity="1" transform="matrix(1,0,0,1,0,0)"><path stroke-linecap="round" stroke-linejoin="round" fill-opacity="0" class="primary" stroke="rgb(235,230,239)" stroke-opacity="1" stroke-width="7" d=" M-31.854999542236328,94.4800033569336 C-31.854999542236328,94.4800033569336 -62.62699890136719,106.26499938964844 -62.62699890136719,106.26499938964844 C-73.35900115966797,110.375 -80.44499969482422,120.677001953125 -80.44499969482422,132.16900634765625 C-80.44499969482422,132.16900634765625 -80.44499969482422,143.1179962158203 -80.44499969482422,143.1179962158203 C-80.44499969482422,143.1179962158203 -29.854999542236328,134.1179962158203 -29.854999542236328,134.1179962158203"/><path stroke-linecap="round" stroke-linejoin="round" fill-opacity="0" class="primary" stroke="rgb(235,230,239)" stroke-opacity="0.5" stroke-width="7" d=" M-31.854999542236328,94.4800033569336 C-31.854999542236328,94.4800033569336 -62.62699890136719,106.26499938964844 -62.62699890136719,106.26499938964844 C-73.35900115966797,110.375 -80.44499969482422,120.677001953125 -80.44499969482422,132.16900634765625 C-80.44499969482422,132.16900634765625 -80.44499969482422,143.1179962158203 -80.44499969482422,143.1179962158203 C-80.44499969482422,143.1179962158203 -29.854999542236328,134.1179962158203 -29.854999542236328,134.1179962158203" style="mix-blend-mode: multiply;"/></g></g><g transform="matrix(0,1,-1,0,215,215)" opacity="1" style="display: block;"><g opacity="1" transform="matrix(1,0,0,1,0,0)"><path class="primary" fill="rgb(235,230,239)" fill-opacity="1" d=" M30.03499984741211,94.4800033569336 C30.03499984741211,94.4800033569336 60.80799865722656,106.26499938964844 60.80799865722656,106.26499938964844 C71.54000091552734,110.375 78.6259994506836,120.677001953125 78.6259994506836,132.16900634765625 C78.6259994506836,132.16900634765625 78.6259994506836,143.1179962158203 78.6259994506836,143.1179962158203 C78.6259994506836,143.1179962158203 28.03499984741211,134.1179962158203 28.03499984741211,134.1179962158203"/></g><g opacity="0.5" transform="matrix(1,0,0,1,0,0)" style="mix-blend-mode: multiply;"><path class="primary" fill="rgb(235,230,239)" fill-opacity="1" d=" M30.03499984741211,94.4800033569336 C30.03499984741211,94.4800033569336 60.80799865722656,106.26499938964844 60.80799865722656,106.26499938964844 C71.54000091552734,110.375 78.6259994506836,120.677001953125 78.6259994506836,132.16900634765625 C78.6259994506836,132.16900634765625 78.6259994506836,143.1179962158203 78.6259994506836,143.1179962158203 C78.6259994506836,143.1179962158203 28.03499984741211,134.1179962158203 28.03499984741211,134.1179962158203"/></g></g><g transform="matrix(0,1,-1,0,215,215)" opacity="1" style="display: block;"><g opacity="1" transform="matrix(1,0,0,1,0,0)"><path stroke-linecap="round" stroke-linejoin="round" fill-opacity="0" class="primary" stroke="rgb(235,230,239)" stroke-opacity="1" stroke-width="7" d=" M30.03499984741211,94.4800033569336 C30.03499984741211,94.4800033569336 60.80799865722656,106.26499938964844 60.80799865722656,106.26499938964844 C71.54000091552734,110.375 78.6259994506836,120.677001953125 78.6259994506836,132.16900634765625 C78.6259994506836,132.16900634765625 78.6259994506836,143.1179962158203 78.6259994506836,143.1179962158203 C78.6259994506836,143.1179962158203 28.03499984741211,134.1179962158203 28.03499984741211,134.1179962158203"/><path stroke-linecap="round" stroke-linejoin="round" fill-opacity="0" class="primary" stroke="rgb(235,230,239)" stroke-opacity="0.5" stroke-width="7" d=" M30.03499984741211,94.4800033569336 C30.03499984741211,94.4800033569336 60.80799865722656,106.26499938964844 60.80799865722656,106.26499938964844 C71.54000091552734,110.375 78.6259994506836,120.677001953125 78.6259994506836,132.16900634765625 C78.6259994506836,132.16900634765625 78.6259994506836,143.1179962158203 78.6259994506836,143.1179962158203 C78.6259994506836,143.1179962158203 28.03499984741211,134.1179962158203 28.03499984741211,134.1179962158203" style="mix-blend-mode: multiply;"/></g></g><g transform="matrix(0,1,-1,0,215,215)" opacity="1" style="display: block;"><g opacity="1" transform="matrix(1,0,0,1,0,0)"><path class="primary" fill="rgb(235,230,239)" fill-opacity="1" d=" M-2.0420000553131104,80.05999755859375 C-2.0420000553131104,80.05999755859375 -2.0850000381469727,111.14700317382812 -2.0850000381469727,111.14700317382812 C-2.0850000381469727,111.14700317382812 -2.0420000553131104,133.43299865722656 -2.0420000553131104,133.43299865722656 C-2.0420000553131104,133.43299865722656 -2.125,133.5 -2.125,133.5"/></g><g opacity="0.5" transform="matrix(1,0,0,1,0,0)" style="mix-blend-mode: multiply;"><path class="primary" fill="rgb(235,230,239)" fill-opacity="1" d=" M-2.0420000553131104,80.05999755859375 C-2.0420000553131104,80.05999755859375 -2.0850000381469727,111.14700317382812 -2.0850000381469727,111.14700317382812 C-2.0850000381469727,111.14700317382812 -2.0420000553131104,133.43299865722656 -2.0420000553131104,133.43299865722656 C-2.0420000553131104,133.43299865722656 -2.125,133.5 -2.125,133.5"/></g></g><g transform="matrix(0,1,-1,0,215,215)" opacity="1" style="display: block;"><g opacity="1" transform="matrix(1,0,0,1,0,0)"><path stroke-linecap="round" stroke-linejoin="round" fill-opacity="0" class="secondary" stroke="rgb(100,110,120)" stroke-opacity="1" stroke-width="7" d=" M-135.47500610351562,18.878000259399414 C-135.47500610351562,18.878000259399414 -135.47500610351562,6.223999977111816 -135.47500610351562,6.223999977111816"/></g><g opacity="1" transform="matrix(1,0,0,1,0,0)"><path stroke-linecap="round" stroke-linejoin="round" fill-opacity="0" class="secondary" stroke="rgb(100,110,120)" stroke-opacity="1" stroke-width="7" d=" M-82.10199737548828,14.37600040435791 C-82.10199737548828,14.37600040435791 -82.10199737548828,1.722000002861023 -82.10199737548828,1.722000002861023"/></g><g opacity="1" transform="matrix(1,0,0,1,0,0)"><path class="primary" fill="rgb(235,230,239)" fill-opacity="1" d=" M-40.612998962402344,-80.05999755859375 C-40.612998962402344,-80.05999755859375 -166.10499572753906,-37.233001708984375 -166.10499572753906,-37.233001708984375 C-179.70599365234375,-32.590999603271484 -188.84800720214844,-19.81100082397461 -188.84800720214844,-5.440000057220459 C-188.84800720214844,-5.440000057220459 -188.84800720214844,13.343000411987305 -188.84800720214844,13.343000411987305 C-188.84800720214844,13.343000411987305 -96.8550033569336,0 -96.8550033569336,0 C-96.8550033569336,0 -35.1619987487793,0 -35.1619987487793,0"/></g><g opacity="0.5" transform="matrix(1,0,0,1,0,0)" style="mix-blend-mode: multiply;"><path class="primary" fill="rgb(235,230,239)" fill-opacity="1" d=" M-40.612998962402344,-80.05999755859375 C-40.612998962402344,-80.05999755859375 -166.10499572753906,-37.233001708984375 -166.10499572753906,-37.233001708984375 C-179.70599365234375,-32.590999603271484 -188.84800720214844,-19.81100082397461 -188.84800720214844,-5.440000057220459 C-188.84800720214844,-5.440000057220459 -188.84800720214844,13.343000411987305 -188.84800720214844,13.343000411987305 C-188.84800720214844,13.343000411987305 -96.8550033569336,0 -96.8550033569336,0 C-96.8550033569336,0 -35.1619987487793,0 -35.1619987487793,0"/></g><g opacity="1" transform="matrix(1,0,0,1,0,0)"><path stroke-linecap="round" stroke-linejoin="round" fill-opacity="0" class="primary" stroke="rgb(235,230,239)" stroke-opacity="1" stroke-width="7" d=" M-40.612998962402344,-80.05999755859375 C-40.612998962402344,-80.05999755859375 -166.10499572753906,-37.233001708984375 -166.10499572753906,-37.233001708984375 C-179.70599365234375,-32.590999603271484 -188.84800720214844,-19.81100082397461 -188.84800720214844,-5.440000057220459 C-188.84800720214844,-5.440000057220459 -188.84800720214844,13.343000411987305 -188.84800720214844,13.343000411987305 C-188.84800720214844,13.343000411987305 -96.8550033569336,0 -96.8550033569336,0 C-96.8550033569336,0 -35.1619987487793,0 -35.1619987487793,0"/></g><g opacity="0.5" transform="matrix(1,0,0,1,0,0)" style="mix-blend-mode: multiply;"><path stroke-linecap="round" stroke-linejoin="round" fill-opacity="0" class="primary" stroke="rgb(235,230,239)" stroke-opacity="1" stroke-width="7" d=" M-40.612998962402344,-80.05999755859375 C-40.612998962402344,-80.05999755859375 -166.10499572753906,-37.233001708984375 -166.10499572753906,-37.233001708984375 C-179.70599365234375,-32.590999603271484 -188.84800720214844,-19.81100082397461 -188.84800720214844,-5.440000057220459 C-188.84800720214844,-5.440000057220459 -188.84800720214844,13.343000411987305 -188.84800720214844,13.343000411987305 C-188.84800720214844,13.343000411987305 -96.8550033569336,0 -96.8550033569336,0 C-96.8550033569336,0 -35.1619987487793,0 -35.1619987487793,0"/></g></g><g mask="url(#__lottie_element_17996_2)" style="display: block;"><g transform="matrix(0,1,-1,0,215,215)" opacity="1"><g opacity="1" transform="matrix(1,0,0,1,0,0)"><path class="primary" fill="rgb(235,230,239)" fill-opacity="1" d=" M-29.920000076293945,100.7229995727539 C-33.172000885009766,34.29199981689453 -40.198001861572266,-109.2239990234375 -40.198001861572266,-109.2239990234375 C-41.21900177001953,-131.1009979248047 -23.756999969482422,-161.46200561523438 -1.8559999465942383,-161.46200561523438 C-1.8559999465942383,-161.46200561523438 -1.8559999465942383,-161.46200561523438 -1.8559999465942383,-161.46200561523438 C19.90399932861328,-161.46200561523438 37.3129997253418,-131.3260040283203 36.500999450683594,-109.58100128173828 C36.500999450683594,-109.58100128173828 26.981000900268555,133.48399353027344 26.981000900268555,133.48399353027344 C26.426000595092773,148.3520050048828 14.211999893188477,160.11900329589844 -0.6660000085830688,160.11900329589844 C-0.6660000085830688,160.11900329589844 -0.6660000085830688,160.11900329589844 -0.6660000085830688,160.11900329589844 C-0.6660000085830688,160.11900329589844 -0.6660000085830688,160.11900329589844 -0.6660000085830688,160.11900329589844 C-15.444999694824219,160.11900329589844 -27.61400032043457,148.5050048828125 -28.30299949645996,133.74200439453125 C-28.30299949645996,133.74200439453125 -28.940000534057617,120.72699737548828 -29.920000076293945,100.7229995727539"/></g><g opacity="1" transform="matrix(1,0,0,1,0,0)"><path stroke-linecap="round" stroke-linejoin="round" fill-opacity="0" class="primary" stroke="rgb(235,230,239)" stroke-opacity="1" stroke-width="7" d=" M-29.920000076293945,100.7229995727539 C-33.172000885009766,34.29199981689453 -40.198001861572266,-109.2239990234375 -40.198001861572266,-109.2239990234375 C-41.21900177001953,-131.1009979248047 -23.756999969482422,-161.46200561523438 -1.8559999465942383,-161.46200561523438 C-1.8559999465942383,-161.46200561523438 -1.8559999465942383,-161.46200561523438 -1.8559999465942383,-161.46200561523438 C19.90399932861328,-161.46200561523438 37.3129997253418,-131.3260040283203 36.500999450683594,-109.58100128173828 C36.500999450683594,-109.58100128173828 26.981000900268555,133.48399353027344 26.981000900268555,133.48399353027344 C26.426000595092773,148.3520050048828 14.211999893188477,160.11900329589844 -0.6660000085830688,160.11900329589844 C-0.6660000085830688,160.11900329589844 -0.6660000085830688,160.11900329589844 -0.6660000085830688,160.11900329589844 C-0.6660000085830688,160.11900329589844 -0.6660000085830688,160.11900329589844 -0.6660000085830688,160.11900329589844 C-15.444999694824219,160.11900329589844 -27.61400032043457,148.5050048828125 -28.30299949645996,133.74200439453125 C-28.30299949645996,133.74200439453125 -28.940000534057617,120.72699737548828 -29.920000076293945,100.7229995727539"/></g></g></g><g transform="matrix(0.31264105439186096,0.9498713612556458,-0.9498713612556458,0.31264105439186096,215.00001525878906,153.40423583984375)" opacity="1" style="display: none;"><g opacity="1" transform="matrix(1,0,0,1,0,0)"><path stroke-linecap="round" stroke-linejoin="round" fill-opacity="0" class="secondary" stroke="rgb(100,110,120)" stroke-opacity="1" stroke-width="7" d=" M31.044429779052734,17.166332244873047 C31.044429779052734,17.166332244873047 30.98110008239746,12.242166519165039 30.98110008239746,12.242166519165039"/></g><g opacity="1" transform="matrix(1,0,0,1,0,0)"><path stroke-linecap="round" stroke-linejoin="round" fill-opacity="0" class="secondary" stroke="rgb(100,110,120)" stroke-opacity="1" stroke-width="7" d=" M23.851768493652344,13.260335922241211 C23.851768493652344,13.260335922241211 23.92377471923828,11.638917922973633 23.92377471923828,11.638917922973633"/></g></g><g transform="matrix(0,1,-1,0,215,215)" opacity="1" style="display: block;"><g opacity="1" transform="matrix(1,0,0,1,0,0)"><path stroke-linecap="round" stroke-linejoin="round" fill-opacity="0" class="secondary" stroke="rgb(100,110,120)" stroke-opacity="1" stroke-width="7" d=" M131.38999938964844,18.878000259399414 C131.38999938964844,18.878000259399414 131.38999938964844,6.223999977111816 131.38999938964844,6.223999977111816"/></g><g opacity="1" transform="matrix(1,0,0,1,0,0)"><path stroke-linecap="round" stroke-linejoin="round" fill-opacity="0" class="secondary" stroke="rgb(100,110,120)" stroke-opacity="1" stroke-width="7" d=" M78.01699829101562,14.37600040435791 C78.01699829101562,14.37600040435791 78.01699829101562,1.722000002861023 78.01699829101562,1.722000002861023"/></g></g><g transform="matrix(0.31276461482048035,0.9498306512832642,-0.9498306512832642,0.31276461482048035,215.00001525878906,153.37904357910156)" opacity="1" style="display: none;"><g opacity="1" transform="matrix(1,0,0,1,0,0)"><path stroke-linecap="round" stroke-linejoin="round" fill-opacity="0" class="secondary" stroke="rgb(100,110,120)" stroke-opacity="1" stroke-width="7" d=" M30.907045364379883,18.93007469177246 C30.907045364379883,18.93007469177246 30.907045364379883,6.276073932647705 30.907045364379883,6.276073932647705"/></g><g opacity="1" transform="matrix(1,0,0,1,0,0)"><path stroke-linecap="round" stroke-linejoin="round" fill-opacity="0" class="secondary" stroke="rgb(100,110,120)" stroke-opacity="1" stroke-width="7" d=" M23.846101760864258,14.42807388305664 C23.846101760864258,14.42807388305664 23.932891845703125,-50.95090103149414 23.932891845703125,-50.95090103149414"/></g></g><g transform="matrix(0,1,-1,0,215,215)" opacity="1" style="display: block;"><g opacity="1" transform="matrix(1,0,0,1,0,0)"><path class="primary" fill="rgb(235,230,239)" fill-opacity="1" d=" M36.52899932861328,-80.05999755859375 C36.52899932861328,-80.05999755859375 162.02000427246094,-37.233001708984375 162.02000427246094,-37.233001708984375 C175.62100219726562,-32.590999603271484 184.76300048828125,-19.81100082397461 184.76300048828125,-5.440000057220459 C184.76300048828125,-5.440000057220459 184.76300048828125,13.343000411987305 184.76300048828125,13.343000411987305 C184.76300048828125,13.343000411987305 92.7699966430664,0 92.7699966430664,0 C92.7699966430664,0 32.32699966430664,0 32.32699966430664,0"/></g><g opacity="0.5" transform="matrix(1,0,0,1,0,0)" style="mix-blend-mode: multiply;"><path class="primary" fill="rgb(235,230,239)" fill-opacity="1" d=" M36.52899932861328,-80.05999755859375 C36.52899932861328,-80.05999755859375 162.02000427246094,-37.233001708984375 162.02000427246094,-37.233001708984375 C175.62100219726562,-32.590999603271484 184.76300048828125,-19.81100082397461 184.76300048828125,-5.440000057220459 C184.76300048828125,-5.440000057220459 184.76300048828125,13.343000411987305 184.76300048828125,13.343000411987305 C184.76300048828125,13.343000411987305 92.7699966430664,0 92.7699966430664,0 C92.7699966430664,0 32.32699966430664,0 32.32699966430664,0"/></g></g><g transform="matrix(0,1,-1,0,215,215)" opacity="1" style="display: block;"><g opacity="1" transform="matrix(1,0,0,1,0,0)"><path stroke-linecap="round" stroke-linejoin="round" fill-opacity="0" class="primary" stroke="rgb(235,230,239)" stroke-opacity="1" stroke-width="7" d=" M38.77899932861328,-80.05999755859375 C38.77899932861328,-80.05999755859375 162.02000427246094,-37.233001708984375 162.02000427246094,-37.233001708984375 C175.62100219726562,-32.590999603271484 184.76300048828125,-19.81100082397461 184.76300048828125,-5.440000057220459 C184.76300048828125,-5.440000057220459 184.76300048828125,13.343000411987305 184.76300048828125,13.343000411987305 C184.76300048828125,13.343000411987305 92.7699966430664,0 92.7699966430664,0 C92.7699966430664,0 35.38999938964844,-0.125 35.38999938964844,-0.125"/><path stroke-linecap="round" stroke-linejoin="round" fill-opacity="0" class="primary" stroke="rgb(235,230,239)" stroke-opacity="0.5" stroke-width="7" d=" M38.77899932861328,-80.05999755859375 C38.77899932861328,-80.05999755859375 162.02000427246094,-37.233001708984375 162.02000427246094,-37.233001708984375 C175.62100219726562,-32.590999603271484 184.76300048828125,-19.81100082397461 184.76300048828125,-5.440000057220459 C184.76300048828125,-5.440000057220459 184.76300048828125,13.343000411987305 184.76300048828125,13.343000411987305 C184.76300048828125,13.343000411987305 92.7699966430664,0 92.7699966430664,0 C92.7699966430664,0 35.38999938964844,-0.125 35.38999938964844,-0.125" style="mix-blend-mode: multiply;"/></g></g><g transform="matrix(0,1,-1,0,215,215)" opacity="1" style="display: block;"><g opacity="1" transform="matrix(1,0,0,1,0,0)"><path stroke-linecap="round" stroke-linejoin="round" fill-opacity="0" class="primary" stroke="rgb(235,230,239)" stroke-opacity="1" stroke-width="7" d=" M-2.0420000553131104,80.05999755859375 C-2.0420000553131104,80.05999755859375 -2.0850000381469727,111.14700317382812 -2.0850000381469727,111.14700317382812 C-2.0850000381469727,111.14700317382812 -2.0420000553131104,133.43299865722656 -2.0420000553131104,133.43299865722656 C-2.0420000553131104,133.43299865722656 -2.125,133.5 -2.125,133.5"/><path stroke-linecap="round" stroke-linejoin="round" fill-opacity="0" class="primary" stroke="rgb(235,230,239)" stroke-opacity="0.5" stroke-width="7" d=" M-2.0420000553131104,80.05999755859375 C-2.0420000553131104,80.05999755859375 -2.0850000381469727,111.14700317382812 -2.0850000381469727,111.14700317382812 C-2.0850000381469727,111.14700317382812 -2.0420000553131104,133.43299865722656 -2.0420000553131104,133.43299865722656 C-2.0420000553131104,133.43299865722656 -2.125,133.5 -2.125,133.5" style="mix-blend-mode: multiply;"/></g></g><g transform="matrix(0,1,-1,0,215,215)" opacity="1" style="display: block;"><g opacity="1" transform="matrix(1,0,0,1,0,0)"><path stroke-linecap="round" stroke-linejoin="round" fill-opacity="0" class="tertiary" stroke="rgb(75,179,253)" stroke-opacity="1" stroke-width="7" d=" M-12.890999794006348,-125.56400299072266 C-5.468999862670898,-130.87100219726562 4.915999889373779,-130.19200134277344 11.581000328063965,-123.5270004272461 M-15.293000221252441,-123.5270004272461 C-14.536999702453613,-124.28299713134766 -13.732999801635742,-124.96199798583984 -12.890999794006348,-125.56400299072266"/></g></g></g></g></svg>