<svg xmlns="http://www.w3.org/2000/svg" xmlns:xlink="http://www.w3.org/1999/xlink" viewBox="0 0 430 430" width="430" height="430" preserveAspectRatio="xMidYMid meet" style="width: 100%; height: 100%; transform: translate3d(0px, 0px, 0px); content-visibility: visible;"><defs><clipPath id="__lottie_element_16930"><rect width="430" height="430" x="0" y="0"/></clipPath><clipPath id="__lottie_element_16932"><path d="M0,0 L430,0 L430,430 L0,430z"/></clipPath><clipPath id="__lottie_element_16937"><path d="M0,0 L430,0 L430,430 L0,430z"/></clipPath></defs><g clip-path="url(#__lottie_element_16930)"><g clip-path="url(#__lottie_element_16932)" transform="matrix(1,0,0,1,0,0)" opacity="1" style="display: block;"><g clip-path="url(#__lottie_element_16937)" transform="matrix(1,0,0,1,0,0)" opacity="1" style="display: block;"><g transform="matrix(1,0,0,1,216.177001953125,200.38699340820312)" opacity="1" style="display: block;"><g opacity="1" transform="matrix(1,0,0,1,0,0)"><path class="quinary" fill="rgb(100,110,120)" fill-opacity="1" d=" M89.75,-37.47999954223633 C89.75,-37.47999954223633 89.75,-123.60199737548828 89.75,-123.60199737548828 C89.75,-123.60199737548828 -89.75,-123.59200286865234 -89.75,-123.59200286865234 C-89.75,-123.59200286865234 -89.75,-23.3799991607666 -89.75,-23.3799991607666 C-89.75,-23.3799991607666 -89.75,0.20999999344348907 -89.75,0.20999999344348907 C-89.75,0.20999999344348907 -89.75,69.06999969482422 -89.75,69.06999969482422 C-89.75,69.06999969482422 -89.75,122.49099731445312 -89.75,122.49099731445312 C-89.75,122.49099731445312 -69.20999908447266,122.49099731445312 -69.20999908447266,122.49099731445312 C-69.20999908447266,122.49099731445312 -55.2400016784668,122.49099731445312 -55.2400016784668,122.49099731445312 C-55.2400016784668,122.49099731445312 -6.119999885559082,122.49099731445312 -6.119999885559082,122.49099731445312 C-6.119999885559082,122.49099731445312 36.66999816894531,122.49099731445312 36.66999816894531,122.49099731445312 C36.66999816894531,122.49099731445312 79.45999908447266,122.49099731445312 79.45999908447266,122.49099731445312 C79.45999908447266,122.49099731445312 89.75,122.49099731445312 89.75,122.49099731445312 C89.75,122.49099731445312 89.75,-37.47999954223633 89.75,-37.47999954223633z"/></g></g><g transform="matrix(1,0,0,1,137.281982421875,198.6020050048828)" opacity="0.5" style="mix-blend-mode: multiply; display: block;"><g opacity="1" transform="matrix(1,0,0,1,0,0)"><path class="quinary" fill="rgb(100,110,120)" fill-opacity="1" d=" M10.854999542236328,122.91799926757812 C10.854999542236328,122.91799926757812 10.854999542236328,0.20499999821186066 10.854999542236328,0.20499999821186066 C10.854999542236328,0.20499999821186066 10.845000267028809,-23.045000076293945 10.845000267028809,-23.045000076293945 C10.845000267028809,-23.045000076293945 10.845000267028809,-121.80699920654297 10.845000267028809,-121.80699920654297 C10.845000267028809,-121.80699920654297 -10.854999542236328,-121.80699920654297 -10.854999542236328,-121.80699920654297 C-10.854999542236328,-121.80699920654297 -10.854999542236328,122.91799926757812 -10.854999542236328,122.91799926757812 C-10.854999542236328,122.91799926757812 10.854999542236328,122.91799926757812 10.854999542236328,122.91799926757812z"/></g></g><g transform="matrix(1,0,0,1,214.302001953125,67.22200012207031)" opacity="1" style="display: block;"><g opacity="1" transform="matrix(1,0,0,1,0,0)"><path class="quaternary" fill="rgb(58,51,71)" fill-opacity="1" d=" M96.81500244140625,-11.795000076293945 C96.81500244140625,-11.795000076293945 -96.81500244140625,-11.795000076293945 -96.81500244140625,-11.795000076293945 C-103.32599639892578,-11.795000076293945 -108.6050033569336,-6.515999794006348 -108.6050033569336,-0.004999999888241291 C-108.6050033569336,-0.004999999888241291 -108.6050033569336,0.004999999888241291 -108.6050033569336,0.004999999888241291 C-108.6050033569336,6.515999794006348 -103.32599639892578,11.795000076293945 -96.81500244140625,11.795000076293945 C-96.81500244140625,11.795000076293945 96.81500244140625,11.795000076293945 96.81500244140625,11.795000076293945 C103.32599639892578,11.795000076293945 108.6050033569336,6.515999794006348 108.6050033569336,0.004999999888241291 C108.6050033569336,0.004999999888241291 108.6050033569336,-0.004999999888241291 108.6050033569336,-0.004999999888241291 C108.6050033569336,-6.515999794006348 103.32599639892578,-11.795000076293945 96.81500244140625,-11.795000076293945z"/></g></g><g transform="matrix(1,0,0,1,214.46697998046875,128.06300354003906)" opacity="1" style="display: block;"><g opacity="1" transform="matrix(1,0,0,1,0,0)"><path class="primary" fill="rgb(255,199,56)" fill-opacity="1" d=" M-0.009999999776482582,-27.70599937438965 C-0.009999999776482582,-27.70599937438965 -17.510000228881836,-0.06599999964237213 -17.510000228881836,9.604000091552734 C-17.510000228881836,9.604000091552734 -17.5,9.604000091552734 -17.5,9.604000091552734 C-17.57900047302246,11.95199966430664 -17.18600082397461,14.291000366210938 -16.341999053955078,16.483999252319336 C-15.498000144958496,18.677000045776367 -14.222000122070312,20.677000045776367 -12.58899974822998,22.365999221801758 C-10.956000328063965,24.05500030517578 -9,25.39900016784668 -6.836999893188477,26.31599998474121 C-4.673999786376953,27.232999801635742 -2.3489999771118164,27.70599937438965 0,27.70599937438965 C2.3489999771118164,27.70599937438965 4.673999786376953,27.232999801635742 6.836999893188477,26.31599998474121 C9,25.39900016784668 10.956000328063965,24.05500030517578 12.58899974822998,22.365999221801758 C14.222000122070312,20.677000045776367 15.498000144958496,18.677000045776367 16.341999053955078,16.483999252319336 C17.18600082397461,14.291000366210938 17.57900047302246,11.95199966430664 17.5,9.604000091552734 C17.5,-0.09600000083446503 -0.009999999776482582,-27.70599937438965 -0.009999999776482582,-27.70599937438965z"/></g></g><g transform="matrix(1,0,0,1,211.71697998046875,127.75300598144531)" opacity="0.5" style="mix-blend-mode: multiply; display: block;"><g opacity="1" transform="matrix(1,0,0,1,0,0)"><path class="primary" fill="rgb(255,199,56)" fill-opacity="1" d=" M5.920000076293945,27.082000732421875 C9.303999900817871,26.43199920654297 12.420999526977539,24.79800033569336 14.880000114440918,22.384000778198242 C14.880000114440918,22.384000778198242 14.880000114440918,22.384000778198242 14.880000114440918,22.384000778198242 C13.52299976348877,22.729000091552734 12.130000114440918,22.906999588012695 10.729999542236328,22.913999557495117 C6.085999965667725,22.913999557495117 1.6330000162124634,21.069000244140625 -1.6510000228881836,17.78499984741211 C-4.934999942779541,14.50100040435791 -6.78000020980835,10.04800033569336 -6.78000020980835,5.4039998054504395 C-6.78000020980835,-0.7059999704360962 0.20999999344348907,-13.946000099182129 5.360000133514404,-22.945999145507812 C3.7200000286102295,-25.676000595092773 2.630000114440918,-27.395999908447266 2.630000114440918,-27.395999908447266 C2.630000114440918,-27.395999908447266 -14.880000114440918,0.24400000274181366 -14.880000114440918,9.913999557495117 C-14.876999855041504,13.359999656677246 -13.855999946594238,16.72800064086914 -11.946000099182129,19.59600067138672 C-10.03600025177002,22.464000701904297 -7.321000099182129,24.70400047302246 -4.14300012588501,26.035999298095703 C-0.9649999737739563,27.368000030517578 2.5360000133514404,27.73200035095215 5.920000076293945,27.082000732421875z"/></g></g><g transform="matrix(1,0,0,1,-35.00000762939453,-35)" opacity="1" style="display: block;"><g opacity="1" transform="matrix(1,0,0,1,249.84500122070312,368.5429992675781)"><path class="quaternary" fill="rgb(58,51,71)" fill-opacity="1" d=" M-26.207000732421875,11.72599983215332 C-26.207000732421875,11.72599983215332 96.81099700927734,11.793999671936035 96.81099700927734,11.793999671936035 C103.3239974975586,11.793999671936035 108.6050033569336,6.513000011444092 108.6050033569336,0 C108.6050033569336,0 108.6050033569336,0 108.6050033569336,0 C108.6050033569336,-6.513000011444092 103.3239974975586,-11.793999671936035 96.81099700927734,-11.793999671936035 C96.81099700927734,-11.793999671936035 -26.207000732421875,-11.861000061035156 -26.207000732421875,-11.861000061035156 C-32.720001220703125,-11.861000061035156 -38,-6.580999851226807 -38,-0.06800000369548798 C-38,-0.06800000369548798 -38,-0.06800000369548798 -38,-0.06800000369548798 C-38,6.445000171661377 -32.720001220703125,11.72599983215332 -26.207000732421875,11.72599983215332z"/></g></g><g transform="matrix(1,0,0,1,-35.00000762939453,-35)" opacity="1" style="display: block;"><g opacity="1" transform="matrix(1,0,0,1,249.84500122070312,102.20600128173828)"/><g opacity="1" transform="matrix(1,0,0,1,249.84500122070312,223.78700256347656)"><path class="quaternary" fill="rgb(58,51,71)" fill-opacity="1" d=" M-96.81099700927734,11.793999671936035 C-96.81099700927734,11.793999671936035 96.81099700927734,11.793999671936035 96.81099700927734,11.793999671936035 C103.3239974975586,11.793999671936035 108.6050033569336,6.513000011444092 108.6050033569336,0 C108.6050033569336,0 108.6050033569336,0 108.6050033569336,0 C108.6050033569336,-6.513000011444092 103.3239974975586,-11.793999671936035 96.81099700927734,-11.793999671936035 C96.81099700927734,-11.793999671936035 -96.81099700927734,-11.793999671936035 -96.81099700927734,-11.793999671936035 C-103.3239974975586,-11.793999671936035 -108.6050033569336,-6.513000011444092 -108.6050033569336,0 C-108.6050033569336,0 -108.6050033569336,0 -108.6050033569336,0 C-108.6050033569336,6.513000011444092 -103.3239974975586,11.793999671936035 -96.81099700927734,11.793999671936035z"/></g><g opacity="1" transform="matrix(1,0,0,1,341.1099853515625,296.1650085449219)"/><g opacity="1" transform="matrix(1,0,0,1,161.61000061035156,296.1650085449219)"/><g opacity="1" transform="matrix(1,0,0,1,341.1099853515625,162.9949951171875)"/><g opacity="1" transform="matrix(1,0,0,1,161.61000061035156,162.9949951171875)"/></g><g transform="matrix(1,0,0,1,204.13299560546875,347.9010009765625)" opacity="1" style="display: block;"><g opacity="1" transform="matrix(1,0,0,1,0,0)"><path class="primary" fill="rgb(255,199,56)" fill-opacity="1" d=" M-31.327999114990234,-26.155000686645508 C-31.327999114990234,-26.155000686645508 31.327999114990234,-26.155000686645508 31.327999114990234,-26.155000686645508 C31.327999114990234,-26.155000686645508 49.30799865722656,26.155000686645508 49.30799865722656,26.155000686645508 C49.30799865722656,26.155000686645508 -49.30799865722656,26.155000686645508 -49.30799865722656,26.155000686645508 C-49.30799865722656,26.155000686645508 -31.327999114990234,-26.155000686645508 -31.327999114990234,-26.155000686645508z"/><path stroke-linecap="round" stroke-linejoin="round" fill-opacity="0" class="primary" stroke="rgb(255,199,56)" stroke-opacity="1" stroke-width="2" d=" M-31.327999114990234,-26.155000686645508 C-31.327999114990234,-26.155000686645508 31.327999114990234,-26.155000686645508 31.327999114990234,-26.155000686645508 C31.327999114990234,-26.155000686645508 49.30799865722656,26.155000686645508 49.30799865722656,26.155000686645508 C49.30799865722656,26.155000686645508 -49.30799865722656,26.155000686645508 -49.30799865722656,26.155000686645508 C-49.30799865722656,26.155000686645508 -31.327999114990234,-26.155000686645508 -31.327999114990234,-26.155000686645508z"/><path class="primary" fill="rgb(255,199,56)" fill-opacity="1" d=" M-31.327999114990234,-26.155000686645508 C-31.327999114990234,-26.155000686645508 31.327999114990234,-26.155000686645508 31.327999114990234,-26.155000686645508 C31.327999114990234,-26.155000686645508 49.30799865722656,26.155000686645508 49.30799865722656,26.155000686645508 C49.30799865722656,26.155000686645508 -49.30799865722656,26.155000686645508 -49.30799865722656,26.155000686645508 C-49.30799865722656,26.155000686645508 -31.327999114990234,-26.155000686645508 -31.327999114990234,-26.155000686645508z"/></g></g><g transform="matrix(1,0,0,1,105.51599884033203,347.9010009765625)" opacity="1" style="display: block;"><g opacity="1" transform="matrix(1,0,0,1,0,0)"><path class="primary" fill="rgb(255,199,56)" fill-opacity="1" d=" M-31.327999114990234,-26.155000686645508 C-31.327999114990234,-26.155000686645508 31.327999114990234,-26.155000686645508 31.327999114990234,-26.155000686645508 C31.327999114990234,-26.155000686645508 49.30799865722656,26.155000686645508 49.30799865722656,26.155000686645508 C49.30799865722656,26.155000686645508 -49.30799865722656,26.155000686645508 -49.30799865722656,26.155000686645508 C-49.30799865722656,26.155000686645508 -31.327999114990234,-26.155000686645508 -31.327999114990234,-26.155000686645508z"/><path stroke-linecap="round" stroke-linejoin="round" fill-opacity="0" class="primary" stroke="rgb(255,199,56)" stroke-opacity="1" stroke-width="2" d=" M-31.327999114990234,-26.155000686645508 C-31.327999114990234,-26.155000686645508 31.327999114990234,-26.155000686645508 31.327999114990234,-26.155000686645508 C31.327999114990234,-26.155000686645508 49.30799865722656,26.155000686645508 49.30799865722656,26.155000686645508 C49.30799865722656,26.155000686645508 -49.30799865722656,26.155000686645508 -49.30799865722656,26.155000686645508 C-49.30799865722656,26.155000686645508 -31.327999114990234,-26.155000686645508 -31.327999114990234,-26.155000686645508z"/><path class="primary" fill="rgb(255,199,56)" fill-opacity="1" d=" M-31.327999114990234,-26.155000686645508 C-31.327999114990234,-26.155000686645508 31.327999114990234,-26.155000686645508 31.327999114990234,-26.155000686645508 C31.327999114990234,-26.155000686645508 49.30799865722656,26.155000686645508 49.30799865722656,26.155000686645508 C49.30799865722656,26.155000686645508 -49.30799865722656,26.155000686645508 -49.30799865722656,26.155000686645508 C-49.30799865722656,26.155000686645508 -31.327999114990234,-26.155000686645508 -31.327999114990234,-26.155000686645508z"/></g></g><g transform="matrix(1,0,0,1,154.8249969482422,295.59100341796875)" opacity="1" style="display: block;"><g opacity="1" transform="matrix(1,0,0,1,0,0)"><path class="primary" fill="rgb(255,199,56)" fill-opacity="1" d=" M-31.327999114990234,-26.155000686645508 C-31.327999114990234,-26.155000686645508 31.327999114990234,-26.155000686645508 31.327999114990234,-26.155000686645508 C31.327999114990234,-26.155000686645508 49.30799865722656,26.155000686645508 49.30799865722656,26.155000686645508 C49.30799865722656,26.155000686645508 -49.30799865722656,26.155000686645508 -49.30799865722656,26.155000686645508 C-49.30799865722656,26.155000686645508 -31.327999114990234,-26.155000686645508 -31.327999114990234,-26.155000686645508z"/><path class="primary" fill="rgb(255,199,56)" fill-opacity="0.5" d=" M-31.327999114990234,-26.155000686645508 C-31.327999114990234,-26.155000686645508 31.327999114990234,-26.155000686645508 31.327999114990234,-26.155000686645508 C31.327999114990234,-26.155000686645508 49.30799865722656,26.155000686645508 49.30799865722656,26.155000686645508 C49.30799865722656,26.155000686645508 -49.30799865722656,26.155000686645508 -49.30799865722656,26.155000686645508 C-49.30799865722656,26.155000686645508 -31.327999114990234,-26.155000686645508 -31.327999114990234,-26.155000686645508z" style="mix-blend-mode: multiply;"/><path stroke-linecap="round" stroke-linejoin="round" fill-opacity="0" class="primary" stroke="rgb(255,199,56)" stroke-opacity="1" stroke-width="2" d=" M-31.327999114990234,-26.155000686645508 C-31.327999114990234,-26.155000686645508 31.327999114990234,-26.155000686645508 31.327999114990234,-26.155000686645508 C31.327999114990234,-26.155000686645508 49.30799865722656,26.155000686645508 49.30799865722656,26.155000686645508 C49.30799865722656,26.155000686645508 -49.30799865722656,26.155000686645508 -49.30799865722656,26.155000686645508 C-49.30799865722656,26.155000686645508 -31.327999114990234,-26.155000686645508 -31.327999114990234,-26.155000686645508z"/><path stroke-linecap="round" stroke-linejoin="round" fill-opacity="0" class="primary" stroke="rgb(255,199,56)" stroke-opacity="0.5" stroke-width="2" d=" M-31.327999114990234,-26.155000686645508 C-31.327999114990234,-26.155000686645508 31.327999114990234,-26.155000686645508 31.327999114990234,-26.155000686645508 C31.327999114990234,-26.155000686645508 49.30799865722656,26.155000686645508 49.30799865722656,26.155000686645508 C49.30799865722656,26.155000686645508 -49.30799865722656,26.155000686645508 -49.30799865722656,26.155000686645508 C-49.30799865722656,26.155000686645508 -31.327999114990234,-26.155000686645508 -31.327999114990234,-26.155000686645508z" style="mix-blend-mode: multiply;"/></g></g></g><g transform="matrix(1,0,0,1,305.43499755859375,359.3280029296875)" opacity="1" style="display: block;"><g opacity="1" transform="matrix(1,0,0,1,0,0)"><path class="secondary" fill="rgb(178,104,54)" fill-opacity="1" d=" M-20.885000228881836,11.772000312805176 C-20.885000228881836,11.772000312805176 -20.885000228881836,-8.977999687194824 -20.885000228881836,-8.977999687194824 C-20.885000228881836,-8.977999687194824 -20.885000228881836,-8.947999954223633 -20.885000228881836,-8.947999954223633 C-14.579000473022461,-12.711000442504883 -7.381999969482422,-14.722000122070312 -0.03799999877810478,-14.770999908447266 C7.306000232696533,-14.819999694824219 14.529000282287598,-12.906000137329102 20.885000228881836,-9.227999687194824 C20.885000228881836,-9.227999687194824 20.885000228881836,11.772000312805176 20.885000228881836,11.772000312805176 C20.885000228881836,12.567999839782715 20.569000244140625,13.329999923706055 20.006000518798828,13.892999649047852 C19.44300079345703,14.456000328063965 18.680999755859375,14.772000312805176 17.885000228881836,14.772000312805176 C17.885000228881836,14.772000312805176 -17.885000228881836,14.772000312805176 -17.885000228881836,14.772000312805176 C-18.680999755859375,14.772000312805176 -19.44300079345703,14.456000328063965 -20.006000518798828,13.892999649047852 C-20.569000244140625,13.329999923706055 -20.885000228881836,12.567999839782715 -20.885000228881836,11.772000312805176z"/></g></g><g transform="matrix(1,0,0,1,-35,-35)" opacity="1" style="display: block;"><g opacity="1" transform="matrix(1,0,0,1,340.85101318359375,290.9020080566406)"><path stroke-linecap="round" stroke-linejoin="round" fill-opacity="0" class="primary" stroke="rgb(255,199,56)" stroke-opacity="1" stroke-width="4" d=" M-41.37300109863281,-2.140000104904175 C-44.43299865722656,23.35300064086914 -42.26300048828125,47.07699966430664 -34.70399856567383,64.50900268554688 C-27.30299949645996,81.927001953125 -14.513999938964844,93.0530014038086 0,93.02200317382812 C14.512999534606934,93.0530014038086 27.30299949645996,81.927001953125 34.70399856567383,64.50900268554688 C42.26300048828125,47.07699966430664 44.433998107910156,23.35300064086914 41.37300109863281,-2.140000104904175 C38.310001373291016,-27.672000885009766 31.256000518798828,-50.30500030517578 23.850000381469727,-66.64900207519531 C16.288999557495117,-82.97799682617188 8.375,-93.01899719238281 0,-93.02200317382812 C-8.375,-93.01899719238281 -16.288999557495117,-82.97899627685547 -23.850000381469727,-66.64900207519531 C-31.256000518798828,-50.30500030517578 -38.308998107910156,-27.672000885009766 -41.37300109863281,-2.140000104904175z"/><path class="primary" fill="rgb(255,199,56)" fill-opacity="1" d=" M-41.37300109863281,-2.140000104904175 C-44.43299865722656,23.35300064086914 -42.26300048828125,47.07699966430664 -34.70399856567383,64.50900268554688 C-27.30299949645996,81.927001953125 -14.513999938964844,93.0530014038086 0,93.02200317382812 C14.512999534606934,93.0530014038086 27.30299949645996,81.927001953125 34.70399856567383,64.50900268554688 C42.26300048828125,47.07699966430664 44.433998107910156,23.35300064086914 41.37300109863281,-2.140000104904175 C38.310001373291016,-27.672000885009766 31.256000518798828,-50.30500030517578 23.850000381469727,-66.64900207519531 C16.288999557495117,-82.97799682617188 8.375,-93.01899719238281 0,-93.02200317382812 C-8.375,-93.01899719238281 -16.288999557495117,-82.97899627685547 -23.850000381469727,-66.64900207519531 C-31.256000518798828,-50.30500030517578 -38.308998107910156,-27.672000885009766 -41.37300109863281,-2.140000104904175z"/></g><g opacity="1" transform="matrix(1,0,0,1,340.85101318359375,257.6210021972656)"><path stroke-linecap="round" stroke-linejoin="round" fill-opacity="0" class="secondary" stroke="rgb(178,104,54)" stroke-opacity="1" stroke-width="7" d=" M-9.491000175476074,-1.3270000219345093 C-8.079000473022461,-0.4740000069141388 -4.65500020980835,1.3350000381469727 0.06599999964237213,1.3270000219345093 C4.702000141143799,1.3200000524520874 8.074000358581543,-0.4359999895095825 9.491000175476074,-1.2829999923706055"/></g><g opacity="1" transform="matrix(1,0,0,1,340.85101318359375,292.3110046386719)"><path stroke-linecap="round" stroke-linejoin="round" fill-opacity="0" class="secondary" stroke="rgb(178,104,54)" stroke-opacity="1" stroke-width="7" d=" M-9.491000175476074,-1.3270000219345093 C-8.079000473022461,-0.4740000069141388 -4.65500020980835,1.3350000381469727 0.06599999964237213,1.3270000219345093 C4.702000141143799,1.3200000524520874 8.074000358581543,-0.4359999895095825 9.491000175476074,-1.2829999923706055"/></g><g opacity="1" transform="matrix(1,0,0,1,340.85101318359375,327)"><path stroke-linecap="round" stroke-linejoin="round" fill-opacity="0" class="secondary" stroke="rgb(178,104,54)" stroke-opacity="1" stroke-width="7" d=" M-9.491000175476074,-1.3270000219345093 C-8.079000473022461,-0.4740000069141388 -4.65500020980835,1.3350000381469727 0.06599999964237213,1.3270000219345093 C4.702000141143799,1.3200000524520874 8.074000358581543,-0.4359999895095825 9.491000175476074,-1.2829999923706055"/></g></g><g transform="matrix(1,0,0,1,346.9630126953125,287.03399658203125)" opacity="1" style="display: block;"><path class="secondary" fill="rgb(178,104,54)" fill-opacity="1" d=" M-41.5620002746582,61.887001037597656 C-32.36899948120117,63.369998931884766 -4.7170000076293945,66.64299774169922 11.270000457763672,50.03499984741211 C22.961999893188477,37.888999938964844 24.861000061035156,19.485000610351562 25.30299949645996,3.9179999828338623 C25.788000106811523,-13.163999557495117 21.429000854492188,-31.54199981689453 29.41200065612793,-47.4640007019043 C33.13399887084961,-54.88800048828125 38.04499816894531,-60.02399826049805 41.5620002746582,-63.17300033569336 C27.94300079345703,-63.1879997253418 12.02400016784668,-59.49599838256836 3.188999891281128,-48.23500061035156 C-5.590000152587891,-37.04499816894531 -5.882999897003174,-21.30299949645996 -7.60699987411499,-7.822000026702881 C-10.340999603271484,13.553999900817871 -12.17199993133545,21.899999618530273 -14.39799976348877,27.79800033569336 C-14.895999908447266,29.118000030517578 -15.82699966430664,31.35700035095215 -17.201000213623047,34.09000015258789 C-20.947999954223633,41.54199981689453 -27.961999893188477,52.14500045776367 -41.5620002746582,61.887001037597656z"/><g opacity="1" transform="matrix(1,0,0,1,0,0)"><path class="secondary" fill="rgb(178,104,54)" fill-opacity="1" d="M0 0"/></g><g opacity="1" transform="matrix(1,0,0,1,0,0)"><path class="tertiary" fill="rgb(8,168,138)" fill-opacity="1" d=" M-41.5620002746582,61.887001037597656 C-32.36899948120117,63.369998931884766 -4.7170000076293945,66.64299774169922 11.270000457763672,50.03499984741211 C22.961999893188477,37.888999938964844 24.861000061035156,19.485000610351562 25.30299949645996,3.9179999828338623 C25.788000106811523,-13.163999557495117 21.429000854492188,-31.54199981689453 29.41200065612793,-47.4640007019043 C33.13399887084961,-54.88800048828125 38.04499816894531,-60.02399826049805 41.5620002746582,-63.17300033569336 C27.94300079345703,-63.1879997253418 12.02400016784668,-59.49599838256836 3.188999891281128,-48.23500061035156 C-5.590000152587891,-37.04499816894531 -5.882999897003174,-21.30299949645996 -7.60699987411499,-7.822000026702881 C-10.340999603271484,13.553999900817871 -12.17199993133545,21.899999618530273 -14.39799976348877,27.79800033569336 C-14.895999908447266,29.118000030517578 -15.82699966430664,31.35700035095215 -17.201000213623047,34.09000015258789 C-20.947999954223633,41.54199981689453 -27.961999893188477,52.14500045776367 -41.5620002746582,61.887001037597656z"/><path stroke-linecap="round" stroke-linejoin="round" fill-opacity="0" class="tertiary" stroke="rgb(8,168,138)" stroke-opacity="1" stroke-width="4" d=" M-41.5620002746582,61.887001037597656 C-32.36899948120117,63.369998931884766 -4.7170000076293945,66.64299774169922 11.270000457763672,50.03499984741211 C22.961999893188477,37.888999938964844 24.861000061035156,19.485000610351562 25.30299949645996,3.9179999828338623 C25.788000106811523,-13.163999557495117 21.429000854492188,-31.54199981689453 29.41200065612793,-47.4640007019043 C33.13399887084961,-54.88800048828125 38.04499816894531,-60.02399826049805 41.5620002746582,-63.17300033569336 C27.94300079345703,-63.1879997253418 12.02400016784668,-59.49599838256836 3.188999891281128,-48.23500061035156 C-5.590000152587891,-37.04499816894531 -5.882999897003174,-21.30299949645996 -7.60699987411499,-7.822000026702881 C-10.340999603271484,13.553999900817871 -12.17199993133545,21.899999618530273 -14.39799976348877,27.79800033569336 C-14.895999908447266,29.118000030517578 -15.82699966430664,31.35700035095215 -17.201000213623047,34.09000015258789 C-20.947999954223633,41.54199981689453 -27.961999893188477,52.14500045776367 -41.5620002746582,61.887001037597656z"/></g></g><g transform="matrix(1,0,0,1,263.8370056152344,287.49700927734375)" opacity="1" style="display: block;"><path class="secondary" fill="rgb(178,104,54)" fill-opacity="1" d=" M41.56399917602539,61.42300033569336 C32.56999969482422,63 4.7789998054504395,66.73200225830078 -11.270999908447266,50.27899932861328 C-22.965999603271484,38.29100036621094 -24.857999801635742,19.922000885009766 -25.30500030517578,4.1620001792907715 C-25.790000915527344,-12.920000076293945 -21.43000030517578,-31.297000885009766 -29.413000106811523,-47.21900177001953 C-33.1349983215332,-54.643001556396484 -38.047000885009766,-59.779998779296875 -41.56399917602539,-62.92900085449219 C-27.94499969482422,-62.944000244140625 -12.026000022888184,-59.25199890136719 -3.190999984741211,-47.99100112915039 C5.5879998207092285,-36.80099868774414 5.88100004196167,-21.05900001525879 7.605000019073486,-7.578000068664551 C10.32800006866455,13.711999893188477 12.095999717712402,22.02899932861328 14.366000175476074,28.024999618530273 C14.892000198364258,29.413000106811523 15.819000244140625,31.625 17.198999404907227,34.33399963378906 C23.635000228881836,46.96699905395508 33.11199951171875,55.625 41.56399917602539,61.42300033569336z"/><g opacity="1" transform="matrix(1,0,0,1,0,0)"><path class="tertiary" fill="rgb(8,168,138)" fill-opacity="1" d=" M41.56399917602539,61.42300033569336 C32.56999969482422,63 4.7789998054504395,66.73200225830078 -11.270999908447266,50.27899932861328 C-22.965999603271484,38.29100036621094 -24.857999801635742,19.922000885009766 -25.30500030517578,4.1620001792907715 C-25.790000915527344,-12.920000076293945 -21.43000030517578,-31.297000885009766 -29.413000106811523,-47.21900177001953 C-33.1349983215332,-54.643001556396484 -38.047000885009766,-59.779998779296875 -41.56399917602539,-62.92900085449219 C-27.94499969482422,-62.944000244140625 -12.026000022888184,-59.25199890136719 -3.190999984741211,-47.99100112915039 C5.5879998207092285,-36.80099868774414 5.88100004196167,-21.05900001525879 7.605000019073486,-7.578000068664551 C10.32800006866455,13.711999893188477 12.095999717712402,22.02899932861328 14.366000175476074,28.024999618530273 C14.892000198364258,29.413000106811523 15.819000244140625,31.625 17.198999404907227,34.33399963378906 C23.635000228881836,46.96699905395508 33.11199951171875,55.625 41.56399917602539,61.42300033569336z"/><path stroke-linecap="round" stroke-linejoin="round" fill-opacity="0" class="tertiary" stroke="rgb(8,168,138)" stroke-opacity="1" stroke-width="4" d=" M41.56399917602539,61.42300033569336 C32.56999969482422,63 4.7789998054504395,66.73200225830078 -11.270999908447266,50.27899932861328 C-22.965999603271484,38.29100036621094 -24.857999801635742,19.922000885009766 -25.30500030517578,4.1620001792907715 C-25.790000915527344,-12.920000076293945 -21.43000030517578,-31.297000885009766 -29.413000106811523,-47.21900177001953 C-33.1349983215332,-54.643001556396484 -38.047000885009766,-59.779998779296875 -41.56399917602539,-62.92900085449219 C-27.94499969482422,-62.944000244140625 -12.026000022888184,-59.25199890136719 -3.190999984741211,-47.99100112915039 C5.5879998207092285,-36.80099868774414 5.88100004196167,-21.05900001525879 7.605000019073486,-7.578000068664551 C10.32800006866455,13.711999893188477 12.095999717712402,22.02899932861328 14.366000175476074,28.024999618530273 C14.892000198364258,29.413000106811523 15.819000244140625,31.625 17.198999404907227,34.33399963378906 C23.635000228881836,46.96699905395508 33.11199951171875,55.625 41.56399917602539,61.42300033569336z"/></g></g></g></g></svg>