<svg xmlns="http://www.w3.org/2000/svg" xmlns:xlink="http://www.w3.org/1999/xlink" viewBox="0 0 430 430" width="430" height="430" preserveAspectRatio="xMidYMid meet" style="width: 100%; height: 100%; transform: translate3d(0px, 0px, 0px); content-visibility: visible;"><defs><clipPath id="__lottie_element_16712"><rect width="430" height="430" x="0" y="0"/></clipPath><clipPath id="__lottie_element_16714"><path d="M0,0 L430,0 L430,430 L0,430z"/></clipPath><g id="__lottie_element_16739"><g transform="matrix(1,0,0,1,239.52499389648438,67.07499694824219)" opacity="1" style="display: block;"><g opacity="1" transform="matrix(1,0,0,1,0,0)"><path class="quaternary" fill="rgb(255,199,56)" fill-opacity="1" d=" M56.70000076293945,-18.700000762939453 C56.70000076293945,-18.700000762939453 -56.70000076293945,-18.700000762939453 -56.70000076293945,-18.700000762939453 C-56.70000076293945,-18.700000762939453 -56.70000076293945,18.700000762939453 -56.70000076293945,18.700000762939453 C-56.70000076293945,18.700000762939453 56.70000076293945,18.700000762939453 56.70000076293945,18.700000762939453 C56.70000076293945,18.700000762939453 56.70000076293945,-18.700000762939453 56.70000076293945,-18.700000762939453z"/></g></g></g><g id="__lottie_element_16752"><g transform="matrix(1,0,0,1,231.61500549316406,283.427001953125)" opacity="1" style="display: block;"><g opacity="1" transform="matrix(1,0,0,1,0,0)"><path fill="rgb(75,179,253)" fill-opacity="1" d=" M-68.75199890136719,107.40499877929688 C-68.75199890136719,107.40499877929688 -73.75199890136719,68.01499938964844 -73.75199890136719,68.01499938964844 C-73.75199890136719,68.01499938964844 -73.75199890136719,68.01499938964844 -73.75199890136719,68.01499938964844 C-75.01499938964844,61.81999969482422 -77.93599700927734,56.08399963378906 -82.2030029296875,51.41899871826172 C-86.47000122070312,46.75400161743164 -91.92400360107422,43.33399963378906 -97.98200225830078,41.525001525878906 C-91.91100311279297,39.733001708984375 -86.44100189208984,36.32500076293945 -82.15699768066406,31.663999557495117 C-77.87300109863281,27.003000259399414 -74.93699645996094,21.266000747680664 -73.66200256347656,15.0649995803833 C-73.66200256347656,15.0649995803833 -68.66200256347656,-34.854000091552734 -68.66200256347656,-34.854000091552734 C-68.66200256347656,-34.854000091552734 73.87799835205078,-34.854000091552734 73.87799835205078,-34.854000091552734 C73.87799835205078,-34.854000091552734 74.50700378417969,-4.511000156402588 74.50700378417969,-4.511000156402588 C74.50700378417969,-4.511000156402588 78.94499969482422,15.0649995803833 78.94499969482422,15.0649995803833 C80.20600128173828,21.25 83.12100219726562,26.97599983215332 87.37899780273438,31.63599967956543 C91.63700103759766,36.29600143432617 97.0790023803711,39.7130012512207 103.125,41.525001525878906 C97.06900024414062,43.33700180053711 91.61799621582031,46.75699996948242 87.35299682617188,51.422000885009766 C83.08799743652344,56.08700180053711 80.16799926757812,61.821998596191406 78.90499877929688,68.01499938964844 C78.90499877929688,68.01499938964844 73.2509994506836,87.60600280761719 73.2509994506836,87.60600280761719 C73.2509994506836,87.60600280761719 73.78800201416016,107.40499877929688 73.78800201416016,107.40499877929688 C73.78800201416016,107.40499877929688 -68.75199890136719,107.40499877929688 -68.75199890136719,107.40499877929688z"/></g></g></g><mask id="__lottie_element_16752_1" mask-type="alpha"><use xmlns:ns1="http://www.w3.org/1999/xlink" ns1:href="#__lottie_element_16752"/></mask><g id="__lottie_element_16767"><g transform="matrix(1,0,0,1,231.61500549316406,283.427001953125)" opacity="1" style="display: block;"><g opacity="1" transform="matrix(1,0,0,1,0,0)"><path fill="rgb(75,179,253)" fill-opacity="1" d=" M-68.75199890136719,107.40499877929688 C-68.75199890136719,107.40499877929688 -73.75199890136719,68.01499938964844 -73.75199890136719,68.01499938964844 C-73.75199890136719,68.01499938964844 -73.75199890136719,68.01499938964844 -73.75199890136719,68.01499938964844 C-75.01499938964844,61.81999969482422 -77.93599700927734,56.08399963378906 -82.2030029296875,51.41899871826172 C-86.47000122070312,46.75400161743164 -91.92400360107422,43.33399963378906 -97.98200225830078,41.525001525878906 C-91.91100311279297,39.733001708984375 -86.44100189208984,36.32500076293945 -82.15699768066406,31.663999557495117 C-77.87300109863281,27.003000259399414 -74.93699645996094,21.266000747680664 -73.66200256347656,15.0649995803833 C-73.66200256347656,15.0649995803833 -68.66200256347656,-34.854000091552734 -68.66200256347656,-34.854000091552734 C-68.66200256347656,-34.854000091552734 73.87799835205078,-34.854000091552734 73.87799835205078,-34.854000091552734 C73.87799835205078,-34.854000091552734 74.50700378417969,-4.511000156402588 74.50700378417969,-4.511000156402588 C74.50700378417969,-4.511000156402588 78.94499969482422,15.0649995803833 78.94499969482422,15.0649995803833 C80.20600128173828,21.25 83.12100219726562,26.97599983215332 87.37899780273438,31.63599967956543 C91.63700103759766,36.29600143432617 97.0790023803711,39.7130012512207 103.125,41.525001525878906 C97.06900024414062,43.33700180053711 91.61799621582031,46.75699996948242 87.35299682617188,51.422000885009766 C83.08799743652344,56.08700180053711 80.16799926757812,61.821998596191406 78.90499877929688,68.01499938964844 C78.90499877929688,68.01499938964844 73.2509994506836,87.60600280761719 73.2509994506836,87.60600280761719 C73.2509994506836,87.60600280761719 73.78800201416016,107.40499877929688 73.78800201416016,107.40499877929688 C73.78800201416016,107.40499877929688 -68.75199890136719,107.40499877929688 -68.75199890136719,107.40499877929688z"/></g></g></g><mask id="__lottie_element_16767_1" mask-type="alpha"><use xmlns:ns2="http://www.w3.org/1999/xlink" ns2:href="#__lottie_element_16767"/></mask><filter id="__lottie_element_16770" filterUnits="objectBoundingBox" x="0%" y="0%" width="100%" height="100%"><feComponentTransfer in="SourceGraphic"><feFuncA type="table" tableValues="1.0 0.0"/></feComponentTransfer></filter><mask id="__lottie_element_16739_2" mask-type="alpha"><g filter="url(#__lottie_element_16770)"><rect width="430" height="430" x="0" y="0" fill="#ffffff" opacity="0"/><use xmlns:ns3="http://www.w3.org/1999/xlink" ns3:href="#__lottie_element_16739"/></g></mask></defs><g clip-path="url(#__lottie_element_16712)"><g clip-path="url(#__lottie_element_16714)" transform="matrix(1,0,0,1,0,0)" opacity="1" style="display: block;"><g transform="matrix(1,0,0,1,215,214.84500122070312)" opacity="1" style="display: block;"><g opacity="1" transform="matrix(1,0,0,1,0,-0.5)"><path class="quaternary" fill="rgb(235,230,239)" fill-opacity="1" d=" M113.41999816894531,-160.1199951171875 C113.41999816894531,-160.1199951171875 -113.41999816894531,-160.1199951171875 -113.41999816894531,-160.1199951171875 C-113.41999816894531,-160.1199951171875 -113.41999816894531,160.1199951171875 -113.41999816894531,160.1199951171875 C-113.41999816894531,160.1199951171875 113.41999816894531,160.1199951171875 113.41999816894531,160.1199951171875 C113.41999816894531,160.1199951171875 113.41999816894531,-160.1199951171875 113.41999816894531,-160.1199951171875z"/></g></g><g transform="matrix(1,0,0,1,113.1050033569336,216.84500122070312)" opacity="0.5" style="mix-blend-mode: multiply; display: block;"><g opacity="1" transform="matrix(1,0,0,1,0,-2)"><path class="quaternary" fill="rgb(235,230,239)" fill-opacity="1" d=" M11.524999618530273,-160.1199951171875 C11.524999618530273,-160.1199951171875 -11.524999618530273,-160.1199951171875 -11.524999618530273,-160.1199951171875 C-11.524999618530273,-160.1199951171875 -11.524999618530273,160.1199951171875 -11.524999618530273,160.1199951171875 C-11.524999618530273,160.1199951171875 11.524999618530273,160.1199951171875 11.524999618530273,160.1199951171875 C11.524999618530273,160.1199951171875 11.524999618530273,-160.1199951171875 11.524999618530273,-160.1199951171875z"/></g></g><g transform="matrix(1,0,0,1,215.0749969482422,38.025001525878906)" opacity="1" style="display: block;"><g opacity="1" transform="matrix(1,0,0,1,0,0)"><path class="secondary" fill="rgb(255,199,56)" fill-opacity="1" d=" M25.149999618530273,10.350000381469727 C25.149999618530273,10.350000381469727 25.149999618530273,-10.350000381469727 25.149999618530273,-10.350000381469727 C25.149999618530273,-10.350000381469727 -25.149999618530273,-10.350000381469727 -25.149999618530273,-10.350000381469727 C-25.149999618530273,-10.350000381469727 -25.149999618530273,10.350000381469727 -25.149999618530273,10.350000381469727"/></g></g><g transform="matrix(1,0,0,1,215.0749969482422,38.525001525878906)" opacity="0.5" style="mix-blend-mode: multiply; display: block;"><g opacity="1" transform="matrix(1,0,0,1,0,0)"><path class="secondary" fill="rgb(255,199,56)" fill-opacity="1" d=" M25.149999618530273,10.350000381469727 C25.149999618530273,10.350000381469727 25.149999618530273,-10.350000381469727 25.149999618530273,-10.350000381469727 C25.149999618530273,-10.350000381469727 -25.149999618530273,-10.350000381469727 -25.149999618530273,-10.350000381469727 C-25.149999618530273,-10.350000381469727 -25.149999618530273,10.350000381469727 -25.149999618530273,10.350000381469727"/></g></g><g transform="matrix(1,0,0,1,197.4250030517578,38.525001525878906)" opacity="0.5" style="mix-blend-mode: multiply; display: block;"><g opacity="1" transform="matrix(1,0,0,1,0,0)"><path class="secondary" fill="rgb(255,199,56)" fill-opacity="1" d=" M-7.5,10.350000381469727 C-7.5,10.350000381469727 -7.5,-10.350000381469727 -7.5,-10.350000381469727 C-7.5,-10.350000381469727 7.5,-10.350000381469727 7.5,-10.350000381469727 C7.5,-10.350000381469727 7.5,10.350000381469727 7.5,10.350000381469727 C7.5,10.350000381469727 -7.5,10.350000381469727 -7.5,10.350000381469727z"/></g></g><g transform="matrix(1,0,0,1,215.02499389648438,67.07499694824219)" opacity="1" style="display: block;"><g opacity="1" transform="matrix(1,0,0,1,0,0)"><path class="secondary" fill="rgb(255,199,56)" fill-opacity="1" d=" M56.70000076293945,-18.700000762939453 C56.70000076293945,-18.700000762939453 -56.70000076293945,-18.700000762939453 -56.70000076293945,-18.700000762939453 C-56.70000076293945,-18.700000762939453 -56.70000076293945,18.700000762939453 -56.70000076293945,18.700000762939453 C-56.70000076293945,18.700000762939453 56.70000076293945,18.700000762939453 56.70000076293945,18.700000762939453 C56.70000076293945,18.700000762939453 56.70000076293945,-18.700000762939453 56.70000076293945,-18.700000762939453z"/></g></g><g mask="url(#__lottie_element_16739_2)" style="mix-blend-mode: multiply; display: block;"><g transform="matrix(1,0,0,1,215.02499389648438,67.07499694824219)" opacity="0.5"><g opacity="1" transform="matrix(1,0,0,1,0,0)"><path class="secondary" fill="rgb(255,199,56)" fill-opacity="1" d=" M56.70000076293945,-18.700000762939453 C56.70000076293945,-18.700000762939453 -56.70000076293945,-18.700000762939453 -56.70000076293945,-18.700000762939453 C-56.70000076293945,-18.700000762939453 -56.70000076293945,18.700000762939453 -56.70000076293945,18.700000762939453 C-56.70000076293945,18.700000762939453 56.70000076293945,18.700000762939453 56.70000076293945,18.700000762939453 C56.70000076293945,18.700000762939453 56.70000076293945,-18.700000762939453 56.70000076293945,-18.700000762939453z"/></g></g></g><g transform="matrix(1,0,0,1,-35,-35)" opacity="1" style="display: block;"><g opacity="1" transform="matrix(1,0,0,1,0,0)"><g opacity="1" transform="matrix(1,0,0,1,0,0)"><g opacity="1" transform="matrix(1,0,0,1,263.83099365234375,230.8040008544922)"><path stroke-linecap="round" stroke-linejoin="round" fill-opacity="0" class="primary" stroke="rgb(44,165,141)" stroke-opacity="1" stroke-width="7" d=" M-57.06800079345703,0 C-57.06800079345703,0 57.06800079345703,0 57.06800079345703,0"/></g><g opacity="1" transform="matrix(1,0,0,1,263.83099365234375,182.33200073242188)"><path stroke-linecap="round" stroke-linejoin="round" fill-opacity="0" class="primary" stroke="rgb(44,165,141)" stroke-opacity="1" stroke-width="7" d=" M-57.06800079345703,0 C-57.06800079345703,0 57.06800079345703,0 57.06800079345703,0"/></g><g opacity="1" transform="matrix(1,0,0,1,263.83099365234375,279.2760009765625)"><path stroke-linecap="round" stroke-linejoin="round" fill-opacity="0" class="primary" stroke="rgb(44,165,141)" stroke-opacity="1" stroke-width="7" d=" M-57.06800079345703,0 C-57.06800079345703,0 57.06800079345703,0 57.06800079345703,0"/></g><g opacity="1" transform="matrix(1,0,0,1,245.63099670410156,327.74798583984375)"><path stroke-linecap="round" stroke-linejoin="round" fill-opacity="0" class="primary" stroke="rgb(44,165,141)" stroke-opacity="1" stroke-width="7" d=" M-38.86800003051758,0 C-38.86800003051758,0 38.86800003051758,0 38.86800003051758,0"/></g><g opacity="1" transform="matrix(1,0,0,1,179.1009979248047,230.8040008544922)"><path stroke-linecap="round" stroke-linejoin="round" fill-opacity="0" class="primary" stroke="rgb(44,165,141)" stroke-opacity="1" stroke-width="10" d=" M-0.0010000000474974513,0 C-0.0010000000474974513,0 0.0010000000474974513,0 0.0010000000474974513,0"/></g></g><g opacity="1" transform="matrix(1,0,0,1,179.1009979248047,182.33200073242188)"><path stroke-linecap="round" stroke-linejoin="round" fill-opacity="0" class="primary" stroke="rgb(44,165,141)" stroke-opacity="1" stroke-width="10" d=" M-0.0010000000474974513,0 C-0.0010000000474974513,0 0.0010000000474974513,0 0.0010000000474974513,0"/></g><g opacity="1" transform="matrix(1,0,0,1,179.1009979248047,279.2760009765625)"><path stroke-linecap="round" stroke-linejoin="round" fill-opacity="0" class="primary" stroke="rgb(44,165,141)" stroke-opacity="1" stroke-width="10" d=" M-0.0010000000474974513,0 C-0.0010000000474974513,0 0.0010000000474974513,0 0.0010000000474974513,0"/></g><g opacity="1" transform="matrix(1,0,0,1,179.1009979248047,327.74798583984375)"><path stroke-linecap="round" stroke-linejoin="round" fill-opacity="0" class="primary" stroke="rgb(44,165,141)" stroke-opacity="1" stroke-width="10" d=" M-0.0010000000474974513,0 C-0.0010000000474974513,0 0.0010000000474974513,0 0.0010000000474974513,0"/></g></g></g><g transform="matrix(-1,0,0,-1,323.9090270996094,323.70501708984375)" opacity="1" style="display: block;"><g opacity="1" transform="matrix(1,0,0,1,0,0)"><path class="quinary" fill="rgb(75,179,253)" fill-opacity="1" d=" M39.20500183105469,51.125 C39.20500183105469,51.125 34.20500183105469,26.475000381469727 34.20500183105469,26.475000381469727 C34.20500183105469,26.475000381469727 34.20500183105469,26.475000381469727 34.20500183105469,26.475000381469727 C32.94200134277344,20.280000686645508 30.020999908447266,14.543999671936035 25.753999710083008,9.878999710083008 C21.48699951171875,5.214000225067139 16.033000946044922,1.7940000295639038 9.975000381469727,-0.014999999664723873 C16.04599952697754,-1.8070000410079956 21.516000747680664,-5.215000152587891 25.799999237060547,-9.87600040435791 C30.083999633789062,-14.536999702453613 33.02000045776367,-20.27400016784668 34.29499816894531,-26.475000381469727 C34.29499816894531,-26.475000381469727 39.29499816894531,-51.125 39.29499816894531,-51.125 C39.29499816894531,-51.125 -39.20500183105469,-51.125 -39.20500183105469,-51.125 C-39.20500183105469,-51.125 -34.20500183105469,-26.475000381469727 -34.20500183105469,-26.475000381469727 C-32.944000244140625,-20.290000915527344 -30.02899932861328,-14.564000129699707 -25.770999908447266,-9.904000282287598 C-21.51300048828125,-5.24399995803833 -16.070999145507812,-1.8270000219345093 -10.024999618530273,-0.014999999664723873 C-16.08099937438965,1.7970000505447388 -21.531999588012695,5.2170000076293945 -25.797000885009766,9.881999969482422 C-30.062000274658203,14.54699993133545 -32.981998443603516,20.281999588012695 -34.244998931884766,26.475000381469727 C-34.244998931884766,26.475000381469727 -39.29499816894531,51.125 -39.29499816894531,51.125 C-39.29499816894531,51.125 39.20500183105469,51.125 39.20500183105469,51.125z"/></g></g><g mask="url(#__lottie_element_16752_1)" style="mix-blend-mode: multiply; display: block;"><g transform="matrix(0.9999322295188904,-0.011641083285212517,0.011641083285212517,0.9999322295188904,324.27001953125,324.27801513671875)" opacity="0.5"><g opacity="1" transform="matrix(1,0,0,1,0,0)"><path class="quinary" fill="rgb(75,179,253)" fill-opacity="1" d=" M39.20500183105469,51.125 C39.20500183105469,51.125 34.20500183105469,26.475000381469727 34.20500183105469,26.475000381469727 C34.20500183105469,26.475000381469727 34.20500183105469,26.475000381469727 34.20500183105469,26.475000381469727 C32.94200134277344,20.280000686645508 30.020999908447266,14.543999671936035 25.753999710083008,9.878999710083008 C21.48699951171875,5.214000225067139 16.033000946044922,1.7940000295639038 9.975000381469727,-0.014999999664723873 C16.04599952697754,-1.8070000410079956 21.516000747680664,-5.215000152587891 25.799999237060547,-9.87600040435791 C30.083999633789062,-14.536999702453613 33.02000045776367,-20.27400016784668 34.29499816894531,-26.475000381469727 C34.29499816894531,-26.475000381469727 39.29499816894531,-51.125 39.29499816894531,-51.125 C39.29499816894531,-51.125 -39.20500183105469,-51.125 -39.20500183105469,-51.125 C-39.20500183105469,-51.125 -34.20500183105469,-26.475000381469727 -34.20500183105469,-26.475000381469727 C-32.944000244140625,-20.290000915527344 -30.02899932861328,-14.564000129699707 -25.770999908447266,-9.904000282287598 C-21.51300048828125,-5.24399995803833 -16.070999145507812,-1.8270000219345093 -10.024999618530273,-0.014999999664723873 C-16.08099937438965,1.7970000505447388 -21.531999588012695,5.2170000076293945 -25.797000885009766,9.881999969482422 C-30.062000274658203,14.54699993133545 -32.981998443603516,20.281999588012695 -34.244998931884766,26.475000381469727 C-34.244998931884766,26.475000381469727 -39.29499816894531,51.125 -39.29499816894531,51.125 C-39.29499816894531,51.125 39.20500183105469,51.125 39.20500183105469,51.125z"/></g></g></g><g transform="matrix(1,0,0,1,324.0000305175781,374.96099853515625)" opacity="1" style="display: block;"><g opacity="1" transform="matrix(1,0,0,1,0,0)"><path class="tertiary" fill="rgb(58,51,71)" fill-opacity="1" d=" M47.5099983215332,6 C49.16699981689453,6 50.5099983215332,4.6570000648498535 50.5099983215332,3 C50.5099983215332,3 50.5099983215332,-3 50.5099983215332,-3 C50.5099983215332,-4.6570000648498535 49.16699981689453,-6 47.5099983215332,-6 C47.5099983215332,-6 -47.5099983215332,-6 -47.5099983215332,-6 C-49.16699981689453,-6 -50.5099983215332,-4.6570000648498535 -50.5099983215332,-3 C-50.5099983215332,-3 -50.5099983215332,3 -50.5099983215332,3 C-50.5099983215332,4.6570000648498535 -49.16699981689453,6 -47.5099983215332,6 C-47.5099983215332,6 47.5099983215332,6 47.5099983215332,6z"/></g></g><g mask="url(#__lottie_element_16752_1)" style="mix-blend-mode: multiply; display: block;"><g transform="matrix(1,0,0,1,324.0000305175781,374.96099853515625)" opacity="0.5"><g opacity="1" transform="matrix(1,0,0,1,0,0)"><path class="tertiary" fill="rgb(58,51,71)" fill-opacity="1" d=" M47.5099983215332,6 C49.16699981689453,6 50.5099983215332,4.6570000648498535 50.5099983215332,3 C50.5099983215332,3 50.5099983215332,-3 50.5099983215332,-3 C50.5099983215332,-4.6570000648498535 49.16699981689453,-6 47.5099983215332,-6 C47.5099983215332,-6 -47.5099983215332,-6 -47.5099983215332,-6 C-49.16699981689453,-6 -50.5099983215332,-4.6570000648498535 -50.5099983215332,-3 C-50.5099983215332,-3 -50.5099983215332,3 -50.5099983215332,3 C-50.5099983215332,4.6570000648498535 -49.16699981689453,6 -47.5099983215332,6 C-47.5099983215332,6 47.5099983215332,6 47.5099983215332,6z"/></g></g></g><g transform="matrix(1,0,0,1,324.0000305175781,271.21099853515625)" opacity="1" style="display: block;"><g opacity="1" transform="matrix(1,0,0,1,0,0)"><path class="tertiary" fill="rgb(58,51,71)" fill-opacity="1" d=" M47.5099983215332,6 C49.16699981689453,6 50.5099983215332,4.6570000648498535 50.5099983215332,3 C50.5099983215332,3 50.5099983215332,-3 50.5099983215332,-3 C50.5099983215332,-4.6570000648498535 49.16699981689453,-6 47.5099983215332,-6 C47.5099983215332,-6 -47.5099983215332,-6 -47.5099983215332,-6 C-49.16699981689453,-6 -50.5099983215332,-4.6570000648498535 -50.5099983215332,-3 C-50.5099983215332,-3 -50.5099983215332,3 -50.5099983215332,3 C-50.5099983215332,4.6570000648498535 -49.16699981689453,6 -47.5099983215332,6 C-47.5099983215332,6 47.5099983215332,6 47.5099983215332,6z"/></g></g><g mask="url(#__lottie_element_16767_1)" style="mix-blend-mode: multiply; display: block;"><g transform="matrix(1,0,0,1,324.0000305175781,271.21099853515625)" opacity="0.5"><g opacity="1" transform="matrix(1,0,0,1,0,0)"><path class="tertiary" fill="rgb(58,51,71)" fill-opacity="1" d=" M47.5099983215332,6 C49.16699981689453,6 50.5099983215332,4.6570000648498535 50.5099983215332,3 C50.5099983215332,3 50.5099983215332,-3 50.5099983215332,-3 C50.5099983215332,-4.6570000648498535 49.16699981689453,-6 47.5099983215332,-6 C47.5099983215332,-6 -47.5099983215332,-6 -47.5099983215332,-6 C-49.16699981689453,-6 -50.5099983215332,-4.6570000648498535 -50.5099983215332,-3 C-50.5099983215332,-3 -50.5099983215332,3 -50.5099983215332,3 C-50.5099983215332,4.6570000648498535 -49.16699981689453,6 -47.5099983215332,6 C-47.5099983215332,6 47.5099983215332,6 47.5099983215332,6z"/></g></g></g></g></g></svg>