<svg xmlns="http://www.w3.org/2000/svg" xmlns:xlink="http://www.w3.org/1999/xlink" viewBox="0 0 430 430" width="430" height="430" preserveAspectRatio="xMidYMid meet" style="width: 100%; height: 100%; transform: translate3d(0px, 0px, 0px); content-visibility: visible;"><defs><clipPath id="__lottie_element_15567"><rect width="430" height="430" x="0" y="0"/></clipPath><clipPath id="__lottie_element_15569"><path d="M0,0 L430,0 L430,430 L0,430z"/></clipPath><g id="__lottie_element_15576"><g style="display: none;"><g><path/><path style="mix-blend-mode: multiply;"/></g></g></g><g id="__lottie_element_15585"><g transform="matrix(1,0,0,1,214.99000549316406,215)" opacity="1" style="display: block;"><g opacity="1" transform="matrix(1,0,0,1,0,0)"><path fill="rgb(255,199,56)" fill-opacity="1" d=" M88.52059936523438,173.6241455078125 C120.06660461425781,160.08778381347656 141.59808349609375,134.16165161132812 158.9309844970703,104.41429901123047 C158.9309844970703,104.41429901123047 -92.18222045898438,-179.74624633789062 -92.18222045898438,-179.74624633789062 C-123.82205200195312,-166.1703338623047 -150.15626525878906,-142.83065795898438 -167.4449920654297,-113.18974304199219 C-167.4449920654297,-113.18974304199219 88.52059936523438,173.6241455078125 88.52059936523438,173.6241455078125z"/></g></g></g><filter id="__lottie_element_15597" filterUnits="objectBoundingBox" x="0%" y="0%" width="100%" height="100%"><feComponentTransfer in="SourceGraphic"><feFuncA type="table" tableValues="1.0 0.0"/></feComponentTransfer></filter><mask id="__lottie_element_15585_2" mask-type="alpha"><g filter="url(#__lottie_element_15597)"><rect width="430" height="430" x="0" y="0" fill="#ffffff" opacity="0"/><use xmlns:ns1="http://www.w3.org/1999/xlink" ns1:href="#__lottie_element_15585"/></g></mask><mask id="__lottie_element_15576_1" mask-type="alpha"><use xmlns:ns2="http://www.w3.org/1999/xlink" ns2:href="#__lottie_element_15576"/></mask></defs><g clip-path="url(#__lottie_element_15567)"><g clip-path="url(#__lottie_element_15569)" transform="matrix(1,0,0,1,0,0)" opacity="1" style="display: block;"><g mask="url(#__lottie_element_15576_1)" style="display: block;"><g transform="matrix(1,0,0,1,215,214.5)" opacity="1"><g opacity="1" transform="matrix(1,0,0,1,0,0)"><path stroke-linecap="round" stroke-linejoin="miter" fill-opacity="0" stroke-miterlimit="4" class="primary" stroke="rgb(255,199,56)" stroke-opacity="1" stroke-width="7" d=" M-1.2675882577896118,165.00379943847656 C-1.2675882577896118,165.00379943847656 -0.2263302356004715,165.00379943847656 -0.2263302356004715,165.00379943847656 M-100.1624755859375,134.5 C-100.1624755859375,134.5 -99.1212158203125,134.5 -99.1212158203125,134.5 M-133.95570373535156,100.5 C-133.95570373535156,100.5 -132.91444396972656,100.5 -132.91444396972656,100.5 M-153.3371124267578,66.5 C-153.3371124267578,66.5 -152.2958526611328,66.5 -152.2958526611328,66.5 M-164.2702178955078,33.5 C-164.2702178955078,33.5 -163.2289581298828,33.5 -163.2289581298828,33.5 M-167.74893188476562,-0.5 C-167.74893188476562,-0.5 -166.70767211914062,-0.5 -166.70767211914062,-0.5 M-164.2702178955078,-33.5 C-164.2702178955078,-33.5 -163.2289581298828,-33.5 -163.2289581298828,-33.5 M-153.3371124267578,-67.5 C-153.3371124267578,-67.5 -152.2958526611328,-67.5 -152.2958526611328,-67.5 M-133.95570373535156,-100.5 C-133.95570373535156,-100.5 -132.91444396972656,-100.5 -132.91444396972656,-100.5 M-100.1624755859375,-134.5 C-100.1624755859375,-134.5 -99.1212158203125,-134.5 -99.1212158203125,-134.5 M-1.2675882577896118,-166.87120056152344 C-1.2675882577896118,-166.87120056152344 -0.2263302356004715,-166.87120056152344 -0.2263302356004715,-166.87120056152344"/><path stroke-linecap="round" stroke-linejoin="miter" fill-opacity="0" stroke-miterlimit="4" class="primary" stroke="rgb(255,199,56)" stroke-opacity="0.5" stroke-width="7" d=" M-1.2675882577896118,165.00379943847656 C-1.2675882577896118,165.00379943847656 -0.2263302356004715,165.00379943847656 -0.2263302356004715,165.00379943847656 M-100.1624755859375,134.5 C-100.1624755859375,134.5 -99.1212158203125,134.5 -99.1212158203125,134.5 M-133.95570373535156,100.5 C-133.95570373535156,100.5 -132.91444396972656,100.5 -132.91444396972656,100.5 M-153.3371124267578,66.5 C-153.3371124267578,66.5 -152.2958526611328,66.5 -152.2958526611328,66.5 M-164.2702178955078,33.5 C-164.2702178955078,33.5 -163.2289581298828,33.5 -163.2289581298828,33.5 M-167.74893188476562,-0.5 C-167.74893188476562,-0.5 -166.70767211914062,-0.5 -166.70767211914062,-0.5 M-164.2702178955078,-33.5 C-164.2702178955078,-33.5 -163.2289581298828,-33.5 -163.2289581298828,-33.5 M-153.3371124267578,-67.5 C-153.3371124267578,-67.5 -152.2958526611328,-67.5 -152.2958526611328,-67.5 M-133.95570373535156,-100.5 C-133.95570373535156,-100.5 -132.91444396972656,-100.5 -132.91444396972656,-100.5 M-100.1624755859375,-134.5 C-100.1624755859375,-134.5 -99.1212158203125,-134.5 -99.1212158203125,-134.5 M-1.2675882577896118,-166.87120056152344 C-1.2675882577896118,-166.87120056152344 -0.2263302356004715,-166.87120056152344 -0.2263302356004715,-166.87120056152344" style="mix-blend-mode: multiply;"/></g></g></g><g transform="matrix(1,0,0,1,214.65560913085938,214.5)" opacity="1" style="display: block;"><g opacity="1" transform="matrix(1,0,0,1,0,0)"><path class="primary" fill="rgb(255,199,56)" fill-opacity="1" d=" M0,-167.5 C91.94709014892578,-167.5 166.484375,-92.50800323486328 166.484375,0 C166.484375,92.50800323486328 91.94709014892578,167.5 0,167.5 C-91.94709014892578,167.5 -166.484375,92.50800323486328 -166.484375,0 C-166.484375,-92.50800323486328 -91.94709014892578,-167.5 0,-167.5z"/></g></g><g mask="url(#__lottie_element_15585_2)" style="display: block;"><g transform="matrix(1,0,0,1,214.65560913085938,214.5)" opacity="1"><g opacity="1" transform="matrix(1,0,0,1,0,0)"><path class="primary" fill="rgb(255,199,56)" fill-opacity="1" d=" M0,-167.5 C91.94709014892578,-167.5 166.484375,-92.50800323486328 166.484375,0 C166.484375,92.50800323486328 91.94709014892578,167.5 0,167.5 C-91.94709014892578,167.5 -166.484375,92.50800323486328 -166.484375,0 C-166.484375,-92.50800323486328 -91.94709014892578,-167.5 0,-167.5z"/><path class="primary" fill="rgb(255,199,56)" fill-opacity="0.48007999999988815" d=" M0,-167.5 C91.94709014892578,-167.5 166.484375,-92.50800323486328 166.484375,0 C166.484375,92.50800323486328 91.94709014892578,167.5 0,167.5 C-91.94709014892578,167.5 -166.484375,92.50800323486328 -166.484375,0 C-166.484375,-92.50800323486328 -91.94709014892578,-167.5 0,-167.5z" style="mix-blend-mode: multiply;"/></g></g></g><g transform="matrix(1,0,0,1,214.65560913085938,214.5)" opacity="1" style="display: block;"><g opacity="1" transform="matrix(1,0,0,1,0,0)"/><g opacity="1" transform="matrix(1,0,0,1,0,0)"><path stroke-linecap="round" stroke-linejoin="round" fill-opacity="0" class="secondary" stroke="rgb(178,104,54)" stroke-opacity="1" stroke-width="7" d=" M0,129 C70.81301879882812,129 128.2178192138672,71.24500274658203 128.2178192138672,0 C128.2178192138672,-71.24500274658203 70.81301879882812,-129 0,-129 C-70.81301879882812,-129 -128.2178192138672,-71.24500274658203 -128.2178192138672,0 C-128.2178192138672,71.24500274658203 -70.81301879882812,129 0,129z"/></g></g><g transform="matrix(1,0,0,1,214.34439086914062,214.5)" opacity="1" style="display: block;"/><g transform="matrix(1,0,0,1,214.65560913085938,214.5)" opacity="1" style="display: block;"><g opacity="1" transform="matrix(1,0,0,1,0,0)"><path stroke-linecap="round" stroke-linejoin="round" fill-opacity="0" class="secondary" stroke="rgb(178,104,54)" stroke-opacity="1" stroke-width="7" d=" M0,129 C70.81301879882812,129 128.2178192138672,71.24500274658203 128.2178192138672,0 C128.2178192138672,-71.24500274658203 70.81301879882812,-129 0,-129 C-70.81301879882812,-129 -128.2178192138672,-71.24500274658203 -128.2178192138672,0 C-128.2178192138672,71.24500274658203 -70.81301879882812,129 0,129z"/></g></g></g></g></svg>