<svg xmlns="http://www.w3.org/2000/svg" xmlns:xlink="http://www.w3.org/1999/xlink" viewBox="0 0 430 430" width="430" height="430" preserveAspectRatio="xMidYMid meet" style="width: 100%; height: 100%; transform: translate3d(0px, 0px, 0px); content-visibility: visible;"><defs><clipPath id="__lottie_element_226"><rect width="430" height="430" x="0" y="0"/></clipPath><clipPath id="__lottie_element_228"><path d="M0,0 L430,0 L430,430 L0,430z"/></clipPath><g id="__lottie_element_251"><g transform="matrix(1,0,0,1,161.625,261.7550048828125)" opacity="1" style="display: block;"><g opacity="1" transform="matrix(1,0,0,1,0,0)"><path fill="rgb(75,179,253)" fill-opacity="1" d=" M50.375,33.80500030517578 C52.03200149536133,33.80500030517578 53.375,32.46200180053711 53.375,30.80500030517578 C53.375,30.80500030517578 53.375,-30.80500030517578 53.375,-30.80500030517578 C53.375,-32.46200180053711 52.03200149536133,-33.80500030517578 50.375,-33.80500030517578 C50.375,-33.80500030517578 -50.375,-33.80500030517578 -50.375,-33.80500030517578 C-52.03200149536133,-33.80500030517578 -53.375,-32.46200180053711 -53.375,-30.80500030517578 C-53.375,-30.80500030517578 -53.375,30.80500030517578 -53.375,30.80500030517578 C-53.375,32.46200180053711 -52.03200149536133,33.80500030517578 -50.375,33.80500030517578 C-50.375,33.80500030517578 50.375,33.80500030517578 50.375,33.80500030517578z"/></g><g opacity="1" transform="matrix(1,0,0,1,120.03199768066406,6.73199987411499)"><path fill="rgb(75,179,253)" fill-opacity="1" d=" M-23.684999465942383,-26.684999465942383 C-23.684999465942383,-26.684999465942383 23.684999465942383,-26.684999465942383 23.684999465942383,-26.684999465942383 C25.341999053955078,-26.684999465942383 26.684999465942383,-25.341999053955078 26.684999465942383,-23.684999465942383 C26.684999465942383,-23.684999465942383 26.684999465942383,23.684999465942383 26.684999465942383,23.684999465942383 C26.684999465942383,25.341999053955078 25.341999053955078,26.684999465942383 23.684999465942383,26.684999465942383 C23.684999465942383,26.684999465942383 -23.684999465942383,26.684999465942383 -23.684999465942383,26.684999465942383 C-25.341999053955078,26.684999465942383 -26.684999465942383,25.341999053955078 -26.684999465942383,23.684999465942383 C-26.684999465942383,23.684999465942383 -26.684999465942383,-23.684999465942383 -26.684999465942383,-23.684999465942383 C-26.684999465942383,-25.341999053955078 -25.341999053955078,-26.684999465942383 -23.684999465942383,-26.684999465942383z"/></g></g></g><mask id="__lottie_element_261"><rect fill="#ffffff" width="430" height="430" transform="matrix(1,0,0,1,-215,-215.00001525878906)"/><path fill="#000000" clip-rule="nonzero" d=" M252,-183.5 C252,-183.5 -199.5,-183.5 -199.5,-183.5 C-199.5,-183.5 -199.5,-55 -199.5,-55 C-199.5,-55 252,-55 252,-55 C252,-55 252,-183.5 252,-183.5" fill-opacity="1"/></mask><mask id="__lottie_element_267"><rect fill="#ffffff" width="430" height="430" transform="matrix(1,0,0,1,-215,-215.00001525878906)"/><path fill="#000000" clip-rule="nonzero" d=" M214.5,-178 C214.5,-178 -204,-178 -204,-178 C-204,-178 -204,-55 -204,-55 C-204,-55 214.5,-55 214.5,-55 C214.5,-55 214.5,-178 214.5,-178" fill-opacity="1"/></mask><mask id="__lottie_element_251_1" mask-type="alpha"><use xmlns:ns1="http://www.w3.org/1999/xlink" ns1:href="#__lottie_element_251"/></mask></defs><g clip-path="url(#__lottie_element_226)"><g clip-path="url(#__lottie_element_228)" transform="matrix(1,0,0,1,0,0)" opacity="1" style="display: block;"><g transform="matrix(1,0,0,1,215,249.7150115966797)" opacity="1" style="display: block;"><g opacity="1" transform="matrix(1,0,0,1,0,0)"><path class="quaternary" fill="rgb(255,199,56)" fill-opacity="1" d=" M133.42999267578125,96.21499633789062 C133.42999267578125,96.21499633789062 133.42999267578125,-99.21499633789062 133.42999267578125,-99.21499633789062 C133.42999267578125,-99.21499633789062 -133.42999267578125,-99.21499633789062 -133.42999267578125,-99.21499633789062 C-133.42999267578125,-99.21499633789062 -133.42999267578125,96.21499633789062 -133.42999267578125,96.21499633789062 C-133.42999267578125,97.01100158691406 -133.11399841308594,97.77300262451172 -132.55099487304688,98.33599853515625 C-131.98800659179688,98.89900207519531 -131.2259979248047,99.21499633789062 -130.42999267578125,99.21499633789062 C-130.42999267578125,99.21499633789062 130.42999267578125,99.21499633789062 130.42999267578125,99.21499633789062 C131.2259979248047,99.21499633789062 131.98800659179688,98.89900207519531 132.55099487304688,98.33599853515625 C133.11399841308594,97.77300262451172 133.42999267578125,97.01100158691406 133.42999267578125,96.21499633789062z"/></g></g><g transform="matrix(1,0,0,1,161.625,261.7550048828125)" opacity="1" style="display: block;"><g opacity="1" transform="matrix(1,0,0,1,0,0)"><path class="quinary" fill="rgb(75,179,253)" fill-opacity="1" d=" M50.375,33.80500030517578 C52.03200149536133,33.80500030517578 53.375,32.46200180053711 53.375,30.80500030517578 C53.375,30.80500030517578 53.375,-30.80500030517578 53.375,-30.80500030517578 C53.375,-32.46200180053711 52.03200149536133,-33.80500030517578 50.375,-33.80500030517578 C50.375,-33.80500030517578 -50.375,-33.80500030517578 -50.375,-33.80500030517578 C-52.03200149536133,-33.80500030517578 -53.375,-32.46200180053711 -53.375,-30.80500030517578 C-53.375,-30.80500030517578 -53.375,30.80500030517578 -53.375,30.80500030517578 C-53.375,32.46200180053711 -52.03200149536133,33.80500030517578 -50.375,33.80500030517578 C-50.375,33.80500030517578 50.375,33.80500030517578 50.375,33.80500030517578z"/></g></g><g transform="matrix(1,0,0,1,88.44499969482422,264.4300231933594)" opacity="0.5" style="mix-blend-mode: multiply; display: block;"><g opacity="1" transform="matrix(1,0,0,1,0,0)"><path class="quaternary" fill="rgb(255,199,56)" fill-opacity="1" d=" M6.875,-84.5 C6.875,-84.5 -6.875,-84.5 -6.875,-84.5 C-6.875,-84.5 -6.875,81.5 -6.875,81.5 C-6.875,82.2959976196289 -6.559000015258789,83.05799865722656 -5.995999813079834,83.62100219726562 C-5.433000087738037,84.18399810791016 -4.671000003814697,84.5 -3.875,84.5 C-3.875,84.5 6.875,84.5 6.875,84.5 C6.875,84.5 6.875,-84.5 6.875,-84.5z"/></g></g><g transform="matrix(1,0,0,1,281.55999755859375,288.885009765625)" opacity="1" style="display: block;"><g opacity="1" transform="matrix(1,0,0,1,0,0)"><path class="primary" fill="rgb(235,230,239)" fill-opacity="1" d=" M40.189998626708984,60.04499816894531 C40.189998626708984,60.04499816894531 40.189998626708984,-57.04499816894531 40.189998626708984,-57.04499816894531 C40.189998626708984,-58.70199966430664 38.84700012207031,-60.04499816894531 37.189998626708984,-60.04499816894531 C37.189998626708984,-60.04499816894531 -37.189998626708984,-60.04499816894531 -37.189998626708984,-60.04499816894531 C-38.84700012207031,-60.04499816894531 -40.189998626708984,-58.70199966430664 -40.189998626708984,-57.04499816894531 C-40.189998626708984,-57.04499816894531 -40.189998626708984,60.04499816894531 -40.189998626708984,60.04499816894531"/></g></g><g transform="matrix(1,0,0,1,281.7149963378906,268.875)" opacity="1" style="display: block;"><g opacity="1" transform="matrix(1,0,0,1,0,0)"><path class="quinary" fill="rgb(75,179,253)" fill-opacity="1" d=" M-23.684999465942383,-26.684999465942383 C-23.684999465942383,-26.684999465942383 23.684999465942383,-26.684999465942383 23.684999465942383,-26.684999465942383 C25.341999053955078,-26.684999465942383 26.684999465942383,-25.341999053955078 26.684999465942383,-23.684999465942383 C26.684999465942383,-23.684999465942383 26.684999465942383,23.684999465942383 26.684999465942383,23.684999465942383 C26.684999465942383,25.341999053955078 25.341999053955078,26.684999465942383 23.684999465942383,26.684999465942383 C23.684999465942383,26.684999465942383 -23.684999465942383,26.684999465942383 -23.684999465942383,26.684999465942383 C-25.341999053955078,26.684999465942383 -26.684999465942383,25.341999053955078 -26.684999465942383,23.684999465942383 C-26.684999465942383,23.684999465942383 -26.684999465942383,-23.684999465942383 -26.684999465942383,-23.684999465942383 C-26.684999465942383,-25.341999053955078 -25.341999053955078,-26.684999465942383 -23.684999465942383,-26.684999465942383z"/></g></g><g mask="url(#__lottie_element_251_1)" style="display: block;"><g transform="matrix(1,0,0,1,161.625,261.7560119628906)" opacity="0.3"><g opacity="1" transform="matrix(1,0,0,1,0,0)"><path class="primary" fill="rgb(235,230,239)" fill-opacity="1" d=" M109.77999877929688,87.16699981689453 C109.77400207519531,88.22899627685547 109.21600341796875,89.16000366210938 108.37799835205078,89.68900299072266 C108.37799835205078,89.68900299072266 -58.29999923706055,-76.93000030517578 -58.29999923706055,-76.93000030517578 C-58.29999923706055,-76.93000030517578 -28.729999542236328,-76.93000030517578 -28.729999542236328,-76.93000030517578 C-28.729999542236328,-76.93000030517578 109.77999877929688,61.529998779296875 109.77999877929688,61.529998779296875 C109.77999877929688,61.529998779296875 109.77999877929688,87.16699981689453 109.77999877929688,87.16699981689453z M-80.68599700927734,-77.73400115966797 C-80.68599700927734,-77.73400115966797 74.55000305175781,77.7509994506836 74.55000305175781,77.7509994506836 C74.55000305175781,77.7509994506836 20.600000381469727,77.7509994506836 20.600000381469727,77.7509994506836 C20.600000381469727,77.7509994506836 -133.08700561523438,-76.15299987792969 -133.08700561523438,-76.15299987792969 C-133.08700561523438,-76.15299987792969 -80.68599700927734,-77.73400115966797 -80.68599700927734,-77.73400115966797z M35.814998626708984,-77.72799682617188 C35.814998626708984,-77.72799682617188 191.0500030517578,77.75700378417969 191.0500030517578,77.75700378417969 C191.0500030517578,77.75700378417969 152.35000610351562,77.86599731445312 152.35000610351562,77.86599731445312 C152.35000610351562,77.86599731445312 65.86199951171875,-8.744000434875488 65.86199951171875,-8.744000434875488 C65.86199951171875,-8.744000434875488 49.16299819946289,-75.81999969482422 49.16299819946289,-75.81999969482422 C49.16299819946289,-75.81999969482422 35.814998626708984,-77.72799682617188 35.814998626708984,-77.72799682617188z M73.81500244140625,-77.69999694824219 C73.81500244140625,-77.69999694824219 229.0500030517578,77.78500366210938 229.0500030517578,77.78500366210938 C229.0500030517578,77.78500366210938 211.85000610351562,78.13999938964844 211.85000610351562,78.13999938964844 C211.85000610351562,78.13999938964844 58.16400146484375,-75.76399993896484 58.16400146484375,-75.76399993896484 C58.16400146484375,-75.76399993896484 73.81500244140625,-77.69999694824219 73.81500244140625,-77.69999694824219z"/></g><g opacity="1" transform="matrix(1,0,0,1,237.9980010986328,0)"><path class="primary" fill="rgb(235,230,239)" fill-opacity="1" d=" M109.77999877929688,87.16699981689453 C109.77400207519531,88.22899627685547 109.21600341796875,89.16000366210938 108.37799835205078,89.68900299072266 C108.37799835205078,89.68900299072266 -58.29999923706055,-76.93000030517578 -58.29999923706055,-76.93000030517578 C-58.29999923706055,-76.93000030517578 -28.729999542236328,-76.93000030517578 -28.729999542236328,-76.93000030517578 C-28.729999542236328,-76.93000030517578 109.77999877929688,61.529998779296875 109.77999877929688,61.529998779296875 C109.77999877929688,61.529998779296875 109.77999877929688,87.16699981689453 109.77999877929688,87.16699981689453z M-80.68599700927734,-77.73400115966797 C-80.68599700927734,-77.73400115966797 74.55000305175781,77.7509994506836 74.55000305175781,77.7509994506836 C74.55000305175781,77.7509994506836 20.600000381469727,77.7509994506836 20.600000381469727,77.7509994506836 C20.600000381469727,77.7509994506836 -133.08700561523438,-76.15299987792969 -133.08700561523438,-76.15299987792969 C-133.08700561523438,-76.15299987792969 -80.68599700927734,-77.73400115966797 -80.68599700927734,-77.73400115966797z M35.814998626708984,-77.72799682617188 C35.814998626708984,-77.72799682617188 191.0500030517578,77.75700378417969 191.0500030517578,77.75700378417969 C191.0500030517578,77.75700378417969 152.35000610351562,77.86599731445312 152.35000610351562,77.86599731445312 C152.35000610351562,77.86599731445312 63.702999114990234,-10.906999588012695 63.702999114990234,-10.906999588012695 C63.702999114990234,-10.906999588012695 -1.3370000123977661,-76.03800201416016 -1.3370000123977661,-76.03800201416016 C-1.3370000123977661,-76.03800201416016 35.814998626708984,-77.72799682617188 35.814998626708984,-77.72799682617188z M73.81500244140625,-77.69999694824219 C73.81500244140625,-77.69999694824219 229.0500030517578,77.78500366210938 229.0500030517578,77.78500366210938 C229.0500030517578,77.78500366210938 211.85000610351562,78.13999938964844 211.85000610351562,78.13999938964844 C211.85000610351562,78.13999938964844 58.16400146484375,-75.76399993896484 58.16400146484375,-75.76399993896484 C58.16400146484375,-75.76399993896484 73.81500244140625,-77.69999694824219 73.81500244140625,-77.69999694824219z"/></g></g></g><g transform="matrix(1,0,0,1,161.625,289.6800231933594)" opacity="1" style="display: block;"><g opacity="1" transform="matrix(1,0,0,1,0,0)"><path class="secondary" fill="rgb(58,51,71)" fill-opacity="1" d=" M-53.375,-5.880000114440918 C-53.375,-5.880000114440918 53.375,-5.880000114440918 53.375,-5.880000114440918 C53.375,-5.880000114440918 53.375,2.880000114440918 53.375,2.880000114440918 C53.375,4.5370001792907715 52.03200149536133,5.880000114440918 50.375,5.880000114440918 C50.375,5.880000114440918 -50.375,5.880000114440918 -50.375,5.880000114440918 C-52.03200149536133,5.880000114440918 -53.375,4.5370001792907715 -53.375,2.880000114440918 C-53.375,2.880000114440918 -53.375,-5.880000114440918 -53.375,-5.880000114440918z"/></g></g><g transform="matrix(1,0,0,1,215,215.00001525878906)" opacity="1" style="display: block;"><g opacity="1" transform="matrix(1,0,0,1,0,0)"><path class="primary" fill="rgb(235,230,239)" fill-opacity="1" d=" M-96.0719985961914,-56.04199981689453 C-96.0719985961914,-38.35599899291992 -110.40899658203125,-24.01799964904785 -128.09500122070312,-24.01799964904785 C-145.781005859375,-24.01799964904785 -160.11900329589844,-38.35599899291992 -160.11900329589844,-56.04199981689453 C-160.11900329589844,-56.04199981689453 -133.43299865722656,-133.43299865722656 -133.43299865722656,-133.43299865722656 C-133.43299865722656,-133.43299865722656 133.43299865722656,-133.43299865722656 133.43299865722656,-133.43299865722656 C133.43299865722656,-133.43299865722656 160.11900329589844,-56.04199981689453 160.11900329589844,-56.04199981689453 C160.11900329589844,-38.35599899291992 145.781005859375,-24.01799964904785 128.09500122070312,-24.01799964904785 C110.40899658203125,-24.01799964904785 96.0719985961914,-38.35599899291992 96.0719985961914,-56.04199981689453"/></g><g opacity="1" transform="matrix(1,0,0,1,0,0)"><path class="primary" fill="rgb(235,230,239)" fill-opacity="1" d=" M32.02399826049805,-56.04199981689453 C32.02399826049805,-38.35599899291992 17.68600082397461,-24.01799964904785 0,-24.01799964904785 C-17.68600082397461,-24.01799964904785 -32.02399826049805,-38.35599899291992 -32.02399826049805,-56.04199981689453"/></g></g><g mask="url(#__lottie_element_261)" transform="matrix(1,0,0,1,215,215.00001525878906)" opacity="0.5" style="mix-blend-mode: multiply; display: block;"><g opacity="1" transform="matrix(1,0,0,1,0,0)"><path class="primary" fill="rgb(235,230,239)" fill-opacity="1" d=" M-96.0719985961914,-56.04199981689453 C-96.0719985961914,-38.35599899291992 -110.40899658203125,-24.01799964904785 -128.09500122070312,-24.01799964904785 C-145.781005859375,-24.01799964904785 -160.11900329589844,-38.35599899291992 -160.11900329589844,-56.04199981689453 C-160.11900329589844,-56.04199981689453 -133.43299865722656,-133.43299865722656 -133.43299865722656,-133.43299865722656 C-133.43299865722656,-133.43299865722656 133.43299865722656,-133.43299865722656 133.43299865722656,-133.43299865722656 C133.43299865722656,-133.43299865722656 160.11900329589844,-56.04199981689453 160.11900329589844,-56.04199981689453 C160.11900329589844,-38.35599899291992 145.781005859375,-24.01799964904785 128.09500122070312,-24.01799964904785 C110.40899658203125,-24.01799964904785 96.0719985961914,-38.35599899291992 96.0719985961914,-56.04199981689453"/></g><g opacity="1" transform="matrix(1,0,0,1,0,0)"><path class="primary" fill="rgb(235,230,239)" fill-opacity="1" d=" M32.02399826049805,-56.04199981689453 C32.02399826049805,-38.35599899291992 17.68600082397461,-24.01799964904785 0,-24.01799964904785 C-17.68600082397461,-24.01799964904785 -32.02399826049805,-38.35599899291992 -32.02399826049805,-56.04199981689453"/></g></g><g transform="matrix(1,0,0,1,215,215.00001525878906)" opacity="1" style="display: block;"><path class="tertiary" fill="rgb(146,20,12)" fill-opacity="1" d=" M26.687000274658203,-133.43299865722656 C26.687000274658203,-133.43299865722656 32.02399826049805,-56.04199981689453 32.02399826049805,-56.04199981689453 C32.02399826049805,-38.35599899291992 46.36199951171875,-24.01799964904785 64.0479965209961,-24.01799964904785 C81.73400115966797,-24.01799964904785 96.0719985961914,-38.35599899291992 96.0719985961914,-56.04199981689453 C96.0719985961914,-56.04199981689453 80.05999755859375,-133.43299865722656 80.05999755859375,-133.43299865722656 M-80.05999755859375,-133.43299865722656 C-80.05999755859375,-133.43299865722656 -96.0719985961914,-56.04199981689453 -96.0719985961914,-56.04199981689453 C-96.0719985961914,-38.35599899291992 -81.73400115966797,-24.01799964904785 -64.0479965209961,-24.01799964904785 C-46.36199951171875,-24.01799964904785 -32.02399826049805,-38.35599899291992 -32.02399826049805,-56.04199981689453 C-32.02399826049805,-56.04199981689453 -26.687000274658203,-133.43299865722656 -26.687000274658203,-133.43299865722656"/><g opacity="1" transform="matrix(1,0,0,1,0,0)"><path class="tertiary" fill="rgb(146,20,12)" fill-opacity="1" d=" M26.687000274658203,-133.43299865722656 C26.687000274658203,-133.43299865722656 32.02399826049805,-56.04199981689453 32.02399826049805,-56.04199981689453 C32.02399826049805,-38.35599899291992 46.36199951171875,-24.01799964904785 64.0479965209961,-24.01799964904785 C81.73400115966797,-24.01799964904785 96.0719985961914,-38.35599899291992 96.0719985961914,-56.04199981689453 C96.0719985961914,-56.04199981689453 80.05999755859375,-133.43299865722656 80.05999755859375,-133.43299865722656"/></g><g opacity="1" transform="matrix(1,0,0,1,0,0)"><path class="tertiary" fill="rgb(146,20,12)" fill-opacity="1" d=" M-80.05999755859375,-133.43299865722656 C-80.05999755859375,-133.43299865722656 -96.0719985961914,-56.04199981689453 -96.0719985961914,-56.04199981689453 C-96.0719985961914,-38.35599899291992 -81.73400115966797,-24.01799964904785 -64.0479965209961,-24.01799964904785 C-46.36199951171875,-24.01799964904785 -32.02399826049805,-38.35599899291992 -32.02399826049805,-56.04199981689453 C-32.02399826049805,-56.04199981689453 -26.687000274658203,-133.43299865722656 -26.687000274658203,-133.43299865722656"/></g></g><g mask="url(#__lottie_element_267)" transform="matrix(1,0,0,1,215,215.00001525878906)" opacity="0.5" style="mix-blend-mode: multiply; display: block;"><g opacity="1" transform="matrix(1,0,0,1,0,0)"><path class="tertiary" fill="rgb(146,20,12)" fill-opacity="1" d=" M26.687000274658203,-133.43299865722656 C26.687000274658203,-133.43299865722656 32.02399826049805,-56.04199981689453 32.02399826049805,-56.04199981689453 C32.02399826049805,-38.35599899291992 46.36199951171875,-24.01799964904785 64.0479965209961,-24.01799964904785 C81.73400115966797,-24.01799964904785 96.0719985961914,-38.35599899291992 96.0719985961914,-56.04199981689453 C96.0719985961914,-56.04199981689453 80.05999755859375,-133.43299865722656 80.05999755859375,-133.43299865722656"/></g><g opacity="1" transform="matrix(1,0,0,1,0,0)"><path class="tertiary" fill="rgb(146,20,12)" fill-opacity="1" d=" M-80.05999755859375,-133.43299865722656 C-80.05999755859375,-133.43299865722656 -96.0719985961914,-56.04199981689453 -96.0719985961914,-56.04199981689453 C-96.0719985961914,-38.35599899291992 -81.73400115966797,-24.01799964904785 -64.0479965209961,-24.01799964904785 C-46.36199951171875,-24.01799964904785 -32.02399826049805,-38.35599899291992 -32.02399826049805,-56.04199981689453 C-32.02399826049805,-56.04199981689453 -26.687000274658203,-133.43299865722656 -26.687000274658203,-133.43299865722656"/></g></g><g transform="matrix(1,0,0,1,307.8280029296875,313.95001220703125)" opacity="1" style="display: block;"><g opacity="1" transform="matrix(1,0,0,1,0,0)"><path stroke-linecap="round" stroke-linejoin="round" fill-opacity="0" class="secondary" stroke="rgb(58,51,71)" stroke-opacity="1" stroke-width="10" d=" M0.004999999888241291,0 C0.004999999888241291,0 -0.004999999888241291,0 -0.004999999888241291,0"/></g></g><g transform="matrix(1,0,0,1,215,75.3900146484375)" opacity="1" style="display: block;"><g opacity="1" transform="matrix(1,0,0,1,0,0)"><path class="secondary" fill="rgb(58,51,71)" fill-opacity="1" d=" M129.42999267578125,-6.670000076293945 C129.42999267578125,-6.670000076293945 -129.42999267578125,-6.670000076293945 -129.42999267578125,-6.670000076293945 C-130.49099731445312,-6.670000076293945 -131.50799560546875,-6.248000144958496 -132.25799560546875,-5.498000144958496 C-133.00799560546875,-4.748000144958496 -133.42999267578125,-3.7309999465942383 -133.42999267578125,-2.6700000762939453 C-133.42999267578125,-2.6700000762939453 -133.42999267578125,6.670000076293945 -133.42999267578125,6.670000076293945 C-133.42999267578125,6.670000076293945 133.42999267578125,6.670000076293945 133.42999267578125,6.670000076293945 C133.42999267578125,6.670000076293945 133.42999267578125,-2.6700000762939453 133.42999267578125,-2.6700000762939453 C133.42999267578125,-3.7309999465942383 133.00799560546875,-4.748000144958496 132.25799560546875,-5.498000144958496 C131.50799560546875,-6.248000144958496 130.49099731445312,-6.670000076293945 129.42999267578125,-6.670000076293945z"/></g></g></g></g></svg>