
<svg xmlns="http://www.w3.org/2000/svg" xmlns:xlink="http://www.w3.org/1999/xlink" viewBox="0 0 500 500" width="500" height="500" preserveAspectRatio="xMidYMid meet" style="width: 100%; height: 100%; transform: translate3d(0px, 0px, 0px); content-visibility: visible;"><defs><clipPath id="__lottie_element_7973"><rect width="500" height="500" x="0" y="0"/></clipPath><clipPath id="__lottie_element_7975"><path d="M0,0 L500,0 L500,500 L0,500z"/></clipPath><g id="__lottie_element_7979"><g clip-path="url(#__lottie_element_7980)" transform="matrix(1,0,0,1,0,0)" opacity="1" style="display: block;"><g class="primary design" transform="matrix(1,0,0,1,0,0)" opacity="1" style="display: block;"><g opacity="1" transform="matrix(1,0,0,1,250,187.5)"><path class="primary" fill="rgb(0,0,0)" fill-opacity="1" d=" M30.25,42 C30.25,42 -8.875,42 -8.875,42 C-30.983999252319336,42 -48.875,24.108999252319336 -48.875,2 C-48.875,2 -48.8129997253418,-20.89299964904785 -48.8129997253418,-20.89299964904785 C-48.8129997253418,-44.007999420166016 -30.106000900268555,-62.5 -6.991000175476074,-62.5 C-6.875,-62.5 7.25,-62.499000549316406 7.366000175476074,-62.49800109863281 C30.30699920654297,-62.31100082397461 48.8129997253418,-43.90299987792969 48.8129997253418,-20.917999267578125 C48.8129997253418,-20.917999267578125 48.75,23.5 48.75,23.5 C48.75,33.612998962402344 40.362998962402344,42 30.25,42z"/></g><g opacity="1" transform="matrix(1,0,0,1,250,322.9169921875)"><path class="primary" fill="rgb(0,0,0)" fill-opacity="1" d=" M83.75,52.08300018310547 C83.75,52.08300018310547 -83.66699981689453,52.08300018310547 -83.66699981689453,52.08300018310547 C-94.8740005493164,52.08300018310547 -104.16699981689453,42.790000915527344 -104.16699981689453,31.58300018310547 C-104.16699981689453,31.58300018310547 -104.16699981689453,26.04199981689453 -104.16699981689453,26.04199981689453 C-104.16699981689453,-17.08300018310547 -69.16699981689453,-52.08399963378906 -26.04199981689453,-52.08399963378906 C-26.04199981689453,-52.08399963378906 26.04199981689453,-52.08399963378906 26.04199981689453,-52.08399963378906 C69.16699981689453,-52.08399963378906 104.16699981689453,-17.08300018310547 104.16699981689453,26.04199981689453 C104.16699981689453,26.04199981689453 104.16699981689453,31.666000366210938 104.16699981689453,31.666000366210938 C104.16699981689453,42.82699966430664 94.91100311279297,52.08300018310547 83.75,52.08300018310547z"/></g></g><g class="primary design" transform="matrix(1,0,0,1,391,0)" opacity="1" style="display: block;"><g opacity="1" transform="matrix(1,0,0,1,250,187.5)"><path class="primary" fill="rgb(0,0,0)" fill-opacity="1" d=" M30.25,42 C30.25,42 -8.875,42 -8.875,42 C-30.983999252319336,42 -48.875,24.108999252319336 -48.875,2 C-48.875,2 -48.8129997253418,-20.89299964904785 -48.8129997253418,-20.89299964904785 C-48.8129997253418,-44.007999420166016 -30.106000900268555,-62.5 -6.991000175476074,-62.5 C-6.875,-62.5 7.25,-62.499000549316406 7.366000175476074,-62.49800109863281 C30.30699920654297,-62.31100082397461 48.8129997253418,-43.90299987792969 48.8129997253418,-20.917999267578125 C48.8129997253418,-20.917999267578125 48.75,23.5 48.75,23.5 C48.75,33.612998962402344 40.362998962402344,42 30.25,42z"/></g><g opacity="1" transform="matrix(1,0,0,1,250,322.9169921875)"><path class="primary" fill="rgb(0,0,0)" fill-opacity="1" d=" M83.75,52.08300018310547 C83.75,52.08300018310547 -83.66699981689453,52.08300018310547 -83.66699981689453,52.08300018310547 C-94.8740005493164,52.08300018310547 -104.16699981689453,42.790000915527344 -104.16699981689453,31.58300018310547 C-104.16699981689453,31.58300018310547 -104.16699981689453,26.04199981689453 -104.16699981689453,26.04199981689453 C-104.16699981689453,-17.08300018310547 -69.16699981689453,-52.08399963378906 -26.04199981689453,-52.08399963378906 C-26.04199981689453,-52.08399963378906 26.04199981689453,-52.08399963378906 26.04199981689453,-52.08399963378906 C69.16699981689453,-52.08399963378906 104.16699981689453,-17.08300018310547 104.16699981689453,26.04199981689453 C104.16699981689453,26.04199981689453 104.16699981689453,31.666000366210938 104.16699981689453,31.666000366210938 C104.16699981689453,42.82699966430664 94.91100311279297,52.08300018310547 83.75,52.08300018310547z"/></g></g><g class="primary design" transform="matrix(1,0,0,1,782,0)" opacity="1" style="display: block;"><g opacity="1" transform="matrix(0.8660253882408142,0.5,-0.5,0.8660253882408142,279.1865234375,203.09103393554688)"><path class="primary" fill="rgb(0,0,0)" fill-opacity="1" d=" M17.25,42 C17.25,42 -21.875,42 -21.875,42 C-43.98400115966797,42 -61.875,24.108999252319336 -61.875,2 C-61.875,2 -61.8129997253418,-20.89299964904785 -61.8129997253418,-20.89299964904785 C-61.8129997253418,-44.007999420166016 -43.10599899291992,-62.5 -19.990999221801758,-62.5 C-19.875,-62.5 -5.75,-62.499000549316406 -5.633999824523926,-62.49800109863281 C17.30699920654297,-62.31100082397461 35.8129997253418,-43.90299987792969 35.8129997253418,-20.917999267578125 C35.8129997253418,-20.917999267578125 35.75,23.5 35.75,23.5 C35.75,33.612998962402344 27.363000869750977,42 17.25,42z"/></g><g opacity="1" transform="matrix(1,0,0,1,250,322.9169921875)"><path class="primary" fill="rgb(0,0,0)" fill-opacity="1" d=" M83.75,52.08300018310547 C83.75,52.08300018310547 -83.66699981689453,52.08300018310547 -83.66699981689453,52.08300018310547 C-94.8740005493164,52.08300018310547 -104.16699981689453,42.790000915527344 -104.16699981689453,31.58300018310547 C-104.16699981689453,31.58300018310547 -104.16699981689453,26.04199981689453 -104.16699981689453,26.04199981689453 C-104.16699981689453,-17.08300018310547 -69.16699981689453,-52.08399963378906 -26.04199981689453,-52.08399963378906 C-26.04199981689453,-52.08399963378906 26.04199981689453,-52.08399963378906 26.04199981689453,-52.08399963378906 C69.16699981689453,-52.08399963378906 104.16699981689453,-17.08300018310547 104.16699981689453,26.04199981689453 C104.16699981689453,26.04199981689453 104.16699981689453,31.666000366210938 104.16699981689453,31.666000366210938 C104.16699981689453,42.82699966430664 94.91100311279297,52.08300018310547 83.75,52.08300018310547z"/></g></g><g class="primary design" transform="matrix(1,0,0,1,782,-401)" opacity="1" style="display: block;"><g opacity="1" transform="matrix(0.8191520571708679,-0.5735764503479004,0.5735764503479004,0.8191520571708679,224.40628051757812,125.32711791992188)"><path class="primary" fill="rgb(0,0,0)" fill-opacity="1" d=" M30.25,99 C30.25,99 -8.875,99 -8.875,99 C-30.983999252319336,99 -48.875,81.10900115966797 -48.875,59 C-48.875,59 -48.8129997253418,36.106998443603516 -48.8129997253418,36.106998443603516 C-48.8129997253418,12.991999626159668 -30.106000900268555,-5.5 -6.991000175476074,-5.5 C-6.875,-5.5 7.25,-5.499000072479248 7.366000175476074,-5.498000144958496 C30.30699920654297,-5.310999870300293 48.8129997253418,13.097000122070312 48.8129997253418,36.082000732421875 C48.8129997253418,36.082000732421875 48.75,80.5 48.75,80.5 C48.75,90.61299896240234 40.362998962402344,99 30.25,99z"/></g><g opacity="1" transform="matrix(1,0,0,1,250,322.9169921875)"><path class="primary" fill="rgb(0,0,0)" fill-opacity="1" d=" M83.75,52.08300018310547 C83.75,52.08300018310547 -83.66699981689453,52.08300018310547 -83.66699981689453,52.08300018310547 C-94.8740005493164,52.08300018310547 -104.16699981689453,42.790000915527344 -104.16699981689453,31.58300018310547 C-104.16699981689453,31.58300018310547 -104.16699981689453,26.04199981689453 -104.16699981689453,26.04199981689453 C-104.16699981689453,-17.08300018310547 -69.16699981689453,-52.08399963378906 -26.04199981689453,-52.08399963378906 C-26.04199981689453,-52.08399963378906 26.04199981689453,-52.08399963378906 26.04199981689453,-52.08399963378906 C69.16699981689453,-52.08399963378906 104.16699981689453,-17.08300018310547 104.16699981689453,26.04199981689453 C104.16699981689453,26.04199981689453 104.16699981689453,31.666000366210938 104.16699981689453,31.666000366210938 C104.16699981689453,42.82699966430664 94.91100311279297,52.08300018310547 83.75,52.08300018310547z"/></g></g></g></g><clipPath id="__lottie_element_7980"><path d="M0,0 L500,0 L500,500 L0,500z"/></clipPath><filter id="__lottie_element_8049" filterUnits="objectBoundingBox" x="0%" y="0%" width="100%" height="100%"><feComponentTransfer in="SourceGraphic"><feFuncA type="table" tableValues="1.0 0.0"/></feComponentTransfer></filter><mask id="__lottie_element_7979_2" mask-type="alpha"><g filter="url(#__lottie_element_8049)"><rect width="500" height="500" x="0" y="0" fill="#ffffff" opacity="0"/><use xmlns:ns1="http://www.w3.org/1999/xlink" ns1:href="#__lottie_element_7979"/></g></mask></defs><g clip-path="url(#__lottie_element_7973)"><g clip-path="url(#__lottie_element_7975)" transform="matrix(1,0,0,1,0,0)" opacity="1" style="display: block;"><g mask="url(#__lottie_element_7979_2)" style="display: none;"><g class="primary design" transform="matrix(1,0,0,1,250,250)" opacity="1"><g opacity="1" transform="matrix(1,0,0,1,0,0)"><path class="primary" fill="rgb(0,0,0)" fill-opacity="1" d=" M145.87899780273438,-187.5 C145.87899780273438,-187.5 -145.78700256347656,-187.5 -145.78700256347656,-187.5 C-168.7030029296875,-187.5 -187.45399475097656,-168.74899291992188 -187.45399475097656,-145.83299255371094 C-187.45399475097656,-145.83299255371094 -187.45399475097656,145.83299255371094 -187.45399475097656,145.83299255371094 C-187.45399475097656,168.74899291992188 -168.7030029296875,187.5 -145.78700256347656,187.5 C-145.78700256347656,187.5 145.87899780273438,187.5 145.87899780273438,187.5 C168.7949981689453,187.5 187.54600524902344,168.74899291992188 187.54600524902344,145.83299255371094 C187.54600524902344,145.83299255371094 187.54600524902344,-145.83299255371094 187.54600524902344,-145.83299255371094 C187.54600524902344,-168.74899291992188 168.7949981689453,-187.5 145.87899780273438,-187.5z"/></g></g></g><g class="primary design" transform="matrix(1,0,0,1,250,250)" opacity="1" style="display: block;"><g opacity="1" transform="matrix(1,0,0,1,0,0)"><path class="primary" fill="rgb(0,0,0)" fill-opacity="1" d=" M145.87899780273438,-187.5 C145.87899780273438,-187.5 -145.78700256347656,-187.5 -145.78700256347656,-187.5 C-168.7030029296875,-187.5 -187.45399475097656,-168.74899291992188 -187.45399475097656,-145.83299255371094 C-187.45399475097656,-145.83299255371094 -187.45399475097656,145.83299255371094 -187.45399475097656,145.83299255371094 C-187.45399475097656,168.74899291992188 -168.7030029296875,187.5 -145.78700256347656,187.5 C-145.78700256347656,187.5 145.87899780273438,187.5 145.87899780273438,187.5 C168.7949981689453,187.5 187.54600524902344,168.74899291992188 187.54600524902344,145.83299255371094 C187.54600524902344,145.83299255371094 187.54600524902344,-145.83299255371094 187.54600524902344,-145.83299255371094 C187.54600524902344,-168.74899291992188 168.7949981689453,-187.5 145.87899780273438,-187.5z M-49.119998931884766,-83.33300018310547 C-49.119998931884766,-106.2490005493164 -30.57900047302246,-125 -7.453999996185303,-125 C-7.453999996185303,-125 7.546000003814697,-125 7.546000003814697,-125 C30.67099952697754,-125 49.21200180053711,-106.2490005493164 49.21200180053711,-83.33300018310547 C49.21200180053711,-83.33300018310547 49.21200180053711,-40.625 49.21200180053711,-40.625 C49.21200180053711,-29.16699981689453 40.04600143432617,-19.79199981689453 28.378999710083008,-19.79199981689453 C28.378999710083008,-19.79199981689453 -7.6620001792907715,-19.79199981689453 -7.6620001792907715,-19.79199981689453 C-30.577999114990234,-19.79199981689453 -49.119998931884766,-38.54199981689453 -49.119998931884766,-61.45899963378906 C-49.119998931884766,-61.45899963378906 -49.119998931884766,-83.33300018310547 -49.119998931884766,-83.33300018310547z M104.21299743652344,104.16699981689453 C104.21299743652344,115.625 94.83699798583984,125 83.37899780273438,125 C83.37899780273438,125 -83.28700256347656,125 -83.28700256347656,125 C-94.74500274658203,125 -104.12100219726562,115.625 -104.12100219726562,104.16699981689453 C-104.12100219726562,104.16699981689453 -104.12100219726562,95.20800018310547 -104.12100219726562,95.20800018310547 C-104.12100219726562,54.16600036621094 -68.49500274658203,20.83300018310547 -24.53700065612793,20.83300018310547 C-24.53700065612793,20.83300018310547 24.628999710083008,20.83300018310547 24.628999710083008,20.83300018310547 C68.37999725341797,20.83300018310547 104.21299743652344,54.16600036621094 104.21299743652344,95.20800018310547 C104.21299743652344,95.20800018310547 104.21299743652344,104.16699981689453 104.21299743652344,104.16699981689453z"/></g></g><g class="primary design" transform="matrix(1,0,0,1,250,250)" opacity="1" style="display: none;"><g opacity="1" transform="matrix(1,0,0,1,0,0)"><path class="primary" fill="rgb(0,0,0)" fill-opacity="1" d=" M145.87899780273438,-187.5 C145.87899780273438,-187.5 -145.78700256347656,-187.5 -145.78700256347656,-187.5 C-168.7030029296875,-187.5 -187.45399475097656,-168.74899291992188 -187.45399475097656,-145.83299255371094 C-187.45399475097656,-145.83299255371094 -187.45399475097656,145.83299255371094 -187.45399475097656,145.83299255371094 C-187.45399475097656,168.74899291992188 -168.7030029296875,187.5 -145.78700256347656,187.5 C-145.78700256347656,187.5 145.87899780273438,187.5 145.87899780273438,187.5 C168.7949981689453,187.5 187.54600524902344,168.74899291992188 187.54600524902344,145.83299255371094 C187.54600524902344,145.83299255371094 187.54600524902344,-145.83299255371094 187.54600524902344,-145.83299255371094 C187.54600524902344,-168.74899291992188 168.7949981689453,-187.5 145.87899780273438,-187.5z M-49.119998931884766,-83.33300018310547 C-49.119998931884766,-106.2490005493164 -30.57900047302246,-125 -7.453999996185303,-125 C-7.453999996185303,-125 7.546000003814697,-125 7.546000003814697,-125 C30.67099952697754,-125 49.21200180053711,-106.2490005493164 49.21200180053711,-83.33300018310547 C49.21200180053711,-83.33300018310547 49.21200180053711,-40.625 49.21200180053711,-40.625 C49.21200180053711,-29.16699981689453 40.04600143432617,-19.79199981689453 28.378999710083008,-19.79199981689453 C28.378999710083008,-19.79199981689453 -7.6620001792907715,-19.79199981689453 -7.6620001792907715,-19.79199981689453 C-30.577999114990234,-19.79199981689453 -49.119998931884766,-38.54199981689453 -49.119998931884766,-61.45899963378906 C-49.119998931884766,-61.45899963378906 -49.119998931884766,-83.33300018310547 -49.119998931884766,-83.33300018310547z M104.21299743652344,104.16699981689453 C104.21299743652344,115.625 94.83699798583984,125 83.37899780273438,125 C83.37899780273438,125 -83.28700256347656,125 -83.28700256347656,125 C-94.74500274658203,125 -104.12100219726562,115.625 -104.12100219726562,104.16699981689453 C-104.12100219726562,104.16699981689453 -104.12100219726562,95.20800018310547 -104.12100219726562,95.20800018310547 C-104.12100219726562,54.16600036621094 -68.49500274658203,20.83300018310547 -24.53700065612793,20.83300018310547 C-24.53700065612793,20.83300018310547 24.628999710083008,20.83300018310547 24.628999710083008,20.83300018310547 C68.37999725341797,20.83300018310547 104.21299743652344,54.16600036621094 104.21299743652344,95.20800018310547 C104.21299743652344,95.20800018310547 104.21299743652344,104.16699981689453 104.21299743652344,104.16699981689453z"/></g></g></g></g></svg>