<svg xmlns="http://www.w3.org/2000/svg" xmlns:xlink="http://www.w3.org/1999/xlink" viewBox="0 0 500 500" width="500" height="500" preserveAspectRatio="xMidYMid meet" style="width: 100%; height: 100%; transform: translate3d(0px, 0px, 0px); content-visibility: visible;"><defs><clipPath id="__lottie_element_719"><rect width="500" height="500" x="0" y="0"/></clipPath><clipPath id="__lottie_element_721"><path d="M0,0 L500,0 L500,500 L0,500z"/></clipPath><clipPath id="__lottie_element_729"><path d="M0,0 L500,0 L500,500 L0,500z"/></clipPath><g id="__lottie_element_732"><g class="primary design" transform="matrix(1,0,0,1,0,0)" opacity="1" style="display: block;"><g opacity="1" transform="matrix(1,0,0,1,250,250)"><path class="primary" fill="rgb(0,0,0)" fill-opacity="1" d=" M151.04200744628906,187.5260009765625 C151.04200744628906,187.5260009765625 -151.04200744628906,187.5260009765625 -151.04200744628906,187.5260009765625 C-171.15899658203125,187.5260009765625 -187.5260009765625,171.15899658203125 -187.5260009765625,151.04200744628906 C-187.5260009765625,151.04200744628906 -187.5260009765625,-151.04299926757812 -187.5260009765625,-151.04299926757812 C-187.5260009765625,-171.16000366210938 -171.15899658203125,-187.5260009765625 -151.04200744628906,-187.5260009765625 C-151.04200744628906,-187.5260009765625 151.04200744628906,-187.5260009765625 151.04200744628906,-187.5260009765625 C171.15899658203125,-187.5260009765625 187.5260009765625,-171.16000366210938 187.5260009765625,-151.04299926757812 C187.5260009765625,-151.04299926757812 187.5260009765625,151.04200744628906 187.5260009765625,151.04200744628906 C187.5260009765625,171.15899658203125 171.15899658203125,187.5260009765625 151.04200744628906,187.5260009765625z"/></g></g></g><mask id="__lottie_element_732_1" mask-type="alpha"><use xmlns:ns1="http://www.w3.org/1999/xlink" ns1:href="#__lottie_element_732"/></mask></defs><g clip-path="url(#__lottie_element_719)"><g clip-path="url(#__lottie_element_721)" transform="matrix(1,0,0,1,0,0)" opacity="1" style="display: block;"><g class="primary design" transform="matrix(1,0,0,1,0,0)" opacity="1" style="display: block;"><g opacity="1" transform="matrix(1,0,0,1,250,250)"><path class="primary" fill="rgb(0,0,0)" fill-opacity="1" d=" M151.04200744628906,187.5260009765625 C151.04200744628906,187.5260009765625 -151.04200744628906,187.5260009765625 -151.04200744628906,187.5260009765625 C-171.15899658203125,187.5260009765625 -187.5260009765625,171.15899658203125 -187.5260009765625,151.04200744628906 C-187.5260009765625,151.04200744628906 -187.5260009765625,-151.04299926757812 -187.5260009765625,-151.04299926757812 C-187.5260009765625,-171.16000366210938 -171.15899658203125,-187.5260009765625 -151.04200744628906,-187.5260009765625 C-151.04200744628906,-187.5260009765625 151.04200744628906,-187.5260009765625 151.04200744628906,-187.5260009765625 C171.15899658203125,-187.5260009765625 187.5260009765625,-171.16000366210938 187.5260009765625,-151.04299926757812 C187.5260009765625,-151.04299926757812 187.5260009765625,151.04200744628906 187.5260009765625,151.04200744628906 C187.5260009765625,171.15899658203125 171.15899658203125,187.5260009765625 151.04200744628906,187.5260009765625z M-151.04200744628906,-156.2259979248047 C-153.89999389648438,-156.2259979248047 -156.2259979248047,-153.9010009765625 -156.2259979248047,-151.04299926757812 C-156.2259979248047,-151.04299926757812 -156.2259979248047,151.04200744628906 -156.2259979248047,151.04200744628906 C-156.2259979248047,153.89999389648438 -153.89999389648438,156.2259979248047 -151.04200744628906,156.2259979248047 C-151.04200744628906,156.2259979248047 151.04200744628906,156.2259979248047 151.04200744628906,156.2259979248047 C153.89999389648438,156.2259979248047 156.2259979248047,153.89999389648438 156.2259979248047,151.04200744628906 C156.2259979248047,151.04200744628906 156.2259979248047,-151.04299926757812 156.2259979248047,-151.04299926757812 C156.2259979248047,-153.9010009765625 153.89999389648438,-156.2259979248047 151.04200744628906,-156.2259979248047 C151.04200744628906,-156.2259979248047 -151.04200744628906,-156.2259979248047 -151.04200744628906,-156.2259979248047z"/></g></g><g mask="url(#__lottie_element_732_1)" style="display: block;"><g clip-path="url(#__lottie_element_729)" transform="matrix(1,0,0,1,0,0)" opacity="1"><g class="primary design" transform="matrix(1,0,0,1,-782,398.4161376953125)" opacity="1" style="display: block;"><g opacity="1" transform="matrix(0.7547096014022827,0.6560590267181396,-0.6560590267181396,0.7547096014022827,287.7791442871094,218.59828186035156)"><path class="primary" fill="rgb(0,0,0)" fill-opacity="1" d=" M41.66699981689453,62.5 C41.66699981689453,62.5 0,62.5 0,62.5 C-31.66699981689453,62.5 -57.29199981689453,36.875999450683594 -57.29199981689453,5.209000110626221 C-57.29199981689453,5.209000110626221 -57.29199981689453,-5.208000183105469 -57.29199981689453,-5.208000183105469 C-57.29199981689453,-36.875 -31.66699981689453,-62.5 0,-62.5 C31.66699981689453,-62.5 57.29199981689453,-36.875 57.29199981689453,-5.208000183105469 C57.29199981689453,-5.208000183105469 57.29199981689453,46.875 57.29199981689453,46.875 C57.29199981689453,55.41699981689453 50.20899963378906,62.5 41.66699981689453,62.5z M0,-31.25 C-14.375,-31.25 -26.04199981689453,-19.58300018310547 -26.04199981689453,-5.208000183105469 C-26.04199981689453,-5.208000183105469 -26.04199981689453,5.209000110626221 -26.04199981689453,5.209000110626221 C-26.04199981689453,19.583999633789062 -14.375,31.25 0,31.25 C0,31.25 26.04199981689453,31.25 26.04199981689453,31.25 C26.04199981689453,31.25 26.04199981689453,-5.208000183105469 26.04199981689453,-5.208000183105469 C26.04199981689453,-19.58300018310547 14.375,-31.25 0,-31.25z"/></g><g opacity="1" transform="matrix(1,0,0,1,250,322.9169921875)"><path class="primary" fill="rgb(0,0,0)" fill-opacity="1" d=" M88.54199981689453,52.08300018310547 C88.54199981689453,52.08300018310547 -88.54199981689453,52.08300018310547 -88.54199981689453,52.08300018310547 C-97.08399963378906,52.08300018310547 -104.16699981689453,45 -104.16699981689453,36.45800018310547 C-104.16699981689453,36.45800018310547 -104.16699981689453,26.04199981689453 -104.16699981689453,26.04199981689453 C-104.16699981689453,-17.08300018310547 -69.16699981689453,-52.08399963378906 -26.04199981689453,-52.08399963378906 C-26.04199981689453,-52.08399963378906 26.04199981689453,-52.08399963378906 26.04199981689453,-52.08399963378906 C69.16699981689453,-52.08399963378906 104.16699981689453,-17.08300018310547 104.16699981689453,26.04199981689453 C104.16699981689453,26.04199981689453 104.16699981689453,36.45800018310547 104.16699981689453,36.45800018310547 C104.16699981689453,45 97.08399963378906,52.08300018310547 88.54199981689453,52.08300018310547z M-72.70800018310547,20.83300018310547 C-72.70800018310547,20.83300018310547 72.5,20.83300018310547 72.5,20.83300018310547 C70,-2.5 50,-20.833999633789062 25.83300018310547,-20.833999633789062 C25.83300018310547,-20.833999633789062 -26.25,-20.833999633789062 -26.25,-20.833999633789062 C-50.20800018310547,-20.833999633789062 -70,-2.5 -72.70800018310547,20.83300018310547z"/></g></g><g class="primary design" transform="matrix(1,0,0,1,-391,398.4161376953125)" opacity="1" style="display: block;"><g opacity="1" transform="matrix(1,0,0,1,250,187.5)"><path class="primary" fill="rgb(0,0,0)" fill-opacity="1" d=" M41.66699981689453,62.5 C41.66699981689453,62.5 0,62.5 0,62.5 C-31.66699981689453,62.5 -57.29199981689453,36.875999450683594 -57.29199981689453,5.209000110626221 C-57.29199981689453,5.209000110626221 -57.29199981689453,-5.208000183105469 -57.29199981689453,-5.208000183105469 C-57.29199981689453,-36.875 -31.66699981689453,-62.5 0,-62.5 C31.66699981689453,-62.5 57.29199981689453,-36.875 57.29199981689453,-5.208000183105469 C57.29199981689453,-5.208000183105469 57.29199981689453,46.875 57.29199981689453,46.875 C57.29199981689453,55.41699981689453 50.20899963378906,62.5 41.66699981689453,62.5z M0,-31.25 C-14.375,-31.25 -26.04199981689453,-19.58300018310547 -26.04199981689453,-5.208000183105469 C-26.04199981689453,-5.208000183105469 -26.04199981689453,5.209000110626221 -26.04199981689453,5.209000110626221 C-26.04199981689453,19.583999633789062 -14.375,31.25 0,31.25 C0,31.25 26.04199981689453,31.25 26.04199981689453,31.25 C26.04199981689453,31.25 26.04199981689453,-5.208000183105469 26.04199981689453,-5.208000183105469 C26.04199981689453,-19.58300018310547 14.375,-31.25 0,-31.25z"/></g><g opacity="1" transform="matrix(1,0,0,1,250,322.9169921875)"><path class="primary" fill="rgb(0,0,0)" fill-opacity="1" d=" M88.54199981689453,52.08300018310547 C88.54199981689453,52.08300018310547 -88.54199981689453,52.08300018310547 -88.54199981689453,52.08300018310547 C-97.08399963378906,52.08300018310547 -104.16699981689453,45 -104.16699981689453,36.45800018310547 C-104.16699981689453,36.45800018310547 -104.16699981689453,26.04199981689453 -104.16699981689453,26.04199981689453 C-104.16699981689453,-17.08300018310547 -69.16699981689453,-52.08399963378906 -26.04199981689453,-52.08399963378906 C-26.04199981689453,-52.08399963378906 26.04199981689453,-52.08399963378906 26.04199981689453,-52.08399963378906 C69.16699981689453,-52.08399963378906 104.16699981689453,-17.08300018310547 104.16699981689453,26.04199981689453 C104.16699981689453,26.04199981689453 104.16699981689453,36.45800018310547 104.16699981689453,36.45800018310547 C104.16699981689453,45 97.08399963378906,52.08300018310547 88.54199981689453,52.08300018310547z M-72.70800018310547,20.83300018310547 C-72.70800018310547,20.83300018310547 72.5,20.83300018310547 72.5,20.83300018310547 C70,-2.5 50,-20.833999633789062 25.83300018310547,-20.833999633789062 C25.83300018310547,-20.833999633789062 -26.25,-20.833999633789062 -26.25,-20.833999633789062 C-50.20800018310547,-20.833999633789062 -70,-2.5 -72.70800018310547,20.83300018310547z"/></g></g><g class="primary design" transform="matrix(1,0,0,1,0,398.4161376953125)" opacity="1" style="display: block;"><g opacity="1" transform="matrix(1,0,0,1,250,187.5)"><path class="primary" fill="rgb(0,0,0)" fill-opacity="1" d=" M28.66699981689453,62.5 C28.66699981689453,62.5 -13,62.5 -13,62.5 C-44.66699981689453,62.5 -70.29199981689453,36.875999450683594 -70.29199981689453,5.209000110626221 C-70.29199981689453,5.209000110626221 -70.29199981689453,-5.208000183105469 -70.29199981689453,-5.208000183105469 C-70.29199981689453,-36.875 -44.66699981689453,-62.5 -13,-62.5 C18.66699981689453,-62.5 44.29199981689453,-36.875 44.29199981689453,-5.208000183105469 C44.29199981689453,-5.208000183105469 44.29199981689453,46.875 44.29199981689453,46.875 C44.29199981689453,55.41699981689453 37.20899963378906,62.5 28.66699981689453,62.5z M-13,-31.25 C-27.375,-31.25 -39.04199981689453,-19.58300018310547 -39.04199981689453,-5.208000183105469 C-39.04199981689453,-5.208000183105469 -39.04199981689453,5.209000110626221 -39.04199981689453,5.209000110626221 C-39.04199981689453,19.583999633789062 -27.375,31.25 -13,31.25 C-13,31.25 13.041999816894531,31.25 13.041999816894531,31.25 C13.041999816894531,31.25 13.041999816894531,-5.208000183105469 13.041999816894531,-5.208000183105469 C13.041999816894531,-19.58300018310547 1.375,-31.25 -13,-31.25z"/></g><g opacity="1" transform="matrix(1,0,0,1,250,322.9169921875)"><path class="primary" fill="rgb(0,0,0)" fill-opacity="1" d=" M88.54199981689453,52.08300018310547 C88.54199981689453,52.08300018310547 -88.54199981689453,52.08300018310547 -88.54199981689453,52.08300018310547 C-97.08399963378906,52.08300018310547 -104.16699981689453,45 -104.16699981689453,36.45800018310547 C-104.16699981689453,36.45800018310547 -104.16699981689453,26.04199981689453 -104.16699981689453,26.04199981689453 C-104.16699981689453,-17.08300018310547 -69.16699981689453,-52.08399963378906 -26.04199981689453,-52.08399963378906 C-26.04199981689453,-52.08399963378906 26.04199981689453,-52.08399963378906 26.04199981689453,-52.08399963378906 C69.16699981689453,-52.08399963378906 104.16699981689453,-17.08300018310547 104.16699981689453,26.04199981689453 C104.16699981689453,26.04199981689453 104.16699981689453,36.45800018310547 104.16699981689453,36.45800018310547 C104.16699981689453,45 97.08399963378906,52.08300018310547 88.54199981689453,52.08300018310547z M-72.70800018310547,20.83300018310547 C-72.70800018310547,20.83300018310547 72.5,20.83300018310547 72.5,20.83300018310547 C70,-2.5 50,-20.833999633789062 25.83300018310547,-20.833999633789062 C25.83300018310547,-20.833999633789062 -26.25,-20.833999633789062 -26.25,-20.833999633789062 C-50.20800018310547,-20.833999633789062 -70,-2.5 -72.70800018310547,20.83300018310547z"/></g></g><g class="primary design" transform="matrix(1,0,0,1,0,-2.5838623046875)" opacity="1" style="display: block;"><g opacity="1" transform="matrix(0.9977817535400391,0.06657006591558456,-0.06657006591558456,0.9977817535400391,252.4830780029297,134.03738403320312)"><path class="primary" fill="rgb(0,0,0)" fill-opacity="1" d=" M41.66699981689453,119.5 C41.66699981689453,119.5 0,119.5 0,119.5 C-31.66699981689453,119.5 -57.29199981689453,93.8759994506836 -57.29199981689453,62.20899963378906 C-57.29199981689453,62.20899963378906 -57.29199981689453,51.79199981689453 -57.29199981689453,51.79199981689453 C-57.29199981689453,20.125 -31.66699981689453,-5.5 0,-5.5 C31.66699981689453,-5.5 57.29199981689453,20.125 57.29199981689453,51.79199981689453 C57.29199981689453,51.79199981689453 57.29199981689453,103.875 57.29199981689453,103.875 C57.29199981689453,112.41699981689453 50.20899963378906,119.5 41.66699981689453,119.5z M0,25.75 C-14.375,25.75 -26.04199981689453,37.41699981689453 -26.04199981689453,51.79199981689453 C-26.04199981689453,51.79199981689453 -26.04199981689453,62.20899963378906 -26.04199981689453,62.20899963378906 C-26.04199981689453,76.58399963378906 -14.375,88.25 0,88.25 C0,88.25 26.04199981689453,88.25 26.04199981689453,88.25 C26.04199981689453,88.25 26.04199981689453,51.79199981689453 26.04199981689453,51.79199981689453 C26.04199981689453,37.41699981689453 14.375,25.75 0,25.75z"/></g><g opacity="1" transform="matrix(1,0,0,1,250,322.9169921875)"><path class="primary" fill="rgb(0,0,0)" fill-opacity="1" d=" M88.54199981689453,52.08300018310547 C88.54199981689453,52.08300018310547 -88.54199981689453,52.08300018310547 -88.54199981689453,52.08300018310547 C-97.08399963378906,52.08300018310547 -104.16699981689453,45 -104.16699981689453,36.45800018310547 C-104.16699981689453,36.45800018310547 -104.16699981689453,26.04199981689453 -104.16699981689453,26.04199981689453 C-104.16699981689453,-17.08300018310547 -69.16699981689453,-52.08399963378906 -26.04199981689453,-52.08399963378906 C-26.04199981689453,-52.08399963378906 26.04199981689453,-52.08399963378906 26.04199981689453,-52.08399963378906 C69.16699981689453,-52.08399963378906 104.16699981689453,-17.08300018310547 104.16699981689453,26.04199981689453 C104.16699981689453,26.04199981689453 104.16699981689453,36.45800018310547 104.16699981689453,36.45800018310547 C104.16699981689453,45 97.08399963378906,52.08300018310547 88.54199981689453,52.08300018310547z M-72.70800018310547,20.83300018310547 C-72.70800018310547,20.83300018310547 72.5,20.83300018310547 72.5,20.83300018310547 C70,-2.5 50,-20.833999633789062 25.83300018310547,-20.833999633789062 C25.83300018310547,-20.833999633789062 -26.25,-20.833999633789062 -26.25,-20.833999633789062 C-50.20800018310547,-20.833999633789062 -70,-2.5 -72.70800018310547,20.83300018310547z"/></g></g></g></g></g></g></svg>