
<svg xmlns="http://www.w3.org/2000/svg" xmlns:xlink="http://www.w3.org/1999/xlink" viewBox="0 0 500 500" width="500" height="500" preserveAspectRatio="xMidYMid meet" style="width: 100%; height: 100%; transform: translate3d(0px, 0px, 0px); content-visibility: visible;"><defs><clipPath id="__lottie_element_7121"><rect width="500" height="500" x="0" y="0"/></clipPath><clipPath id="__lottie_element_7123"><path d="M0,0 L500,0 L500,500 L0,500z"/></clipPath><g id="__lottie_element_7149"><g class="primary design" transform="matrix(0.9904188513755798,0,0,1.0095810890197754,249.98150634765625,284.4602355957031)" opacity="1" style="display: none;"><g opacity="1" transform="matrix(1,0,0,1,0,0)"><path class="primary" fill="rgb(18,19,49)" fill-opacity="1" d=" M146.6959991455078,158.6820068359375 C146.6959991455078,158.6820068359375 151.0399932861328,-109.37899780273438 151.0399932861328,-109.37899780273438 C151.0399932861328,-109.37899780273438 -151.0399932861328,-109.37899780273438 -151.0399932861328,-109.37899780273438 C-151.0399932861328,-109.37899780273438 -147.39199829101562,158.6719970703125 -147.39199829101562,158.6719970703125 C-142.66200256347656,178.33799743652344 -120.87000274658203,192.57200622558594 -95.49199676513672,192.572998046875 C-95.49199676513672,192.572998046875 94.79000091552734,192.58299255371094 94.79000091552734,192.58299255371094 C120.1709976196289,192.58399963378906 141.96600341796875,178.35000610351562 146.6959991455078,158.6820068359375z"/></g></g></g><filter id="__lottie_element_7152" filterUnits="objectBoundingBox" x="0%" y="0%" width="100%" height="100%"><feComponentTransfer in="SourceGraphic"><feFuncA type="table" tableValues="1.0 0.0"/></feComponentTransfer></filter><mask id="__lottie_element_7149_2" mask-type="alpha"><g filter="url(#__lottie_element_7152)"><rect width="500" height="500" x="0" y="0" fill="#ffffff" opacity="0"/><use xmlns:ns1="http://www.w3.org/1999/xlink" ns1:href="#__lottie_element_7149"/></g></mask></defs><g clip-path="url(#__lottie_element_7121)"><g clip-path="url(#__lottie_element_7123)" transform="matrix(1,0,0,1,0,0)" opacity="1" style="display: block;"><g class="primary design" transform="matrix(0.9999999403953552,0,0,1.0000001192092896,249.91000366210938,327.7239990234375)" opacity="1" style="display: none;"><g opacity="1" transform="matrix(1,0,0,1,0,0)"><path class="primary" fill="rgb(18,19,49)" fill-opacity="1" d=" M-131.24099731445312,41.97700119018555 C-126.24199676513672,68.8499984741211 -102.49299621582031,88.43199920654297 -74.99500274658203,88.43199920654297 C-74.99500274658203,88.43199920654297 74.99500274658203,88.43199920654297 74.99500274658203,88.43199920654297 C88.74500274658203,88.43199920654297 101.66000366210938,83.43199920654297 111.65899658203125,75.30699920654297 C121.65899658203125,66.9739990234375 128.74099731445312,55.516998291015625 131.24099731445312,41.97700119018555 C131.24099731445312,41.97700119018555 156.031005859375,-88.43199920654297 156.031005859375,-88.43199920654297 C156.031005859375,-88.43199920654297 -156.031005859375,-88.43199920654297 -156.031005859375,-88.43199920654297 C-156.031005859375,-88.43199920654297 -131.24099731445312,41.97700119018555 -131.24099731445312,41.97700119018555z"/></g></g><g class="primary design" transform="matrix(0.9999999403953552,0,0,1.0000001192092896,250.53500366210938,134.65997314453125)" opacity="1" style="display: none;"><g opacity="1" transform="matrix(1,0,0,1,0,0)"><path class="primary" fill="rgb(18,19,49)" fill-opacity="1" d=" M166.656005859375,31.511999130249023 C166.656005859375,31.511999130249023 -166.656005859375,31.511999130249023 -166.656005859375,31.511999130249023 C-178.11500549316406,31.511999130249023 -187.48800659179688,40.887001037597656 -187.48800659179688,52.34400177001953 C-187.48800659179688,63.80099868774414 -178.11500549316406,73.1760025024414 -166.656005859375,73.1760025024414 C-166.656005859375,73.1760025024414 166.656005859375,73.1760025024414 166.656005859375,73.1760025024414 C178.11300659179688,73.1760025024414 187.48800659179688,63.80099868774414 187.48800659179688,52.34400177001953 C187.48800659179688,40.887001037597656 178.11300659179688,31.511999130249023 166.656005859375,31.511999130249023z"/></g></g><g class="primary design" transform="matrix(0.9999999403953552,0,0,1.0000001192092896,156.24195861816406,130.20794677734375)" opacity="1" style="display: none;"><g opacity="1" transform="matrix(1,0,0,1,0,0)"><path stroke-linecap="round" stroke-linejoin="round" fill-opacity="0" class="primary" stroke="rgb(18,19,49)" stroke-opacity="1" stroke-width="42" d=" M-36.45800018310547,52.08300018310547 C-36.45800018310547,52.08300018310547 36.45800018310547,-47.83300018310547 36.45800018310547,-47.83300018310547"/></g></g><g class="primary design" transform="matrix(0.9999999403953552,0,0,1.0000001192092896,343.7400207519531,130.20794677734375)" opacity="1" style="display: none;"><g opacity="1" transform="matrix(1,0,0,1,0,0)"><path stroke-linecap="round" stroke-linejoin="round" fill-opacity="0" class="primary" stroke="rgb(18,19,49)" stroke-opacity="1" stroke-width="42" d=" M36.45800018310547,52.08300018310547 C36.45800018310547,52.08300018310547 -36.45800018310547,-48.08300018310547 -36.45800018310547,-48.08300018310547"/></g></g><g mask="url(#__lottie_element_7149_2)" style="display: none;"><g class="primary design" transform="matrix(1,0,0,1,250,535)" opacity="1"><g opacity="1" transform="matrix(1,0,0,1,-4.5,-143.5)"><path class="primary" fill="rgb(18,19,49)" fill-opacity="1" d=" M90,0 C90,27.61400032043457 67.61399841308594,50 40,50 C40,50 -40,50 -40,50 C-67.61399841308594,50 -90,27.61400032043457 -90,0 C-90,-27.61400032043457 -67.61399841308594,-50 -40,-50 C-40,-50 40,-50 40,-50 C67.61399841308594,-50 90,-27.61400032043457 90,0z"/><path stroke-linecap="round" stroke-linejoin="round" fill-opacity="0" class="primary" stroke="rgb(18,19,49)" stroke-opacity="1" stroke-width="31.3" d=" M90,0 C90,27.61400032043457 67.61399841308594,50 40,50 C40,50 -40,50 -40,50 C-67.61399841308594,50 -90,27.61400032043457 -90,0 C-90,-27.61400032043457 -67.61399841308594,-50 -40,-50 C-40,-50 40,-50 40,-50 C67.61399841308594,-50 90,-27.61400032043457 90,0z"/></g></g></g><g class="primary design" transform="matrix(1,0,0,1,249.91000366210938,327.7239990234375)" opacity="1" style="display: none;"><g opacity="1" transform="matrix(1,0,0,1,0,0)"><path class="primary" fill="rgb(18,19,49)" fill-opacity="1" d=" M-131.24099731445312,41.97700119018555 C-126.24199676513672,68.8499984741211 -102.49299621582031,88.43199920654297 -74.99500274658203,88.43199920654297 C-74.99500274658203,88.43199920654297 74.99500274658203,88.43199920654297 74.99500274658203,88.43199920654297 C88.74500274658203,88.43199920654297 101.66000366210938,83.43199920654297 111.65899658203125,75.30699920654297 C121.65899658203125,66.9739990234375 128.74099731445312,55.516998291015625 131.24099731445312,41.97700119018555 C131.24099731445312,41.97700119018555 156.031005859375,-88.43199920654297 156.031005859375,-88.43199920654297 C156.031005859375,-88.43199920654297 -156.031005859375,-88.43199920654297 -156.031005859375,-88.43199920654297 C-156.031005859375,-88.43199920654297 -131.24099731445312,41.97700119018555 -131.24099731445312,41.97700119018555z"/></g></g><g class="primary design" transform="matrix(1,0,0,1,250.53500366210938,134.66000366210938)" opacity="1" style="display: none;"><g opacity="1" transform="matrix(1,0,0,1,0,0)"><path class="primary" fill="rgb(18,19,49)" fill-opacity="1" d=" M166.656005859375,31.511999130249023 C166.656005859375,31.511999130249023 143.9459991455078,31.511999130249023 143.9459991455078,31.511999130249023 C143.9459991455078,31.511999130249023 73.3280029296875,-64.73200225830078 73.3280029296875,-64.73200225830078 C66.4530029296875,-73.89800262451172 53.5369987487793,-75.98100280761719 44.16400146484375,-69.10700225830078 C34.99800109863281,-62.231998443603516 32.91299819946289,-49.316001892089844 39.78799819946289,-39.941001892089844 C39.78799819946289,-39.941001892089844 92.21800231933594,31.511999130249023 92.21800231933594,31.511999130249023 C92.21800231933594,31.511999130249023 -93.31700134277344,31.511999130249023 -93.31700134277344,31.511999130249023 C-93.31700134277344,31.511999130249023 -41.040000915527344,-39.733001708984375 -41.040000915527344,-39.733001708984375 C-34.165000915527344,-49.108001708984375 -36.040000915527344,-62.02299880981445 -45.415000915527344,-68.89800262451172 C-54.78799819946289,-75.77300262451172 -67.7040023803711,-73.68900299072266 -74.5790023803711,-64.52300262451172 C-74.5790023803711,-64.52300262451172 -145.04600524902344,31.511999130249023 -145.04600524902344,31.511999130249023 C-145.04600524902344,31.511999130249023 -166.656005859375,31.511999130249023 -166.656005859375,31.511999130249023 C-178.11500549316406,31.511999130249023 -187.48800659179688,40.887001037597656 -187.48800659179688,52.34400177001953 C-187.48800659179688,63.80099868774414 -178.11500549316406,73.1760025024414 -166.656005859375,73.1760025024414 C-166.656005859375,73.1760025024414 166.656005859375,73.1760025024414 166.656005859375,73.1760025024414 C178.11300659179688,73.1760025024414 187.48800659179688,63.80099868774414 187.48800659179688,52.34400177001953 C187.48800659179688,40.887001037597656 178.11300659179688,31.511999130249023 166.656005859375,31.511999130249023z"/></g></g><g class="primary design" transform="matrix(1,0,0,1,249.91000366210938,327.7239990234375)" opacity="1" style="display: block;"><g opacity="1" transform="matrix(1,0,0,1,0,0)"><path class="primary" fill="rgb(0,0,0)" fill-opacity="1" d=" M-131.24099731445312,41.97700119018555 C-126.24199676513672,68.8499984741211 -102.49299621582031,88.43199920654297 -74.99500274658203,88.43199920654297 C-74.99500274658203,88.43199920654297 74.99500274658203,88.43199920654297 74.99500274658203,88.43199920654297 C88.74500274658203,88.43199920654297 101.66000366210938,83.43199920654297 111.65899658203125,75.30699920654297 C121.65899658203125,66.9739990234375 128.74099731445312,55.516998291015625 131.24099731445312,41.97700119018555 C131.24099731445312,41.97700119018555 156.031005859375,-88.43199920654297 156.031005859375,-88.43199920654297 C156.031005859375,-88.43199920654297 -156.031005859375,-88.43199920654297 -156.031005859375,-88.43199920654297 C-156.031005859375,-88.43199920654297 -131.24099731445312,41.97700119018555 -131.24099731445312,41.97700119018555z"/></g></g><g class="primary design" transform="matrix(1,0,0,1,250.53500366210938,134.66000366210938)" opacity="1" style="display: block;"><g opacity="1" transform="matrix(1,0,0,1,0,0)"><path class="primary" fill="rgb(0,0,0)" fill-opacity="1" d=" M166.656005859375,31.511999130249023 C166.656005859375,31.511999130249023 143.9459991455078,31.511999130249023 143.9459991455078,31.511999130249023 C143.9459991455078,31.511999130249023 73.3280029296875,-64.73200225830078 73.3280029296875,-64.73200225830078 C66.4530029296875,-73.89800262451172 53.5369987487793,-75.98100280761719 44.16400146484375,-69.10700225830078 C34.99800109863281,-62.231998443603516 32.91299819946289,-49.316001892089844 39.78799819946289,-39.941001892089844 C39.78799819946289,-39.941001892089844 92.21800231933594,31.511999130249023 92.21800231933594,31.511999130249023 C92.21800231933594,31.511999130249023 -93.31700134277344,31.511999130249023 -93.31700134277344,31.511999130249023 C-93.31700134277344,31.511999130249023 -41.040000915527344,-39.733001708984375 -41.040000915527344,-39.733001708984375 C-34.165000915527344,-49.108001708984375 -36.040000915527344,-62.02299880981445 -45.415000915527344,-68.89800262451172 C-54.78799819946289,-75.77300262451172 -67.7040023803711,-73.68900299072266 -74.5790023803711,-64.52300262451172 C-74.5790023803711,-64.52300262451172 -145.04600524902344,31.511999130249023 -145.04600524902344,31.511999130249023 C-145.04600524902344,31.511999130249023 -166.656005859375,31.511999130249023 -166.656005859375,31.511999130249023 C-178.11500549316406,31.511999130249023 -187.48800659179688,40.887001037597656 -187.48800659179688,52.34400177001953 C-187.48800659179688,63.80099868774414 -178.11500549316406,73.1760025024414 -166.656005859375,73.1760025024414 C-166.656005859375,73.1760025024414 166.656005859375,73.1760025024414 166.656005859375,73.1760025024414 C178.11300659179688,73.1760025024414 187.48800659179688,63.80099868774414 187.48800659179688,52.34400177001953 C187.48800659179688,40.887001037597656 178.11300659179688,31.511999130249023 166.656005859375,31.511999130249023z"/></g></g></g></g></svg>