
<svg xmlns="http://www.w3.org/2000/svg" xmlns:xlink="http://www.w3.org/1999/xlink" viewBox="0 0 500 500" width="500" height="500" preserveAspectRatio="xMidYMid meet" style="width: 100%; height: 100%; transform: translate3d(0px, 0px, 0px); content-visibility: visible;"><defs><clipPath id="__lottie_element_8226"><rect width="500" height="500" x="0" y="0"/></clipPath><clipPath id="__lottie_element_8228"><path d="M0,0 L500,0 L500,500 L0,500z"/></clipPath></defs><g clip-path="url(#__lottie_element_8226)"><g clip-path="url(#__lottie_element_8228)" transform="matrix(1,0,0,1,0,0)" opacity="1" style="display: block;"><g class="primary design" transform="matrix(0.9930844306945801,0.11740239709615707,-0.11740239709615707,0.9930844306945801,232.64674377441406,276.3263854980469)" opacity="1" style="display: none;"><g opacity="1" transform="matrix(1,0,0,1,0,0)"><path stroke-linecap="round" stroke-linejoin="round" fill-opacity="0" class="primary" stroke="rgb(0,0,0)" stroke-opacity="1" stroke-width="31.3" d=" M115.9749984741211,75.47799682617188 C115.9749984741211,75.47799682617188 151.0399932861328,-109.37899780273438 151.0399932861328,-109.37899780273438 C151.0399932861328,-109.37899780273438 -151.0399932861328,-109.37899780273438 -151.0399932861328,-109.37899780273438 C-151.0399932861328,-109.37899780273438 -115.97699737548828,75.46800231933594 -115.97699737548828,75.46800231933594 C-112.24700164794922,95.13400268554688 -95.05899810791016,109.36900329589844 -75.04299926757812,109.37000274658203 C-75.04299926757812,109.37000274658203 75.03600311279297,109.37899780273438 75.03600311279297,109.37899780273438 C95.05400085449219,109.37999725341797 112.24400329589844,95.14600372314453 115.9749984741211,75.47799682617188z"/></g></g><g class="primary design" transform="matrix(0.9974386096000671,0.07152773439884186,-0.07152773439884186,0.9974386096000671,156.2721405029297,103.07036590576172)" opacity="1" style="display: none;"><g opacity="1" transform="matrix(1,0,0,1,0,0)"><path stroke-linecap="round" stroke-linejoin="round" fill-opacity="0" class="primary" stroke="rgb(0,0,0)" stroke-opacity="1" stroke-width="31.3" d=" M-36.45800018310547,52.08300018310547 C-36.45800018310547,52.08300018310547 36.45800018310547,-52.08300018310547 36.45800018310547,-52.08300018310547"/></g></g><g class="primary design" transform="matrix(0.9974386096000671,0.07152773439884186,-0.07152773439884186,0.9974386096000671,342.156005859375,128.42808532714844)" opacity="1" style="display: none;"><g opacity="1" transform="matrix(1,0,0,1,0,0)"><path stroke-linecap="round" stroke-linejoin="round" fill-opacity="0" class="primary" stroke="rgb(0,0,0)" stroke-opacity="1" stroke-width="31.3" d=" M36.45800018310547,52.08300018310547 C36.45800018310547,52.08300018310547 -36.45800018310547,-52.08300018310547 -36.45800018310547,-52.08300018310547"/></g></g><g class="primary design" transform="matrix(0.9930844306945801,0.11740239709615707,-0.11740239709615707,0.9930844306945801,246.1375732421875,167.7805633544922)" opacity="1" style="display: none;"><g opacity="1" transform="matrix(1,0,0,1,0,0)"><path stroke-linecap="round" stroke-linejoin="round" fill-opacity="0" class="primary" stroke="rgb(0,0,0)" stroke-opacity="1" stroke-width="31.3" d=" M-172.5279998779297,0 C-172.5279998779297,0 172.5279998779297,0 172.5279998779297,0"/></g></g><g class="primary design" transform="matrix(1,0,0,1,250,250)" opacity="1" style="display: block;"><g opacity="1" transform="matrix(1,0,0,1,0,0)"><path class="primary" fill="rgb(0,0,0)" fill-opacity="1" d=" M173.17300415039062,-83.35399627685547 C173.17300415039062,-83.35399627685547 151.02999877929688,-83.35399627685547 151.02999877929688,-83.35399627685547 C151.02999877929688,-83.35399627685547 138.35000610351562,-83.35399627685547 138.35000610351562,-83.35399627685547 C138.35000610351562,-83.35399627685547 70.10399627685547,-180.8489990234375 70.10399627685547,-180.8489990234375 C65.14700317382812,-187.92999267578125 55.388999938964844,-189.65199279785156 48.30799865722656,-184.69500732421875 C41.22700119018555,-179.73800659179688 39.505001068115234,-169.9810028076172 44.46099853515625,-162.89999389648438 C44.46099853515625,-162.89999389648438 100.14299774169922,-83.35399627685547 100.14299774169922,-83.35399627685547 C100.14299774169922,-83.35399627685547 -100.16100311279297,-83.35399627685547 -100.16100311279297,-83.35399627685547 C-100.16100311279297,-83.35399627685547 -44.479000091552734,-162.89999389648438 -44.479000091552734,-162.89999389648438 C-39.52299880981445,-169.9810028076172 -41.244998931884766,-179.73800659179688 -48.32600021362305,-184.69500732421875 C-55.40599822998047,-189.6529998779297 -65.16500091552734,-187.93099975585938 -70.12200164794922,-180.8489990234375 C-70.12200164794922,-180.8489990234375 -138.3679962158203,-83.35399627685547 -138.3679962158203,-83.35399627685547 C-138.3679962158203,-83.35399627685547 -151.0500030517578,-83.35399627685547 -151.0500030517578,-83.35399627685547 C-151.0500030517578,-83.35399627685547 -171.88299560546875,-83.35399627685547 -171.88299560546875,-83.35399627685547 C-180.52699279785156,-83.35399627685547 -187.5330047607422,-76.34700012207031 -187.5330047607422,-67.7040023803711 C-187.5330047607422,-59.06100082397461 -180.52699279785156,-52.05500030517578 -171.88299560546875,-52.05500030517578 C-171.88299560546875,-52.05500030517578 -164.00999450683594,-52.05500030517578 -164.00999450683594,-52.05500030517578 C-164.00999450683594,-52.05500030517578 -131.36199951171875,120.05999755859375 -131.36199951171875,120.05999755859375 C-126.23600006103516,147.0800018310547 -102.55500030517578,166.69200134277344 -75.0530014038086,166.69400024414062 C-75.0530014038086,166.69400024414062 75.0250015258789,166.70399475097656 75.0250015258789,166.70399475097656 C75.0270004272461,166.70399475097656 75.02799987792969,166.70399475097656 75.02899932861328,166.70399475097656 C102.53199768066406,166.70399475097656 126.21499633789062,147.0919952392578 131.3419952392578,120.06999969482422 C131.3419952392578,120.06999969482422 131.3419952392578,120.06900024414062 131.3419952392578,120.06900024414062 C131.3419952392578,120.06900024414062 163.99099731445312,-52.05500030517578 163.99099731445312,-52.05500030517578 C163.99099731445312,-52.05500030517578 173.17300415039062,-52.05500030517578 173.17300415039062,-52.05500030517578 C181.81700134277344,-52.05500030517578 188.822998046875,-59.06100082397461 188.822998046875,-67.7040023803711 C188.822998046875,-76.34700012207031 181.81700134277344,-83.35399627685547 173.17300415039062,-83.35399627685547z M100.58999633789062,114.23600006103516 C98.26300048828125,126.50299835205078 87.51100158691406,135.40499877929688 75.0270004272461,135.4040069580078 C75.0270004272461,135.4040069580078 -75.0510025024414,135.39500427246094 -75.0510025024414,135.39500427246094 C-87.53399658203125,135.3939971923828 -98.28399658203125,126.49199676513672 -100.61000061035156,114.22699737548828 C-100.61000061035156,114.22699737548828 -132.15199279785156,-52.05500030517578 -132.15199279785156,-52.05500030517578 C-132.15199279785156,-52.05500030517578 132.13299560546875,-52.05500030517578 132.13299560546875,-52.05500030517578 C132.13299560546875,-52.05500030517578 100.58999633789062,114.23600006103516 100.58999633789062,114.23600006103516z"/></g></g></g></g></svg>