<svg xmlns="http://www.w3.org/2000/svg" xmlns:xlink="http://www.w3.org/1999/xlink" viewBox="0 0 500 500" width="500" height="500" preserveAspectRatio="xMidYMid meet" style="width: 100%; height: 100%; transform: translate3d(0px, 0px, 0px); content-visibility: visible;"><defs><clipPath id="__lottie_element_1988"><rect width="500" height="500" x="0" y="0"/></clipPath><clipPath id="__lottie_element_1990"><path d="M0,0 L500,0 L500,500 L0,500z"/></clipPath><g id="__lottie_element_2092"><g class="primary design" transform="matrix(1,0,0,1,0,0)" opacity="1" style="display: none;"><g opacity="1" transform="matrix(1,0,0,1,249.67799377441406,291.7550048828125)"><path stroke-linecap="round" stroke-linejoin="round" fill-opacity="0" class="primary" stroke="rgb(18,19,49)" stroke-opacity="1" stroke-width="41" d=" M-72.78500366210938,62.54199981689453 C-72.78500366210938,62.54199981689453 -72.78500366210938,20.125 -72.78500366210938,20.125 M72.9729995727539,62.54199981689453 C72.9729995727539,62.54199981689453 73.22456359863281,-20.910886764526367 73.22456359863281,-20.910886764526367 M0,62.744998931884766 C0,62.744998931884766 0,-62.744998931884766 0,-62.744998931884766"/></g></g></g><filter id="__lottie_element_2095" filterUnits="objectBoundingBox" x="0%" y="0%" width="100%" height="100%"><feComponentTransfer in="SourceGraphic"><feFuncA type="table" tableValues="1.0 0.0"/></feComponentTransfer></filter><mask id="__lottie_element_2092_2" mask-type="alpha"><g filter="url(#__lottie_element_2095)"><rect width="500" height="500" x="0" y="0" fill="#ffffff" opacity="0"/><use xmlns:ns1="http://www.w3.org/1999/xlink" ns1:href="#__lottie_element_2092"/></g></mask></defs><g clip-path="url(#__lottie_element_1988)"><g clip-path="url(#__lottie_element_1990)" transform="matrix(1,0,0,1,0,0)" opacity="1" style="display: block;"><g mask="url(#__lottie_element_2092_2)" style="display: none;"><g class="primary design" transform="matrix(20.829999923706055,0,0,20.829999923706055,-4957.505859375,-4957.505859375)" opacity="1"><g opacity="1" transform="matrix(1,0,0,1,253.5,253)"><path class="primary" fill="rgb(18,19,49)" fill-opacity="1" d=" M2.75,-12 C2.75,-12 1.5,-12 1.5,-12 C1.5,-12.550000190734863 1.0499999523162842,-13 0.5,-13 C0.5,-13 -7.5,-13 -7.5,-13 C-8.050000190734863,-13 -8.5,-12.550000190734863 -8.5,-12 C-8.5,-12 -9.75,-12 -9.75,-12 C-10.710000038146973,-12 -11.5,-11.210000038146973 -11.5,-10.25 C-11.5,-10.25 -11.5,5.25 -11.5,5.25 C-11.5,6.21999979019165 -10.710000038146973,7 -9.75,7 C-9.75,7 2.75,7 2.75,7 C3.7100000381469727,7 4.5,6.21999979019165 4.5,5.25 C4.5,5.25 4.5,-10.25 4.5,-10.25 C4.5,-11.210000038146973 3.7100000381469727,-12 2.75,-12z M-6.5,-11 C-6.5,-11 -0.5,-11 -0.5,-11 C-0.5,-11 -0.5,-9 -0.5,-9 C-0.5,-9 -6.5,-9 -6.5,-9 C-6.5,-9 -6.5,-11 -6.5,-11z"/></g></g></g><g class="primary design" transform="matrix(20.829999923706055,0,0,20.829999923706055,-4957.505859375,-4957.505859375)" opacity="1" style="display: block;"><g opacity="1" transform="matrix(1,0,0,1,253.5,253)"><path class="primary" fill="rgb(18,19,49)" fill-opacity="1" d=" M2.75,-12 C2.75,-12 1.5,-12 1.5,-12 C1.5,-12.550000190734863 1.0499999523162842,-13 0.5,-13 C0.5,-13 -7.5,-13 -7.5,-13 C-8.050000190734863,-13 -8.5,-12.550000190734863 -8.5,-12 C-8.5,-12 -9.75,-12 -9.75,-12 C-10.710000038146973,-12 -11.5,-11.210000038146973 -11.5,-10.25 C-11.5,-10.25 -11.5,5.25 -11.5,5.25 C-11.5,6.21999979019165 -10.710000038146973,7 -9.75,7 C-9.75,7 2.75,7 2.75,7 C3.7100000381469727,7 4.5,6.21999979019165 4.5,5.25 C4.5,5.25 4.5,-10.25 4.5,-10.25 C4.5,-11.210000038146973 3.7100000381469727,-12 2.75,-12z M-6.5,-11 C-6.5,-11 -0.5,-11 -0.5,-11 C-0.5,-11 -0.5,-9 -0.5,-9 C-0.5,-9 -6.5,-9 -6.5,-9 C-6.5,-9 -6.5,-11 -6.5,-11z M-6,2 C-6,2.549999952316284 -6.449999809265137,3 -7,3 C-7.550000190734863,3 -8,2.549999952316284 -8,2 C-8,2 -8,0 -8,0 C-8,-0.550000011920929 -7.550000190734863,-1 -7,-1 C-6.449999809265137,-1 -6,-0.550000011920929 -6,0 C-6,0 -6,2 -6,2z M-2.5,2 C-2.5,2.549999952316284 -2.950000047683716,3 -3.5,3 C-4.050000190734863,3 -4.5,2.549999952316284 -4.5,2 C-4.5,2 -4.5,-4 -4.5,-4 C-4.5,-4.550000190734863 -4.050000190734863,-5 -3.5,-5 C-2.950000047683716,-5 -2.5,-4.550000190734863 -2.5,-4 C-2.5,-4 -2.5,2 -2.5,2z M1,2 C1,2.549999952316284 0.550000011920929,3 0,3 C-0.550000011920929,3 -1,2.549999952316284 -1,2 C-1,2 -1,-2 -1,-2 C-1,-2.549999952316284 -0.550000011920929,-3 0,-3 C0.550000011920929,-3 1,-2.549999952316284 1,-2 C1,-2 1,2 1,2z"/></g></g><g class="primary design" transform="matrix(20.829999923706055,0,0,20.829999923706055,-4957.505859375,-4957.505859375)" opacity="1" style="display: none;"><g opacity="1" transform="matrix(1,0,0,1,253.5,253)"><path class="primary" fill="rgb(18,19,49)" fill-opacity="1" d=" M2.75,-12 C2.75,-12 1.5,-12 1.5,-12 C1.5,-12.550000190734863 1.0499999523162842,-13 0.5,-13 C0.5,-13 -7.5,-13 -7.5,-13 C-8.050000190734863,-13 -8.5,-12.550000190734863 -8.5,-12 C-8.5,-12 -9.75,-12 -9.75,-12 C-10.710000038146973,-12 -11.5,-11.210000038146973 -11.5,-10.25 C-11.5,-10.25 -11.5,5.25 -11.5,5.25 C-11.5,6.21999979019165 -10.710000038146973,7 -9.75,7 C-9.75,7 2.75,7 2.75,7 C3.7100000381469727,7 4.5,6.21999979019165 4.5,5.25 C4.5,5.25 4.5,-10.25 4.5,-10.25 C4.5,-11.210000038146973 3.7100000381469727,-12 2.75,-12z M-6.5,-11 C-6.5,-11 -0.5,-11 -0.5,-11 C-0.5,-11 -0.5,-9 -0.5,-9 C-0.5,-9 -6.5,-9 -6.5,-9 C-6.5,-9 -6.5,-11 -6.5,-11z M-6,2 C-6,2.549999952316284 -6.449999809265137,3 -7,3 C-7.550000190734863,3 -8,2.549999952316284 -8,2 C-8,2 -8,0 -8,0 C-8,-0.550000011920929 -7.550000190734863,-1 -7,-1 C-6.449999809265137,-1 -6,-0.550000011920929 -6,0 C-6,0 -6,2 -6,2z M-2.5,2 C-2.5,2.549999952316284 -2.950000047683716,3 -3.5,3 C-4.050000190734863,3 -4.5,2.549999952316284 -4.5,2 C-4.5,2 -4.5,-4 -4.5,-4 C-4.5,-4.550000190734863 -4.050000190734863,-5 -3.5,-5 C-2.950000047683716,-5 -2.5,-4.550000190734863 -2.5,-4 C-2.5,-4 -2.5,2 -2.5,2z M1,2 C1,2.549999952316284 0.550000011920929,3 0,3 C-0.550000011920929,3 -1,2.549999952316284 -1,2 C-1,2 -1,-2 -1,-2 C-1,-2.549999952316284 -0.550000011920929,-3 0,-3 C0.550000011920929,-3 1,-2.549999952316284 1,-2 C1,-2 1,2 1,2z"/></g></g></g></g></svg>