<svg xmlns="http://www.w3.org/2000/svg" xmlns:xlink="http://www.w3.org/1999/xlink" viewBox="0 0 500 500" width="500" height="500" preserveAspectRatio="xMidYMid meet" style="width: 100%; height: 100%; transform: translate3d(0px, 0px, 0px); content-visibility: visible;"><defs><clipPath id="__lottie_element_1831"><rect width="500" height="500" x="0" y="0"/></clipPath><clipPath id="__lottie_element_1833"><path d="M0,0 L500,0 L500,500 L0,500z"/></clipPath></defs><g clip-path="url(#__lottie_element_1831)"><g clip-path="url(#__lottie_element_1833)" transform="matrix(1,0,0,1,0,0)" opacity="1" style="display: block;"><g class="primary design" transform="matrix(20.829999923706055,0,0,20.829999923706055,-4957.498046875,-4957.498046875)" opacity="1" style="display: block;"><g opacity="1" transform="matrix(1,0,0,1,0,0)"><g opacity="1" transform="matrix(1,0,0,1,250,250)"><path class="primary" fill="rgb(18,19,49)" fill-opacity="1" d=" M6.25,-9.010000228881836 C6.25,-9.010000228881836 4,-9.010000228881836 4,-9.010000228881836 C4,-9.010000228881836 4,-9.25 4,-9.25 C4,-9.65999984741211 3.6600000858306885,-10 3.25,-10 C3.25,-10 -3.25,-10 -3.25,-10 C-3.6600000858306885,-10 -4,-9.65999984741211 -4,-9.25 C-4,-9.25 -4,-9.010000228881836 -4,-9.010000228881836 C-4,-9.010000228881836 -6.25,-9.010000228881836 -6.25,-9.010000228881836 C-7.210000038146973,-9.010000228881836 -8,-8.229999542236328 -8,-7.260000228881836 C-8,-7.260000228881836 -8,8.25 -8,8.25 C-8,9.210000038146973 -7.210000038146973,10 -6.25,10 C-6.25,10 6.25,10 6.25,10 C7.210000038146973,10 8,9.210000038146973 8,8.25 C8,8.25 8,-7.260000228881836 8,-7.260000228881836 C8,-8.229999542236328 7.210000038146973,-9.010000228881836 6.25,-9.010000228881836z M-2.5,-8.5 C-2.5,-8.5 2.5,-8.5 2.5,-8.5 C2.5,-8.5 2.5,-7.510000228881836 2.5,-7.510000228881836 C2.5,-7.510000228881836 2.5,-6.5 2.5,-6.5 C2.5,-6.5 -2.5,-6.5 -2.5,-6.5 C-2.5,-6.5 -2.5,-7.510000228881836 -2.5,-7.510000228881836 C-2.5,-7.510000228881836 -2.5,-8.5 -2.5,-8.5z M6.5,8.25 C6.5,8.390000343322754 6.389999866485596,8.5 6.25,8.5 C6.25,8.5 -6.25,8.5 -6.25,8.5 C-6.389999866485596,8.5 -6.5,8.390000343322754 -6.5,8.25 C-6.5,8.25 -6.5,-7.260000228881836 -6.5,-7.260000228881836 C-6.5,-7.400000095367432 -6.389999866485596,-7.510000228881836 -6.25,-7.510000228881836 C-6.25,-7.510000228881836 -4,-7.510000228881836 -4,-7.510000228881836 C-4,-7.510000228881836 -4,-5.75 -4,-5.75 C-4,-5.329999923706055 -3.6600000858306885,-5 -3.25,-5 C-3.25,-5 3.25,-5 3.25,-5 C3.6600000858306885,-5 4,-5.329999923706055 4,-5.75 C4,-5.75 4,-7.510000228881836 4,-7.510000228881836 C4,-7.510000228881836 6.25,-7.510000228881836 6.25,-7.510000228881836 C6.389999866485596,-7.510000228881836 6.5,-7.400000095367432 6.5,-7.260000228881836 C6.5,-7.260000228881836 6.5,8.25 6.5,8.25z"/></g><g opacity="1" transform="matrix(1,0,0,1,246.75,254.5)"><path class="primary" fill="rgb(18,19,49)" fill-opacity="1" d=" M0,-2.5 C-0.4099999964237213,-2.5 -0.75,-2.1600000858306885 -0.75,-1.75 C-0.75,-1.75 -0.75,1.75 -0.75,1.75 C-0.75,2.1700000762939453 -0.4099999964237213,2.5 0,2.5 C0.4099999964237213,2.5 0.75,2.1600000858306885 0.75,1.75 C0.75,1.75 0.75,-1.75 0.75,-1.75 C0.75,-2.1600000858306885 0.41999998688697815,-2.5 0,-2.5z"/></g><g opacity="1" transform="matrix(1,0,0,1,253.25,253.4949951171875)"><path class="primary" fill="rgb(18,19,49)" fill-opacity="1" d=" M0,-3.505000114440918 C-0.4099999964237213,-3.505000114440918 -0.75,-3.1649999618530273 -0.75,-2.755000114440918 C-0.75,-2.755000114440918 -0.75,2.755000114440918 -0.75,2.755000114440918 C-0.75,3.1649999618530273 -0.4099999964237213,3.505000114440918 0,3.505000114440918 C0.4099999964237213,3.505000114440918 0.75,3.174999952316284 0.75,2.755000114440918 C0.75,2.755000114440918 0.75,-2.755000114440918 0.75,-2.755000114440918 C0.75,-3.1649999618530273 0.4099999964237213,-3.505000114440918 0,-3.505000114440918z"/></g><g opacity="1" transform="matrix(1,0,0,1,249.97999572753906,252)"><path class="primary" fill="rgb(18,19,49)" fill-opacity="1" d=" M0,-5 C-0.4099999964237213,-5 -0.75,-4.659999847412109 -0.75,-4.25 C-0.75,-4.25 -0.75,4.25 -0.75,4.25 C-0.75,4.659999847412109 -0.4099999964237213,5 0,5 C0.4099999964237213,5 0.75,4.659999847412109 0.75,4.25 C0.75,4.25 0.75,-4.25 0.75,-4.25 C0.75,-4.670000076293945 0.41999998688697815,-5 0,-5z"/></g></g></g><g class="primary design" transform="matrix(20.829999923706055,0,0,20.829999923706055,-4957.498046875,-4957.498046875)" opacity="1" style="display: none;"><g opacity="1" transform="matrix(1,0,0,1,0,0)"><g opacity="1" transform="matrix(1,0,0,1,250,250)"><path class="primary" fill="rgb(18,19,49)" fill-opacity="1" d=" M6.25,-9.010000228881836 C6.25,-9.010000228881836 4,-9.010000228881836 4,-9.010000228881836 C4,-9.010000228881836 4,-9.25 4,-9.25 C4,-9.65999984741211 3.6600000858306885,-10 3.25,-10 C3.25,-10 -3.25,-10 -3.25,-10 C-3.6600000858306885,-10 -4,-9.65999984741211 -4,-9.25 C-4,-9.25 -4,-9.010000228881836 -4,-9.010000228881836 C-4,-9.010000228881836 -6.25,-9.010000228881836 -6.25,-9.010000228881836 C-7.210000038146973,-9.010000228881836 -8,-8.229999542236328 -8,-7.260000228881836 C-8,-7.260000228881836 -8,8.25 -8,8.25 C-8,9.210000038146973 -7.210000038146973,10 -6.25,10 C-6.25,10 6.25,10 6.25,10 C7.210000038146973,10 8,9.210000038146973 8,8.25 C8,8.25 8,-7.260000228881836 8,-7.260000228881836 C8,-8.229999542236328 7.210000038146973,-9.010000228881836 6.25,-9.010000228881836z M-2.5,-8.5 C-2.5,-8.5 2.5,-8.5 2.5,-8.5 C2.5,-8.5 2.5,-7.510000228881836 2.5,-7.510000228881836 C2.5,-7.510000228881836 2.5,-6.5 2.5,-6.5 C2.5,-6.5 -2.5,-6.5 -2.5,-6.5 C-2.5,-6.5 -2.5,-7.510000228881836 -2.5,-7.510000228881836 C-2.5,-7.510000228881836 -2.5,-8.5 -2.5,-8.5z M6.5,8.25 C6.5,8.390000343322754 6.389999866485596,8.5 6.25,8.5 C6.25,8.5 -6.25,8.5 -6.25,8.5 C-6.389999866485596,8.5 -6.5,8.390000343322754 -6.5,8.25 C-6.5,8.25 -6.5,-7.260000228881836 -6.5,-7.260000228881836 C-6.5,-7.400000095367432 -6.389999866485596,-7.510000228881836 -6.25,-7.510000228881836 C-6.25,-7.510000228881836 -4,-7.510000228881836 -4,-7.510000228881836 C-4,-7.510000228881836 -4,-5.75 -4,-5.75 C-4,-5.329999923706055 -3.6600000858306885,-5 -3.25,-5 C-3.25,-5 3.25,-5 3.25,-5 C3.6600000858306885,-5 4,-5.329999923706055 4,-5.75 C4,-5.75 4,-7.510000228881836 4,-7.510000228881836 C4,-7.510000228881836 6.25,-7.510000228881836 6.25,-7.510000228881836 C6.389999866485596,-7.510000228881836 6.5,-7.400000095367432 6.5,-7.260000228881836 C6.5,-7.260000228881836 6.5,8.25 6.5,8.25z"/></g><g opacity="1" transform="matrix(1,0,0,1,246.75,254.5)"><path class="primary" fill="rgb(18,19,49)" fill-opacity="1" d=" M0,-2.5 C-0.4099999964237213,-2.5 -0.75,-2.1600000858306885 -0.75,-1.75 C-0.75,-1.75 -0.75,1.75 -0.75,1.75 C-0.75,2.1700000762939453 -0.4099999964237213,2.5 0,2.5 C0.4099999964237213,2.5 0.75,2.1600000858306885 0.75,1.75 C0.75,1.75 0.75,-1.75 0.75,-1.75 C0.75,-2.1600000858306885 0.41999998688697815,-2.5 0,-2.5z"/></g><g opacity="1" transform="matrix(1,0,0,1,253.25,253.4949951171875)"><path class="primary" fill="rgb(18,19,49)" fill-opacity="1" d=" M0,-3.505000114440918 C-0.4099999964237213,-3.505000114440918 -0.75,-3.1649999618530273 -0.75,-2.755000114440918 C-0.75,-2.755000114440918 -0.75,2.755000114440918 -0.75,2.755000114440918 C-0.75,3.1649999618530273 -0.4099999964237213,3.505000114440918 0,3.505000114440918 C0.4099999964237213,3.505000114440918 0.75,3.174999952316284 0.75,2.755000114440918 C0.75,2.755000114440918 0.75,-2.755000114440918 0.75,-2.755000114440918 C0.75,-3.1649999618530273 0.4099999964237213,-3.505000114440918 0,-3.505000114440918z"/></g><g opacity="1" transform="matrix(1,0,0,1,249.97999572753906,252)"><path class="primary" fill="rgb(18,19,49)" fill-opacity="1" d=" M0,-5 C-0.4099999964237213,-5 -0.75,-4.659999847412109 -0.75,-4.25 C-0.75,-4.25 -0.75,4.25 -0.75,4.25 C-0.75,4.659999847412109 -0.4099999964237213,5 0,5 C0.4099999964237213,5 0.75,4.659999847412109 0.75,4.25 C0.75,4.25 0.75,-4.25 0.75,-4.25 C0.75,-4.670000076293945 0.41999998688697815,-5 0,-5z"/></g></g></g><g class="primary design" transform="matrix(1,0,0,1,0,0)" opacity="1" style="display: none;"><g opacity="1" transform="matrix(1,0,0,1,250.00399780273438,94.02799987792969)"><path stroke-linecap="round" stroke-linejoin="round" fill-opacity="0" class="primary" stroke="rgb(18,19,49)" stroke-opacity="1" stroke-width="31.3" d=" M67.70600128173828,-15.916999816894531 C67.70600128173828,-15.916999816894531 130.21600341796875,-15.916999816894531 130.21600341796875,-15.916999816894531 C141.71600341796875,-15.916999816894531 151.04600524902344,-6.5970001220703125 151.04600524902344,4.913000106811523 C151.04600524902344,4.913000106811523 151.04600524902344,327.8429870605469 151.04600524902344,327.8429870605469 C151.04600524902344,339.3429870605469 141.71600341796875,348.6730041503906 130.21600341796875,348.6730041503906 C130.21600341796875,348.6730041503906 0.9959999918937683,348.6730041503906 0.9959999918937683,348.6730041503906 M1.215999960899353,348.6940002441406 C1.215999960899353,348.6940002441406 -130.21400451660156,348.6730041503906 -130.21400451660156,348.6730041503906 C-141.71400451660156,348.6730041503906 -151.04400634765625,339.3429870605469 -151.04400634765625,327.8429870605469 C-151.04400634765625,327.8429870605469 -151.04400634765625,4.913000106811523 -151.04400634765625,4.913000106811523 C-151.04400634765625,-6.5970001220703125 -141.71400451660156,-15.916999816894531 -130.21400451660156,-15.916999816894531 C-130.21400451660156,-15.916999816894531 -67.71399688720703,-15.916999816894531 -67.71399688720703,-15.916999816894531 M67.70899963378906,36.45899963378906 C67.70899963378906,36.45899963378906 -67.70899963378906,36.45899963378906 -67.70899963378906,36.45899963378906 C-67.70899963378906,36.45899963378906 -67.70899963378906,-36.45899963378906 -67.70899963378906,-36.45899963378906 C-67.70899963378906,-36.45899963378906 67.70899963378906,-36.45899963378906 67.70899963378906,-36.45899963378906 C67.70899963378906,-36.45899963378906 67.70899963378906,36.45899963378906 67.70899963378906,36.45899963378906z"/></g></g><g class="primary design" transform="matrix(1,0,0,1,0,0)" opacity="1" style="display: none;"><g opacity="1" transform="matrix(1,0,0,1,249.67799377441406,291.7550048828125)"><path stroke-linecap="round" stroke-linejoin="round" fill-opacity="0" class="primary" stroke="rgb(18,19,49)" stroke-opacity="1" stroke-width="31.3" d=" M-67.28500366210938,88.54199981689453 C-67.28500366210938,88.54199981689453 -67.28500366210938,15.625 -67.28500366210938,15.625 M67.9729995727539,88.54199981689453 C67.9729995727539,88.54199981689453 67.9729995727539,-26.21500015258789 67.9729995727539,-26.21500015258789 M0,88.54199981689453 C0,88.54199981689453 0,-88.54199981689453 0,-88.54199981689453"/></g></g></g></g></svg>