<svg xmlns="http://www.w3.org/2000/svg" xmlns:xlink="http://www.w3.org/1999/xlink" viewBox="0 0 144 144" width="144" height="144" preserveAspectRatio="xMidYMid meet" style="width: 100%; height: 100%; transform: translate3d(0px, 0px, 0px); content-visibility: visible;"><defs><clipPath id="__lottie_element_1932"><rect width="144" height="144" x="0" y="0"/></clipPath><clipPath id="__lottie_element_1934"><path d="M0,0 L144,0 L144,144 L0,144z"/></clipPath></defs><g clip-path="url(#__lottie_element_1932)"><g clip-path="url(#__lottie_element_1934)" transform="matrix(1,0,0,1,0,0)" opacity="1" style="display: block;"><g transform="matrix(1,0,0,1,102,102)" opacity="1" style="display: none;"><g opacity="1" transform="matrix(1,0,0,1,0,0)"><path stroke-linecap="round" stroke-linejoin="round" fill-opacity="0" class="primary" stroke="rgb(18,19,49)" stroke-opacity="1" stroke-width="9" d=" M3.752758264541626,0 C3.752758264541626,0 3.752758264541626,0 3.752758264541626,0 C3.752758264541626,2.0711472034454346 2.0711472034454346,3.752758264541626 0,3.752758264541626 C0,3.752758264541626 0,3.752758264541626 0,3.752758264541626 C-2.0711472034454346,3.752758264541626 -3.752758264541626,2.0711472034454346 -3.752758264541626,0 C-3.752758264541626,0 -3.752758264541626,0 -3.752758264541626,0 C-3.752758264541626,-2.0711472034454346 -2.0711472034454346,-3.752758264541626 0,-3.752758264541626 C0,-3.752758264541626 0,-3.752758264541626 0,-3.752758264541626 C2.0711472034454346,-3.752758264541626 3.752758264541626,-2.0711472034454346 3.752758264541626,0z"/></g></g><g transform="matrix(1,0,0,1,42,102)" opacity="1" style="display: none;"><g opacity="1" transform="matrix(1,0,0,1,0,0)"><path stroke-linecap="round" stroke-linejoin="round" fill-opacity="0" class="primary" stroke="rgb(18,19,49)" stroke-opacity="1" stroke-width="9" d=" M3.7721261978149414,0 C3.7721261978149414,0 3.7721261978149414,0 3.7721261978149414,0 C3.7721261978149414,2.081836462020874 2.081836462020874,3.7721261978149414 0,3.7721261978149414 C0,3.7721261978149414 0,3.7721261978149414 0,3.7721261978149414 C-2.081836462020874,3.7721261978149414 -3.7721261978149414,2.081836462020874 -3.7721261978149414,0 C-3.7721261978149414,0 -3.7721261978149414,0 -3.7721261978149414,0 C-3.7721261978149414,-2.081836462020874 -2.081836462020874,-3.7721261978149414 0,-3.7721261978149414 C0,-3.7721261978149414 0,-3.7721261978149414 0,-3.7721261978149414 C2.081836462020874,-3.7721261978149414 3.7721261978149414,-2.081836462020874 3.7721261978149414,0z"/></g></g><g transform="matrix(1,0,0,1,102,42)" opacity="1" style="display: none;"><g opacity="1" transform="matrix(1,0,0,1,0,0)"><path stroke-linecap="round" stroke-linejoin="round" fill-opacity="0" class="primary" stroke="rgb(18,19,49)" stroke-opacity="1" stroke-width="9" d=" M3.8381199836730957,0 C3.8381199836730957,0 3.8381199836730957,0 3.8381199836730957,0 C3.8381199836730957,2.118258476257324 2.118258476257324,3.8381199836730957 0,3.8381199836730957 C0,3.8381199836730957 0,3.8381199836730957 0,3.8381199836730957 C-2.118258476257324,3.8381199836730957 -3.8381199836730957,2.118258476257324 -3.8381199836730957,0 C-3.8381199836730957,0 -3.8381199836730957,0 -3.8381199836730957,0 C-3.8381199836730957,-2.118258476257324 -2.118258476257324,-3.8381199836730957 0,-3.8381199836730957 C0,-3.8381199836730957 0,-3.8381199836730957 0,-3.8381199836730957 C2.118258476257324,-3.8381199836730957 3.8381199836730957,-2.118258476257324 3.8381199836730957,0z"/></g></g><g transform="matrix(1,0,0,1,42,42)" opacity="1" style="display: none;"><g opacity="1" transform="matrix(1,0,0,1,0,0)"><path stroke-linecap="round" stroke-linejoin="round" fill-opacity="0" class="primary" stroke="rgb(18,19,49)" stroke-opacity="1" stroke-width="9" d=" M3.880934000015259,0 C3.880934000015259,0 3.880934000015259,0 3.880934000015259,0 C3.880934000015259,2.1418874263763428 2.1418874263763428,3.880934000015259 0,3.880934000015259 C0,3.880934000015259 0,3.880934000015259 0,3.880934000015259 C-2.1418874263763428,3.880934000015259 -3.880934000015259,2.1418874263763428 -3.880934000015259,0 C-3.880934000015259,0 -3.880934000015259,0 -3.880934000015259,0 C-3.880934000015259,-2.1418874263763428 -2.1418874263763428,-3.880934000015259 0,-3.880934000015259 C0,-3.880934000015259 0,-3.880934000015259 0,-3.880934000015259 C2.1418874263763428,-3.880934000015259 3.880934000015259,-2.1418874263763428 3.880934000015259,0z"/></g></g><g transform="matrix(1,0,0,1,102,102)" opacity="1" style="display: block;"><g opacity="1" transform="matrix(1,0,0,1,0,0)"><path stroke-linecap="round" stroke-linejoin="round" fill-opacity="0" class="primary" stroke="rgb(18,19,49)" stroke-opacity="1" stroke-width="9" d=" M19.5,-19.5 C19.5,-19.5 19.5,19.5 19.5,19.5 C19.5,19.5 -19.5,19.5 -19.5,19.5 C-19.5,19.5 -19.5,-19.5 -19.5,-19.5 C-19.5,-19.5 19.5,-19.5 19.5,-19.5z"/></g></g><g transform="matrix(1,0,0,1,42,102)" opacity="1" style="display: block;"><g opacity="1" transform="matrix(1,0,0,1,0,0)"><path stroke-linecap="round" stroke-linejoin="round" fill-opacity="0" class="primary" stroke="rgb(18,19,49)" stroke-opacity="1" stroke-width="9" d=" M19.5,-19.5 C19.5,-19.5 19.5,19.5 19.5,19.5 C19.5,19.5 -19.5,19.5 -19.5,19.5 C-19.5,19.5 -19.5,-19.5 -19.5,-19.5 C-19.5,-19.5 19.5,-19.5 19.5,-19.5z"/></g></g><g transform="matrix(1,0,0,1,102,42)" opacity="1" style="display: block;"><g opacity="1" transform="matrix(1,0,0,1,0,0)"><path stroke-linecap="round" stroke-linejoin="round" fill-opacity="0" class="primary" stroke="rgb(18,19,49)" stroke-opacity="1" stroke-width="9" d=" M19.5,-19.5 C19.5,-19.5 19.5,19.5 19.5,19.5 C19.5,19.5 -19.5,19.5 -19.5,19.5 C-19.5,19.5 -19.5,-19.5 -19.5,-19.5 C-19.5,-19.5 19.5,-19.5 19.5,-19.5z"/></g></g><g transform="matrix(1,0,0,1,42,42)" opacity="1" style="display: block;"><g opacity="1" transform="matrix(1,0,0,1,0,0)"><path stroke-linecap="round" stroke-linejoin="round" fill-opacity="0" class="primary" stroke="rgb(18,19,49)" stroke-opacity="1" stroke-width="9" d=" M19.5,-19.5 C19.5,-19.5 19.5,19.5 19.5,19.5 C19.5,19.5 -19.5,19.5 -19.5,19.5 C-19.5,19.5 -19.5,-19.5 -19.5,-19.5 C-19.5,-19.5 19.5,-19.5 19.5,-19.5z"/></g></g></g></g></svg>