<svg xmlns="http://www.w3.org/2000/svg" xmlns:xlink="http://www.w3.org/1999/xlink" viewBox="0 0 144 144" width="144" height="144" preserveAspectRatio="xMidYMid meet" style="width: 100%; height: 100%; transform: translate3d(0px, 0px, 0px); content-visibility: visible;"><defs><clipPath id="__lottie_element_2149"><rect width="144" height="144" x="0" y="0"/></clipPath><clipPath id="__lottie_element_2151"><path d="M0,0 L144,0 L144,144 L0,144z"/></clipPath></defs><g clip-path="url(#__lottie_element_2149)"><g clip-path="url(#__lottie_element_2151)" transform="matrix(1,0,0,1,0,0)" opacity="1" style="display: block;"><g transform="matrix(1,0,0,1,102,102)" opacity="1" style="display: none;"><g opacity="1" transform="matrix(1,0,0,1,0,0)"><path class="primary" fill="rgb(18,19,49)" fill-opacity="1" d=" M0.8197470307350159,0 C0.8197470307350159,0 0.8197470307350159,0 0.8197470307350159,0 C0.8197470307350159,0.45241838693618774 0.45241838693618774,0.8197470307350159 0,0.8197470307350159 C0,0.8197470307350159 0,0.8197470307350159 0,0.8197470307350159 C-0.45241838693618774,0.8197470307350159 -0.8197470307350159,0.45241838693618774 -0.8197470307350159,0 C-0.8197470307350159,0 -0.8197470307350159,0 -0.8197470307350159,0 C-0.8197470307350159,-0.45241838693618774 -0.45241838693618774,-0.8197470307350159 0,-0.8197470307350159 C0,-0.8197470307350159 0,-0.8197470307350159 0,-0.8197470307350159 C0.45241838693618774,-0.8197470307350159 0.8197470307350159,-0.45241838693618774 0.8197470307350159,0z"/></g></g><g transform="matrix(1,0,0,1,42,102)" opacity="1" style="display: none;"><g opacity="1" transform="matrix(1,0,0,1,0,0)"><path class="primary" fill="rgb(18,19,49)" fill-opacity="1" d=" M0.8469678163528442,0 C0.8469678163528442,0 0.8469678163528442,0 0.8469678163528442,0 C0.8469678163528442,0.46744152903556824 0.46744152903556824,0.8469678163528442 0,0.8469678163528442 C0,0.8469678163528442 0,0.8469678163528442 0,0.8469678163528442 C-0.46744152903556824,0.8469678163528442 -0.8469678163528442,0.46744152903556824 -0.8469678163528442,0 C-0.8469678163528442,0 -0.8469678163528442,0 -0.8469678163528442,0 C-0.8469678163528442,-0.46744152903556824 -0.46744152903556824,-0.8469678163528442 0,-0.8469678163528442 C0,-0.8469678163528442 0,-0.8469678163528442 0,-0.8469678163528442 C0.46744152903556824,-0.8469678163528442 0.8469678163528442,-0.46744152903556824 0.8469678163528442,0z"/></g></g><g transform="matrix(1,0,0,1,102,42)" opacity="1" style="display: none;"><g opacity="1" transform="matrix(1,0,0,1,0,0)"><path class="primary" fill="rgb(18,19,49)" fill-opacity="1" d=" M0.8820624947547913,0 C0.8820624947547913,0 0.8820624947547913,0 0.8820624947547913,0 C0.8820624947547913,0.4868102967739105 0.4868102967739105,0.8820624947547913 0,0.8820624947547913 C0,0.8820624947547913 0,0.8820624947547913 0,0.8820624947547913 C-0.4868102967739105,0.8820624947547913 -0.8820624947547913,0.4868102967739105 -0.8820624947547913,0 C-0.8820624947547913,0 -0.8820624947547913,0 -0.8820624947547913,0 C-0.8820624947547913,-0.4868102967739105 -0.4868102967739105,-0.8820624947547913 0,-0.8820624947547913 C0,-0.8820624947547913 0,-0.8820624947547913 0,-0.8820624947547913 C0.4868102967739105,-0.8820624947547913 0.8820624947547913,-0.4868102967739105 0.8820624947547913,0z"/></g></g><g transform="matrix(1,0,0,1,42,42)" opacity="1" style="display: none;"><g opacity="1" transform="matrix(1,0,0,1,0,0)"><path class="primary" fill="rgb(18,19,49)" fill-opacity="1" d=" M0.9099921584129333,0 C0.9099921584129333,0 0.9099921584129333,0 0.9099921584129333,0 C0.9099921584129333,0.5022246837615967 0.5022246837615967,0.9099921584129333 0,0.9099921584129333 C0,0.9099921584129333 0,0.9099921584129333 0,0.9099921584129333 C-0.5022246837615967,0.9099921584129333 -0.9099921584129333,0.5022246837615967 -0.9099921584129333,0 C-0.9099921584129333,0 -0.9099921584129333,0 -0.9099921584129333,0 C-0.9099921584129333,-0.5022246837615967 -0.5022246837615967,-0.9099921584129333 0,-0.9099921584129333 C0,-0.9099921584129333 0,-0.9099921584129333 0,-0.9099921584129333 C0.5022246837615967,-0.9099921584129333 0.9099921584129333,-0.5022246837615967 0.9099921584129333,0z"/></g></g><g transform="matrix(1,0,0,1,102,102)" opacity="1" style="display: block;"><g opacity="1" transform="matrix(1,0,0,1,0,0)"><path class="primary" fill="rgb(18,19,49)" fill-opacity="1" d=" M24,-19.5 C24,-19.5 24,19.5 24,19.5 C24,21.983549118041992 21.983549118041992,24 19.5,24 C19.5,24 -19.5,24 -19.5,24 C-21.983549118041992,24 -24,21.983549118041992 -24,19.5 C-24,19.5 -24,-19.5 -24,-19.5 C-24,-21.983549118041992 -21.983549118041992,-24 -19.5,-24 C-19.5,-24 19.5,-24 19.5,-24 C21.983549118041992,-24 24,-21.983549118041992 24,-19.5z"/></g></g><g transform="matrix(1,0,0,1,42,102)" opacity="1" style="display: block;"><g opacity="1" transform="matrix(1,0,0,1,0,0)"><path class="primary" fill="rgb(18,19,49)" fill-opacity="1" d=" M24,-19.5 C24,-19.5 24,19.5 24,19.5 C24,21.983549118041992 21.983549118041992,24 19.5,24 C19.5,24 -19.5,24 -19.5,24 C-21.983549118041992,24 -24,21.983549118041992 -24,19.5 C-24,19.5 -24,-19.5 -24,-19.5 C-24,-21.983549118041992 -21.983549118041992,-24 -19.5,-24 C-19.5,-24 19.5,-24 19.5,-24 C21.983549118041992,-24 24,-21.983549118041992 24,-19.5z"/></g></g><g transform="matrix(1,0,0,1,102,42)" opacity="1" style="display: block;"><g opacity="1" transform="matrix(1,0,0,1,0,0)"><path class="primary" fill="rgb(18,19,49)" fill-opacity="1" d=" M24,-19.5 C24,-19.5 24,19.5 24,19.5 C24,21.983549118041992 21.983549118041992,24 19.5,24 C19.5,24 -19.5,24 -19.5,24 C-21.983549118041992,24 -24,21.983549118041992 -24,19.5 C-24,19.5 -24,-19.5 -24,-19.5 C-24,-21.983549118041992 -21.983549118041992,-24 -19.5,-24 C-19.5,-24 19.5,-24 19.5,-24 C21.983549118041992,-24 24,-21.983549118041992 24,-19.5z"/></g></g><g transform="matrix(1,0,0,1,42,42)" opacity="1" style="display: block;"><g opacity="1" transform="matrix(1,0,0,1,0,0)"><path class="primary" fill="rgb(18,19,49)" fill-opacity="1" d=" M24,-19.5 C24,-19.5 24,19.5 24,19.5 C24,21.983549118041992 21.983549118041992,24 19.5,24 C19.5,24 -19.5,24 -19.5,24 C-21.983549118041992,24 -24,21.983549118041992 -24,19.5 C-24,19.5 -24,-19.5 -24,-19.5 C-24,-21.983549118041992 -21.983549118041992,-24 -19.5,-24 C-19.5,-24 19.5,-24 19.5,-24 C21.983549118041992,-24 24,-21.983549118041992 24,-19.5z"/></g></g></g></g></svg>