<svg xmlns="http://www.w3.org/2000/svg" xmlns:xlink="http://www.w3.org/1999/xlink" viewBox="0 0 430 430" width="430" height="430" preserveAspectRatio="xMidYMid meet" style="width: 100%; height: 100%; transform: translate3d(0px, 0px, 0px); content-visibility: visible;"><defs><clipPath id="__lottie_element_292"><rect width="430" height="430" x="0" y="0"/></clipPath><clipPath id="__lottie_element_294"><path d="M0,0 L430,0 L430,430 L0,430z"/></clipPath></defs><g clip-path="url(#__lottie_element_292)"><g clip-path="url(#__lottie_element_294)" transform="matrix(1,0,0,1,0,0)" opacity="1" style="display: block;"><g transform="matrix(1,0,0,1,-35,-35)" opacity="1" style="display: block;"><g opacity="1" transform="matrix(1,0,0,1,250.031005859375,287.677001953125)"><path class="primary" fill="rgb(235,230,238)" fill-opacity="1" d=" M160.0590057373047,34.084999084472656 C160.0590057373047,34.084999084472656 149.1750030517578,41.084999084472656 149.1750030517578,41.084999084472656 C149.1750030517578,41.084999084472656 83.03399658203125,41.084999084472656 83.03399658203125,41.084999084472656 C79.1050033569336,55.025001525878906 70.86599731445312,66.875 59.99800109863281,75.33499908447266 C48.66999816894531,84.16500091552734 34.472999572753906,89.31500244140625 19.31599998474121,89.31500244140625 C19.31599998474121,89.31500244140625 -17.03700065612793,89.31500244140625 -17.03700065612793,89.31500244140625 C-46.74100112915039,89.31500244140625 -72.73600006103516,69.54499816894531 -80.75499725341797,41.084999084472656 C-80.75499725341797,41.084999084472656 -149.1230010986328,41.084999084472656 -149.1230010986328,41.084999084472656 C-149.1230010986328,41.084999084472656 -160.0590057373047,34.084999084472656 -160.0590057373047,34.084999084472656 C-160.0590057373047,34.084999084472656 -86.2229995727539,-80.17500305175781 -86.2229995727539,-80.17500305175781 C-82.53399658203125,-85.875 -76.21600341796875,-89.31500244140625 -69.427001953125,-89.31500244140625 C-69.427001953125,-89.31500244140625 69.427001953125,-89.31500244140625 69.427001953125,-89.31500244140625 C76.21499633789062,-89.31500244140625 82.53399658203125,-85.875 86.2229995727539,-80.17500305175781 C86.2229995727539,-80.17500305175781 160.0590057373047,34.084999084472656 160.0590057373047,34.084999084472656z"/><path class="primary" fill="rgb(235,230,238)" fill-opacity="0.6" d=" M160.0590057373047,34.084999084472656 C160.0590057373047,34.084999084472656 149.1750030517578,41.084999084472656 149.1750030517578,41.084999084472656 C149.1750030517578,41.084999084472656 83.03399658203125,41.084999084472656 83.03399658203125,41.084999084472656 C79.1050033569336,55.025001525878906 70.86599731445312,66.875 59.99800109863281,75.33499908447266 C48.66999816894531,84.16500091552734 34.472999572753906,89.31500244140625 19.31599998474121,89.31500244140625 C19.31599998474121,89.31500244140625 -17.03700065612793,89.31500244140625 -17.03700065612793,89.31500244140625 C-46.74100112915039,89.31500244140625 -72.73600006103516,69.54499816894531 -80.75499725341797,41.084999084472656 C-80.75499725341797,41.084999084472656 -149.1230010986328,41.084999084472656 -149.1230010986328,41.084999084472656 C-149.1230010986328,41.084999084472656 -160.0590057373047,34.084999084472656 -160.0590057373047,34.084999084472656 C-160.0590057373047,34.084999084472656 -86.2229995727539,-80.17500305175781 -86.2229995727539,-80.17500305175781 C-82.53399658203125,-85.875 -76.21600341796875,-89.31500244140625 -69.427001953125,-89.31500244140625 C-69.427001953125,-89.31500244140625 69.427001953125,-89.31500244140625 69.427001953125,-89.31500244140625 C76.21499633789062,-89.31500244140625 82.53399658203125,-85.875 86.2229995727539,-80.17500305175781 C86.2229995727539,-80.17500305175781 160.0590057373047,34.084999084472656 160.0590057373047,34.084999084472656z" style="mix-blend-mode: multiply;"/></g><g opacity="1" transform="matrix(1,0,0,1,250,364.45001220703125)"><path class="primary" fill="rgb(235,230,238)" fill-opacity="1" d=" M160.08999633789062,-42.68000030517578 C160.0800018310547,-38.43000030517578 160.05999755859375,-22.190000534057617 160.02999877929688,-3.069999933242798 C160.02999877929688,-3.069999933242798 160.02999877929688,2.680000066757202 160.02999877929688,2.680000066757202 C160,24.760000228881836 142.0500030517578,42.68000030517578 119.97000122070312,42.68000030517578 C119.97000122070312,42.68000030517578 -120.1500015258789,42.68000030517578 -120.1500015258789,42.68000030517578 C-142.22999572753906,42.68000030517578 -160.1199951171875,24.760000228881836 -160.08999633789062,2.680000066757202 C-160.08999633789062,2.680000066757202 -160.0800018310547,-3.319999933242798 -160.0800018310547,-3.319999933242798 C-160.0500030517578,-22.219999313354492 -160.0399932861328,-38.2599983215332 -160.02999877929688,-42.68000030517578 C-160.02999877929688,-42.68000030517578 -80.7699966430664,-42.68000030517578 -80.7699966430664,-42.68000030517578 C-72.75,-14.220000267028809 -46.75,5.550000190734863 -17.040000915527344,5.550000190734863 C-17.040000915527344,5.550000190734863 19.31999969482422,5.550000190734863 19.31999969482422,5.550000190734863 C34.47999954223633,5.550000190734863 48.68000030517578,0.4000000059604645 60.0099983215332,-8.430000305175781 C70.87999725341797,-16.889999389648438 79.12000274658203,-28.739999771118164 83.05000305175781,-42.68000030517578 C83.05000305175781,-42.68000030517578 160.08999633789062,-42.68000030517578 160.08999633789062,-42.68000030517578z"/></g><g opacity="1" transform="matrix(1,0,0,1,250.031005859375,260.06201171875)"/><g opacity="1" transform="matrix(1,0,0,1,250,364.45001220703125)"/></g><g transform="matrix(-1,0,0,-1,464.9880065917969,380.45599365234375)" opacity="1" style="display: block;"><g opacity="1" transform="matrix(1,0,0,1,249.99400329589844,215.22999572753906)"><path class="secondary" fill="rgb(7,168,137)" fill-opacity="1" d=" M59.17760467529297,29.692811965942383 C59.17760467529297,29.692811965942383 5.108606338500977,100.52880859375 5.108606338500977,100.52880859375 C2.7166061401367188,103.66281127929688 -1.9973938465118408,103.67781066894531 -4.408393859863281,100.55780792236328 C-4.408393859863281,100.55780792236328 -59.161399841308594,29.71181869506836 -59.161399841308594,29.71181869506836 C-61.19340133666992,27.08281898498535 -59.32039260864258,23.265811920166016 -55.99739456176758,23.265811920166016 C-55.99739456176758,23.265811920166016 -30.718393325805664,23.265811920166016 -30.718393325805664,23.265811920166016 C-29.613393783569336,23.265811920166016 -28.718393325805664,22.370819091796875 -28.718393325805664,21.265817642211914 C-28.718393325805664,21.265817642211914 -28.68600082397461,-92.93000030517578 -28.68600082397461,-92.93000030517578 C-28.68600082397461,-98.4530029296875 -24.208999633789062,-102.93000030517578 -18.68600082397461,-102.93000030517578 C-18.68600082397461,-102.93000030517578 18.690000534057617,-102.93000030517578 18.690000534057617,-102.93000030517578 C24.21299934387207,-102.93000030517578 28.690000534057617,-98.4530029296875 28.690000534057617,-92.93000030517578 C28.690000534057617,-92.93000030517578 28.65760612487793,21.265817642211914 28.65760612487793,21.265817642211914 C28.65760612487793,22.370819091796875 29.5526065826416,23.265811920166016 30.65760612487793,23.265811920166016 C30.65760612487793,23.265811920166016 55.998600006103516,23.265811920166016 55.998600006103516,23.265811920166016 C59.31060028076172,23.265811920166016 61.186607360839844,27.059812545776367 59.17760467529297,29.692811965942383z"/></g><g opacity="0.5" transform="matrix(-1,0,0,1,279.8810119628906,215.21800231933594)" style="mix-blend-mode: multiply;"><path class="secondary" fill="rgb(7,168,137)" fill-opacity="1" d=" M29.98460578918457,102.87882232666016 C29.98460578918457,102.87882232666016 30.017000198364258,-102.91999816894531 30.017000198364258,-102.91999816894531 C30.017000198364258,-102.91999816894531 11.297992706298828,-102.91999816894531 11.297992706298828,-102.91999816894531 C5.777993202209473,-102.91999816894531 1.2979930639266968,-98.44000244140625 1.2979930639266968,-92.91999816894531 C1.2979930639266968,-92.91999816894531 1.2646061182022095,21.278812408447266 1.2646061182022095,21.278812408447266 C1.2646061182022095,22.37881088256836 0.3746061325073242,23.278812408447266 -0.7353938817977905,23.278812408447266 C-0.7353938817977905,23.278812408447266 -26.005393981933594,23.278812408447266 -26.005393981933594,23.278812408447266 C-29.33539390563965,23.278812408447266 -31.205394744873047,27.098812103271484 -29.17539405822754,29.728811264038086 C-29.17539405822754,29.728811264038086 25.584606170654297,100.56880950927734 25.584606170654297,100.56880950927734 C26.704607009887695,102.02880859375 28.32460594177246,102.79882049560547 29.98460578918457,102.87882232666016z"/></g><g opacity="1" transform="matrix(1,0,0,1,249.99400329589844,215.22999572753906)"/></g></g></g></svg>